<?xml version="1.0" standalone="no"?>
<!DOCTYPE svg PUBLIC "-//W3C//DTD SVG 20010904//EN" "http://www.w3.org/TR/2001/REC-SVG-20010904/DTD/svg10.dtd">
<svg xmlns="http://www.w3.org/2000/svg" version="1.0" width="200" height="200" viewBox="0 0 200.000000 200.000000" preserveAspectRatio="xMidYMid meet">
<metadata>
Created by potrace 1.16, written by Peter Selinger 2001-2019
</metadata>
<g transform="translate(0.000000,200.000000) scale(0.100000,-0.100000)" fill="#000000" stroke="none">
<path d="M873 1971 c-148 -40 -289 -131 -395 -254 -384 -446 -396 -1182 -26 -1533 213 -202 488 -229 751 -73 94 55 239 201 293 295 37 63 94 199 94 225 0 5 -26 9 -59 9 l-58 0 -18 -47 c-50 -133 -118 -246 -203 -335 -250 -263 -541 -159 -665 237 -38 122 -51 243 -44 418 9 224 51 395 141 575 157 313 398 438 599 310 58 -37 60 -59 8 -94 -73 -48 -121 -143 -121 -239 0 -155 106 -249 237 -210 68 20 117 65 154 140 28 58 31 71 28 142 -4 69 -8 86 -39 137 -75 126 -215 240 -350 286 -93 32 -232 36 -327 11z"/>
<path d="M937 1534 c-4 -4 -7 -268 -7 -586 0 -572 0 -578 20 -578 20 0 20 5 18 582 -3 559 -5 607 -31 582z"/>
<path d="M1022 1401 c-9 -6 -12 -107 -10 -442 3 -426 3 -434 23 -434 20 0 20 8 23 431 2 443 0 468 -36 445z"/>
<path d="M847 1373 c-10 -10 -8 -846 2 -862 5 -8 16 -11 25 -8 14 6 16 52 16 442 0 415 -1 435 -18 435 -10 0 -22 -3 -25 -7z"/>
<path d="M1176 1155 c-7 -19 -6 -493 1 -512 3 -7 14 -13 24 -13 18 0 19 12 19 270 0 258 -1 270 -19 270 -10 0 -22 -7 -25 -15z"/>
<path d="M1097 1113 c-10 -10 -8 -396 2 -412 5 -8 16 -11 25 -8 14 6 16 33 16 217 0 197 -1 210 -18 210 -10 0 -22 -3 -25 -7z"/>
<path d="M765 1098 c-3 -8 -4 -95 -3 -193 3 -172 4 -180 23 -180 19 0 20 7 20 190 0 173 -2 190 -18 193 -9 2 -19 -3 -22 -10z"/>
<path d="M1267 1103 c-4 -3 -7 -86 -7 -183 0 -143 3 -180 15 -190 30 -25 35 0 35 191 0 177 -1 189 -18 189 -10 0 -22 -3 -25 -7z"/>
<path d="M1430 944 c0 -124 0 -125 23 -122 24 3 23 -6 18 226 -1 15 -7 22 -21 22 -19 0 -20 -7 -20 -126z"/>
<path d="M680 965 c0 -76 2 -85 19 -85 15 0 19 11 25 68 8 78 2 102 -25 102 -17 0 -19 -8 -19 -85z"/>
<path d="M1350 944 c0 -83 1 -85 23 -82 20 3 22 10 25 63 4 78 -3 105 -28 105 -18 0 -20 -7 -20 -86z"/>
<path d="M1520 915 c0 -94 1 -96 23 -93 21 3 22 7 22 93 0 86 -1 90 -22 93 -22 3 -23 1 -23 -93z"/>
<path d="M1612 968 c-17 -17 -15 -53 3 -68 22 -19 37 0 33 40 -3 37 -17 47 -36 28z"/>
<path d="M1694 967 c-3 -8 -4 -30 -2 -49 2 -25 8 -33 23 -33 17 0 20 7 20 45 0 35 -4 45 -18 48 -9 2 -20 -3 -23 -11z"/>
<path d="M1772 933 c2 -17 9 -28 18 -28 9 0 16 11 18 28 3 22 -1 27 -18 27 -17 0 -21 -5 -18 -27z"/>
</g>
</svg>