<?xml version="1.0" encoding="UTF-8" standalone="no"?>
<!-- Created with Inkscape (http://www.inkscape.org/) -->

<svg
   xmlns:dc="http://purl.org/dc/elements/1.1/"
   xmlns:cc="http://creativecommons.org/ns#"
   xmlns:rdf="http://www.w3.org/1999/02/22-rdf-syntax-ns#"
   xmlns:svg="http://www.w3.org/2000/svg"
   xmlns="http://www.w3.org/2000/svg"
   xmlns:xlink="http://www.w3.org/1999/xlink"
   xmlns:sodipodi="http://sodipodi.sourceforge.net/DTD/sodipodi-0.dtd"
   xmlns:inkscape="http://www.inkscape.org/namespaces/inkscape"
   id="svg2"
   sodipodi:docname="filmreel.svg"
   viewBox="0 0 1024 1024"
   sodipodi:version="0.32"
   version="1.0"
   inkscape:output_extension="org.inkscape.output.svg.inkscape"
   inkscape:version="0.91 r13725"
   width="1024"
   height="1024"
   inkscape:export-filename="/Users/luisfelipe/Desktop/icon.png"
   inkscape:export-xdpi="90"
   inkscape:export-ydpi="90">
  <defs
     id="defs5">
    <linearGradient
       id="linearGradient2479">
      <stop
         id="stop2481"
         style="stop-color:#c8beb7"
         offset="0" />
      <stop
         id="stop2483"
         style="stop-color:#808080"
         offset="1" />
    </linearGradient>
    <linearGradient
       id="linearGradient2463"
       inkscape:collect="always">
      <stop
         id="stop2465"
         style="stop-color:#ffffff"
         offset="0" />
      <stop
         id="stop2467"
         style="stop-color:#4d4d4d"
         offset="1" />
    </linearGradient>
    <radialGradient
       id="radialGradient3267"
       gradientUnits="userSpaceOnUse"
       cy="27.558001"
       cx="362.32001"
       gradientTransform="matrix(0.64797537,1.2062408,-1.1414947,0.61320893,-136.29345,-376.28544)"
       r="84.165001"
       inkscape:collect="always">
      <stop
         id="stop3263"
         style="stop-color:#784421"
         offset="0" />
      <stop
         id="stop3265"
         style="stop-color:#28170b"
         offset="1" />
    </radialGradient>
    <linearGradient
       id="linearGradient3275"
       y2="175.09"
       gradientUnits="userSpaceOnUse"
       x2="481.76999"
       y1="60.683998"
       x1="359.63"
       inkscape:collect="always"
       gradientTransform="matrix(0.95355,0,0,0.95355,-302.44,-6.0029)">
      <stop
         id="stop3271"
         style="stop-color:#e9c6af"
         offset="0" />
      <stop
         id="stop3273"
         style="stop-color:#28170b"
         offset="1" />
    </linearGradient>
    <linearGradient
       id="linearGradient3518"
       y2="136.03999"
       xlink:href="#linearGradient2463"
       gradientUnits="userSpaceOnUse"
       x2="206.95"
       y1="136.03999"
       x1="215.87"
       inkscape:collect="always" />
    <linearGradient
       id="linearGradient3618"
       y2="196.28"
       gradientUnits="userSpaceOnUse"
       x2="553.01001"
       y1="21.913"
       x1="349.76999"
       inkscape:collect="always">
      <stop
         id="stop3578"
         style="stop-color:#c87137"
         offset="0" />
      <stop
         id="stop3580"
         style="stop-color:#2b1100"
         offset="1" />
    </linearGradient>
    <linearGradient
       id="linearGradient3620"
       y2="212.42"
       gradientUnits="userSpaceOnUse"
       x2="567.96002"
       y1="12.409"
       x1="334.82001"
       inkscape:collect="always">
      <stop
         id="stop3584"
         style="stop-color:#c87137"
         offset="0" />
      <stop
         id="stop3586"
         style="stop-color:#2b1100"
         offset="1" />
    </linearGradient>
    <linearGradient
       id="linearGradient3622"
       y2="234.13"
       gradientUnits="userSpaceOnUse"
       x2="588.06"
       y1="-0.37312999"
       x1="314.72"
       inkscape:collect="always">
      <stop
         id="stop3590"
         style="stop-color:#c87137"
         offset="0" />
      <stop
         id="stop3592"
         style="stop-color:#2b1100"
         offset="1" />
    </linearGradient>
    <linearGradient
       id="linearGradient3624"
       y2="259.14001"
       gradientUnits="userSpaceOnUse"
       x2="611.21002"
       y1="-15.095"
       x1="291.57001"
       inkscape:collect="always">
      <stop
         id="stop3564"
         style="stop-color:#c87137"
         offset="0" />
      <stop
         id="stop3566"
         style="stop-color:#2b1100"
         offset="1" />
    </linearGradient>
    <linearGradient
       id="linearGradient2471"
       y2="131.87"
       gradientUnits="userSpaceOnUse"
       x2="202.24001"
       gradientTransform="translate(-106.21,-28.693)"
       y1="131.35001"
       x1="219.50999"
       inkscape:collect="always">
      <stop
         id="stop3514"
         style="stop-color:#ffffff"
         offset="0" />
      <stop
         id="stop3516"
         style="stop-color:#000000"
         offset="1" />
    </linearGradient>
    <radialGradient
       id="radialGradient2474"
       xlink:href="#linearGradient2479"
       gradientUnits="userSpaceOnUse"
       cy="92.206001"
       cx="163.38"
       gradientTransform="matrix(0.76668,1.2751,-1.0111,0.60792,61.89,-174.92)"
       r="106.29"
       inkscape:collect="always" />
    <linearGradient
       id="linearGradient2476"
       y2="207.34"
       xlink:href="#linearGradient2463"
       gradientUnits="userSpaceOnUse"
       x2="295.59"
       gradientTransform="translate(-106.21,-28.693)"
       y1="98.247002"
       x1="172.49001"
       inkscape:collect="always" />
    <radialGradient
       id="radialGradient2480"
       xlink:href="#linearGradient2479"
       gradientUnits="userSpaceOnUse"
       cy="115.75"
       cx="158.83"
       gradientTransform="matrix(0.57079,1.0019,-1.1289,0.64314,100.39,-131.58)"
       r="106.29"
       inkscape:collect="always" />
    <linearGradient
       id="linearGradient2482"
       y2="213.98"
       xlink:href="#linearGradient2463"
       gradientUnits="userSpaceOnUse"
       x2="289.70001"
       gradientTransform="translate(-106.21,-28.693)"
       y1="84.240997"
       x1="129"
       inkscape:collect="always" />
    <linearGradient
       inkscape:collect="always"
       xlink:href="#linearGradient2463"
       id="linearGradient4200"
       gradientUnits="userSpaceOnUse"
       x1="215.87"
       y1="136.03999"
       x2="206.95"
       y2="136.03999" />
    <linearGradient
       inkscape:collect="always"
       xlink:href="#linearGradient2463"
       id="linearGradient4202"
       gradientUnits="userSpaceOnUse"
       x1="215.87"
       y1="136.03999"
       x2="206.95"
       y2="136.03999" />
  </defs>
  <sodipodi:namedview
     id="base"
     bordercolor="#666666"
     inkscape:pageshadow="2"
     guidetolerance="10.0"
     pagecolor="#ffffff"
     gridtolerance="10.0"
     inkscape:zoom="0.5"
     objecttolerance="10.0"
     borderopacity="1.0"
     inkscape:current-layer="svg2"
     inkscape:cx="512"
     inkscape:cy="439.04349"
     inkscape:window-height="851"
     showgrid="false"
     inkscape:pageopacity="0.0"
     inkscape:window-width="1440"
     inkscape:window-x="0"
     inkscape:window-y="1"
     inkscape:window-maximized="1" />
  <rect
     style="fill:#ff6600;fill-opacity:1;stroke:none;stroke-width:8;stroke-miterlimit:4;stroke-dasharray:none;stroke-opacity:1"
     id="rect4233"
     width="1024"
     height="1024"
     x="0"
     y="-3.0517578e-05" />
  <g
     id="g4237"
     transform="matrix(4.5159374,0,0,4.5159404,31.986905,31.891001)">
    <circle
       id="path3530"
       style="fill:none;stroke:#784421;stroke-width:0.26541445"
       cx="106.29857"
       cy="106.30772"
       r="70.582474" />
    <circle
       id="path3526"
       style="fill:none;stroke:#784421;stroke-width:0.28478184"
       cx="106.29601"
       cy="106.30793"
       r="75.732903" />
    <circle
       id="path3520"
       style="fill:none;stroke:#784421;stroke-width:0.29999638"
       cx="106.29533"
       cy="106.30711"
       r="79.778954" />
    <circle
       id="path2435"
       style="fill:url(#radialGradient3267);fill-rule:evenodd;stroke:url(#linearGradient3275);stroke-width:0.29999638"
       cx="106.29533"
       cy="106.30711"
       r="79.778954" />
    <g
       id="g3612"
       transform="translate(-366.47,13.006)">
      <circle
         id="path3554"
         style="fill:none;stroke:url(#linearGradient3618);stroke-width:0.42394999"
         transform="matrix(0.70763,0,0,0.70763,153.34,32.073)"
         cx="451.38995"
         cy="86.525093"
         r="101.11969" />
      <circle
         id="path3556"
         style="fill:none;stroke:url(#linearGradient3620);stroke-width:0.48631001"
         transform="matrix(0.61689,0,0,0.61689,194.3,39.925)"
         cx="451.38995"
         cy="86.525093"
         r="101.11969" />
      <circle
         id="path3558"
         style="fill:none;stroke:url(#linearGradient3622);stroke-width:0.57018"
         transform="matrix(0.52615,0,0,0.52615,235.26,47.776)"
         cx="451.38995"
         cy="86.525093"
         r="101.11969" />
      <circle
         id="path3560"
         style="fill:none;stroke:url(#linearGradient3624);stroke-width:0.66676998"
         transform="matrix(0.44993,0,0,0.44993,269.67,54.371)"
         cx="451.38995"
         cy="86.525093"
         r="101.11969" />
    </g>
    <circle
       id="path3538"
       style="fill:none;stroke:#784421;stroke-width:0.26541445"
       cx="106.29857"
       cy="106.30772"
       r="70.582474" />
    <g
       id="g3548"
       transform="translate(-106.21,-28.693)">
      <circle
         id="path3534"
         style="fill:none;stroke:#784421;stroke-width:0.31461"
         transform="matrix(0.95355,0,0,0.95355,-196.24,22.69)"
         cx="428.64594"
         cy="117.78093"
         r="83.665199" />
      <circle
         id="path3536"
         style="fill:none;stroke:#784421;stroke-width:0.31461"
         transform="matrix(0.90519,0,0,0.90519,-175.5,28.386)"
         cx="428.64594"
         cy="117.78093"
         r="83.665199" />
      <circle
         id="path3540"
         style="fill:none;stroke:#784421;stroke-width:0.31461"
         transform="matrix(0.84363,0,0,0.84363,-149.12,35.637)"
         cx="428.64594"
         cy="117.78093"
         r="83.665199" />
      <circle
         id="path3542"
         style="fill:none;stroke:#784421;stroke-width:0.31461"
         transform="matrix(0.66335,0,0,0.66335,-71.842,56.87)"
         cx="428.64594"
         cy="117.78093"
         r="83.665199" />
    </g>
    <circle
       id="path3528"
       style="fill:none;stroke:#784421;stroke-width:0.26541445"
       cx="106.29857"
       cy="106.30772"
       r="70.582474" />
    <path
       id="path2384"
       style="fill:url(#radialGradient2480);fill-rule:evenodd;stroke:url(#linearGradient2482);stroke-width:0.92725998px"
       d="m 106.29,0.46363 c -27.091,0 -54.183,10.342 -74.84,31 -41.315,41.314 -41.315,108.38 0,149.69 41.314,41.32 108.37,41.32 149.69,0 41.31,-41.31 41.31,-108.37 0,-149.69 -20.66,-20.654 -47.75,-30.996 -74.85,-30.996 z m -45.684,31.093 c 7.628,0 15.246,2.903 21.062,8.719 11.633,11.633 11.633,30.493 0,42.125 -11.632,11.633 -30.524,11.633 -42.156,0 -11.632,-11.632 -11.632,-30.492 0,-42.125 5.816,-5.816 13.465,-8.719 21.094,-8.719 z m 90.654,0 c 7.63,0 15.25,2.903 21.06,8.719 11.64,11.633 11.64,30.493 0,42.125 -11.63,11.633 -30.49,11.633 -42.12,0 -11.63,-11.632 -11.63,-30.492 0,-42.125 5.82,-5.816 13.43,-8.719 21.06,-8.719 z m -44.97,50.907 c 6.11,0 12.19,2.347 16.85,7 9.3,9.304 9.3,24.386 0,33.686 -9.31,9.31 -24.386,9.31 -33.69,0 -9.305,-9.3 -9.305,-24.382 0,-33.686 4.652,-4.653 10.74,-7 16.84,-7 z m -45.684,39.746 c 7.628,0 15.246,2.91 21.062,8.72 11.633,11.63 11.633,30.53 0,42.16 -11.632,11.63 -30.524,11.63 -42.156,0 -11.632,-11.63 -11.632,-30.53 0,-42.16 5.816,-5.81 13.465,-8.72 21.094,-8.72 z m 90.654,0 c 7.63,0 15.25,2.91 21.06,8.72 11.64,11.63 11.64,30.53 0,42.16 -11.63,11.63 -30.49,11.63 -42.12,0 -11.63,-11.63 -11.63,-30.53 0,-42.16 5.82,-5.81 13.43,-8.72 21.06,-8.72 z"
       inkscape:connector-curvature="0" />
    <path
       id="path2433"
       style="fill:#ff0000;fill-rule:evenodd;stroke:#000000;stroke-width:0.23777001px"
       d="m 106.29,79.182 c -6.944,0 -13.887,2.641 -19.184,7.938 -10.594,10.594 -10.594,27.78 0,38.37 10.594,10.6 27.784,10.6 38.374,0 10.59,-10.59 10.59,-27.776 0,-38.37 -5.3,-5.297 -12.24,-7.938 -19.19,-7.938 z m 0,3.282 c 6.11,0 12.19,2.347 16.85,7 9.3,9.304 9.3,24.386 0,33.686 -9.31,9.31 -24.386,9.31 -33.69,0 -9.305,-9.3 -9.305,-24.382 0,-33.686 4.652,-4.653 10.74,-7 16.84,-7 z"
       inkscape:connector-curvature="0" />
    <path
       id="path2452"
       style="fill:url(#radialGradient2474);fill-rule:evenodd;stroke:url(#linearGradient2476);stroke-width:0.89999998"
       d="m 106.29,78.432 c -15.39,0 -27.872,12.482 -27.872,27.878 0,15.39 12.482,27.87 27.872,27.87 15.4,0 27.88,-12.48 27.88,-27.87 0,-15.396 -12.48,-27.878 -27.88,-27.878 z M 96.012,89.464 c 1.718,0 3.409,0.658 4.718,1.968 2.62,2.62 2.62,6.881 0,9.498 -2.619,2.62 -6.848,2.62 -9.468,0 -2.62,-2.617 -2.62,-6.878 0,-9.498 1.31,-1.31 3.032,-1.968 4.75,-1.968 z m 20.408,0 c 1.72,0 3.44,0.658 4.75,1.968 2.62,2.62 2.62,6.881 0,9.498 -2.62,2.62 -6.88,2.62 -9.5,0 -2.62,-2.617 -2.62,-6.878 0,-9.498 1.31,-1.31 3.03,-1.968 4.75,-1.968 z m -10.13,14.376 c 0.64,0 1.27,0.24 1.75,0.72 0.97,0.96 0.97,2.53 0,3.5 -0.96,0.96 -2.53,0.96 -3.5,0 -0.96,-0.97 -0.96,-2.54 0,-3.5 0.49,-0.48 1.12,-0.72 1.75,-0.72 z m -10.278,6.06 c 1.718,0 3.409,0.66 4.718,1.97 2.62,2.62 2.62,6.85 0,9.47 -2.619,2.62 -6.848,2.62 -9.468,0 -2.62,-2.62 -2.62,-6.85 0,-9.47 1.31,-1.31 3.032,-1.97 4.75,-1.97 z m 20.408,0 c 1.72,0 3.44,0.66 4.75,1.97 2.62,2.62 2.62,6.85 0,9.47 -2.62,2.62 -6.88,2.62 -9.5,0 -2.62,-2.62 -2.62,-6.85 0,-9.47 1.31,-1.31 3.03,-1.97 4.75,-1.97 z"
       inkscape:connector-curvature="0" />
    <path
       id="rect3489"
       style="fill:#a39e9b;fill-rule:evenodd;stroke:url(#linearGradient2471);stroke-width:0.96771997px"
       d="m 103.9,8.8202 0.43,0 c 1.47,0 2.66,1.1908 2.66,2.6698 l 0,57.762 c 0,1.479 -1.19,2.67 -2.66,2.67 l -0.43,0 c -1.48,0 -2.67,-1.191 -2.67,-2.67 l 0,-57.762 c 0,-1.479 1.19,-2.6698 2.67,-2.6698 z m 2.27,131.88 0.24,0 c 1.53,0 2.76,1.23 2.76,2.76 l 0,59.65 c 0,1.53 -1.23,2.76 -2.76,2.76 l -0.24,0 c -1.52,0 -2.75,-1.23 -2.75,-2.76 l 0,-59.65 c 0,-1.53 1.23,-2.76 2.75,-2.76 z"
       inkscape:connector-curvature="0" />
    <g
       id="g3497"
       style="fill:#a8a39f;stroke:url(#linearGradient3518)"
       transform="matrix(0,1,-1,0,241.25,-104.06)">
      <rect
         id="rect3493"
         style="fill:#a8a39f;fill-rule:evenodd;stroke:url(#linearGradient4200);stroke-width:0.96771997px"
         ry="2.6696999"
         height="63.102001"
         width="5.7659001"
         y="37.513"
         x="207.44" />
      <rect
         id="rect3495"
         style="fill:#a8a39f;fill-rule:evenodd;stroke:url(#linearGradient4202);stroke-width:0.98223001px"
         ry="2.7572999"
         height="65.171997"
         width="5.7514"
         y="169.39"
         x="209.62" />
    </g>
  </g>
  <metadata
     id="metadata72">
    <rdf:RDF>
      <cc:Work>
        <dc:format>image/svg+xml</dc:format>
        <dc:type
           rdf:resource="http://purl.org/dc/dcmitype/StillImage" />
        <cc:license
           rdf:resource="http://creativecommons.org/publicdomain/zero/1.0/" />
        <dc:publisher>
          <cc:Agent
             rdf:about="http://openclipart.org/">
            <dc:title>Openclipart</dc:title>
          </cc:Agent>
        </dc:publisher>
        <dc:title>Film Tape Reel</dc:title>
        <dc:date>2011-08-28T08:00:56</dc:date>
        <dc:description>Film or Tape Reel.</dc:description>
        <dc:source>https://openclipart.org/detail/158431/film-tape-reel-by-studio_hades</dc:source>
        <dc:creator>
          <cc:Agent>
            <dc:title>studio_hades</dc:title>
          </cc:Agent>
        </dc:creator>
        <dc:subject>
          <rdf:Bag>
            <rdf:li>Film</rdf:li>
            <rdf:li>Indie</rdf:li>
            <rdf:li>Motion Pictures</rdf:li>
            <rdf:li>Movies</rdf:li>
            <rdf:li>Reel</rdf:li>
            <rdf:li>Tape</rdf:li>
          </rdf:Bag>
        </dc:subject>
      </cc:Work>
      <cc:License
         rdf:about="http://creativecommons.org/publicdomain/zero/1.0/">
        <cc:permits
           rdf:resource="http://creativecommons.org/ns#Reproduction" />
        <cc:permits
           rdf:resource="http://creativecommons.org/ns#Distribution" />
        <cc:permits
           rdf:resource="http://creativecommons.org/ns#DerivativeWorks" />
      </cc:License>
    </rdf:RDF>
  </metadata>
</svg>
