<?xml version="1.0" encoding="UTF-8" standalone="no"?>
<!-- Generator: Adobe Illustrator 15.0.0, SVG Export Plug-In . SVG Version: 6.00 Build 0)  -->

<svg
   xmlns:dc="http://purl.org/dc/elements/1.1/"
   xmlns:cc="http://creativecommons.org/ns#"
   xmlns:rdf="http://www.w3.org/1999/02/22-rdf-syntax-ns#"
   xmlns:svg="http://www.w3.org/2000/svg"
   xmlns="http://www.w3.org/2000/svg"
   xmlns:sodipodi="http://sodipodi.sourceforge.net/DTD/sodipodi-0.dtd"
   xmlns:inkscape="http://www.inkscape.org/namespaces/inkscape"
   version="1.1"
   id="Capa_1"
   x="0px"
   y="0px"
   width="433"
   height="497"
   viewBox="0 0 433 497"
   enable-background="new 0 0 512 512"
   xml:space="preserve"
   inkscape:version="0.91 r13725"
   sodipodi:docname="iconpdf.svg"><metadata
     id="metadata4334"><rdf:RDF><cc:Work
         rdf:about=""><dc:format>image/svg+xml</dc:format><dc:type
           rdf:resource="http://purl.org/dc/dcmitype/StillImage" /><dc:title></dc:title></cc:Work></rdf:RDF></metadata><defs
     id="defs4332" /><sodipodi:namedview
     pagecolor="#ffffff"
     bordercolor="#666666"
     borderopacity="1"
     objecttolerance="10"
     gridtolerance="10"
     guidetolerance="10"
     inkscape:pageopacity="0"
     inkscape:pageshadow="2"
     inkscape:window-width="1291"
     inkscape:window-height="915"
     id="namedview4330"
     showgrid="false"
     fit-margin-top="0"
     fit-margin-left="0"
     fit-margin-right="0"
     fit-margin-bottom="0"
     inkscape:zoom="1.5898618"
     inkscape:cx="216.5"
     inkscape:cy="248.50001"
     inkscape:window-x="0"
     inkscape:window-y="0"
     inkscape:window-maximized="0"
     inkscape:current-layer="Capa_1" /><rect
     style="color:#000000;clip-rule:nonzero;display:inline;overflow:visible;visibility:visible;opacity:1;isolation:auto;mix-blend-mode:normal;color-interpolation:sRGB;color-interpolation-filters:linearRGB;solid-color:#000000;solid-opacity:1;fill:none;fill-opacity:1;fill-rule:nonzero;stroke:#b41e23;stroke-width:21.99432945;stroke-linecap:round;stroke-linejoin:miter;stroke-miterlimit:4.5;stroke-dasharray:none;stroke-dashoffset:0;stroke-opacity:1;marker:none;color-rendering:auto;image-rendering:auto;shape-rendering:auto;text-rendering:auto;enable-background:accumulate"
     id="rect5503"
     width="411.00568"
     height="475.00568"
     x="10.997165"
     y="10.997165" /><path
     d="m 381.65757,296.86125 c -6.824,-6.723 -21.957,-10.283 -44.986,-10.586 -15.589,-0.172 -34.351,1.201 -54.085,3.964 -8.837,-5.099 -17.944,-10.647 -25.094,-17.329 -19.231,-17.958 -35.284,-42.886 -45.288,-70.297 0.652,-2.56 1.207,-4.81 1.724,-7.106 0,0 10.833,-61.53 7.966,-82.333 -0.396,-2.853 -0.638,-3.681 -1.404,-5.898 l -0.941,-2.417 c -2.946,-6.79601 -8.724,-13.99701 -17.781,-13.60401 l -5.312,-0.169 -0.146,-0.003 c -10.101,0 -18.332,5.166 -20.493,12.88701 -6.569,24.217 0.209,60.446 12.491,107.369 l -3.145,7.643 c -8.794,21.438 -19.815,43.03 -29.539,62.079 l -1.264,2.478 c -10.23,20.021 -19.513,37.015 -27.927,51.411 l -8.688,4.594 c -0.632,0.334 -15.522,8.209 -19.014,10.322 -29.628,17.689 -49.261993,37.771 -52.518993,53.708 -1.036,5.085 -0.265,11.593 5.007,14.605 l 8.403,4.229 c 3.645993,1.826 7.488993,2.751 11.426993,2.751 21.103,0 45.601,-26.286 79.349,-85.183 38.965,-12.686 83.327,-23.229 122.206,-29.045 29.63,16.684 66.071,28.271 89.071,28.271 4.084,0 7.605,-0.391 10.466,-1.146 4.411,-1.168 8.129,-3.685 10.396,-7.098 4.463,-6.716 5.367,-15.966 4.156,-25.438 -0.362,-2.81 -2.607,-6.286 -5.036,-8.659 z m -315.183,112.284 c 3.849,-10.521 19.08,-31.322 41.603,-49.778 1.416,-1.148 4.904,-4.416 8.097,-7.451 -23.552,37.562 -39.324,52.533 -49.7,57.229 z m 133.394,-307.18101 c 6.783,0 10.642,17.09701 10.962,33.12701 0.32,16.03 -3.429,27.28 -8.079,35.604 -3.851,-12.324 -5.713,-31.75 -5.713,-44.452 0,0 -0.283,-24.27901 2.83,-24.27901 z m -39.791,218.90401 c 4.725,-8.458 9.641,-17.378 14.665,-26.839 12.246,-23.158 19.979,-41.278 25.739,-56.173 11.455,20.842 25.722,38.56 42.492,52.756 2.093,1.771 4.31,3.551 6.638,5.325 -34.105,6.748 -63.582,14.955 -89.534,24.931 z m 215.025,-1.921 c -2.076,1.299 -8.026,2.05 -11.854,2.05 -12.354,0 -27.636,-5.647 -49.062,-14.833 8.233,-0.609 15.781,-0.919 22.551,-0.919 12.391,0 16.06,-0.054 28.175,3.036 12.114,3.09 12.268,9.367 10.19,10.666 z"
     id="path4328"
     inkscape:connector-curvature="0"
     style="fill:#b41e23;fill-opacity:1"
     sodipodi:nodetypes="cccccccccccccccccccccccsccsccccccccssccscccccccscscc" /></svg>