<?xml version="1.0" encoding="UTF-8" standalone="no"?>
<!-- Generator: Adobe Illustrator 15.0.0, SVG Export Plug-In . SVG Version: 6.00 Build 0)  -->

<svg
   xmlns:dc="http://purl.org/dc/elements/1.1/"
   xmlns:cc="http://creativecommons.org/ns#"
   xmlns:rdf="http://www.w3.org/1999/02/22-rdf-syntax-ns#"
   xmlns:svg="http://www.w3.org/2000/svg"
   xmlns="http://www.w3.org/2000/svg"
   xmlns:sodipodi="http://sodipodi.sourceforge.net/DTD/sodipodi-0.dtd"
   xmlns:inkscape="http://www.inkscape.org/namespaces/inkscape"
   version="1.1"
   id="Capa_1"
   x="0px"
   y="0px"
   width="40.468189"
   height="46.380432"
   viewBox="0 0 40.468189 46.380432"
   enable-background="new 0 0 512 512"
   xml:space="preserve"
   inkscape:version="0.92.1 r"
   sodipodi:docname="iconpdf.svg"><metadata
     id="metadata4334"><rdf:RDF><cc:Work
         rdf:about=""><dc:format>image/svg+xml</dc:format><dc:type
           rdf:resource="http://purl.org/dc/dcmitype/StillImage" /><dc:title></dc:title></cc:Work></rdf:RDF></metadata><defs
     id="defs4332" /><sodipodi:namedview
     pagecolor="#ffffff"
     bordercolor="#666666"
     borderopacity="1"
     objecttolerance="10"
     gridtolerance="10"
     guidetolerance="10"
     inkscape:pageopacity="0"
     inkscape:pageshadow="2"
     inkscape:window-width="1291"
     inkscape:window-height="915"
     id="namedview4330"
     showgrid="false"
     fit-margin-top="0"
     fit-margin-left="0"
     fit-margin-right="0"
     fit-margin-bottom="0"
     inkscape:zoom="8.9936165"
     inkscape:cx="14.281867"
     inkscape:cy="19.29647"
     inkscape:window-x="0"
     inkscape:window-y="0"
     inkscape:window-maximized="0"
     inkscape:current-layer="Capa_1" /><rect
     style="color:#000000;clip-rule:nonzero;display:inline;overflow:visible;visibility:visible;opacity:1;isolation:auto;mix-blend-mode:normal;color-interpolation:sRGB;color-interpolation-filters:linearRGB;solid-color:#000000;solid-opacity:1;fill:none;fill-opacity:1;fill-rule:nonzero;stroke:#b41e23;stroke-width:2.8;stroke-linecap:round;stroke-linejoin:miter;stroke-miterlimit:4.5;stroke-dasharray:none;stroke-dashoffset:0;stroke-opacity:1;marker:none;color-rendering:auto;image-rendering:auto;shape-rendering:auto;text-rendering:auto;enable-background:accumulate"
     id="rect5503"
     width="37.968189"
     height="43.880432"
     x="1.25"
     y="1.25" /><path
     d="m 35.491142,27.657753 c -0.63039,-0.62106 -2.02836,-0.94993 -4.15575,-0.97792 -1.44009,-0.0159 -3.1733,0.11095 -4.99631,0.36619 -0.81635,-0.47104 -1.65764,-0.98356 -2.31815,-1.60083 -1.77653,-1.65894 -3.25949,-3.96176 -4.18365,-6.49395 0.0602,-0.23649 0.1115,-0.44434 0.15926,-0.65644 0,0 1.00074,-5.68407 0.73589,-7.60582 -0.0366,-0.26356 -0.0589,-0.34005 -0.1297,-0.54485 l -0.0869,-0.2232798 c -0.27214,-0.62781 -0.80591,-1.29303 -1.64258,-1.25672 l -0.49072,-0.0156 -0.0135,-2.7e-4 c -0.93312,0 -1.69349,0.47722 -1.89312,1.19048 -0.60684,2.2371398 0.0193,5.5839298 1.1539,9.9186198 l -0.29053,0.70605 c -0.81238,1.98041 -1.83049,3.97505 -2.72878,5.73478 l -0.11676,0.22891 c -0.94504,1.84952 -1.80259,3.4194 -2.57986,4.74929 l -0.80259,0.42438 c -0.0584,0.0309 -1.4339,0.75834 -1.75649,0.95354 -2.737,1.63408 -4.55076,3.48923 -4.85164,4.96147 -0.0957,0.46975 -0.0245,1.07095 0.46254,1.3492 l 0.77626,0.39067 c 0.33681,0.16868 0.69182,0.25413 1.05561,0.25413 1.94947,0 4.21256,-2.42827 7.33016,-7.8691 3.59954,-1.17192 7.69765,-2.14586 11.28924,-2.68314 2.73718,1.54125 6.10356,2.61164 8.22827,2.61164 0.37727,0 0.70254,-0.0361 0.96683,-0.10587 0.40749,-0.10789 0.75095,-0.34041 0.96037,-0.6557 0.41229,-0.62042 0.4958,-1.47492 0.38393,-2.34993 -0.0334,-0.25959 -0.24083,-0.58069 -0.46522,-0.79991 z m -29.11621,10.37266 c 0.35556,-0.97192 1.76258,-2.89349 3.84323,-4.59843 0.13081,-0.10605 0.45303,-0.40795 0.74799,-0.68832 -2.1757,3.46993 -3.6327,4.85294 -4.59122,5.28675 z M 18.697702,9.6534132 c 0.6266,0 0.98309,1.5793998 1.01265,3.0602298 0.0296,1.48083 -0.31676,2.52009 -0.74632,3.28905 -0.35575,-1.13847 -0.52776,-2.93302 -0.52776,-4.10642 0,0 -0.0261,-2.2428598 0.26143,-2.2428598 z m -3.67584,20.2220798 c 0.43649,-0.78134 0.89062,-1.60536 1.35473,-2.47936 1.13127,-2.1393 1.84564,-3.81321 2.37774,-5.18919 1.0582,1.92536 2.37616,3.56213 3.92535,4.87354 0.19335,0.1636 0.39816,0.32803 0.61321,0.49191 -3.15057,0.62338 -5.87362,1.38153 -8.27103,2.3031 z m 19.86374,-0.17746 c -0.19178,0.12 -0.74144,0.18937 -1.09506,0.18937 -1.14125,0 -2.55298,-0.52166 -4.53229,-1.37025 0.76056,-0.0563 1.45783,-0.0849 2.08324,-0.0849 1.14466,0 1.4836,-0.005 2.60277,0.28047 1.11907,0.28545 1.1333,0.86531 0.94134,0.98531 z"
     id="path4328"
     inkscape:connector-curvature="0"
     style="fill:#b41e23;fill-opacity:1;stroke:#b41e23;stroke-width:0.28;stroke-miterlimit:4;stroke-dasharray:none;stroke-opacity:1"
     sodipodi:nodetypes="cccccccccccccccccccccccsccsccccccccssccscccccccscscc" /></svg>