<?xml version="1.0" encoding="UTF-8" standalone="no"?>
<svg
   xmlns:dc="http://purl.org/dc/elements/1.1/"
   xmlns:cc="http://creativecommons.org/ns#"
   xmlns:rdf="http://www.w3.org/1999/02/22-rdf-syntax-ns#"
   xmlns:svg="http://www.w3.org/2000/svg"
   xmlns="http://www.w3.org/2000/svg"
   xmlns:sodipodi="http://sodipodi.sourceforge.net/DTD/sodipodi-0.dtd"
   xmlns:inkscape="http://www.inkscape.org/namespaces/inkscape"
   height="18"
   id="svg4063"
   version="1.1"
   viewBox="0 0 24 18.000001"
   width="24"
   sodipodi:docname="iconmedia.svg"
   inkscape:version="0.92.1 r">
  <metadata
     id="metadata12">
    <rdf:RDF>
      <cc:Work
         rdf:about="">
        <dc:format>image/svg+xml</dc:format>
        <dc:type
           rdf:resource="http://purl.org/dc/dcmitype/StillImage" />
        <dc:title></dc:title>
      </cc:Work>
    </rdf:RDF>
  </metadata>
  <sodipodi:namedview
     pagecolor="#ffffff"
     bordercolor="#666666"
     borderopacity="1"
     objecttolerance="10"
     gridtolerance="10"
     guidetolerance="10"
     inkscape:pageopacity="0"
     inkscape:pageshadow="2"
     inkscape:window-width="1772"
     inkscape:window-height="765"
     id="namedview10"
     showgrid="false"
     fit-margin-top="0"
     fit-margin-left="0"
     fit-margin-right="0"
     fit-margin-bottom="0"
     inkscape:zoom="7.375"
     inkscape:cx="-4.5423729"
     inkscape:cy="8.9992"
     inkscape:window-x="0"
     inkscape:window-y="0"
     inkscape:window-maximized="0"
     inkscape:current-layer="svg4063" />
  <defs
     id="defs4065" />
  <g
     id="layer1"
     transform="translate(-4,-1027.3613)">
    <g
       id="g5268">
      <path
         d="M 6.0000045,1027.8621 H 25.999998 c 0.83101,0 1.500018,0.669 1.500018,1.5 v 13.9999 c 0,0.8311 -0.669008,1.5001 -1.500018,1.5001 H 6.0000045 c -0.8310096,0 -1.5000174,-0.669 -1.5000174,-1.5001 v -13.9999 c 0,-0.831 0.6690078,-1.5 1.5000174,-1.5 z"
         id="rect4153"
         style="opacity:1;fill:#d50707;fill-opacity:0.84931503;stroke:none;stroke-width:1;stroke-linecap:round;stroke-linejoin:round;stroke-miterlimit:4.0999999;stroke-dasharray:none"
         inkscape:connector-curvature="0" />
      <path
         d="m 6,1027.3613 c -1.0993579,0 -2,0.9007 -2,2 v 14 c 0,1.0995 0.9006421,2 2,2 h 20 c 1.099358,0 2,-0.9005 2,-2 v -14 c 0,-1.0993 -0.900642,-2 -2,-2 z m 0,1 h 20 c 0.562662,0 1,0.4374 1,1 v 14 c 0,0.5628 -0.437338,1 -1,1 H 6 c -0.5626613,0 -1,-0.4372 -1,-1 v -14 c 0,-0.5626 0.4373387,-1 1,-1 z"
         id="rect3767"
         style="color:#000000;font-style:normal;font-variant:normal;font-weight:normal;font-stretch:normal;font-size:medium;line-height:normal;font-family:sans-serif;text-indent:0;text-align:start;text-decoration:none;text-decoration-line:none;text-decoration-style:solid;text-decoration-color:#000000;letter-spacing:normal;word-spacing:normal;text-transform:none;writing-mode:lr-tb;direction:ltr;baseline-shift:baseline;text-anchor:start;white-space:normal;clip-rule:nonzero;display:inline;overflow:visible;visibility:visible;opacity:1;isolation:auto;mix-blend-mode:normal;color-interpolation:sRGB;color-interpolation-filters:linearRGB;solid-color:#000000;solid-opacity:1;fill:#000000;fill-opacity:1;fill-rule:nonzero;stroke:none;stroke-width:1;stroke-linecap:round;stroke-linejoin:round;stroke-miterlimit:4.0999999;stroke-dasharray:none;stroke-dashoffset:0;stroke-opacity:1;color-rendering:auto;image-rendering:auto;shape-rendering:auto;text-rendering:auto;enable-background:accumulate"
         inkscape:connector-curvature="0" />
      <path
         d="m 12.99661,1031.8622 7.00002,4.5 -7.00002,4.5 z"
         id="path4155"
         style="opacity:1;fill:#ffffff;fill-opacity:1;stroke:none;stroke-width:1;stroke-linecap:round;stroke-linejoin:round;stroke-miterlimit:4.0999999;stroke-dasharray:none"
         inkscape:connector-curvature="0" />
      <path
         d="m 12.982422,1031.3633 a 0.50005,0.50005 0 0 0 -0.486328,0.498 v 9 a 0.50005,0.50005 0 0 0 0.771484,0.4219 l 7,-4.5 a 0.50005,0.50005 0 0 0 0,-0.8418 l -7,-4.5 a 0.50005,0.50005 0 0 0 -0.285156,-0.078 z m 0.513672,1.414 5.576172,3.586 -5.576172,3.584 z"
         id="path3769"
         style="color:#000000;font-style:normal;font-variant:normal;font-weight:normal;font-stretch:normal;font-size:medium;line-height:normal;font-family:sans-serif;text-indent:0;text-align:start;text-decoration:none;text-decoration-line:none;text-decoration-style:solid;text-decoration-color:#000000;letter-spacing:normal;word-spacing:normal;text-transform:none;writing-mode:lr-tb;direction:ltr;baseline-shift:baseline;text-anchor:start;white-space:normal;clip-rule:nonzero;display:inline;overflow:visible;visibility:visible;opacity:1;isolation:auto;mix-blend-mode:normal;color-interpolation:sRGB;color-interpolation-filters:linearRGB;solid-color:#000000;solid-opacity:1;fill:#000000;fill-opacity:1;fill-rule:nonzero;stroke:none;stroke-width:1;stroke-linecap:round;stroke-linejoin:round;stroke-miterlimit:4.0999999;stroke-dasharray:none;stroke-dashoffset:0;stroke-opacity:1;color-rendering:auto;image-rendering:auto;shape-rendering:auto;text-rendering:auto;enable-background:accumulate"
         inkscape:connector-curvature="0" />
    </g>
  </g>
</svg>
