<?xml version="1.0" encoding="UTF-8" standalone="no"?>
<!-- Generator: Adobe Illustrator 15.0.0, SVG Export Plug-In . SVG Version: 6.00 Build 0)  -->

<svg
   xmlns:dc="http://purl.org/dc/elements/1.1/"
   xmlns:cc="http://creativecommons.org/ns#"
   xmlns:rdf="http://www.w3.org/1999/02/22-rdf-syntax-ns#"
   xmlns:svg="http://www.w3.org/2000/svg"
   xmlns="http://www.w3.org/2000/svg"
   xmlns:sodipodi="http://sodipodi.sourceforge.net/DTD/sodipodi-0.dtd"
   xmlns:inkscape="http://www.inkscape.org/namespaces/inkscape"
   version="1.1"
   id="Capa_1"
   x="0px"
   y="0px"
   width="129.87"
   height="128.543"
   viewBox="0 0 129.86999 128.543"
   enable-background="new 0 0 595.28 841.89"
   xml:space="preserve"
   inkscape:version="0.91 r13725"
   sodipodi:docname="logo_FING.svg"><metadata
     id="metadata77"><rdf:RDF><cc:Work
         rdf:about=""><dc:format>image/svg+xml</dc:format><dc:type
           rdf:resource="http://purl.org/dc/dcmitype/StillImage" /><dc:title></dc:title></cc:Work></rdf:RDF></metadata><defs
     id="defs75" /><sodipodi:namedview
     pagecolor="#ffffff"
     bordercolor="#666666"
     borderopacity="1"
     objecttolerance="10"
     gridtolerance="10"
     guidetolerance="10"
     inkscape:pageopacity="0"
     inkscape:pageshadow="2"
     inkscape:window-width="717"
     inkscape:window-height="480"
     id="namedview73"
     showgrid="false"
     fit-margin-top="0"
     fit-margin-left="0"
     fit-margin-right="0"
     fit-margin-bottom="0"
     inkscape:zoom="0.28032165"
     inkscape:cx="64.692015"
     inkscape:cy="60.353993"
     inkscape:window-x="0"
     inkscape:window-y="0"
     inkscape:window-maximized="0"
     inkscape:current-layer="Capa_1" /><g
     id="g3"
     transform="translate(-232.948,-352.756)"><path
       d="m 309.736,384.783 c 0.029,12.153 9.885,22.016 22.059,22.016 6.064,0 11.553,-2.455 15.543,-6.415 l -15.611,-15.601 -21.991,0 z"
       id="path5"
       inkscape:connector-curvature="0"
       style="fill:none" /><path
       d="m 254.107,354.561 0,30.163 46.939,0 0.068,22.134 -47.008,0 0,30.59 47.059,0 0,24.547 10.994,0 -0.018,-44.776 22.139,0 -0.006,44.307 26.889,0 0,-106.965 -107.056,0 z m 77.688,52.238 c -12.174,0 -22.029,-9.862 -22.059,-22.016 l 21.99,0 15.611,15.601 c -3.989,3.96 -9.478,6.415 -15.542,6.415 z"
       id="path7"
       inkscape:connector-curvature="0"
       style="fill:#80a2c7" /><path
       d="m 309.736,384.783 c 0.029,12.153 9.885,22.016 22.059,22.016 6.064,0 11.553,-2.455 15.543,-6.415 l -15.611,-15.601 -21.991,0 z"
       id="path9"
       inkscape:connector-curvature="0"
       style="fill:none" /><path
       d="m 309.736,384.783 c 0.029,12.153 9.885,22.016 22.059,22.016 6.064,0 11.553,-2.455 15.543,-6.415 l -15.611,-15.601 -21.991,0 z"
       id="path11"
       inkscape:connector-curvature="0"
       style="fill:none" /><polygon
       points="301.115,406.857 278.971,384.714 253.742,384.714 253.742,384.714 253.742,362.57 301.115,362.57 "
       id="polygon13"
       style="clip-rule:evenodd;fill:#1b4095;fill-rule:evenodd" /><polygon
       points="301.145,462.043 278.932,439.908 253.631,439.908 253.631,439.908 253.631,417.756 301.145,417.756 "
       id="polygon15"
       style="clip-rule:evenodd;fill:#1b4095;fill-rule:evenodd" /><polygon
       points="312.143,417.218 334.275,439.361 334.275,461.524 334.275,461.524 356.418,461.524 356.418,417.218 "
       id="polygon17"
       style="clip-rule:evenodd;fill:#1b4095;fill-rule:evenodd" /><path
       d="m 353.854,384.759 c 0,-0.008 0.006,-0.018 0.006,-0.024 0,-12.189 -9.877,-22.074 -22.064,-22.074 0,0 -0.027,0.002 -0.035,0.002 12.202,0.019 22.085,9.9 22.093,22.096 z"
       id="path19"
       inkscape:connector-curvature="0"
       style="fill:#ffffff" /><path
       d="m 331.76,362.662 c -0.01,0 -0.023,-0.002 -0.023,-0.002 -12.219,0 -22.123,9.905 -22.123,22.123 l 0.123,0 21.99,0 15.611,15.601 0.041,0.042 c 4.008,-4.01 6.48,-9.538 6.48,-15.643 0,-0.008 -0.006,-0.018 -0.006,-0.024 -0.007,-12.196 -9.89,-22.077 -22.093,-22.097 z"
       id="path21"
       inkscape:connector-curvature="0"
       style="fill:#1b4095" /><g
       id="g23"><path
         d="m 244.785,357.427 -5.032,0 0,0.353 c 0,0.542 0.081,0.985 0.244,1.328 0.163,0.343 0.437,0.634 0.822,0.872 0.385,0.238 0.906,0.393 1.563,0.465 l 0,0.316 -6.153,0 0,-0.316 c 1.163,-0.114 1.929,-0.426 2.3,-0.935 0.37,-0.509 0.555,-1.085 0.555,-1.73 l 0,-0.353 -3.749,0 c -0.626,0 -1.018,0.035 -1.175,0.104 -0.157,0.069 -0.293,0.205 -0.411,0.407 -0.117,0.202 -0.176,0.474 -0.176,0.817 l 0,0.407 -0.334,0 0,-6.406 0.334,0 0,0.407 c 0,0.355 0.063,0.641 0.189,0.858 0.084,0.156 0.229,0.277 0.434,0.361 0.145,0.066 0.524,0.099 1.139,0.099 l 8.059,0 c 0.626,0 1.018,-0.033 1.175,-0.099 0.156,-0.066 0.293,-0.201 0.411,-0.402 0.117,-0.202 0.176,-0.474 0.176,-0.817 l 0,-0.407 0.334,0 0,10.336 -3.515,0 0,-0.371 c 0.825,-0.084 1.437,-0.3 1.834,-0.646 0.397,-0.346 0.677,-0.848 0.84,-1.504 0.09,-0.361 0.136,-1.03 0.136,-2.005 l 0,-1.139 z"
         id="path25"
         inkscape:connector-curvature="0"
         style="fill:#1b4095" /><path
         d="m 236.726,369.967 0,-4.328 -1.192,-0.515 c -0.397,-0.169 -0.726,-0.253 -0.985,-0.253 -0.343,0 -0.596,0.138 -0.759,0.416 -0.097,0.163 -0.169,0.563 -0.217,1.202 l -0.334,0 0,-4.075 0.334,0 c 0.066,0.439 0.248,0.801 0.546,1.084 0.298,0.283 0.914,0.633 1.848,1.048 l 9.775,4.382 0,0.171 -10.046,4.418 c -0.952,0.422 -1.551,0.768 -1.798,1.039 -0.187,0.205 -0.295,0.494 -0.325,0.867 l -0.334,0 0,-5.927 0.334,0 0,0.244 c 0,0.476 0.066,0.81 0.199,1.003 0.096,0.132 0.235,0.199 0.416,0.199 0.108,0 0.22,-0.018 0.334,-0.054 0.054,-0.012 0.28,-0.103 0.678,-0.271 l 1.526,-0.65 z m 0.668,-0.307 4.219,-1.825 -4.219,-1.879 0,3.704 z"
         id="path27"
         inkscape:connector-curvature="0"
         style="fill:#1b4095" /><path
         d="m 245.77,387.982 -4.247,0 0,-0.353 c 1.108,-0.265 1.958,-0.759 2.548,-1.481 0.59,-0.723 0.885,-1.542 0.885,-2.458 0,-0.765 -0.22,-1.467 -0.659,-2.105 -0.44,-0.638 -1.015,-1.105 -1.726,-1.4 -0.91,-0.38 -1.921,-0.569 -3.036,-0.569 -1.097,0 -2.095,0.138 -2.995,0.416 -0.9,0.277 -1.581,0.71 -2.042,1.301 -0.46,0.59 -0.691,1.355 -0.691,2.295 0,0.771 0.168,1.477 0.506,2.119 0.338,0.642 0.918,1.317 1.744,2.028 l -1.057,0 c -0.717,-0.687 -1.236,-1.402 -1.559,-2.146 -0.322,-0.744 -0.483,-1.613 -0.483,-2.607 0,-1.307 0.262,-2.468 0.786,-3.482 0.524,-1.015 1.277,-1.798 2.259,-2.349 0.981,-0.551 2.027,-0.827 3.135,-0.827 1.168,0 2.277,0.306 3.325,0.917 1.048,0.611 1.861,1.437 2.439,2.476 0.579,1.039 0.868,2.143 0.868,3.311 0,0.861 -0.187,1.771 -0.56,2.729 -0.217,0.554 -0.326,0.906 -0.326,1.057 0,0.192 0.071,0.36 0.212,0.501 0.142,0.141 0.366,0.233 0.673,0.275 l 0,0.352 z"
         id="path29"
         inkscape:connector-curvature="0"
         style="fill:#1b4095" /><path
         d="m 245.489,389.428 0,6.324 -0.334,0 0,-0.316 c 0,-0.476 -0.049,-0.803 -0.149,-0.98 -0.099,-0.178 -0.236,-0.304 -0.411,-0.379 -0.175,-0.075 -0.611,-0.113 -1.31,-0.113 l -5.999,0 c -1.096,0 -1.822,0.083 -2.177,0.248 -0.355,0.166 -0.65,0.438 -0.885,0.818 -0.235,0.38 -0.353,0.858 -0.353,1.437 0,0.663 0.149,1.227 0.447,1.694 0.298,0.467 0.709,0.816 1.233,1.048 0.524,0.231 1.437,0.348 2.737,0.348 l 4.996,0 c 0.548,0 0.94,-0.057 1.175,-0.172 0.235,-0.114 0.397,-0.259 0.488,-0.434 0.139,-0.271 0.208,-0.653 0.208,-1.147 l 0.334,0 0,4.237 -0.334,0 0,-0.253 c 0,-0.343 -0.069,-0.629 -0.208,-0.858 -0.139,-0.229 -0.347,-0.395 -0.624,-0.497 -0.193,-0.079 -0.539,-0.118 -1.039,-0.118 l -4.653,0 c -1.439,0 -2.479,-0.095 -3.117,-0.285 -0.639,-0.189 -1.226,-0.652 -1.762,-1.387 -0.536,-0.735 -0.804,-1.738 -0.804,-3.008 0,-1.06 0.142,-1.879 0.425,-2.458 0.385,-0.789 0.879,-1.346 1.481,-1.671 0.602,-0.325 1.413,-0.488 2.43,-0.488 l 5.999,0 c 0.705,0 1.143,-0.04 1.315,-0.118 0.171,-0.078 0.309,-0.214 0.411,-0.406 0.103,-0.193 0.151,-0.548 0.145,-1.066 l 0.335,0 z"
         id="path31"
         inkscape:connector-curvature="0"
         style="fill:#1b4095" /><path
         d="m 237.539,414.038 -4.3,-0.46 0,-10.878 0.334,0 0,0.407 c 0,0.355 0.063,0.641 0.189,0.858 0.084,0.156 0.229,0.277 0.434,0.361 0.145,0.066 0.524,0.099 1.139,0.099 l 8.059,0 c 0.626,0 1.018,-0.033 1.175,-0.099 0.156,-0.066 0.293,-0.201 0.411,-0.402 0.117,-0.202 0.176,-0.474 0.176,-0.817 l 0,-0.407 0.334,0 0,6.532 -0.334,0 0,-0.533 c 0,-0.355 -0.063,-0.642 -0.189,-0.858 -0.084,-0.157 -0.229,-0.28 -0.434,-0.37 -0.145,-0.066 -0.524,-0.1 -1.139,-0.1 l -7.806,0 c -0.626,0 -1.025,0.036 -1.197,0.108 -0.171,0.072 -0.3,0.214 -0.384,0.425 -0.054,0.15 -0.082,0.515 -0.082,1.093 l 0,1.021 c 0,0.65 0.114,1.192 0.343,1.626 0.229,0.434 0.59,0.809 1.084,1.125 0.494,0.316 1.223,0.616 2.186,0.899 l 0,0.37 z"
         id="path33"
         inkscape:connector-curvature="0"
         style="fill:#1b4095" /><path
         d="m 245.489,424.672 -3.316,0 0,-0.325 c 0.765,-0.192 1.315,-0.407 1.649,-0.642 0.334,-0.234 0.601,-0.557 0.8,-0.967 0.108,-0.229 0.163,-0.629 0.163,-1.202 l 0,-0.912 -9.45,0 c -0.626,0 -1.018,0.034 -1.175,0.104 -0.157,0.07 -0.293,0.205 -0.411,0.407 -0.117,0.202 -0.176,0.477 -0.176,0.827 l 0,0.407 -0.334,0 0,-6.415 0.334,0 0,0.407 c 0,0.355 0.063,0.642 0.189,0.858 0.084,0.157 0.229,0.28 0.434,0.371 0.145,0.066 0.524,0.099 1.139,0.099 l 9.45,0 0,-0.885 c 0,-0.825 -0.175,-1.425 -0.524,-1.798 -0.488,-0.524 -1.184,-0.855 -2.087,-0.994 l 0,-0.343 3.316,0 0,11.003 z"
         id="path35"
         inkscape:connector-curvature="0"
         style="fill:#1b4095" /><path
         d="m 236.726,431.665 0,-4.327 -1.192,-0.516 c -0.397,-0.169 -0.726,-0.253 -0.985,-0.253 -0.343,0 -0.596,0.138 -0.759,0.415 -0.097,0.163 -0.169,0.563 -0.217,1.202 l -0.334,0 0,-4.075 0.334,0 c 0.066,0.439 0.248,0.801 0.546,1.084 0.298,0.283 0.914,0.633 1.848,1.049 l 9.775,4.382 0,0.171 -10.046,4.418 c -0.952,0.422 -1.551,0.769 -1.798,1.039 -0.187,0.205 -0.295,0.494 -0.325,0.867 l -0.334,0 0,-5.926 0.334,0 0,0.244 c 0,0.475 0.066,0.81 0.199,1.002 0.096,0.133 0.235,0.199 0.416,0.199 0.108,0 0.22,-0.018 0.334,-0.055 0.054,-0.012 0.28,-0.102 0.678,-0.271 l 1.526,-0.649 z m 0.668,-0.308 4.219,-1.824 -4.219,-1.88 0,3.704 z"
         id="path37"
         inkscape:connector-curvature="0"
         style="fill:#1b4095" /><path
         d="m 233.238,437.574 0.334,0 0,0.406 c 0,0.355 0.056,0.627 0.167,0.817 0.111,0.189 0.263,0.329 0.456,0.42 0.126,0.054 0.506,0.081 1.139,0.081 l 8.059,0 c 0.626,0 1.018,-0.033 1.175,-0.1 0.156,-0.066 0.293,-0.199 0.411,-0.401 0.117,-0.202 0.176,-0.475 0.176,-0.817 l 0,-0.406 0.334,0 0,5.483 c 0,1.464 -0.199,2.642 -0.596,3.532 -0.488,1.09 -1.226,1.917 -2.213,2.48 -0.988,0.563 -2.105,0.845 -3.352,0.845 -0.861,0 -1.655,-0.139 -2.381,-0.415 -0.726,-0.277 -1.325,-0.637 -1.798,-1.076 -0.473,-0.439 -0.852,-0.947 -1.138,-1.521 -0.286,-0.576 -0.507,-1.279 -0.664,-2.11 -0.072,-0.367 -0.108,-0.945 -0.108,-1.734 l 0,-5.484 z m 11.555,4.67 -9.559,0 c -0.506,0 -0.816,0.024 -0.931,0.072 -0.114,0.049 -0.202,0.13 -0.262,0.244 -0.09,0.162 -0.136,0.397 -0.136,0.705 0,1.006 0.343,1.773 1.03,2.304 0.927,0.723 2.367,1.084 4.318,1.084 1.572,0 2.828,-0.247 3.768,-0.741 0.735,-0.391 1.234,-0.895 1.5,-1.508 0.188,-0.433 0.279,-1.154 0.272,-2.16 z"
         id="path39"
         inkscape:connector-curvature="0"
         style="fill:#1b4095" /><path
         d="m 233.238,456.302 0.334,0 0,0.406 c 0,0.355 0.056,0.628 0.167,0.817 0.111,0.189 0.263,0.33 0.456,0.42 0.126,0.055 0.506,0.082 1.139,0.082 l 8.059,0 c 0.626,0 1.018,-0.033 1.175,-0.1 0.156,-0.066 0.293,-0.2 0.411,-0.402 0.117,-0.201 0.176,-0.475 0.176,-0.817 l 0,-0.406 0.334,0 0,5.483 c 0,1.464 -0.199,2.642 -0.596,3.533 -0.488,1.09 -1.226,1.916 -2.213,2.48 -0.988,0.563 -2.105,0.844 -3.352,0.844 -0.861,0 -1.655,-0.139 -2.381,-0.415 -0.726,-0.277 -1.325,-0.636 -1.798,-1.075 -0.473,-0.439 -0.852,-0.947 -1.138,-1.522 -0.286,-0.575 -0.507,-1.278 -0.664,-2.11 -0.072,-0.367 -0.108,-0.945 -0.108,-1.734 l 0,-5.484 z m 11.555,4.671 -9.559,0 c -0.506,0 -0.816,0.023 -0.931,0.072 -0.114,0.048 -0.202,0.129 -0.262,0.244 -0.09,0.162 -0.136,0.396 -0.136,0.704 0,1.006 0.343,1.774 1.03,2.304 0.927,0.723 2.367,1.084 4.318,1.084 1.572,0 2.828,-0.246 3.768,-0.74 0.735,-0.392 1.234,-0.895 1.5,-1.509 0.188,-0.434 0.279,-1.153 0.272,-2.159 z"
         id="path41"
         inkscape:connector-curvature="0"
         style="fill:#1b4095" /><path
         d="m 244.785,474.832 -4.987,0 0,0.243 c 0,0.777 0.244,1.341 0.732,1.689 0.488,0.35 1.208,0.572 2.159,0.669 l 0,0.344 -6.415,0 0,-0.344 c 0.699,-0.072 1.271,-0.225 1.717,-0.457 0.445,-0.231 0.745,-0.501 0.899,-0.809 0.153,-0.307 0.23,-0.752 0.23,-1.336 l -3.451,0 c -0.674,0 -1.087,0.027 -1.238,0.085 -0.15,0.058 -0.274,0.164 -0.37,0.321 -0.097,0.156 -0.145,0.409 -0.145,0.759 l 0,0.731 c 0,1.145 0.265,2.062 0.795,2.751 0.53,0.69 1.337,1.185 2.421,1.486 l 0,0.335 -3.894,-0.552 0,-10.587 0.334,0 0,0.406 c 0,0.355 0.063,0.643 0.189,0.859 0.084,0.156 0.229,0.276 0.434,0.361 0.145,0.066 0.524,0.1 1.139,0.1 l 8.059,0 c 0.554,0 0.895,-0.016 1.021,-0.046 0.211,-0.06 0.374,-0.171 0.488,-0.334 0.169,-0.229 0.253,-0.542 0.253,-0.94 l 0,-0.406 0.334,0 0,10.255 -3.623,0 0,-0.344 c 0.886,-0.175 1.521,-0.42 1.907,-0.736 0.385,-0.315 0.668,-0.763 0.849,-1.341 0.108,-0.338 0.163,-0.971 0.163,-1.898 l 0,-1.264 z"
         id="path43"
         inkscape:connector-curvature="0"
         style="fill:#1b4095" /></g><g
       id="g45"><path
         d="m 259.272,480.693 0,0.323 -6.191,0 0,-0.323 0.393,0 c 0.343,0 0.62,-0.061 0.83,-0.184 0.151,-0.081 0.268,-0.221 0.349,-0.419 0.064,-0.14 0.096,-0.507 0.096,-1.101 l 0,-7.788 c 0,-0.604 -0.032,-0.983 -0.096,-1.135 -0.064,-0.152 -0.194,-0.284 -0.389,-0.397 -0.195,-0.113 -0.458,-0.17 -0.79,-0.17 l -0.393,0 0,-0.323 6.191,0 0,0.323 -0.393,0 c -0.344,0 -0.62,0.061 -0.83,0.184 -0.151,0.081 -0.271,0.221 -0.358,0.418 -0.064,0.141 -0.096,0.507 -0.096,1.101 l 0,7.788 c 0,0.605 0.034,0.984 0.101,1.136 0.067,0.152 0.198,0.284 0.393,0.397 0.195,0.113 0.458,0.17 0.79,0.17 l 0.393,0 z"
         id="path47"
         inkscape:connector-curvature="0"
         style="fill:#1b4095" /><path
         d="m 264.136,469.177 5.841,7.343 0,-5.09 c 0,-0.711 -0.102,-1.19 -0.306,-1.441 -0.279,-0.337 -0.748,-0.5 -1.406,-0.488 l 0,-0.323 3.912,0 0,0.323 c -0.5,0.064 -0.837,0.146 -1.008,0.248 -0.172,0.103 -0.306,0.269 -0.402,0.498 -0.096,0.23 -0.144,0.625 -0.144,1.184 l 0,9.857 -0.297,0 -8.007,-9.857 0,7.526 c 0,0.681 0.156,1.142 0.467,1.38 0.311,0.238 0.668,0.357 1.07,0.357 l 0.279,0 0,0.323 -4.2,0 0,-0.323 c 0.652,-0.006 1.105,-0.14 1.362,-0.401 0.256,-0.263 0.384,-0.708 0.384,-1.336 l 0,-8.357 -0.253,-0.314 c -0.25,-0.314 -0.471,-0.521 -0.664,-0.619 -0.192,-0.1 -0.468,-0.154 -0.829,-0.166 l 0,-0.323 4.201,0 z"
         id="path49"
         inkscape:connector-curvature="0"
         style="fill:#1b4095" /><path
         d="m 284.934,468.906 0,4.174 -0.323,0 c -0.39,-1.141 -0.975,-2.009 -1.755,-2.603 -0.78,-0.594 -1.633,-0.891 -2.559,-0.891 -0.885,0 -1.621,0.249 -2.209,0.747 -0.588,0.497 -1.004,1.191 -1.249,2.082 -0.245,0.891 -0.367,1.805 -0.367,2.742 0,1.135 0.134,2.13 0.401,2.986 0.268,0.855 0.7,1.484 1.297,1.885 0.597,0.402 1.305,0.604 2.126,0.604 0.285,0 0.578,-0.031 0.877,-0.092 0.3,-0.062 0.607,-0.15 0.921,-0.267 l 0,-2.462 c 0,-0.466 -0.032,-0.768 -0.096,-0.904 -0.064,-0.136 -0.196,-0.26 -0.397,-0.371 -0.201,-0.11 -0.444,-0.166 -0.729,-0.166 l -0.306,0 0,-0.322 5.754,0 0,0.322 c -0.437,0.029 -0.741,0.09 -0.913,0.18 -0.172,0.09 -0.304,0.24 -0.397,0.449 -0.052,0.111 -0.079,0.381 -0.079,0.813 l 0,2.462 c -0.756,0.338 -1.544,0.593 -2.362,0.765 -0.818,0.171 -1.666,0.257 -2.545,0.257 -1.124,0 -2.057,-0.153 -2.799,-0.458 -0.742,-0.306 -1.397,-0.707 -1.964,-1.205 -0.567,-0.498 -1.012,-1.059 -1.332,-1.682 -0.408,-0.803 -0.611,-1.702 -0.611,-2.697 0,-1.781 0.626,-3.286 1.877,-4.514 1.251,-1.229 2.826,-1.843 4.724,-1.843 0.588,0 1.118,0.046 1.589,0.14 0.256,0.047 0.671,0.179 1.244,0.396 0.573,0.219 0.913,0.328 1.017,0.328 0.163,0 0.314,-0.06 0.454,-0.18 0.14,-0.119 0.268,-0.344 0.384,-0.676 l 0.327,0 z"
         id="path51"
         inkscape:connector-curvature="0"
         style="fill:#1b4095" /><path
         d="m 291.378,469.857 0,4.82 0.236,0 c 0.751,0 1.295,-0.236 1.633,-0.707 0.337,-0.473 0.553,-1.168 0.646,-2.088 l 0.332,0 0,6.2 -0.332,0 c -0.07,-0.675 -0.217,-1.229 -0.441,-1.659 -0.224,-0.43 -0.484,-0.721 -0.781,-0.869 -0.297,-0.148 -0.728,-0.223 -1.292,-0.223 l 0,3.336 c 0,0.652 0.028,1.051 0.083,1.196 0.055,0.145 0.159,0.265 0.31,0.358 0.151,0.093 0.396,0.139 0.733,0.139 l 0.707,0 c 1.106,0 1.992,-0.256 2.659,-0.768 0.667,-0.513 1.145,-1.293 1.436,-2.34 l 0.323,0 -0.533,3.763 -10.233,0 0,-0.323 0.393,0 c 0.343,0 0.62,-0.061 0.83,-0.184 0.151,-0.081 0.268,-0.221 0.349,-0.419 0.064,-0.14 0.096,-0.507 0.096,-1.101 l 0,-7.788 c 0,-0.535 -0.015,-0.864 -0.044,-0.986 -0.058,-0.204 -0.166,-0.36 -0.323,-0.472 -0.222,-0.162 -0.524,-0.244 -0.908,-0.244 l -0.393,0 0,-0.323 9.91,0 0,3.501 -0.332,0 c -0.169,-0.855 -0.406,-1.47 -0.711,-1.842 -0.306,-0.373 -0.738,-0.646 -1.297,-0.821 -0.326,-0.104 -0.938,-0.157 -1.833,-0.157 l -1.223,0 z"
         id="path53"
         inkscape:connector-curvature="0"
         style="fill:#1b4095" /><path
         d="m 302.887,469.177 5.841,7.343 0,-5.09 c 0,-0.711 -0.103,-1.19 -0.306,-1.441 -0.279,-0.337 -0.748,-0.5 -1.406,-0.488 l 0,-0.323 3.912,0 0,0.323 c -0.5,0.064 -0.837,0.146 -1.008,0.248 -0.172,0.103 -0.307,0.269 -0.402,0.498 -0.096,0.23 -0.145,0.625 -0.145,1.184 l 0,9.857 -0.297,0 -8.006,-9.857 0,7.526 c 0,0.681 0.155,1.142 0.467,1.38 0.312,0.238 0.668,0.357 1.07,0.357 l 0.279,0 0,0.323 -4.2,0 0,-0.323 c 0.651,-0.006 1.105,-0.14 1.362,-0.401 0.256,-0.263 0.384,-0.708 0.384,-1.336 l 0,-8.357 -0.253,-0.314 c -0.25,-0.314 -0.472,-0.521 -0.664,-0.619 -0.191,-0.1 -0.469,-0.154 -0.829,-0.166 l 0,-0.323 4.201,0 z"
         id="path55"
         inkscape:connector-curvature="0"
         style="fill:#1b4095" /><path
         d="m 317.896,480.693 0,0.323 -6.191,0 0,-0.323 0.393,0 c 0.344,0 0.62,-0.061 0.83,-0.184 0.151,-0.081 0.268,-0.221 0.35,-0.419 0.063,-0.14 0.096,-0.507 0.096,-1.101 l 0,-7.788 c 0,-0.604 -0.032,-0.983 -0.096,-1.135 -0.064,-0.151 -0.194,-0.284 -0.389,-0.397 -0.195,-0.113 -0.459,-0.17 -0.791,-0.17 l -0.393,0 0,-0.323 6.191,0 0,0.323 -0.395,0 c -0.342,0 -0.619,0.061 -0.828,0.184 -0.152,0.081 -0.271,0.221 -0.358,0.418 -0.063,0.141 -0.097,0.507 -0.097,1.101 l 0,7.788 c 0,0.605 0.034,0.984 0.102,1.136 0.066,0.151 0.197,0.284 0.393,0.397 0.196,0.113 0.459,0.17 0.789,0.17 l 0.394,0 z"
         id="path57"
         inkscape:connector-curvature="0"
         style="fill:#1b4095" /><path
         d="m 323.178,469.857 0,4.82 0.236,0 c 0.75,0 1.295,-0.236 1.633,-0.707 0.338,-0.473 0.553,-1.168 0.646,-2.088 l 0.332,0 0,6.2 -0.332,0 c -0.07,-0.675 -0.217,-1.229 -0.441,-1.659 -0.224,-0.43 -0.484,-0.721 -0.781,-0.869 -0.297,-0.148 -0.729,-0.223 -1.293,-0.223 l 0,3.336 c 0,0.652 0.027,1.051 0.084,1.196 0.055,0.146 0.158,0.265 0.309,0.358 0.152,0.093 0.396,0.139 0.734,0.139 l 0.707,0 c 1.105,0 1.992,-0.256 2.658,-0.768 0.668,-0.513 1.146,-1.293 1.438,-2.34 l 0.322,0 -0.531,3.763 -10.234,0 0,-0.323 0.393,0 c 0.344,0 0.621,-0.061 0.83,-0.184 0.15,-0.081 0.268,-0.221 0.35,-0.419 0.064,-0.14 0.096,-0.507 0.096,-1.101 l 0,-7.788 c 0,-0.535 -0.016,-0.864 -0.043,-0.986 -0.059,-0.204 -0.166,-0.36 -0.324,-0.472 -0.221,-0.162 -0.523,-0.244 -0.908,-0.244 l -0.393,0 0,-0.323 9.91,0 0,3.501 -0.332,0 c -0.168,-0.855 -0.406,-1.47 -0.711,-1.842 -0.307,-0.373 -0.738,-0.646 -1.297,-0.821 -0.326,-0.104 -0.938,-0.157 -1.834,-0.157 l -1.224,0 z"
         id="path59"
         inkscape:connector-curvature="0"
         style="fill:#1b4095" /><path
         d="m 334.982,475.621 0,3.317 c 0,0.641 0.039,1.044 0.119,1.21 0.078,0.165 0.217,0.298 0.414,0.396 0.197,0.1 0.568,0.148 1.109,0.148 l 0,0.323 -6.061,0 0,-0.323 c 0.547,0 0.918,-0.051 1.113,-0.152 0.195,-0.101 0.332,-0.234 0.41,-0.397 0.078,-0.163 0.119,-0.564 0.119,-1.205 l 0,-7.684 c 0,-0.641 -0.041,-1.044 -0.119,-1.21 -0.078,-0.166 -0.217,-0.298 -0.414,-0.396 -0.197,-0.1 -0.568,-0.148 -1.109,-0.148 l 0,-0.323 5.502,0 c 1.432,0 2.479,0.099 3.143,0.297 0.664,0.198 1.205,0.563 1.623,1.096 0.42,0.532 0.629,1.157 0.629,1.873 0,0.873 -0.314,1.595 -0.941,2.165 -0.402,0.361 -0.965,0.632 -1.686,0.813 l 2.846,4.008 c 0.373,0.518 0.637,0.841 0.795,0.969 0.238,0.181 0.516,0.279 0.83,0.297 l 0,0.323 -3.729,0 -3.816,-5.396 -0.777,0 z m 0,-5.807 0,5.186 0.498,0 c 0.809,0 1.414,-0.074 1.816,-0.223 0.402,-0.149 0.717,-0.416 0.947,-0.803 0.23,-0.387 0.346,-0.893 0.346,-1.516 0,-0.901 -0.213,-1.568 -0.635,-1.999 -0.422,-0.431 -1.102,-0.646 -2.037,-0.646 l -0.935,0 z"
         id="path61"
         inkscape:connector-curvature="0"
         style="fill:#1b4095" /><path
         d="m 349.695,480.693 0,0.323 -6.189,0 0,-0.323 0.393,0 c 0.344,0 0.619,-0.061 0.828,-0.184 0.152,-0.081 0.268,-0.221 0.35,-0.419 0.064,-0.14 0.096,-0.507 0.096,-1.101 l 0,-7.788 c 0,-0.604 -0.031,-0.983 -0.096,-1.135 -0.065,-0.152 -0.193,-0.284 -0.389,-0.397 -0.196,-0.113 -0.457,-0.17 -0.789,-0.17 l -0.393,0 0,-0.323 6.189,0 0,0.323 -0.393,0 c -0.344,0 -0.619,0.061 -0.83,0.184 -0.15,0.081 -0.27,0.221 -0.357,0.418 -0.064,0.141 -0.096,0.507 -0.096,1.101 l 0,7.788 c 0,0.605 0.033,0.984 0.1,1.136 0.067,0.152 0.199,0.284 0.393,0.397 0.195,0.113 0.459,0.17 0.791,0.17 l 0.392,0 z"
         id="path63"
         inkscape:connector-curvature="0"
         style="fill:#1b4095" /><path
         d="m 357.545,477.646 -4.182,0 -0.498,1.152 c -0.164,0.385 -0.244,0.701 -0.244,0.951 0,0.332 0.133,0.576 0.4,0.734 0.158,0.093 0.545,0.162 1.162,0.209 l 0,0.323 -3.938,0 0,-0.323 c 0.424,-0.064 0.773,-0.24 1.047,-0.528 0.274,-0.288 0.611,-0.883 1.014,-1.785 l 4.234,-9.448 0.166,0 4.27,9.71 c 0.408,0.92 0.742,1.499 1.004,1.737 0.197,0.181 0.479,0.285 0.838,0.314 l 0,0.323 -5.727,0 0,-0.323 0.234,0 c 0.461,0 0.783,-0.064 0.971,-0.191 0.127,-0.094 0.191,-0.228 0.191,-0.402 0,-0.104 -0.018,-0.213 -0.053,-0.322 -0.012,-0.053 -0.1,-0.271 -0.262,-0.655 l -0.627,-1.476 z m -0.297,-0.646 -1.764,-4.078 -1.816,4.078 3.58,0 z"
         id="path65"
         inkscape:connector-curvature="0"
         style="fill:#1b4095" /></g><polyline
       stroke-miterlimit="2.4142"
       points="334.281,461.514    361.164,461.524 361.164,354.561 254.107,354.561 254.107,384.783  "
       id="polyline67"
       style="fill:none;stroke:#1b4095;stroke-width:0.82660002;stroke-miterlimit:2.41420007" /><line
       stroke-miterlimit="2.4142"
       x1="254.10699"
       y1="406.85699"
       x2="254.10699"
       y2="439.90799"
       id="line69"
       style="fill:none;stroke:#1b4095;stroke-width:1.03320003;stroke-miterlimit:2.41420007" /><line
       stroke-miterlimit="2.4142"
       x1="301.14499"
       y1="461.51401"
       x2="312.16"
       y2="461.51401"
       id="line71"
       style="fill:none;stroke:#1b4095;stroke-width:1.03320003;stroke-miterlimit:2.41420007" /></g></svg>