<?xml version="1.0" encoding="UTF-8" standalone="no"?>
<!-- Created with Inkscape (http://www.inkscape.org/) -->

<svg
   xmlns:dc="http://purl.org/dc/elements/1.1/"
   xmlns:cc="http://creativecommons.org/ns#"
   xmlns:rdf="http://www.w3.org/1999/02/22-rdf-syntax-ns#"
   xmlns:svg="http://www.w3.org/2000/svg"
   xmlns="http://www.w3.org/2000/svg"
   xmlns:sodipodi="http://sodipodi.sourceforge.net/DTD/sodipodi-0.dtd"
   xmlns:inkscape="http://www.inkscape.org/namespaces/inkscape"
   id="svg4511"
   version="1.1"
   inkscape:version="0.91 r13725"
   width="793.37476"
   height="558.98273"
   viewBox="0 0 793.37478 558.98273"
   sodipodi:docname="logo_EUM.svg">
  <metadata
     id="metadata4517">
    <rdf:RDF>
      <cc:Work
         rdf:about="">
        <dc:format>image/svg+xml</dc:format>
        <dc:type
           rdf:resource="http://purl.org/dc/dcmitype/StillImage" />
        <dc:title></dc:title>
      </cc:Work>
    </rdf:RDF>
  </metadata>
  <defs
     id="defs4515" />
  <sodipodi:namedview
     pagecolor="#ffffff"
     bordercolor="#666666"
     borderopacity="1"
     objecttolerance="10"
     gridtolerance="10"
     guidetolerance="10"
     inkscape:pageopacity="0"
     inkscape:pageshadow="2"
     inkscape:window-width="1844"
     inkscape:window-height="780"
     id="namedview4513"
     showgrid="false"
     fit-margin-top="0"
     fit-margin-left="0"
     fit-margin-right="0"
     fit-margin-bottom="0"
     inkscape:zoom="0.81400718"
     inkscape:cx="1072.7131"
     inkscape:cy="213.32459"
     inkscape:window-x="0"
     inkscape:window-y="0"
     inkscape:window-maximized="0"
     inkscape:current-layer="svg4511" />
  <path
     style="fill:#000000;fill-opacity:0.87058824"
     d="m 381.04578,558.55776 c -0.23594,-0.236 -3.44219,-0.8475 -7.125,-1.3589 -20.36301,-2.8278 -44.76132,-12.004 -62.946,-23.6741 -15.94153,-10.2306 -34.04032,-27.4952 -45.48427,-43.388 -12.24596,-17.0066 -22.95252,-42.2126 -27.52464,-64.8 -1.86447,-9.211 -2.04004,-13.0946 -2.52252,-55.8 l -0.51857,-45.9 -46.35,-0.5053 c -45.80463,-0.4993 -46.48237,-0.5334 -57.6,-2.8972 -37.271921,-7.9246 -68.35879,-25.617 -92.023,-52.3726 -19.135811,-21.6357 -31.2765773,-46.8192 -37.3259843,-77.4249 -2.21692796,-11.2162 -2.15355496,-42.2917 0.110121,-54 C 6.2558897,113.05816 14.451683,92.359257 26.324617,74.336767 48.606068,40.51465 80.941949,16.89947 120.17478,5.79715 138.99947,0.47004 133.1277,0.75323 232.89978,0.36048 L 324.47478,0 l 0,44.56728 0,44.567277 -85.725,0.2681 -85.725,0.2681 -6.59577,2.0308 c -13.29723,4.094 -24.22926,10.859103 -33.94985,21.009203 -7.63578,7.9732 -9.03507,9.9264 -13.773341,19.226 -11.22918,22.039 -9.41793,46.3477 5.080351,68.1832 8.6317,12.9999 22.70772,24.3557 36.57903,29.5101 12.10352,4.4974 10.56516,4.4291 100.14263,4.4434 l 83.88304,0.013 0.33209,86.175 c 0.32393,84.0567 0.3777,86.3187 2.18737,92.025 4.40269,13.8823 10.5321,23.8733 20.9436,34.1381 22.6757,22.3561 54.54214,27.4514 81.02085,12.9549 19.85476,-10.87 33.67511,-28.6685 39.11422,-50.373 1.22714,-4.8968 1.38578,-28.62 1.38578,-207.225 l 0,-201.69501 45.01583,0 45.01583,0 -0.27671,206.77491 -0.27672,206.775 -1.98582,9.9 c -7.56395,37.7088 -22.56573,66.4258 -47.42076,90.7746 -14.34583,14.0537 -36.69166,28.5689 -52.86117,34.337 -22.7029,8.0988 -35.40288,10.3296 -58.83548,10.3348 -8.95125,0 -16.46805,-0.1894 -16.704,-0.4254 z"
     id="path5652"
     inkscape:connector-curvature="0" />
  <path
     style="fill:#000000;fill-opacity:0.87058824"
     d="m 587.27478,161.63856 0,-161.56695 44.325,0.23348 44.325,0.23348 0,161.09999 0,161.1 -44.325,0.2334 -44.325,0.2335 z"
     id="path5632"
     inkscape:connector-curvature="0" />
  <path
     style="fill:#000000;fill-opacity:0.87058824"
     d="m 704.27478,161.63856 0,-161.54999 44.55,0 44.55,0 0,161.54999 0,161.55 -44.55,0 -44.55,0 z"
     id="path5630"
     inkscape:connector-curvature="0" />
  <path
     style="fill:#000000;fill-opacity:0.87058824"
     d="m 158.3836,203.93436 c -14.97504,-2.7494 -26.05585,-11.9225 -31.52301,-26.0958 -2.50995,-6.507 -2.50246,-25.9268 0.0125,-32.4 3.78019,-9.7299 9.17944,-16.2751 17.06179,-20.6831 10.73548,-6.0037 8.92744,-5.8934 96.58625,-5.8883 43.452,0 80.12131,0.01 81.48737,0.013 l 2.48372,0.01 -0.23372,42.9749 -0.23373,42.975 -79.65,0.1301 c -61.74738,0.1008 -81.07529,-0.1316 -85.99118,-1.0342 z"
     id="path5620"
     inkscape:connector-curvature="0" />
  <path
     inkscape:connector-curvature="0"
     style="fill:#ff5300;fill-opacity:1"
     d="m 438.89304,400.12366 c -2.7494,14.975 -11.9225,26.0558 -26.0958,31.523 -6.507,2.5099 -25.9268,2.5024 -32.4,-0.012 -9.7299,-3.7802 -16.2751,-9.1795 -20.6831,-17.0618 -6.0037,-10.7355 -5.8934,-8.9274 -5.8883,-96.5863 0,-43.452 0.01,-80.1213 0.013,-81.4873 l 0.01,-2.4837 42.9749,0.2337 42.975,0.2337 0.1301,79.65 c 0.1008,61.7474 -0.1316,81.0753 -1.0342,85.9912 z"
     id="path5620-9" />
</svg>
