<?xml version="1.0" encoding="UTF-8" standalone="no"?>
<svg
   xmlns:dc="http://purl.org/dc/elements/1.1/"
   xmlns:cc="http://creativecommons.org/ns#"
   xmlns:rdf="http://www.w3.org/1999/02/22-rdf-syntax-ns#"
   xmlns:svg="http://www.w3.org/2000/svg"
   xmlns="http://www.w3.org/2000/svg"
   xmlns:xlink="http://www.w3.org/1999/xlink"
   xmlns:sodipodi="http://sodipodi.sourceforge.net/DTD/sodipodi-0.dtd"
   xmlns:inkscape="http://www.inkscape.org/namespaces/inkscape"
   id="svg2"
   height="200"
   width="800"
   y="0px"
   x="0px"
   version="1.1"
   inkscape:version="0.91 r13725"
   sodipodi:docname="logo_ICSC2017.svg">
  <sodipodi:namedview
     pagecolor="#ffffff"
     bordercolor="#666666"
     borderopacity="1"
     objecttolerance="10"
     gridtolerance="10"
     guidetolerance="10"
     inkscape:pageopacity="0"
     inkscape:pageshadow="2"
     inkscape:window-width="1588"
     inkscape:window-height="672"
     id="namedview12"
     showgrid="false"
     inkscape:zoom="0.93796287"
     inkscape:cx="214.49154"
     inkscape:cy="100"
     inkscape:window-x="0"
     inkscape:window-y="0"
     inkscape:window-maximized="0"
     inkscape:current-layer="svg2"
     fit-margin-top="0"
     fit-margin-left="0"
     fit-margin-right="0"
     fit-margin-bottom="0" />
  <metadata
     id="metadata10">
    <rdf:RDF>
      <cc:Work
         rdf:about="">
        <dc:format>image/svg+xml</dc:format>
        <dc:type
           rdf:resource="http://purl.org/dc/dcmitype/StillImage" />
        <dc:title></dc:title>
      </cc:Work>
    </rdf:RDF>
  </metadata>
  <defs
     id="defs8">
    <linearGradient
       id="linearGradient4142">
      <stop
         id="stop4144"
         offset="0"
         style="stop-color:#00003c;stop-opacity:1;" />
      <stop
         id="stop4146"
         offset="1"
         style="stop-color:#00003c;stop-opacity:0;" />
    </linearGradient>
    <linearGradient
       gradientUnits="userSpaceOnUse"
       y2="294.69623"
       x2="670.24414"
       y1="294.69623"
       x1="548.89801"
       id="linearGradient4148"
       xlink:href="#linearGradient4142" />
  </defs>
  <g
     id="g3571"
     transform="scale(0.39423729,0.390625)">
    <path
       d="m 507.62173,256 c 0,141.38489 -113.63501,256 -253.81086,256 C 113.63501,512 0,397.38489 0,256 0,114.61511 113.63499,0 253.81087,0 393.98674,0 507.62173,114.6151 507.62173,256 Z m -291.96537,-13.6082 0,-53.01898 C 190.0351,170.96469 129.03212,159.37411 88.770142,197.806 c -40.261979,38.43188 -34.771698,130.70724 0,160.59872 34.771708,29.89145 91.558108,34.05442 133.040128,-1.93734 l -16.52443,-31.88242 c -24.91487,20.89816 -95.15718,35.48898 -95.15718,-45.59137 0,-93.94458 67.09581,-64.71678 67.09581,-64.71678 l 0,29.94508 38.43189,-1.83009 z m 36.48777,-49.34283 c 0,84.91209 121.89948,58.59558 122.69797,109.96116 0.69263,44.55365 -78.45605,41.81711 -81.51559,25.04904 l 0,-29.7192 -40.61121,1.38497 0,61.93223 c 45.28137,35.60537 173.5054,30.30465 173.5054,-59.38688 0,-93.93714 -125.5278,-70.16177 -125.5278,-117.58175 0,-34.67772 57.59134,-40.88858 72.50119,-24.1081 l 0,32.2408 43.27054,-5.09065 0,-62.78472 c -93.41891,-32.51773 -164.3205,-8.74235 -164.3205,68.1031 z"
       id="path4"
       style="fill:#00003c;fill-opacity:1"
       inkscape:connector-curvature="0" />
    <g
       id="text4138"
       style="color:#000000;font-style:normal;font-variant:normal;font-weight:bold;font-stretch:normal;font-size:373.24801636px;line-height:100%;font-family:'Roboto Condensed';-inkscape-font-specification:'Roboto Condensed,  Bold';text-indent:0;text-align:justify;text-decoration:none;text-decoration-line:none;text-decoration-style:solid;text-decoration-color:#000000;letter-spacing:-1.24416006px;word-spacing:13.10515213px;text-transform:none;direction:ltr;block-progression:tb;writing-mode:lr-tb;baseline-shift:baseline;text-anchor:start;white-space:normal;clip-rule:nonzero;display:inline;overflow:visible;visibility:visible;opacity:1;isolation:auto;mix-blend-mode:normal;color-interpolation:sRGB;color-interpolation-filters:linearRGB;solid-color:#000000;solid-opacity:1;fill:#00003c;fill-opacity:1;fill-rule:nonzero;stroke:#141e50;stroke-width:0;stroke-linecap:butt;stroke-linejoin:round;stroke-miterlimit:4;stroke-dasharray:none;stroke-dashoffset:0;stroke-opacity:1;marker:none;color-rendering:auto;image-rendering:auto;shape-rendering:auto;text-rendering:auto;enable-background:accumulate">
      <path
         id="path4141"
         style="font-style:normal;font-variant:normal;font-weight:bold;font-stretch:normal;font-size:373.24801636px;font-family:'Roboto Condensed';-inkscape-font-specification:'Roboto Condensed,  Bold';fill:#00003c;fill-opacity:1;stroke-width:0;stroke-miterlimit:4;stroke-dasharray:none"
         d="m 646.82955,116.57102 0,265.35601 -53.58151,0 0,-265.35601 53.58151,0 z"
         inkscape:connector-curvature="0" />
      <path
         id="path4143"
         style="font-style:normal;font-variant:normal;font-weight:bold;font-stretch:normal;font-size:373.24801636px;font-family:'Roboto Condensed';-inkscape-font-specification:'Roboto Condensed,  Bold';fill:#00003c;fill-opacity:1;stroke-width:0;stroke-miterlimit:4;stroke-dasharray:none"
         d="m 817.26489,293.35353 53.5815,0 q -1.8225,45.198 -25.515,68.70825 -23.6925,23.51025 -66.33901,23.51025 -44.1045,0 -68.526,-29.16 -24.23925,-29.16 -24.23925,-84.564 l 0,-45.01575 q 0,-55.58626 24.96825,-84.74626 25.1505,-29.34225 68.526,-29.34225 43.37551,0 65.97451,24.4215 22.599,24.23925 25.515,69.43725 l -53.5815,0 q -0.91125,-28.431 -8.93025,-38.81925 -8.019,-10.5705 -28.97776,-10.5705 -21.141,0 -30.618,15.49125 -9.29475,15.49125 -9.29475,53.76376 l 0,45.38025 q 0,37.5435 8.20125,53.39925 8.20125,15.85575 30.9825,15.85575 19.86526,0 28.61326,-9.477 8.748,-9.477 9.65925,-38.2725 z"
         inkscape:connector-curvature="0" />
      <path
         id="path4145"
         style="font-style:normal;font-variant:normal;font-weight:bold;font-stretch:normal;font-size:373.24801636px;font-family:'Roboto Condensed';-inkscape-font-specification:'Roboto Condensed,  Bold';fill:#00003c;fill-opacity:1;stroke-width:0;stroke-miterlimit:4;stroke-dasharray:none"
         d="m 1014.8555,312.12528 q 0,-13.851 -6.9255,-22.599 -6.7433,-8.93025 -31.52926,-18.954 -29.889,-11.664 -52.488,-30.2535 -22.41675,-18.77175 -22.41675,-53.21701 0,-33.534 23.51025,-53.76375 23.51025,-20.412 60.507,-20.412 38.09026,0 60.68926,22.9635 22.7812,22.9635 22.7812,58.86675 l -53.5815,0 q 0,-16.58475 -7.29,-27.3375 -7.1077,-10.75275 -23.51021,-10.75275 -15.12675,0 -22.41675,8.93025 -7.10775,8.93025 -7.10775,21.68775 0,12.93975 10.75275,21.68775 10.935,8.74801 28.7955,16.58476 37.17896,13.30425 55.58626,33.35175 18.4072,20.0475 18.4072,52.8525 0,34.992 -22.0522,54.49275 -22.0523,19.3185 -59.96026,19.3185 -22.78125,0 -43.92225,-9.29475 -20.95875,-9.29475 -34.44525,-28.61325 -13.4865,-19.3185 -13.4865,-49.572 l 53.76375,0 q 0,24.057 9.477,33.8985 9.65925,9.8415 28.61325,9.8415 15.49126,0 21.86996,-8.3835 6.3788,-8.56575 6.3788,-21.32325 z"
         inkscape:connector-curvature="0" />
      <path
         id="path4147"
         style="font-style:normal;font-variant:normal;font-weight:bold;font-stretch:normal;font-size:373.24801636px;font-family:'Roboto Condensed';-inkscape-font-specification:'Roboto Condensed,  Bold';fill:#00003c;fill-opacity:1;stroke-width:0;stroke-miterlimit:4;stroke-dasharray:none"
         d="m 1229.5776,293.35353 53.5815,0 q -1.8225,45.198 -25.515,68.70825 -23.6925,23.51025 -66.339,23.51025 -44.1045,0 -68.526,-29.16 -24.2393,-29.16 -24.2393,-84.564 l 0,-45.01575 q 0,-55.58626 24.9683,-84.74626 25.1505,-29.34225 68.526,-29.34225 43.3755,0 65.9745,24.4215 22.599,24.23925 25.515,69.43725 l -53.5815,0 q -0.9113,-28.431 -8.9303,-38.81925 -8.019,-10.5705 -28.9777,-10.5705 -21.141,0 -30.618,15.49125 -9.2948,15.49125 -9.2948,53.76376 l 0,45.38025 q 0,37.5435 8.2013,53.39925 8.2012,15.85575 30.9825,15.85575 19.8652,0 28.6132,-9.477 8.748,-9.477 9.6593,-38.2725 z"
         inkscape:connector-curvature="0" />
      <path
         id="path4149"
         style="font-style:normal;font-variant:normal;font-weight:bold;font-stretch:normal;font-size:373.24801636px;font-family:'Roboto Condensed';-inkscape-font-specification:'Roboto Condensed,  Bold';fill:#00003c;fill-opacity:1;stroke-width:0;stroke-miterlimit:4;stroke-dasharray:none"
         d="m 1467.4454,339.09828 0,42.82875 -156.5527,0 0,-36.45 71.8065,-91.30725 q 15.309,-21.32325 20.9587,-35.17425 5.832,-14.03326 5.832,-25.69726 0,-17.496 -6.1965,-27.51975 -6.1965,-10.206 -17.496,-10.206 -13.851,0 -20.7765,12.7575 -6.7432,12.57525 -6.7432,31.7115 l -51.759,0 q 0,-35.721 21.5055,-61.41825 21.5055,-25.8795 58.6845,-25.8795 36.45,0 55.404,20.22975 19.1362,20.0475 19.1362,55.22175 0,26.60851 -13.4865,50.66551 -13.3042,23.87475 -36.6322,51.57675 l -34.0808,48.66075 90.396,0 z"
         inkscape:connector-curvature="0" />
      <path
         id="path4151"
         style="font-style:normal;font-variant:normal;font-weight:bold;font-stretch:normal;font-size:373.24801636px;font-family:'Roboto Condensed';-inkscape-font-specification:'Roboto Condensed,  Bold';fill:#00003c;fill-opacity:1;stroke-width:0;stroke-miterlimit:4;stroke-dasharray:none"
         d="m 1652.6431,225.92103 0,46.2915 q 0,59.59575 -21.5055,86.56875 -21.5055,26.79075 -55.404,26.79075 -33.8985,0 -55.5863,-26.79075 -21.6877,-26.973 -21.6877,-86.56875 l 0,-46.2915 q 0,-59.77801 21.5055,-86.38651 21.5055,-26.6085 55.5862,-26.6085 33.8985,0 55.404,26.6085 21.6878,26.6085 21.6878,86.38651 z m -51.5768,53.217 0,-60.68925 q 0,-34.99201 -6.9255,-48.84301 -6.9255,-13.851 -18.5895,-13.851 -11.664,0 -18.5895,13.851 -6.9255,13.851 -6.9255,48.84301 l 0,60.68925 q 0,35.3565 6.9255,49.572 6.9255,14.03325 18.7718,14.03325 11.8462,0 18.5895,-14.03325 6.7432,-14.2155 6.7432,-49.572 z"
         inkscape:connector-curvature="0" />
      <path
         id="path4153"
         style="font-style:normal;font-variant:normal;font-weight:bold;font-stretch:normal;font-size:373.24801636px;font-family:'Roboto Condensed';-inkscape-font-specification:'Roboto Condensed,  Bold';fill:#00003c;fill-opacity:1;stroke-width:0;stroke-miterlimit:4;stroke-dasharray:none"
         d="m 1799.5682,116.20652 0,265.72051 -51.5768,0 0,-202.66201 -50.4833,19.3185 0,-43.011 96.5926,-39.366 5.4675,0 z"
         inkscape:connector-curvature="0" />
      <path
         id="path4155"
         style="font-style:normal;font-variant:normal;font-weight:bold;font-stretch:normal;font-size:373.24801636px;font-family:'Roboto Condensed';-inkscape-font-specification:'Roboto Condensed,  Bold';fill:#00003c;fill-opacity:1;stroke-width:0;stroke-miterlimit:4;stroke-dasharray:none"
         d="m 2029.2347,116.57102 0,29.5245 -83.6528,235.83151 -54.4927,0 84.0172,-222.52726 -106.434,0 0,-42.82875 160.5623,0 z"
         inkscape:connector-curvature="0" />
    </g>
  </g>
</svg>
