<?xml version="1.0" encoding="UTF-8" standalone="no"?>
<svg
   xmlns:dc="http://purl.org/dc/elements/1.1/"
   xmlns:cc="http://creativecommons.org/ns#"
   xmlns:rdf="http://www.w3.org/1999/02/22-rdf-syntax-ns#"
   xmlns:svg="http://www.w3.org/2000/svg"
   xmlns="http://www.w3.org/2000/svg"
   viewBox="0 0 434.14999 305.86249"
   height="305.86249"
   width="434.14999"
   xml:space="preserve"
   version="1.1"
   id="svg4932"><metadata
     id="metadata4938"><rdf:RDF><cc:Work
         rdf:about=""><dc:format>image/svg+xml</dc:format><dc:type
           rdf:resource="http://purl.org/dc/dcmitype/StillImage" /><dc:title></dc:title></cc:Work></rdf:RDF></metadata><defs
     id="defs4936" /><g
     transform="matrix(1.25,0,0,-1.25,0,305.8625)"
     id="g4940"><g
       transform="scale(0.1,0.1)"
       id="g4942"><path
         id="path4944"
         style="fill:#f36717;fill-opacity:1;fill-rule:evenodd;stroke:none"
         d="m 1927.97,1422.11 0,-687.88 c 0,-111.429 -76.3,-188.492 -188.5,-188.492 -113.11,0 -188.68,75.59 -188.68,188.492 l 0,687.88 377.18,0" /><path
         id="path4946"
         style="fill:#231f20;fill-opacity:1;fill-rule:evenodd;stroke:none"
         d="m 2959.62,1032.34 -389.42,0 0,1414.55 389.42,0 0,-1414.55" /><path
         id="path4948"
         style="fill:#231f20;fill-opacity:1;fill-rule:evenodd;stroke:none"
         d="m 3473.2,1032.34 -389.41,0 0,1414.55 389.41,0 0,-1414.55" /><path
         id="path4950"
         style="fill:#231f20;fill-opacity:1;fill-rule:evenodd;stroke:none"
         d="m 1422.34,1550.92 -687.899,0 c -111.253,0 -188.5,75.6 -188.5,188.71 0,112.18 76.325,187.57 188.5,187.57 l 687.899,0 0,-376.28" /><path
         id="path4952"
         style="fill:#231f20;fill-opacity:1;fill-rule:evenodd;stroke:none"
         d="m 2447.11,2446.89 0,-1730.749 C 2447.11,326.551 2142.54,0 1747.98,0 1353.4,0 1031.64,321.559 1031.64,716.141 l 0,316.199 -314.39,0 C 326.754,1032.34 0,1335.98 0,1729.64 c 0,394.76 322.691,717.25 717.25,717.25 l 705.09,0 0,-390.68 -705.09,0 c -165.391,0 -316.566,-151.17 -316.566,-317.51 0,-165.41 152.847,-316.59 316.566,-316.59 l 705.09,0 0,-705.969 c 0,-165.231 151.36,-316.411 316.59,-316.411 165.41,0 317.49,152.848 317.49,316.411 l 0,1730.749 390.69,0" /></g></g></svg>