<?xml version="1.0" encoding="UTF-8" standalone="no"?>
<svg
   xmlns:dc="http://purl.org/dc/elements/1.1/"
   xmlns:cc="http://creativecommons.org/ns#"
   xmlns:rdf="http://www.w3.org/1999/02/22-rdf-syntax-ns#"
   xmlns:svg="http://www.w3.org/2000/svg"
   xmlns="http://www.w3.org/2000/svg"
   xmlns:sodipodi="http://sodipodi.sourceforge.net/DTD/sodipodi-0.dtd"
   xmlns:inkscape="http://www.inkscape.org/namespaces/inkscape"
   viewBox="0 0 225.09676 190.77343"
   height="190.77344"
   width="225.09676"
   xml:space="preserve"
   version="1.1"
   id="svg2"
   inkscape:version="0.91 r13725"
   sodipodi:docname="logo_EI.svg"><sodipodi:namedview
     pagecolor="#ffffff"
     bordercolor="#666666"
     borderopacity="1"
     objecttolerance="10"
     gridtolerance="10"
     guidetolerance="10"
     inkscape:pageopacity="0"
     inkscape:pageshadow="2"
     inkscape:window-width="1520"
     inkscape:window-height="757"
     id="namedview27"
     showgrid="false"
     fit-margin-top="0"
     fit-margin-left="0"
     fit-margin-right="0"
     fit-margin-bottom="0"
     inkscape:zoom="1.098093"
     inkscape:cx="49.657086"
     inkscape:cy="159.94951"
     inkscape:window-x="0"
     inkscape:window-y="0"
     inkscape:window-maximized="0"
     inkscape:current-layer="svg2" /><metadata
     id="metadata8"><rdf:RDF><cc:Work
         rdf:about=""><dc:format>image/svg+xml</dc:format><dc:type
           rdf:resource="http://purl.org/dc/dcmitype/StillImage" /><dc:title></dc:title></cc:Work></rdf:RDF></metadata><defs
     id="defs6" /><path
     inkscape:connector-curvature="0"
     d="m 91.64475,102.52563 40.617,0 0,-0.39263 -40.617,0 0,0.39263 z"
     style="fill:#0f3f48;fill-opacity:1;fill-rule:nonzero;stroke:none"
     id="path22" /><path
     inkscape:connector-curvature="0"
     d="m 91.18312,60.565 41.54838,0 0,-0.9025 -41.548379,0 0,0.9025 z"
     style="fill:#114a4f;fill-opacity:1;fill-rule:nonzero;stroke:none"
     id="path24" /><path
     inkscape:connector-curvature="0"
     d="m 98.436998,108.32738 0,-0.0113 -0.008,0 0.008,0.0113 z"
     style="fill:#0f3f48;fill-opacity:1;fill-rule:nonzero;stroke:none"
     id="path26" /><path
     inkscape:connector-curvature="0"
     d="m 87.99125,59.12612 -8.77963,0 0,-0.61587 -1.63837,0 0,0.93612 13.09675,0 0,-0.93612 -2.678749,0 0,0.61587 z"
     style="fill:#0f3f48;fill-opacity:1;fill-rule:nonzero;stroke:none"
     id="path28" /><path
     inkscape:connector-curvature="0"
     d="m 125.02737,51.77475 c 1.0665,0 1.93425,0.86075 1.93425,1.92225 0,1.06662 -0.86775,1.92375 -1.93425,1.92375 -1.04387,0 -1.91312,-0.85713 -1.91312,-1.92375 0,-1.0615 0.86925,-1.92225 1.91312,-1.92225 z m 0,4.18188 c 1.26213,0 2.26488,-1.01163 2.26488,-2.25963 0,-1.24612 -1.00275,-2.25813 -2.26488,-2.25813 -1.23737,0 -2.23512,1.012 -2.23512,2.25813 0,1.248 0.99775,2.25963 2.23512,2.25963"
     style="fill:#0f3f48;fill-opacity:1;fill-rule:nonzero;stroke:none"
     id="path30" /><path
     inkscape:connector-curvature="0"
     d="m 140.26962,64.57362 c 2.24963,0 4.31575,0.67888 6.03888,1.83538 l -12.06325,0 c 1.709,-1.1565 3.78037,-1.83538 6.02437,-1.83538 z m -0.0457,-0.6535 c -3.0185,0 -5.743,1.13388 -7.82362,2.99563 l 15.64337,0 C 145.9513,65.054 143.2283,63.92012 140.22392,63.92012"
     style="fill:#0f3f48;fill-opacity:1;fill-rule:nonzero;stroke:none"
     id="path32" /><path
     inkscape:connector-curvature="0"
     d="m 111.93275,51.77475 c 1.05762,0 1.91975,0.86075 1.91975,1.92225 0,1.06662 -0.86213,1.92375 -1.91975,1.92375 -1.05988,0 -1.92375,-0.85713 -1.92375,-1.92375 0,-1.0615 0.86387,-1.92225 1.92375,-1.92225 z m 0,4.18188 c 1.24937,0 2.27187,-1.01163 2.27187,-2.25963 0,-1.24612 -1.0225,-2.25813 -2.27187,-2.25813 -1.24975,0 -2.255,1.012 -2.255,2.25813 0,1.248 1.00525,2.25963 2.255,2.25963"
     style="fill:#0f3f48;fill-opacity:1;fill-rule:nonzero;stroke:none"
     id="path34" /><path
     inkscape:connector-curvature="0"
     d="m 130.11162,42.65463 -0.005,0 c -0.0989,0 -0.17437,0.0826 -0.17437,0.18287 0,0.0989 0.0755,0.18175 0.17437,0.18175 l 0.005,0 0,0.63713 -0.65162,-0.66013 c 0.0216,-0.0492 0.0369,-0.10387 0.0369,-0.15875 0,-0.0599 -0.0152,-0.10875 -0.0369,-0.158 l 0.65162,-0.66225 0,0.63738 z m -0.82025,1.1885 c 0,-0.10388 -0.0811,-0.173 -0.17112,-0.173 -0.0981,0 -0.179,0.0691 -0.179,0.173 l -0.63213,0 0.653,-0.65663 c 0.0529,0.0174 0.10038,0.0263 0.15813,0.0263 0.0584,0 0.1095,-0.009 0.15512,-0.0263 l 0.66163,0.65663 -0.64563,0 z m -1.17925,-0.82388 0.01,0 c 0.0968,0 0.17088,-0.0829 0.17088,-0.18175 0,-0.10025 -0.0741,-0.18287 -0.17088,-0.18287 l -0.01,0 0,-0.63738 0.6545,0.65163 c -0.0187,0.0531 -0.0404,0.10874 -0.0404,0.16862 0,0.0549 0.0216,0.1095 0.0404,0.15875 l -0.6545,0.66013 0,-0.63713 z m -0.16362,-0.36462 -0.009,0 c -0.095,0 -0.17575,0.0826 -0.17575,0.18287 0,0.0989 0.0807,0.18175 0.17575,0.18175 l 0.009,0 0,0.62113 -0.65663,-0.64763 c 0.0319,-0.0457 0.0369,-0.10038 0.0369,-0.15525 0,-0.0599 -0.005,-0.1155 -0.0369,-0.16862 l 0.65663,-0.65163 0,0.63738 z m -0.18463,1.1885 -0.64275,0 c 0,-0.10388 -0.0861,-0.173 -0.17962,-0.173 -0.0911,0 -0.17763,0.0691 -0.17763,0.173 l -0.625,0 0.65513,-0.65663 c 0.0404,0.0174 0.0933,0.0263 0.1475,0.0263 0.0531,0 0.11975,-0.009 0.16575,-0.0263 l 0.65662,0.646 0,0.0113 z m -1.82025,-0.82388 c 0.095,0 0.17788,-0.0829 0.17788,-0.18175 0,-0.10025 -0.0829,-0.18287 -0.17788,-0.18287 l 0,-0.63388 0.66513,0.64813 c -0.0209,0.0599 -0.0348,0.10875 -0.0348,0.16862 0,0.0549 0.0139,0.1095 0.0348,0.15525 l -0.66513,0.66363 0,-0.63713 z m -0.174,-0.36462 c -0.10412,0 -0.176,0.0826 -0.176,0.18287 0,0.0989 0.0719,0.18175 0.176,0.18175 l 0,0.63362 -0.65512,-0.66012 c 0.023,-0.0457 0.0404,-0.10038 0.0404,-0.15525 0,-0.0599 -0.0174,-0.1155 -0.0404,-0.16862 l 0.65512,-0.65163 0,0.63738 z m -0.81887,1.1885 c 0,-0.10388 -0.0701,-0.173 -0.16688,-0.173 -0.11437,0 -0.18812,0.0691 -0.18812,0.173 l -0.63213,0 0,-0.0112 0.6545,-0.646 c 0.0478,0.0174 0.10413,0.0263 0.16575,0.0263 0.0493,0 0.0985,-0.009 0.15313,-0.0263 l 0.65662,0.65662 -0.64287,0 z m -1.18088,-1.82588 0.63738,0.64488 c -0.0691,0.006 -0.13925,0.0879 -0.13925,0.17537 0,0.0954 0.0701,0.15525 0.13925,0.17288 l -0.63738,0.646 0,-1.63913 z m -0.174,0.63738 c -0.0883,0 -0.18175,0.0826 -0.18175,0.18287 0,0.0989 0.0935,0.18175 0.18175,0.18175 l 0,0.63363 -0.6495,-0.66013 c 0.023,-0.0457 0.0369,-0.10037 0.0369,-0.15525 0,-0.0599 -0.0139,-0.10875 -0.0369,-0.158 l 0.6495,-0.65875 0,0.63388 z m -0.17087,1.1885 -0.6335,0 c 0,-0.10388 -0.0968,-0.173 -0.19375,-0.173 -0.0915,0 -0.17938,0.0691 -0.17938,0.173 l -0.6215,0 0.65488,-0.65663 c 0.0454,0.0174 0.10375,0.0263 0.146,0.0263 0.058,0 0.1215,-0.009 0.1725,-0.0263 l 0.65475,0.646 0,0.0113 z m -1.82188,-0.82388 0.009,0 c 0.0876,0 0.17263,-0.0829 0.17263,-0.18175 0,-0.10025 -0.085,-0.18287 -0.17263,-0.18287 l -0.009,0 0,-0.63738 0.65513,0.65163 c -0.0216,0.0531 -0.0332,0.10875 -0.0332,0.16862 0,0.062 0.004,0.1095 0.0332,0.15875 l -0.65513,0.67388 0,-0.65088 z m -0.197,-0.36462 c -0.10525,0 -0.17962,0.0826 -0.17962,0.18287 0,0.0989 0.0744,0.18175 0.17962,0.18175 l 0,0.63713 -0.6495,-0.66363 c 0.0145,-0.0457 0.0354,-0.10037 0.0354,-0.15525 0,-0.0599 -0.0244,-0.1155 -0.039,-0.16862 l 0.65312,-0.65163 0,0.63738 z m -0.82175,1.1885 c 0,-0.10388 -0.0736,-0.173 -0.16725,-0.173 -0.10775,0 -0.18987,0.0691 -0.18987,0.173 l -0.63038,0 0,-0.0145 0.646,-0.64213 c 0.0514,0.0174 0.11438,0.0263 0.17425,0.0263 0.0489,0 0.10025,-0.009 0.13888,-0.0263 l 0.674,0.65663 -0.64563,0 z M 119.414,43.01925 c 0.0933,0 0.16687,-0.0829 0.16687,-0.18175 0,-0.10025 -0.0736,-0.18287 -0.16687,-0.18287 l 0,-0.63388 0.64425,0.64813 c -0.0195,0.0531 -0.0301,0.10875 -0.0301,0.16862 0,0.0549 0.01,0.1095 0.0301,0.15525 l -0.64425,0.64763 0,-0.62113 z m -0.18525,-0.36462 c -0.10025,0 -0.1775,0.0826 -0.1775,0.18287 0,0.0989 0.0773,0.18175 0.1775,0.18175 l 0,0.63363 -0.65663,-0.66013 c 0.0287,-0.0457 0.0411,-0.10037 0.0411,-0.15525 0,-0.0599 -0.0125,-0.1155 -0.0411,-0.16862 l 0.65663,-0.65163 0,0.63738 z m -0.81325,1.1885 c 0,-0.10388 -0.0857,-0.173 -0.17213,-0.173 -0.10037,0 -0.185,0.0691 -0.185,0.173 l -0.6385,0 0.65438,-0.65663 c 0.0475,0.0174 0.11275,0.0263 0.16912,0.0263 0.0456,0 0.0985,-0.009 0.14625,-0.0263 l 0.66725,0.65663 -0.64137,0 z m -1.18763,-0.82388 0.0125,0 c 0.0931,0 0.1725,-0.0829 0.1725,-0.18175 0,-0.10025 -0.0794,-0.18287 -0.1725,-0.18287 l -0.0125,0 0,-0.63738 0.67038,0.66225 c -0.028,0.0493 -0.0369,0.0981 -0.0369,0.158 0,0.0549 0.009,0.1095 0.0369,0.15163 l -0.67038,0.681 0,-0.65088 z m -0.16725,-0.36462 -0.004,0 c -0.0946,0 -0.18312,0.0826 -0.18312,0.18287 0,0.0989 0.0885,0.18175 0.18312,0.18175 l 0.004,0 0,0.62113 -0.646,-0.64763 c 0.0263,-0.0457 0.0297,-0.10037 0.0297,-0.15525 0,-0.0599 -0.0156,-0.1155 -0.0297,-0.16862 l 0.646,-0.65163 0,0.63738 z m -0.17762,1.1885 -0.64063,0 c 0,-0.10388 -0.0815,-0.173 -0.17462,-0.173 -0.10175,0 -0.18113,0.0691 -0.18113,0.173 l -0.64275,0 0,-0.0145 0.66375,-0.64213 c 0.0493,0.0174 0.10763,0.0263 0.16013,0.0263 0.0549,0 0.11262,-0.009 0.16012,-0.0263 l 0.65513,0.646 0,0.0113 z m -1.82375,-0.82388 c 0.106,0 0.17612,-0.0829 0.17612,-0.18175 0,-0.10025 -0.0701,-0.18287 -0.17612,-0.18287 l 0,-0.63738 0.67075,0.65163 c -0.0265,0.0531 -0.0495,0.10875 -0.0495,0.16862 0,0.0549 0.023,0.1095 0.0319,0.15525 l -0.65312,0.66363 0,-0.63713 z m -0.1725,-0.36462 c -0.0896,0 -0.17963,0.0826 -0.17963,0.18287 0,0.0989 0.09,0.18175 0.17963,0.18175 l 0,0.63363 -0.64563,-0.66013 c 0.0174,-0.0457 0.0369,-0.10037 0.0369,-0.15525 0,-0.0599 -0.0195,-0.1155 -0.0369,-0.16862 l 0.64563,-0.65163 0,0.63738 z m -0.82388,1.1885 c 0,-0.10388 -0.0599,-0.173 -0.17537,-0.173 -0.0885,0 -0.1675,0.0691 -0.1675,0.173 l -0.6425,0 0.65487,-0.65663 c 0.0475,0.0174 0.0989,0.0263 0.15513,0.0263 0.0592,0 0.1155,-0.009 0.16512,-0.0263 l 0.66338,0.65663 -0.65313,0 z m -1.17025,-0.82388 c 0.0966,0 0.17813,-0.0829 0.17813,-0.18175 0,-0.10025 -0.0815,-0.18287 -0.17813,-0.18287 l 0,-0.63738 0.65863,0.65163 c -0.018,0.0531 -0.039,0.10875 -0.039,0.16862 0,0.062 0.021,0.1095 0.039,0.15875 l -0.65863,0.66013 0,-0.63713 z m -0.20412,-0.36462 c -0.10025,0 -0.17963,0.0826 -0.17963,0.18287 0,0.0989 0.0794,0.18175 0.17963,0.18175 l 0,0.63363 -0.64238,-0.65663 c 0.0176,-0.0492 0.0333,-0.10387 0.0333,-0.15875 0,-0.0599 -0.0156,-0.1155 -0.0454,-0.16862 l 0.6545,-0.65163 0,0.63738 z m -0.81325,1.1885 c 0,-0.10388 -0.0772,-0.173 -0.18313,-0.173 -0.0933,0 -0.174,0.0691 -0.174,0.173 l -0.6385,0 0.65588,-0.65663 c 0.0496,0.0174 0.10237,0.0263 0.15662,0.0263 0.0564,0 0.11475,-0.009 0.16938,-0.0263 l 0.64737,0.65663 -0.63362,0 z m -1.1845,-0.82388 0.0127,0 c 0.0875,0 0.17612,-0.0829 0.17612,-0.18175 0,-0.10025 -0.0886,-0.18287 -0.17612,-0.18287 l -0.0127,0 0,-0.63738 0.65837,0.65163 c -0.0177,0.0531 -0.0315,0.10875 -0.0315,0.16862 0,0.0549 0.0137,0.1095 0.0315,0.15525 l -0.65837,0.66013 0,-0.63363 z m -0.15663,-0.36462 -0.0125,0 c -0.10175,0 -0.181,0.0826 -0.181,0.18287 0,0.0989 0.0793,0.18175 0.181,0.18175 l 0.0125,0 0,0.63713 -0.66362,-0.66363 c 0.0213,-0.0457 0.0336,-0.10037 0.0336,-0.15525 0,-0.0599 -0.0125,-0.1155 -0.0386,-0.16862 l 0.65625,-0.65163 0.0125,0 0,0.63738 z m -0.83625,1.1885 c 0,-0.10388 -0.0771,-0.173 -0.1775,-0.173 -0.0879,0 -0.1775,0.0691 -0.1775,0.173 l -0.63212,0 0.65662,-0.65663 c 0.0493,0.0174 0.0968,0.0263 0.153,0.0263 0.0635,0 0.11275,-0.009 0.16375,-0.0263 l 0.66538,0.65663 -0.65163,0 z m -1.17737,-0.82388 0.005,0 c 0.0981,0 0.174,-0.0829 0.174,-0.18175 0,-0.10025 -0.0759,-0.18287 -0.174,-0.18287 l -0.005,0 0,-0.63738 0.65875,0.65163 c -0.0266,0.0531 -0.0405,0.10875 -0.0405,0.16862 0,0.0549 0.0139,0.1095 0.0405,0.15875 l -0.65875,0.66013 0,-0.63713 z m -0.16688,-0.36462 -0.0142,0 c -0.0931,0 -0.17387,0.0826 -0.17387,0.18287 0,0.0989 0.0808,0.18175 0.17387,0.18175 l 0.0142,0 0,0.63713 -0.65662,-0.66013 c 0.0195,-0.0492 0.0404,-0.10387 0.0404,-0.15875 0,-0.0599 -0.0209,-0.1155 -0.0439,-0.16862 l 0.6565,-0.65163 0.004,0 0,0.63738 z m -0.81675,1.1885 c 0,-0.10388 -0.0844,-0.173 -0.18462,-0.173 -0.0971,0 -0.17438,0.0691 -0.17438,0.173 l -0.64237,0 0,-0.0112 0.65312,-0.646 c 0.0506,0.0174 0.10725,0.0263 0.16363,0.0263 0.0701,0 0.11762,-0.009 0.158,-0.0263 l 0.65525,0.65662 -0.62863,0 z m -1.1845,-0.82388 c 0.10025,0 0.174,-0.0829 0.174,-0.18175 0,-0.10025 -0.0738,-0.18287 -0.174,-0.18287 l 0,-0.63738 0.66363,0.65163 c -0.028,0.0531 -0.0404,0.10875 -0.0404,0.16862 0,0.0549 0.005,0.1095 0.0404,0.15163 l -0.66363,0.66725 0,-0.63713 z m -0.17087,-0.36462 c -0.0966,0 -0.18488,0.0826 -0.18488,0.18287 0,0.0989 0.0883,0.18175 0.18488,0.18175 l 0,0.62113 -0.64725,-0.65125 c 0.005,-0.0421 0.0209,-0.0967 0.0209,-0.15163 0,-0.0599 -0.016,-0.10875 -0.0336,-0.151 l 0.66,-0.66575 0,0.63388 z m -0.17388,1.1885 -0.65525,0 c 0,-0.10388 -0.0669,-0.173 -0.16725,-0.173 -0.0981,0 -0.1845,0.0691 -0.1845,0.173 l -0.63212,0 0.66925,-0.65663 c 0.0312,0.0174 0.0911,0.0263 0.14737,0.0263 0.0533,0 0.1095,-0.009 0.16725,-0.0263 l 0.65525,0.646 0,0.0113 z m -1.8185,-0.82388 c 0.0917,0 0.1655,-0.0829 0.1655,-0.18175 0,-0.10025 -0.0738,-0.18287 -0.1655,-0.18287 l 0,-0.63738 0.65838,0.65163 c -0.0369,0.0531 -0.0404,0.10875 -0.0404,0.16862 0,0.062 0.004,0.11975 0.0404,0.15875 l -0.65838,0.66013 0,-0.63713 z m -0.19875,-0.36462 c -0.10387,0 -0.1725,0.0826 -0.1725,0.18287 0,0.0989 0.0686,0.18175 0.1725,0.18175 l 0,0.63713 -0.6495,-0.66013 c 0.0125,-0.0492 0.0319,-0.0967 0.0319,-0.15875 0,-0.0599 -0.0195,-0.1155 -0.039,-0.16862 l 0.65662,-0.65163 0,0.63738 z m -0.82387,1.1885 c 0,-0.10388 -0.086,-0.173 -0.17925,-0.173 -0.0935,0 -0.18138,0.0691 -0.18138,0.173 l -0.63,0 0,-0.0112 0.64913,-0.646 c 0.0479,0.0174 0.10775,0.0263 0.16225,0.0263 0.0599,0 0.11975,-0.009 0.15662,-0.0263 l 0.66513,0.65662 -0.6425,0 z m -1.17738,-0.82388 c 0.0865,0 0.17438,-0.0829 0.17438,-0.18175 0,-0.10025 -0.0879,-0.18287 -0.17438,-0.18287 l 0,-0.63738 0.65663,0.65163 c -0.0334,0.0531 -0.0408,0.10875 -0.0408,0.16862 0,0.062 0.007,0.1095 0.0408,0.15875 l -0.65663,0.66013 0,-0.63713 z m -0.16687,-0.36462 -0.007,0 c -0.102,0 -0.17925,0.0826 -0.17925,0.18287 0,0.0989 0.0773,0.18175 0.17925,0.18175 l 0.007,0 0,0.62113 -0.65513,-0.65125 c 0.0159,-0.0421 0.0333,-0.0967 0.0333,-0.15163 0,-0.0599 -0.0174,-0.1155 -0.0404,-0.16862 l 0.65475,-0.65163 0.007,0 0,0.63738 z m -0.82913,1.1885 c 0,-0.10388 -0.0811,-0.173 -0.17437,-0.173 -0.10025,0 -0.174,0.0691 -0.174,0.173 l -0.64275,0 0.66725,-0.65663 c 0.039,0.0174 0.0967,0.0263 0.1495,0.0263 0.0527,0 0.10875,-0.009 0.16012,-0.0263 l 0.65663,0.65663 -0.64238,0 z m -1.177503,-0.82388 c 0.10025,0 0.17938,-0.0829 0.17938,-0.18175 0,-0.10025 -0.0791,-0.18287 -0.17938,-0.18287 l 0,-0.63738 0.654503,0.65163 c -0.0139,0.0599 -0.0334,0.10875 -0.0334,0.16862 0,0.0549 0.0195,0.1095 0.0334,0.15163 l -0.654503,0.66725 0,-0.63713 z m -0.17612,-0.36462 c -0.10375,0 -0.17288,0.0826 -0.17288,0.18287 0,0.0989 0.0691,0.18175 0.17288,0.18175 l 0,0.62113 -0.64763,-0.65125 c 0.0138,-0.0421 0.0315,-0.0967 0.0315,-0.15163 0,-0.0599 -0.0177,-0.1155 -0.0386,-0.16862 l 0.65475,-0.65163 0,0.63738 z m -0.82738,1.1885 c 0,-0.10388 -0.0757,-0.173 -0.169,-0.173 -0.0935,0 -0.17425,0.0691 -0.17425,0.173 l -0.631497,0 0,-0.0112 0.645627,-0.646 c 0.0514,0.0174 0.0968,0.0263 0.160121,0.0263 0.055,0 0.111249,-0.009 0.16025,-0.0263 l 0.6565,0.65662 -0.647751,0 z M 97.64,43.01925 c 0.111001,0 0.1815,-0.0829 0.1815,-0.18175 0,-0.10025 -0.0705,-0.18287 -0.1815,-0.18287 l 0,-0.63738 0.0142,0 0.64775,0.65163 c -0.0231,0.0531 -0.0301,0.10875 -0.0301,0.16862 0,0.0549 0.007,0.1095 0.0244,0.15525 l -0.65625,0.66363 0,-0.63713 z m -0.160129,-0.36462 -0.008,0 c -0.0946,0 -0.18112,0.0826 -0.18112,0.18287 0,0.0989 0.0865,0.18175 0.18112,0.18175 l 0.008,0 0,0.63713 -0.669,-0.66363 c 0.0301,-0.0457 0.039,-0.10037 0.039,-0.15525 0,-0.0599 -0.009,-0.1155 -0.039,-0.16862 l 0.66163,-0.65163 0.008,0 0,0.63738 z m -0.822,1.1885 c 0,-0.10388 -0.0879,-0.173 -0.18812,-0.173 -0.0933,0 -0.167631,0.0691 -0.167631,0.173 l -0.649119,0 0,-0.0112 0.649119,-0.646 c 0.0528,0.0174 0.11263,0.0263 0.167631,0.0263 0.0545,0 0.12112,-0.009 0.15662,-0.0263 l 0.67213,0.65662 -0.64063,0 z m -1.18637,-0.82388 0.005,0 c 0.095,0 0.17612,-0.0829 0.17612,-0.18175 0,-0.10025 -0.0811,-0.18287 -0.17612,-0.18287 l -0.005,0 0,-0.63738 0.66337,0.66225 c -0.0187,0.0493 -0.0404,0.0981 -0.0404,0.158 0,0.0549 0.0216,0.1095 0.0336,0.15163 l -0.65662,0.66725 0,-0.63713 z m 0.830619,-1.17387 c 0,0.0861 0.0744,0.17187 0.167631,0.17187 0.10025,0 0.18812,-0.0858 0.18812,-0.17187 l 0.62675,0 -0.65825,0.64737 c -0.0457,-0.0226 -0.10212,-0.0334 -0.15662,-0.0334 -0.055,0 -0.10425,0.0112 -0.162001,0.0334 L 95.66,41.84538 l 0.64212,0 z m 2.166748,0 c 0,0.0861 0.0807,0.17187 0.17425,0.17187 0.0933,0 0.168999,-0.0858 0.168999,-0.17187 l 0.639251,0 -0.65512,0.64737 c -0.0525,-0.0298 -0.0981,-0.0334 -0.15313,-0.0334 -0.0453,0 -0.10875,0.004 -0.14912,0.0266 l -0.649877,-0.64062 0.624747,0 z m 2.175882,0 c 0,0.0861 0.0737,0.17187 0.174,0.17187 0.0933,0 0.17437,-0.0858 0.17437,-0.17187 l 0.62638,0 -0.64063,0.64737 c -0.0563,-0.0298 -0.10737,-0.0334 -0.16012,-0.0334 -0.0528,0 -0.1105,0.004 -0.1495,0.0334 l -0.66725,-0.64737 0.64275,0 z m 2.16112,0 c 0,0.0861 0.0879,0.17187 0.18138,0.17187 0.0933,0 0.17925,-0.0858 0.17925,-0.17187 l 0.61625,0 -0.63888,0.64737 c -0.0369,-0.0298 -0.0968,-0.0334 -0.15662,-0.0334 -0.0545,0 -0.11438,0.004 -0.15125,0.0334 l -0.64813,-0.64737 0.618,0 z m 2.19475,0 c 0,0.0861 0.0864,0.17187 0.1845,0.17187 0.10038,0 0.16725,-0.0858 0.16725,-0.17187 l 0.64425,0 -0.64425,0.64737 c -0.0577,-0.0226 -0.114,-0.0334 -0.16725,-0.0334 -0.0562,0 -0.11612,0.0112 -0.1615,0.0334 l -0.65512,-0.64737 0.63212,0 z m 2.17725,0 c 0,0.0861 0.0773,0.17187 0.17438,0.17187 0.10025,0 0.18462,-0.0858 0.18462,-0.17187 l 0.614,0 -0.64062,0.64062 c -0.0474,-0.023 -0.10025,-0.0266 -0.158,-0.0266 -0.0496,0 -0.10025,0.0112 -0.15663,0.0334 l -0.64275,-0.64737 0.625,0 z m 2.165,0 c 0,0.0861 0.0896,0.17187 0.1775,0.17187 0.10038,0 0.1775,-0.0858 0.1775,-0.17187 l 0.6255,0 -0.63925,0.64737 c -0.051,-0.0298 -0.10025,-0.0334 -0.16375,-0.0334 -0.0562,0 -0.10375,0.0112 -0.153,0.0334 l -0.65662,-0.64737 0.63212,0 z m 2.17525,0 c 0,0.0861 0.0808,0.17187 0.174,0.17187 0.10588,0 0.18313,-0.0858 0.18313,-0.17187 l 0.62687,0 -0.65337,0.64737 c -0.0419,-0.0298 -0.10025,-0.0334 -0.15663,-0.0334 -0.0543,0 -0.10025,0.004 -0.15662,0.0334 l -0.65588,-0.64737 0.6385,0 z m 2.20188,0 c 0,0.0861 0.079,0.17187 0.1675,0.17187 0.1155,0 0.17537,-0.0858 0.17537,-0.17187 l 0.634,0 -0.64425,0.64737 c -0.0496,-0.0226 -0.10587,-0.0334 -0.16512,-0.0334 -0.0563,0 -0.10763,0.004 -0.15513,0.0334 l -0.63925,-0.64737 0.62688,0 z m 2.16662,0 c 0,0.0861 0.0794,0.17187 0.18113,0.17187 0.0931,0 0.17462,-0.0858 0.17462,-0.17187 l 0.62475,0 -0.65125,0.64737 c -0.044,-0.0298 -0.0933,-0.0334 -0.14812,-0.0334 -0.0525,0 -0.11088,0.0112 -0.16013,0.0334 l -0.65625,-0.64737 0.63525,0 z m 2.17175,0 c 0,0.0861 0.0846,0.17187 0.185,0.17187 0.0864,0 0.17213,-0.0858 0.17213,-0.17187 l 0.61625,0 -0.64213,0.64737 c -0.0478,-0.0298 -0.10062,-0.0334 -0.14625,-0.0334 -0.0564,0 -0.12162,0.0112 -0.16912,0.0334 l -0.65438,-0.64737 0.6385,0 z m 2.16888,0 c 0,0.0861 0.0821,0.17187 0.18987,0.17187 0.0936,0 0.16725,-0.0858 0.16725,-0.17187 l 0.62475,0 -0.65312,0.64062 c -0.0386,-0.023 -0.09,-0.0266 -0.13888,-0.0266 -0.0599,0 -0.11975,0.0112 -0.164,0.0334 l -0.65275,-0.64737 0.62688,0 z m 2.19112,0 c 0,0.0861 0.0879,0.17187 0.17938,0.17187 0.097,0 0.19375,-0.0858 0.19375,-0.17187 l 0.61587,0 -0.63712,0.64737 c -0.051,-0.0226 -0.1145,-0.0334 -0.1725,-0.0334 -0.0423,0 -0.10063,0.004 -0.146,0.0334 l -0.65313,-0.64737 0.61975,0 z m 2.17738,0 c 0,0.0861 0.0738,0.17187 0.18812,0.17187 0.0968,0 0.16688,-0.0858 0.16688,-0.17187 l 0.62687,0 -0.64062,0.64737 c -0.0546,-0.0298 -0.10388,-0.0334 -0.15313,-0.0334 -0.0616,0 -0.118,0.0112 -0.16575,0.0334 l -0.651,-0.64737 0.62863,0 z m 2.16812,0 c 0,0.0861 0.0865,0.17187 0.17763,0.17187 0.0935,0 0.17962,-0.0858 0.17962,-0.17187 l 0.63038,0 -0.64988,0.64737 c -0.0493,-0.0226 -0.107,-0.0334 -0.16012,-0.0334 -0.0543,0 -0.10713,0.0112 -0.1545,0.0334 l -0.64813,-0.64737 0.625,0 z m 2.17738,0 c 0,0.0861 0.0809,0.17187 0.179,0.17187 0.09,0 0.17112,-0.0858 0.17112,-0.17187 l 0.63175,0 -0.64775,0.64737 c -0.0456,-0.0226 -0.0967,-0.0334 -0.15512,-0.0334 -0.0577,0 -0.11413,0.0112 -0.15813,0.0334 l -0.653,-0.64737 0.63213,0 z m 3.26625,2.6575 -1.20513,-1.18988 0,-4.10987 -0.7115,0 0,2.109 -35.306869,0 0,-2.109 -0.7165,0 0,4.10987 -1.19688,1.18988 0,0.80925 39.136879,0 0,-0.80925 z"
     style="fill:#114a4f;fill-opacity:1;fill-rule:nonzero;stroke:none"
     id="path36" /><path
     inkscape:connector-curvature="0"
     d="m 98.841998,51.77475 c 1.066869,0 1.931002,0.86075 1.931002,1.92225 0,1.06662 -0.864133,1.92375 -1.931002,1.92375 -1.061627,0 -1.925877,-0.85713 -1.925877,-1.92375 0,-1.0615 0.86425,-1.92225 1.925877,-1.92225 z m 0,4.18188 c 1.245752,0 2.254502,-1.01163 2.254502,-2.25963 0,-1.24612 -1.00875,-2.25813 -2.254503,-2.25813 -1.247627,0 -2.251127,1.012 -2.251127,2.25813 0,1.248 1.0035,2.25963 2.251127,2.25963"
     style="fill:#0f3f48;fill-opacity:1;fill-rule:nonzero;stroke:none"
     id="path38" /><path
     inkscape:connector-curvature="0"
     d="m 77.59912,66.409 c 1.72138,-1.1565 3.802001,-1.83612 6.04238,-1.83612 2.23512,0 4.31012,0.67962 6.02475,1.83612 l -12.06713,0 z m -1.7245,0.50675 15.63588,0 c -2.07988,-1.86237 -4.81713,-2.99588 -7.8215,-2.99588 -2.999,0 -5.74163,1.1335 -7.81438,2.99588"
     style="fill:#0f3f48;fill-opacity:1;fill-rule:nonzero;stroke:none"
     id="path40" /><path
     inkscape:connector-curvature="0"
     d="m 98.841998,51.10613 c 1.439622,0 2.602872,1.15087 2.602872,2.58737 0,1.4485 -1.16325,2.60325 -2.602872,2.60325 -1.432627,0 -2.594127,-1.15475 -2.594127,-2.60325 0,-1.4365 1.1615,-2.58737 2.594127,-2.58737 z m 13.091002,0 c 1.43862,0 2.60012,1.15087 2.60012,2.58737 0,1.4485 -1.1615,2.60325 -2.60012,2.60325 -1.43213,0 -2.5975,-1.15475 -2.5975,-2.60325 0,-1.4365 1.16537,-2.58737 2.5975,-2.58737 z m 13.07775,0 c 1.45025,0 2.60637,1.15087 2.60637,2.58737 0,1.4485 -1.15612,2.60325 -2.60637,2.60325 -1.42725,0 -2.59275,-1.15475 -2.59275,-2.60325 0,-1.4365 1.1655,-2.58737 2.59275,-2.58737 z m -33.88688,7.12312 0.0599,0 0,0.80613 41.56237,0 0,0.41037 14.9485,0 0,-0.93512 -3.015,0 0,0.61612 -8.75312,0 0,-0.61612 -3.13825,0 0,-0.4575 16.24387,0 0,-1.01375 -1.44875,0 c -0.39087,-2.20175 -1.82662,-4.40888 -4.87912,-6.41725 -4.09013,-2.69113 -10.49675,-3.02175 -10.49675,-3.02175 l 0,-0.0989 -39.136879,0 0,0.0989 c 0,0 -6.424,0.33062 -10.51262,3.02175 -3.04338,2.00837 -4.48688,4.2155 -4.88088,6.41725 l -1.4415,0 0,1.01375 14.88825,0 0,0.17612 z"
     style="fill:#114a4f;fill-opacity:1;fill-rule:nonzero;stroke:none"
     id="path42" /><path
     inkscape:connector-curvature="0"
     d="m 132.20712,45.9375 -39.136869,0 0,0.933 39.136869,0 0,-0.933 z"
     style="fill:#0f3f48;fill-opacity:1;fill-rule:nonzero;stroke:none"
     id="path44" /><path
     d="m 154.48632,119.04619 0,-0.90001 -19.15677,0 0,-0.51734 19.15677,0 0,-2.55353 -18.83763,0 0,0.46927 -46.28101,0 0,-0.46927 -18.796495,0 0,2.55353 19.162892,0 0,0.51734 -19.162892,0 0,0.93699 c -0.0078,-0.007 -0.01546,-0.0157 -0.02335,-0.0232 -1.751368,-1.74983 -3.379718,-3.6206 -4.902573,-5.57797 l 23.722419,0 0,-0.20529 -23.882822,0 c -0.215168,-0.27787 -0.43493,-0.55197 -0.646206,-0.83608 l 25.106702,0 0,0.26243 45.165135,0 0,-0.26243 25.07125,0 c -0.20933,0.28411 -0.43075,0.55821 -0.64342,0.83608 l -23.88963,0 0,0.20529 23.7284,0 c -1.51813,1.95112 -3.14496,3.81632 -4.89077,5.56421 z m -46.56637,17.20163 0,-10.07175 c 0,-0.0646 -0.004,-0.13317 -0.004,-0.19974 0,-2.54213 2.05312,-4.59525 4.58983,-4.59525 2.54019,0 4.59887,2.05312 4.59887,4.59525 l 0,10.27149 c -1.51659,0.11537 -3.04723,0.19335 -4.59539,0.19335 -1.54607,0 -3.07477,-0.0779 -4.58942,-0.19335 z m -18.185873,-5.92865 0,0.51887 -2.405769,0 c -0.360148,-0.17069 -0.718339,-0.34236 -1.07445,-0.51887 l 3.480219,0 z m 0,-2.4661 0,0.51332 -7.098467,0 c -0.298144,-0.17249 -0.600748,-0.33694 -0.895145,-0.51332 l 7.993612,0 z m -14.438368,-4.54411 c -0.209186,-0.16832 -0.424354,-0.33067 -0.630492,-0.50317 l 15.06886,0 0,0.50317 -14.438368,0 z m 14.438368,2.0705 0,0.51694 -10.979833,0 c -0.244635,-0.16874 -0.485379,-0.34444 -0.728069,-0.51694 l 11.707902,0 z m 2.874745,7.02828 0,0.52443 -0.234495,0 c -0.46216,-0.16624 -0.915993,-0.34832 -1.372316,-0.52443 l 1.606811,0 z m -0.08829,-1.72024 -2.284005,0 0,-1.06888 2.284005,0 0,1.06888 z m 0.08829,-1.33687 -2.372276,0 0,-0.50859 2.372276,0 0,0.50859 z m 4.293907,-9.34702 c -2.788841,0.47912 -4.918005,2.90184 -4.918005,5.82413 l -1.160773,0 c 0,-3.47828 2.522804,-6.37456 5.841928,-6.9692 l 0.23685,1.14507 z m 6.969191,5.82413 c -0.0194,-2.92229 -2.13318,-5.34501 -4.910081,-5.82413 l 0.21752,-1.14507 c 3.326921,0.59464 5.837901,3.49092 5.837901,6.9692 l -1.14534,0 z m 1.29393,10.14583 2.13903,0 0,0.22684 c -0.71778,-0.0623 -1.4282,-0.13857 -2.13903,-0.22684 z m -6.358451,-15.26164 0.0744,-0.31121 c 2.583131,0.44993 4.561891,2.71823 4.561891,5.42702 l -0.30495,0 c 0,-2.55978 -1.86758,-4.70284 -4.331311,-5.11581 z m 4.276551,8.90669 4.18395,0 0,1.06888 -4.18395,0 0,-1.06888 z m 4.22093,3.31355 -4.22482,0 0,-0.52638 4.22482,0 0,0.52638 z m -14.592511,-7.10443 -0.310798,0 c 0.0067,-2.72408 1.994058,-4.98334 4.591358,-5.42702 l 0.0587,0.31121 c -2.46206,0.41297 -4.339224,2.54226 -4.339224,5.11581 z m 0.612701,0.34833 0,-0.19975 c 0,-2.54212 2.065089,-4.59525 4.591359,-4.59525 2.541021,0 4.597761,2.05313 4.597761,4.59525 l 0,9.6114 c -3.155241,-0.53584 -6.223751,-1.32061 -9.18912,-2.33251 l 0,-7.07914 z m 13.97981,3.17456 -4.22482,0 0,-0.50859 4.22482,0 0,0.50859 z m 4.17104,-9.34702 c -2.78885,0.47912 -4.89868,2.90184 -4.90661,5.82413 l -1.16271,0 c 0.007,-3.47828 2.52725,-6.37456 5.83094,-6.9692 l 0.23838,1.14507 z m 0.1604,0.70832 c -2.45983,0.41297 -4.33491,2.54226 -4.33491,5.11581 l -0.30733,0 c 0,-2.72408 1.97474,-4.98334 4.57567,-5.42702 l 0.0666,0.31121 z m 6.80726,5.11581 c 0,-2.92229 -2.12374,-5.34501 -4.90272,-5.82413 l 0.23088,-1.14507 c 3.29354,0.59464 5.81677,3.49092 5.83025,6.9692 l -1.15841,0 z m 3.47397,3.52288 -4.23957,0 0,-0.50858 4.23957,0 0,0.50858 z m 4.12169,-9.34702 c -2.79663,0.47913 -4.91286,2.90185 -4.91286,5.82414 l -1.1623,0 c 0,-3.47828 2.51891,-6.37457 5.8265,-6.9692 l 0.24866,1.14506 z m 6.95974,5.82414 c -0.0143,-2.92229 -2.12165,-5.34501 -4.91286,-5.82414 l 0.23087,-1.14506 c 3.3176,0.59463 5.83497,3.49092 5.83497,6.9692 l -1.15298,0 z m 1.53982,3.52288 -2.38923,0 0,-0.50858 2.38923,0 0,0.50858 z m 0.0883,1.33688 -2.37977,0 0,-1.06889 2.37977,0 0,1.06889 z m -6.68952,-9.97557 0.0589,-0.31121 c 2.5969,0.44993 4.57594,2.71823 4.58747,5.42702 l -0.31287,0 c -0.0139,-2.55978 -1.87912,-4.70284 -4.33339,-5.11581 z m -6.09254,5.11581 -0.30733,0 c 0.004,-2.72408 1.98432,-4.98334 4.58942,-5.42702 l 0.063,0.31121 c -2.47401,0.41297 -4.33533,2.54226 -4.3452,5.11581 z m 0.61228,0.34833 0,-0.19975 c 0,-2.54212 2.05911,-4.59525 4.58984,-4.59525 2.54212,0 4.61068,2.05313 4.61068,4.59525 0,0.0508 0,0.11746 -0.006,0.16861 l 0,7.1257 c -2.96717,1.01023 -6.03583,1.79307 -9.19301,2.32501 l 0,-9.41957 z m -9.07709,-5.46414 0.0627,-0.31121 c 2.59731,0.44993 4.57204,2.71823 4.58733,5.42702 l -0.3069,0 c -0.009,-2.55978 -1.88092,-4.70284 -4.34312,-5.11581 z m 4.36439,8.90668 4.19618,0 0,1.06889 -4.19618,0 0,-1.06889 z m 4.17298,3.31356 -4.23957,0 0,-0.52638 4.23957,0 0,0.52638 z m -4.23957,3.27229 0,-0.23089 2.17657,0 c -0.72029,0.0883 -1.44641,0.16624 -2.17657,0.23089 z m 14.97044,-3.27229 -0.50121,0 0,-0.52443 1.87145,0 c -0.45618,0.17611 -0.91042,0.35819 -1.37024,0.52443 z m 2.69336,-2.09413 0,-0.51889 3.42671,0 c -0.35612,0.17653 -0.71431,0.3482 -1.07682,0.51889 l -2.34989,0 z m 7.93773,-2.98497 c -0.29121,0.17638 -0.597,0.34081 -0.89446,0.51332 l -7.04327,0 0,-0.51332 7.93773,0 z m 3.71513,-2.47361 c -0.24074,0.1725 -0.48344,0.3482 -0.72822,0.51694 l -10.93687,0 0,-0.51694 11.66509,0 z m -11.66509,-4.64417 0,-0.52486 17.93567,0 c -0.18194,0.17417 -0.3625,0.35222 -0.54806,0.52486 l -17.38761,0 z m 15.02757,2.0705 c -0.20766,0.1725 -0.4213,0.33485 -0.63049,0.50317 l -14.39708,0 0,-0.50317 15.02757,0 z m -23.50183,-4.48156 0.0804,-0.15719 0.2502,0 0.0667,0.15719 0.14859,0 0,-0.13552 0.2021,0 0,0.17416 0.0939,0 0.0956,-0.17416 0.45785,-0.0625 -0.47315,2.31945 -0.12134,0 c 0.0741,0.0372 0.12134,0.11551 0.12134,0.19584 0,0.11705 -0.0982,0.20294 -0.20766,0.20294 -0.12134,0 -0.2135,-0.0859 -0.2135,-0.20294 0,0 0.009,-0.0316 0.009,-0.0394 l -0.12481,0 c 0.0311,0.0394 0.0488,0.0744 0.0488,0.11773 0,0.12454 -0.10198,0.22462 -0.24075,0.22462 -0.11147,0 -0.21753,-0.1001 -0.21753,-0.22462 0,-0.0433 0.0217,-0.0784 0.045,-0.11773 l -0.1116,0 0,0.0394 c 0,0.11705 -0.0977,0.20294 -0.22449,0.20294 -0.11161,0 -0.19988,-0.0859 -0.19988,-0.20294 0,-0.0803 0.0549,-0.15872 0.12148,-0.19584 l -0.12926,0 -0.46773,-2.31945 0.46773,0.0625 0.096,0.17416 0.0977,0 0,-0.17416 0.1896,0 0,0.13552 0.14108,0 z m -14.54178,0 0.0646,-0.15719 0.25464,0 0.0601,0.15719 0.16277,0 0,-0.13552 0.19348,0 0,0.17416 0.096,0 0.09,-0.17416 0.46994,-0.0625 -0.46994,2.31945 -0.13317,0 c 0.0705,0.0372 0.12163,0.11551 0.12163,0.19584 0,0.11705 -0.0839,0.20294 -0.20919,0.20294 -0.10753,0 -0.21155,-0.0859 -0.21155,-0.20294 0,0 0.0198,-0.0316 0.0198,-0.0394 l -0.12969,0 c 0.0217,0.0394 0.0512,0.0744 0.0512,0.11773 0,0.12454 -0.11148,0.22462 -0.23838,0.22462 -0.12774,0 -0.2238,-0.1001 -0.2238,-0.22462 0,-0.0433 0.007,-0.0784 0.0314,-0.11773 l -0.11899,0 0,0.0394 c 0,0.11705 -0.0827,0.20294 -0.19806,0.20294 -0.10932,0 -0.21517,-0.0859 -0.21517,-0.20294 0,-0.0803 0.0548,-0.15872 0.11536,-0.19584 l -0.11536,0 -0.46579,-2.31945 0.46175,0.0625 0.0957,0.17416 0.0824,0 0,-0.17416 0.19348,0 0,0.13552 0.16457,0 z m -14.584581,0 0.0706,-0.15719 0.24616,0 0.0706,0.15719 0.14845,0 0,-0.13552 0.19974,0 0,0.17416 0.0961,0 0.0977,-0.17416 0.45189,-0.0625 -0.45189,2.31945 -0.14107,0 c 0.075,0.0372 0.12773,0.11551 0.12773,0.19584 0,0.11705 -0.09,0.20294 -0.20209,0.20294 -0.12691,0 -0.22463,-0.0859 -0.22463,-0.20294 0,0 0.0217,-0.0316 0.0217,-0.0394 l -0.13163,0 c 0.0241,0.0394 0.0241,0.0744 0.0241,0.11773 0,0.12454 -0.075,0.22462 -0.21602,0.22462 -0.11688,0 -0.22446,-0.1001 -0.22446,-0.22462 0,-0.0433 0.0293,-0.0784 0.0449,-0.11773 l -0.12926,0 0,0.0394 c 0,0.11705 -0.0784,0.20294 -0.19584,0.20294 -0.11537,0 -0.21155,-0.0859 -0.21155,-0.20294 0,-0.0803 0.0586,-0.15872 0.13552,-0.19584 l -0.13552,0 -0.4637,-2.31945 0.4637,0.0625 0.0824,0.17416 0.10587,0 0,-0.17416 0.19195,0 0,0.13552 0.14845,0 z m -25.973345,1.8862 17.978488,0 0,0.52486 -17.430839,0 c -0.185979,-0.17264 -0.365708,-0.35069 -0.547651,-0.52486 z m 81.671996,-36.710204 0,-0.812023 18.15863,0 c -0.0251,0.27188 -0.0493,0.544169 -0.0789,0.812023 l -18.07983,0 z m 0.0685,0.778942 7.74619,0 0,0.512622 -7.74619,0 0,-0.512622 z m -5.36434,6.80337 4.23318,0 0,0.522075 -4.23318,0 0,-0.522075 z m 0,3.579597 4.23318,0 0,0.507062 -4.23318,0 0,-0.507062 z m 0,3.552363 4.23318,0 0,0.526378 -4.23318,0 0,-0.526378 z m 0,3.573202 4.23318,0 0,0.49539 -4.23318,0 0,-0.49539 z m 0,3.5525 4.23318,0 0,0.51693 -4.23318,0 0,-0.51693 z m -12.48307,-23.125978 -46.282551,0 0,-0.690685 46.282551,0 0,0.690685 z m 16.71625,-1.451968 0,0.526801 -16.7296,0 0,-0.305795 -46.201092,0 0,0.305795 -16.735429,0 0,-0.526801 16.668854,0 0,-1.508679 -16.668854,0 0,-3.1729 16.735429,0 0,0.577674 46.136042,0 0,0.30496 0.065,0 0,-0.882634 16.7296,0 0,3.1729 -16.71626,0 0,1.508679 16.71626,0 z m -60.855871,-6.353297 0.327055,0 0,0.73641 41.375656,0 0,-0.73641 0.32901,0 c 2.59689,-2.780927 6.31049,-4.530349 10.42384,-4.530349 4.10056,0 7.8054,1.749422 10.41257,4.530349 l 0.43173,0 0,1.14534 -19.16024,0 0,0.29314 -46.281017,0 0,-0.29314 -18.974688,0 0,-1.14534 0.301902,0 c 2.592859,-2.780927 6.305626,-4.530349 10.403683,-4.530349 4.108353,0 7.817218,1.749422 10.410499,4.530349 z m 44.139621,-4.918007 0,0.702904 -4.07833,0 0,1.978212 -9.03067,0 0,-1.978212 -5.51138,0 0,1.978212 -9.04568,0 0,-1.978212 -5.51375,0 0,1.978212 -9.032194,0 0,-1.978212 -4.069013,0 0,-0.702904 1.790844,0 0,-0.591018 42.683613,0 0,0.591018 1.80656,0 z m -64.096878,15.30084 -7.746196,0 0,-0.512622 7.746195,0 0,0.512622 z m -0.07406,-1.291564 -17.961253,0 c -0.02958,-0.267854 -0.05282,-0.540143 -0.07795,-0.812023 l 18.039226,0 0,0.812023 z M 55.542535,93.714595 c -0.09019,-0.303015 -0.176104,-0.606441 -0.260481,-0.912236 l 15.35019,0 0,0.912236 -15.089709,0 z m 9.425418,2.812752 5.603266,0 0,13.163893 -5.603266,0 0,-13.163893 z m 5.664291,14.185113 0,0.71862 -6.511341,0 c -0.170689,-0.24104 -0.344848,-0.47552 -0.511088,-0.71862 l 7.022429,0 z m -11.012913,-6.71274 c -1.224979,-2.40189 -2.2904,-4.897161 -3.182486,-7.472373 l 3.182486,0 0,7.472373 z m 13.1575,-15.953019 0,2.429107 -0.113144,0 0,19.213072 -0.561828,0 0,-18.183512 -17.164519,0 C 54.90021,91.358309 54.8714,91.205823 54.83359,91.056963 l 0,-0.06272 17.268212,0 0,-0.518461 -17.402895,0 c -0.266464,-1.159238 -0.503171,-2.331399 -0.70097,-3.515379 l 18.778836,0 0,0.569745 4.151721,0 0,0.516514 -4.151721,0 z m -0.07795,3.035837 4.229692,0 0,0.522075 -4.229692,0 0,-0.522075 z m 0,3.579608 4.229692,0 0,0.507063 -4.229692,0 0,-0.507063 z m 0,3.552352 4.229692,0 0,0.52639 -4.229692,0 0,-0.52639 z m 4.229692,7.640282 -4.229692,0 0,-0.51666 4.229692,0 0,0.51666 z m -4.229692,-4.06707 4.229692,0 0,0.49539 -4.229692,0 0,-0.49539 z m 11.940438,7.11069 -7.104438,0 0,-17.197601 7.104438,0 0,17.197601 z m 0.458547,-21.368226 4.223021,0 0,0.516527 -4.223021,0 0,-0.516527 z m 0,3.552364 4.223021,0 0,0.522075 -4.223021,0 0,-0.522075 z m 0,3.579608 4.223021,0 0,0.507063 -4.223021,0 0,-0.507063 z m 0,3.552352 4.223021,0 0,0.52639 -4.223021,0 0,-0.52639 z m 4.224967,7.640282 -4.223433,0 0,-0.51666 4.223433,0 0,0.51666 z m -4.224967,-4.06707 4.223021,0 0,0.49539 -4.223021,0 0,-0.49539 z m 4.269869,-16.504147 46.283105,0 0,1.69855 -46.283106,0 0,-1.69855 z m 32.123155,2.763138 11.13425,0 0,1.32311 -11.13425,0 0,-1.32311 z m 11.13425,2.58354 -11.13425,0 0,-0.29551 11.13425,0 0,0.29551 z m -25.69952,-2.58354 11.14649,0 0,1.32311 -11.14649,0 0,-1.32311 z m 11.14649,2.58354 -11.14649,0 0,-0.29551 11.14649,0 0,0.29551 z m -25.692167,-2.58354 11.139817,0 0,1.32311 -11.139817,0 0,-1.32311 z m 11.139817,2.58354 -11.139817,0 0,-0.29551 11.139817,0 0,0.29551 z m -8.666211,4.738011 6.202491,0 0,14.320628 -6.202491,0 0,-14.320628 z m 7.615391,16.503448 -9.032195,0 0,-1.31408 9.032195,0 0,1.31408 z m 6.94598,-16.503448 6.18636,0 0,14.320628 -6.18636,0 0,-14.320628 z m 7.61345,16.503448 -9.04568,0 0,-1.31408 9.04568,0 0,1.31408 z m -25.869793,-18.059107 0,-0.814392 2.278168,0 0,-0.583089 9.032195,0 0,0.583089 5.51375,0 0,-0.583089 9.04568,0 0,0.583089 5.51139,0 0,-0.583089 9.03066,0 0,0.583089 2.27178,0 0,0.814392 -42.683622,0 z m 32.794083,1.555659 6.20486,0 0,14.320628 -6.20486,0 0,-14.320628 z m 7.61776,16.503448 -9.03066,0 0,-1.31408 9.03066,0 0,1.31408 z m 4.17257,-24.341514 4.23511,0 0,0.516515 -4.23511,0 0,-0.516515 z m 0,3.552352 4.23511,0 0,0.522075 -4.23511,0 0,-0.522075 z m 0,3.579608 4.23511,0 0,0.507063 -4.23511,0 0,-0.507063 z m 0,3.552352 4.23511,0 0,0.52639 -4.23511,0 0,-0.52639 z m 4.23275,7.640282 -4.23511,0 0,-0.51666 4.23511,0 0,0.51666 z m -4.23275,-4.06707 4.23511,0 0,0.49539 -4.23511,0 0,-0.49539 z m 11.79337,7.11069 -7.13542,0 0,-17.197601 7.13542,0 0,17.197601 z m -1.47351,-20.587749 c -0.38377,0.724177 -1.14269,1.231384 -2.02366,1.231384 -0.8786,0 -1.62835,-0.507207 -2.00976,-1.231384 l -1.62849,0 0,-3.22919 -4.76554,0 0,-0.352353 -46.201091,0 0,0.352353 -4.79499,0 0,3.22919 -1.604865,0 c -0.379463,0.724177 -1.13909,1.231384 -2.01533,1.231384 -0.87902,0 -1.646141,-0.507207 -2.026439,-1.231384 l -1.457804,0 0,-3.22919 -4.836,0 0,-2.458309 16.735428,0 0,1.401517 46.201091,0 0,-1.401517 16.7296,0 0,2.458309 -4.82864,0 0,3.22919 -1.47351,0 z m 24.14165,2.683629 c -0.041,0.16832 -0.0765,0.340822 -0.11774,0.511088 l -17.13269,0 0,18.183512 -0.56543,0 0,-19.21306 -0.1158,0 0,-2.429119 -4.14101,0 0,-0.516515 4.14101,0 0,-0.569757 18.75397,0 c -0.19975,1.183981 -0.43494,2.356152 -0.70292,3.515391 l -17.36982,0 0,0.51846 17.25043,0 z m -6.33329,5.533067 4.71438,0 c -1.2482,3.598923 -2.82985,7.039383 -4.71438,10.286793 l 0,-10.286793 z m -2.46011,14.185113 c -0.16638,0.2431 -0.34041,0.4776 -0.5111,0.71862 l -6.48187,0 0,-0.71862 6.99297,0 z m -1.30783,-1.02358 -5.61688,0 0,-13.163891 5.61688,0 0,13.163891 z m 9.379,-15.974285 -15.06414,0 0,-0.912236 15.32267,0 c -0.0844,0.305795 -0.17027,0.609221 -0.25853,0.912236 z M 53.168202,3.115767 l 118.762088,0 0,72.429078 -0.0741,0 0,1.557473 c 0,1.69896 -0.0878,3.378194 -0.22851,5.041294 l -18.41354,0 0,-6.062926 2.68515,0 0,-1.366067 -0.33456,0 c -0.94519,-1.090163 -1.99448,-2.041317 -3.17609,-2.818312 l 0,-5.623282 -0.0236,0 0,1.307688 -4.25486,0 c -1.22108,0.706941 -2.60521,1.113503 -4.10042,1.113503 -1.52688,0 -2.91574,-0.406562 -4.11989,-1.113503 l -4.24108,0 0,0.712356 -46.785721,0 0,-0.712356 -3.694963,0 c -1.203718,0.706941 -2.609127,1.113503 -4.111968,1.113503 -1.497136,0 -2.894761,-0.406562 -4.108343,-1.113503 l -2.759244,0 0,3.581543 c -1.667825,0.87902 -3.170532,2.092189 -4.421921,3.552363 l -0.471201,0 0,1.366067 2.718234,0 0,6.062926 -18.616486,0 c -0.140708,-1.6631 -0.228976,-3.342334 -0.228976,-5.041294 l 0,-73.986551 z M 50.04841,0 l 0,1.557883 0,75.544435 c 0.0067,34.495132 27.97185,62.455182 62.46102,62.456702 33.97264,-0.001 61.61896,-27.12397 62.44294,-60.898819 l 0.096,0 L 175.04837,0 50.048372,0 Z"
     style="fill:#114a4f;fill-opacity:1;fill-rule:nonzero;stroke:none"
     id="path20"
     inkscape:connector-curvature="0" /><path
     d="m 0.0365,151.645 8.07625,0 0,2.51512 -5.07763,0 0,2.40013 4.77675,0 0,2.51225 -4.77675,0 0,2.95475 5.25163,0 0,2.515 -8.25025,0 0,-12.89725 z m 17.55312,3.5235 0,2.35025 c -0.59275,-0.27712 -1.16787,-0.48362 -1.724869,-0.62225 -0.5545,-0.1385 -1.07638,-0.2065 -1.56575,-0.2065 -0.53075,0 -0.923,0.0736 -1.17963,0.2215 -0.2565,0.14413 -0.38612,0.37125 -0.38612,0.67813 0,0.24762 0.0974,0.43624 0.28912,0.56899 0.1945,0.13263 0.54525,0.23 1.0495,0.29488 l 0.48363,0.0765 c 1.43012,0.20063 2.39137,0.53362 2.88362,0.99387 0.489629,0.46 0.73738,1.1825 0.73738,2.16713 0,1.03212 -0.34238,1.8075 -1.029,2.32337 -0.68425,0.51913 -1.7075,0.7785 -3.06675,0.7785 -0.57513,0 -1.17075,-0.05 -1.78413,-0.15024 -0.613,-0.10038 -1.24112,-0.25376 -1.88675,-0.45426 l 0,-2.35 c 0.55413,0.30088 1.12325,0.52475 1.70713,0.67538 0.58362,0.14737 1.17637,0.224 1.77487,0.224 0.53963,0 0.94963,-0.0855 1.22675,-0.2505 0.277,-0.16838 0.41588,-0.416 0.41588,-0.74313 0,-0.277 -0.0974,-0.48362 -0.28625,-0.61937 -0.19175,-0.13563 -0.569,-0.23875 -1.13213,-0.31538 l -0.4925,-0.068 c -1.23837,-0.174 -2.10537,-0.49213 -2.60362,-0.95813 -0.49813,-0.46588 -0.749,-1.17675 -0.749,-2.126 0,-1.02612 0.3185,-1.784 0.95237,-2.27938 0.63113,-0.49537 1.60413,-0.743 2.9105,-0.743 0.51313,0 1.0495,0.0415 1.61575,0.12963 0.56338,0.0858 1.17638,0.22112 1.84,0.404 z m 5.45775,7.97313 0,5.08037 -2.78037,0 0,-13.354 2.78037,0 0,1.41525 c 0.38663,-0.56312 0.814,-0.979 1.27988,-1.24725 0.466,-0.26825 1.00237,-0.40112 1.60687,-0.40112 1.0705,0 1.952,0.472 2.64188,1.42125 0.69312,0.94637 1.03825,2.16425 1.03825,3.65625 0,1.49212 -0.34513,2.71275 -1.03825,3.65925 -0.68988,0.94675 -1.57138,1.42125 -2.64188,1.42125 -0.6045,0 -1.14087,-0.13263 -1.60687,-0.40075 -0.46588,-0.26863 -0.89325,-0.68425 -1.27988,-1.2505 z m 1.849,-6.26275 c -0.59287,0 -1.04962,0.24475 -1.36812,0.73125 -0.3185,0.4865 -0.48088,1.18812 -0.48088,2.10225 0,0.917 0.16238,1.619 0.48088,2.1055 0.3185,0.4865 0.77525,0.72812 1.36812,0.72812 0.60163,0 1.0555,-0.24162 1.37125,-0.72525 0.3125,-0.48375 0.46875,-1.18525 0.46875,-2.10837 0,-0.91975 -0.15625,-1.62175 -0.46875,-2.10825 -0.31575,-0.48363 -0.76962,-0.72525 -1.37125,-0.72525 z m 10.66813,3.30837 c -0.58075,0 -1.017249,0.112 -1.31213,0.33025 -0.29475,0.21825 -0.43937,0.53963 -0.43937,0.96688 0,0.39225 0.118001,0.69912 0.35362,0.92025 0.236,0.22112 0.563381,0.33312 0.98513,0.33312 0.52187,0 0.96412,-0.2095 1.32087,-0.62787 0.35688,-0.416 0.536881,-0.94075 0.536881,-1.56588 l 0,-0.35675 -1.445001,0 z m 4.252001,-1.16475 0,5.51975 -2.807,0 0,-1.43287 c -0.3745,0.58675 -0.796251,1.01412 -1.26213,1.28275 -0.466,0.26812 -1.035,0.40075 -1.701501,0.40075 -0.905,0 -1.63637,-0.292 -2.19975,-0.87563 -0.56012,-0.58675 -0.84325,-1.34462 -0.84325,-2.2765 0,-1.135 0.354,-1.96662 1.055501,-2.49737 0.701999,-0.53075 1.80463,-0.79613 3.30838,-0.79613 l 1.64275,0 0,-0.24175 c 0,-0.48962 -0.177251,-0.8465 -0.52513,-1.07325 -0.348,-0.23 -0.88762,-0.34225 -1.61862,-0.34225 -0.59875,0 -1.15575,0.0649 -1.666,0.19775 -0.51313,0.1325 -0.99075,0.333 -1.43613,0.59563 l 0,-2.356 c 0.59875,-0.16225 1.20013,-0.28588 1.80175,-0.3685 0.60125,-0.0825 1.203,-0.124 1.80138,-0.124 1.57187,0 2.70712,0.34225 3.403,1.03212 0.69875,0.68713 1.04675,1.8075 1.04675,3.3555 z m 9.615499,-3.854 0,2.52425 c -0.37463,-0.28912 -0.75475,-0.50138 -1.135379,-0.63987 -0.383001,-0.13863 -0.78125,-0.20663 -1.188001,-0.20663 -0.7785,0 -1.383,0.25088 -1.813499,0.75513 -0.43337,0.50412 -0.64875,1.20887 -0.64875,2.111 0,0.90537 0.21538,1.61012 0.64875,2.11437 0.4305,0.50412 1.034999,0.75475 1.813499,0.75475 0.43613,0 0.852131,-0.0709 1.244,-0.21512 0.3895,-0.14463 0.75225,-0.35688 1.07938,-0.63988 l 0,2.52987 c -0.43338,0.17963 -0.87275,0.3125 -1.320999,0.40388 -0.451,0.0886 -0.899251,0.13262 -1.3475,0.13262 -1.57463,0 -2.80425,-0.44824 -3.68863,-1.34437 -0.88762,-0.89363 -1.333,-2.14088 -1.333,-3.73612 0,-1.59513 0.44538,-2.83951 1.333,-3.73563 0.88438,-0.8965 2.113999,-1.34188 3.68863,-1.34188 0.45425,0 0.9025,0.0443 1.3475,0.13288 0.44225,0.0883 0.881619,0.22387 1.320999,0.40075 z m 2.400121,-0.3005 2.7805,0 0,9.67425 -2.7805,0 0,-9.67425 z m 0,-3.76825 2.7805,0 0,2.52388 -2.7805,0 0,-2.52388 z m 9.588999,5.7465 c -0.61625,0 -1.085,0.24488 -1.40637,0.73738 -0.32138,0.4925 -0.48363,1.20287 -0.48363,2.12875 0,0.92875 0.16225,1.63675 0.48363,2.12887 0.32137,0.4925 0.79012,0.74025 1.40637,0.74025 0.610501,0 1.07638,-0.24775 1.397751,-0.74025 0.31863,-0.49212 0.47763,-1.20012 0.47763,-2.12887 0,-0.92588 -0.159,-1.63625 -0.47763,-2.12875 -0.321371,-0.4925 -0.78725,-0.73738 -1.397751,-0.73738 z m 0,-2.21137 c 1.50375,0 2.677251,0.44825 3.517751,1.3475 0.8405,0.8965 1.26213,2.14087 1.26213,3.73 0,1.58925 -0.42163,2.83362 -1.26213,3.73287 -0.8405,0.89938 -2.014,1.34763 -3.51775,1.34763 -1.495,0 -2.6685,-0.44825 -3.5175,-1.34763 -0.85212,-0.89925 -1.277,-2.14362 -1.277,-3.73287 0,-1.58913 0.42488,-2.8335 1.277,-3.73 0.849,-0.89925 2.0225,-1.3475 3.5175,-1.3475 z m 12.457881,-2.98988 2.99875,0 0,12.89725 -2.99875,0 0,-12.89725 z m 14.54887,7.00588 0,5.89137 -2.79862,0 0,-0.95837 0,-3.55013 c 0,-0.83725 -0.0172,-1.41225 -0.0527,-1.72762 -0.0354,-0.31863 -0.0914,-0.55138 -0.174,-0.702 -0.10913,-0.2005 -0.256501,-0.35675 -0.4425,-0.46875 -0.1885,-0.112 -0.40075,-0.168 -0.63675,-0.168 -0.58075,0 -1.037881,0.24775 -1.36813,0.74587 -0.33012,0.49825 -0.4985,1.1885 -0.4985,2.07 l 0,4.759 -2.780371,0 0,-9.67425 2.780371,0 0,1.41525 c 0.421629,-0.56312 0.867,-0.979 1.34188,-1.24725 0.47162,-0.26825 0.99075,-0.40112 1.562619,-0.40112 1.002751,0 1.7635,0.34225 2.285381,1.02612 0.518749,0.687 0.781369,1.68375 0.781369,2.98988 z m 5.62288,-6.531 0,2.74812 2.869,0 0,2.21138 -2.869,0 0,4.10137 c 0,0.4515 0.0793,0.75513 0.23875,0.91138 0.15912,0.15912 0.47762,0.23875 0.95525,0.23875 l 1.433,0 0,2.21137 -2.38538,0 c -1.09987,0 -1.87837,-0.25362 -2.34112,-0.7635 -0.46025,-0.51025 -0.69025,-1.37725 -0.69025,-2.598 l 0,-4.10137 -1.3825,0 0,-2.21138 1.3825,0 0,-2.74812 2.78975,0 z m 13.259749,7.56025 0,0.8785 -6.50488,0 c 0.0649,0.72562 0.298,1.27087 0.70475,1.63375 0.40713,0.3625 0.973,0.54537 1.69875,0.54537 0.58675,0 1.188,-0.0971 1.80138,-0.28887 0.61337,-0.19488 1.24162,-0.4865 1.88712,-0.87875 l 0,2.38537 c -0.65762,0.27713 -1.31525,0.48375 -1.97575,0.62512 -0.65725,0.14163 -1.31487,0.21226 -1.9725,0.21226 -1.5775,0 -2.80425,-0.44513 -3.676872,-1.3355 -0.87275,-0.88763 -1.309247,-2.138 -1.309247,-3.745 0,-1.57738 0.430497,-2.81863 1.288617,-3.72113 0.857882,-0.90537 2.037382,-1.35637 3.541252,-1.35637 1.37125,0 2.46788,0.45712 3.28775,1.37125 0.81963,0.917 1.22963,2.1405 1.22963,3.674 z m -2.85738,-1.02925 c 0,-0.58675 -0.15625,-1.06125 -0.46275,-1.42125 -0.30962,-0.35963 -0.71362,-0.53963 -1.215,-0.53963 -0.53362,0 -0.97012,0.16825 -1.30925,0.50425 -0.33587,0.339 -0.54812,0.82275 -0.63387,1.45663 l 3.62087,0 z m 11.435,-1.14988 c -0.24775,-0.12675 -0.48975,-0.21825 -0.7285,-0.28025 -0.23887,-0.0588 -0.48337,-0.0914 -0.731,-0.0914 -0.71362,0 -1.26212,0.2565 -1.64837,0.76675 -0.38625,0.507 -0.58113,1.23837 -0.58113,2.188 l 0,4.45812 -2.78037,0 0,-9.67425 2.78037,0 0,1.58925 c 0.36,-0.634 0.76963,-1.09712 1.23275,-1.38587 0.46275,-0.292 1.02013,-0.4365 1.67175,-0.4365 0.0914,0 0.19163,0.002 0.30075,0.0112 0.10925,0.009 0.26825,0.0266 0.47775,0.0564 l 0.006,2.79813 z m 7.30975,-1.21775 0,-5.1835 2.79825,0 0,13.4425 -2.79825,0 0,-1.40062 c -0.3865,0.57225 -0.811,0.98787 -1.27087,1.25325 -0.46,0.26537 -0.99675,0.398 -1.607,0.398 -1.07038,0 -1.94913,-0.4745 -2.639,-1.42125 -0.687,-0.9465 -1.03213,-2.16713 -1.03213,-3.65925 0,-1.492 0.34513,-2.70988 1.03213,-3.65625 0.68987,-0.94925 1.56862,-1.42125 2.639,-1.42125 0.6045,0 1.141,0.13287 1.60412,0.40112 0.46275,0.26825 0.88725,0.68413 1.27375,1.24725 z m -1.84,6.26275 c 0.5985,0 1.05563,-0.24162 1.36813,-0.72525 0.31562,-0.48375 0.47187,-1.18525 0.47187,-2.10837 0,-0.91975 -0.15625,-1.62175 -0.47187,-2.10825 -0.3125,-0.48363 -0.76963,-0.72525 -1.36813,-0.72525 -0.58675,0 -1.03787,0.24162 -1.3535,0.72525 -0.3125,0.4865 -0.46875,1.1885 -0.46875,2.10825 0,0.92312 0.15625,1.62462 0.46875,2.10837 0.31563,0.48363 0.76675,0.72525 1.3535,0.72525 z m 7.30663,-7.678 2.7805,0 0,9.67425 -2.7805,0 0,-9.67425 z m 0,-3.76825 2.7805,0 0,2.52388 -2.7805,0 0,-2.52388 z m 12.25175,4.06875 0,2.35025 c -0.59275,-0.27712 -1.16788,-0.48362 -1.72488,-0.62225 -0.5545,-0.1385 -1.0765,-0.2065 -1.56575,-0.2065 -0.53087,0 -0.92312,0.0736 -1.17962,0.2215 -0.2565,0.14413 -0.38625,0.37125 -0.38625,0.67813 0,0.24762 0.0975,0.43625 0.28912,0.569 0.19463,0.13262 0.54538,0.23 1.04963,0.29487 l 0.48362,0.0765 c 1.43,0.20063 2.39138,0.53363 2.8835,0.99388 0.48975,0.46 0.73738,1.1825 0.73738,2.16712 0,1.03213 -0.34225,1.8075 -1.029,2.32338 -0.68413,0.51912 -1.7075,0.7785 -3.06675,0.7785 -0.575,0 -1.17063,-0.05 -1.784,-0.15025 -0.613,-0.10038 -1.24125,-0.25375 -1.88675,-0.45425 l 0,-2.35 c 0.55412,0.30087 1.12312,0.52475 1.70712,0.67537 0.5835,0.14738 1.17638,0.224 1.77488,0.224 0.53962,0 0.9495,-0.0855 1.22662,-0.2505 0.27713,-0.16837 0.416,-0.416 0.416,-0.74312 0,-0.277 -0.0975,-0.48363 -0.28625,-0.61938 -0.19175,-0.13562 -0.56912,-0.23875 -1.13212,-0.31537 l -0.4925,-0.068 c -1.23838,-0.174 -2.1055,-0.49213 -2.60363,-0.95813 -0.49825,-0.46587 -0.74912,-1.17675 -0.74912,-2.126 0,-1.02612 0.31862,-1.784 0.9525,-2.27937 0.631,-0.49538 1.604,-0.743 2.9105,-0.743 0.513,0 1.0495,0.0415 1.61575,0.12962 0.56337,0.0858 1.17637,0.22113 1.84,0.404 z m 9.70975,0 0,2.52425 c -0.3745,-0.28912 -0.75475,-0.50137 -1.13525,-0.63987 -0.38313,-0.13863 -0.78138,-0.20663 -1.18813,-0.20663 -0.7785,0 -1.383,0.25088 -1.8135,0.75513 -0.43337,0.50412 -0.64875,1.20887 -0.64875,2.111 0,0.90537 0.21538,1.61012 0.64875,2.11437 0.4305,0.50413 1.035,0.75475 1.8135,0.75475 0.43613,0 0.85213,-0.0709 1.244,-0.21512 0.3895,-0.14463 0.75225,-0.35688 1.07938,-0.63988 l 0,2.52988 c -0.43338,0.17962 -0.87275,0.3125 -1.321,0.40387 -0.451,0.0886 -0.89925,0.13263 -1.3475,0.13263 -1.57463,0 -2.80413,-0.44825 -3.68863,-1.34438 -0.8875,-0.89362 -1.333,-2.14087 -1.333,-3.73612 0,-1.59513 0.4455,-2.8395 1.333,-3.73563 0.8845,-0.8965 2.114,-1.34187 3.68863,-1.34187 0.45425,0 0.9025,0.0442 1.3475,0.13287 0.44225,0.0883 0.88162,0.22388 1.321,0.40075 z m 2.40025,-0.3005 2.78037,0 0,9.67425 -2.78037,0 0,-9.67425 z m 0,-3.76825 2.78037,0 0,2.52388 -2.78037,0 0,-2.52388 z m 8.2325,12.04188 0,5.08037 -2.7805,0 0,-13.354 2.7805,0 0,1.41525 c 0.3865,-0.56312 0.81387,-0.979 1.27987,-1.24725 0.46588,-0.26825 1.00238,-0.40112 1.60688,-0.40112 1.07037,0 1.952,0.472 2.64187,1.42125 0.693,0.94637 1.03813,2.16425 1.03813,3.65625 0,1.49212 -0.34513,2.71275 -1.03813,3.65925 -0.68987,0.94675 -1.5715,1.42125 -2.64187,1.42125 -0.6045,0 -1.141,-0.13263 -1.60688,-0.40075 -0.466,-0.26863 -0.89337,-0.68425 -1.27987,-1.2505 z m 1.84887,-6.26275 c -0.59275,0 -1.0495,0.24475 -1.36812,0.73125 -0.3185,0.4865 -0.48075,1.18812 -0.48075,2.10225 0,0.917 0.16225,1.619 0.48075,2.1055 0.31862,0.4865 0.77537,0.72812 1.36812,0.72812 0.60163,0 1.0555,-0.24162 1.37125,-0.72525 0.3125,-0.48375 0.46875,-1.18525 0.46875,-2.10837 0,-0.91975 -0.15625,-1.62175 -0.46875,-2.10825 -0.31575,-0.48363 -0.76962,-0.72525 -1.37125,-0.72525 z m 6.76413,-5.77913 2.7805,0 0,13.4425 -2.7805,0 0,-13.4425 z m 5.45212,3.76825 2.78038,0 0,9.67425 -2.78038,0 0,-9.67425 z m 0,-3.76825 2.78038,0 0,2.52388 -2.78038,0 0,-2.52388 z m 14.20375,7.55113 0,5.89137 -2.7985,0 0,-0.95837 0,-3.55013 c 0,-0.83725 -0.0174,-1.41225 -0.0529,-1.72762 -0.0354,-0.31863 -0.0914,-0.55138 -0.174,-0.702 -0.10913,-0.2005 -0.2565,-0.35675 -0.4425,-0.46875 -0.1885,-0.112 -0.40075,-0.168 -0.63675,-0.168 -0.58075,0 -1.03788,0.24775 -1.368,0.74587 -0.33025,0.49825 -0.49863,1.1885 -0.49863,2.07 l 0,4.759 -2.78037,0 0,-9.67425 2.78037,0 0,1.41525 c 0.42163,-0.56312 0.86713,-0.979 1.34188,-1.24725 0.47162,-0.26825 0.99075,-0.40112 1.56262,-0.40112 1.00275,0 1.7635,0.34225 2.28538,1.02612 0.51875,0.687 0.78137,1.68375 0.78137,2.98988 z m 6.48663,1.53637 c -0.58063,0 -1.01725,0.112 -1.312,0.33025 -0.29488,0.21825 -0.43938,0.53963 -0.43938,0.96688 0,0.39225 0.118,0.69912 0.35363,0.92025 0.236,0.22112 0.56337,0.33312 0.985,0.33312 0.522,0 0.96412,-0.2095 1.321,-0.62787 0.35675,-0.416 0.53675,-0.94075 0.53675,-1.56588 l 0,-0.35675 -1.445,0 z m 4.252,-1.16475 0,5.51975 -2.807,0 0,-1.43287 c -0.3745,0.58675 -0.79613,1.01412 -1.26213,1.28275 -0.46587,0.26812 -1.035,0.40075 -1.7015,0.40075 -0.90487,0 -1.63625,-0.292 -2.19962,-0.87563 -0.56025,-0.58675 -0.84338,-1.34462 -0.84338,-2.2765 0,-1.135 0.354,-1.96662 1.05563,-2.49737 0.70187,-0.53075 1.80462,-0.79613 3.30837,-0.79613 l 1.64263,0 0,-0.24175 c 0,-0.48962 -0.17713,-0.8465 -0.52513,-1.07325 -0.34787,-0.23 -0.88762,-0.34225 -1.6185,-0.34225 -0.59887,0 -1.15587,0.0649 -1.66612,0.19775 -0.513,0.1325 -0.99075,0.333 -1.43613,0.59563 l 0,-2.356 c 0.59888,-0.16225 1.20013,-0.28588 1.80175,-0.3685 0.60138,-0.0825 1.203,-0.124 1.8015,-0.124 1.57175,0 2.707,0.34225 3.403,1.03212 0.69875,0.68713 1.04663,1.8075 1.04663,3.3555 z m 9.0525,-1.5215 c -0.24775,-0.12675 -0.48975,-0.21825 -0.7285,-0.28025 -0.23888,-0.0588 -0.48338,-0.0914 -0.731,-0.0914 -0.71363,0 -1.26213,0.2565 -1.64838,0.76675 -0.38625,0.507 -0.58112,1.23837 -0.58112,2.188 l 0,4.45812 -2.78038,0 0,-9.67425 2.78038,0 0,1.58925 c 0.36,-0.634 0.76962,-1.09712 1.23275,-1.38587 0.46275,-0.292 1.02012,-0.4365 1.67175,-0.4365 0.0914,0 0.19162,0.002 0.30075,0.0112 0.10925,0.009 0.26825,0.0266 0.47775,0.0564 l 0.006,2.79813 z m 1.38287,-2.633 2.7805,0 0,9.67425 -2.7805,0 0,-9.67425 z m 0,-3.76825 2.7805,0 0,2.52388 -2.7805,0 0,-2.52388 z m 9.589,5.7465 c -0.61625,0 -1.085,0.24488 -1.40637,0.73738 -0.32138,0.4925 -0.48363,1.20287 -0.48363,2.12875 0,0.92875 0.16225,1.63675 0.48363,2.12887 0.32137,0.4925 0.79012,0.74025 1.40637,0.74025 0.6105,0 1.07638,-0.24775 1.39775,-0.74025 0.31863,-0.49212 0.47763,-1.20012 0.47763,-2.12887 0,-0.92588 -0.159,-1.63625 -0.47763,-2.12875 -0.32137,-0.4925 -0.78725,-0.73738 -1.39775,-0.73738 z m 0,-2.21137 c 1.50375,0 2.67725,0.44825 3.51775,1.3475 0.8405,0.8965 1.26213,2.14087 1.26213,3.73 0,1.58925 -0.42163,2.83362 -1.26213,3.73287 -0.8405,0.89938 -2.014,1.34763 -3.51775,1.34763 -1.495,0 -2.6685,-0.44825 -3.5175,-1.34763 -0.85212,-0.89925 -1.277,-2.14362 -1.277,-3.73287 0,-1.58913 0.42488,-2.8335 1.277,-3.73 0.849,-0.89925 2.0225,-1.3475 3.5175,-1.3475"
     style="fill:#114a4f;fill-opacity:1;fill-rule:nonzero;stroke:none"
     id="path46"
     inkscape:connector-curvature="0" /><path
     d="m 0,173.71375 1.62675,0 0,8.0625 c 0,1.423 0.2335,2.44563 0.69762,3.07063 0.4645,0.62537 1.21675,0.93787 2.25463,0.93787 1.035,0 1.78437,-0.3125 2.24862,-0.93787 0.46125,-0.625 0.692,-1.64763 0.692,-3.07063 l 0,-8.0625 1.6263805,0 0,8.284 c 0,1.73263 -0.3855,3.03725 -1.1530005,3.92063 -0.771,0.883 -1.90875,1.32587 -3.414,1.32587 -1.514,0 -2.65213,-0.44287 -3.42288,-1.32587 C 0.3855,185.035 0,183.73038 0,181.99775 l 0,-8.284 z m 19.56612,7.2645 0,6.00813 -1.47475,0 0,-5.95675 c 0,-0.94075 -0.16687,-1.64763 -0.50062,-2.11501 -0.331,-0.46737 -0.82563,-0.704 -1.484,-0.704 -0.79513,0 -1.42013,0.28238 -1.87825,0.84688 -0.46138,0.56125 -0.688879,1.329 -0.688879,2.29988 l 0,5.629 -1.486751,0 0,-9.956 1.486751,0 0,1.54762 c 0.349,-0.60088 0.76188,-1.047 1.238129,-1.34425 0.476501,-0.29725 1.03175,-0.44287 1.65962,-0.44287 1.02263,0 1.8025,0.35175 2.33363,1.06187 0.528,0.70688 0.79512,1.74788 0.79512,3.1255 z m 2.93425,-3.94787 1.4655,0 0,9.956 -1.4655,0 0,-9.956 z m 0,-3.87813 1.4655,0 0,2.07275 -1.4655,0 0,-2.07275 z m 3.49263,3.87813 1.5565,0 2.80062,8.35687 2.801,-8.35687 1.56263,0 -3.359,9.956 -1.9995,0 -3.36225,-9.956 z m 18.40962,4.56975 0,0.79799 -6.77275,0 c 0.0638,1.12601 0.37025,1.98463 0.9195,2.57351 0.54925,0.59175 1.30788,0.88574 2.27875,0.88574 0.5705,0 1.11963,-0.0757 1.65075,-0.23062 0.530881,-0.1545 1.056,-0.38513 1.57788,-0.69488 l 0,1.54775 c -0.528,0.24875 -1.06825,0.44013 -1.6235,0.5705 -0.552129,0.1275 -1.11375,0.19413 -1.68413,0.19413 -1.43512,0 -2.56712,-0.46125 -3.40162,-1.38688 -0.83125,-0.9255 -1.24688,-2.1755 -1.24688,-3.75049 0,-1.63251 0.39438,-2.92501 1.18625,-3.88101 0.792,-0.95887 1.86025,-1.435 3.20425,-1.435 1.20475,0 2.1575,0.43075 2.858751,1.2925 0.700879,0.86175 1.05275,2.03288 1.05275,3.51675 z m -1.47475,-0.48225 c -0.0125,-0.89538 -0.23675,-1.60825 -0.67675,-2.14263 -0.43687,-0.53075 -1.0195,-0.798 -1.741619,-0.798 -0.8255,0 -1.48388,0.258 -1.9785,0.77388 -0.49463,0.51275 -0.77675,1.24125 -0.84975,2.17562 l 5.24662,-0.009 z m 9.085,-2.55825 c -0.16687,-0.10913 -0.348999,-0.185 -0.54312,-0.23663 -0.19425,-0.0515 -0.40963,-0.0759 -0.64038,-0.0759 -0.83437,0 -1.47462,0.3005 -1.92075,0.90137 -0.44287,0.60375 -0.66437,1.4655 -0.66437,2.59125 l 0,5.24663 -1.48675,0 0,-9.956 1.48675,0 0,1.54762 c 0.3065,-0.60687 0.71,-1.05625 1.207501,-1.3475 0.49787,-0.294 1.098869,-0.43962 1.80575,-0.43962 0.0999,0 0.21225,0.006 0.33662,0.0209 0.12463,0.0152 0.26113,0.0365 0.40988,0.0669 l 0.009,1.681 z m 7.24638,-1.238 0,1.54775 c -0.41563,-0.23675 -0.84638,-0.41575 -1.295749,-0.534 -0.44613,-0.11838 -0.91025,-0.17613 -1.38963,-0.17613 -0.72812,0 -1.27737,0.12438 -1.6445,0.37313 -0.36737,0.24875 -0.552371,0.62212 -0.552371,1.11962 0,0.3795 0.133621,0.67675 0.397501,0.89225 0.264,0.21863 0.78875,0.42488 1.577869,0.619 l 0.497501,0.12438 c 1.046999,0.24875 1.79363,0.601 2.230499,1.05312 0.440131,0.45488 0.658381,1.08638 0.658381,1.8995 0,0.92238 -0.33063,1.65688 -0.986131,2.19363 -0.65837,0.54037 -1.56262,0.81037 -2.71275,0.81037 -0.47937,0 -0.98012,-0.0517 -1.502,-0.15487 -0.522,-0.103 -1.07112,-0.26075 -1.64487,-0.46725 l 0,-1.69025 c 0.546371,0.31575 1.080371,0.54925 1.60837,0.70725 0.527881,0.15775 1.049881,0.23675 1.565751,0.23675 0.692,0 1.225999,-0.13363 1.59913,-0.39763 0.37312,-0.26112 0.56125,-0.63425 0.56125,-1.11362 0,-0.44613 -0.13638,-0.78588 -0.40638,-1.02263 -0.26725,-0.23662 -0.859,-0.46412 -1.772,-0.686 l -0.50712,-0.13312 c -0.91313,-0.21263 -1.57175,-0.54038 -1.97825,-0.9805 -0.40675,-0.44288 -0.61013,-1.04988 -0.61013,-1.8205 0,-0.93438 0.3005,-1.65688 0.89825,-2.16638 0.601,-0.50987 1.44738,-0.76462 2.543,-0.76462 0.546,0 1.05913,0.0421 1.5385,0.13312 0.4795,0.0883 0.922379,0.2215 1.325879,0.39763 z m 2.82837,-0.29125 1.465501,0 0,9.956 -1.4655,0 0,-9.956 z m 0,-3.87813 1.465501,0 0,2.07275 -1.4655,0 0,-2.07275 z m 10.444501,5.38925 0,-5.38925 1.47475,0 0,13.83413 -1.47475,0 0,-1.49288 c -0.30637,0.59175 -0.698,1.0315 -1.1685,1.31988 -0.47025,0.28812 -1.0375,0.43087 -1.70225,0.43087 -1.08637,0 -1.966121,-0.47937 -2.64612,-1.44137 -0.67638,-0.95888 -1.01625,-2.22138 -1.01625,-3.78713 0,-1.56262 0.33987,-2.82475 1.01625,-3.78675 0.68,-0.95875 1.55975,-1.43812 2.64612,-1.43812 0.66475,0 1.232,0.14237 1.70225,0.43075 0.4705,0.28525 0.86213,0.725 1.1685,1.31987 z m -5.013001,3.47425 c 0,1.20475 0.221501,2.14863 0.667501,2.83113 0.443,0.686 1.053129,1.029 1.82988,1.029 0.783,0 1.395619,-0.343 1.845,-1.029 0.446,-0.6825 0.67062,-1.62638 0.67062,-2.83113 0,-1.2015 -0.22462,-2.14512 -0.67062,-2.83112 -0.449381,-0.68238 -1.062,-1.02538 -1.845,-1.02538 -0.776751,0 -1.38688,0.343 -1.82988,1.02538 -0.446,0.686 -0.667501,1.62962 -0.667501,2.83112 z m 13.594251,-0.0332 c -1.19237,0 -2.017871,0.14875 -2.47612,0.45213 -0.461251,0.30362 -0.68875,0.81912 -0.68875,1.54762 0,0.57938 0.17012,1.04075 0.51587,1.3805 0.343,0.343 0.81038,0.51313 1.40175,0.51313 0.81963,0 1.47513,-0.32175 1.9665,-0.96525 0.4915,-0.64313 0.73738,-1.49875 0.73738,-2.56388 l 0,-0.36425 -1.45663,0 z m 2.93138,-0.6765 0,5.68038 -1.47475,0 0,-1.51126 c -0.33088,0.60376 -0.74938,1.04988 -1.25,1.33826 -0.50075,0.28812 -1.11375,0.43087 -1.84225,0.43087 -0.9195,0 -1.64763,-0.28525 -2.18763,-0.85887 -0.54037,-0.5705 -0.81037,-1.338 -0.81037,-2.29675 0,-1.12 0.337,-1.9665 1.01062,-2.53388 0.67075,-0.57037 1.67813,-0.85287 3.016,-0.85287 l 2.06363,0 0,-0.16088 c 0,-0.75225 -0.22138,-1.33512 -0.6675,-1.7475 -0.44325,-0.40962 -1.06838,-0.61625 -1.8755,-0.61625 -0.5095,0 -1.00738,0.067 -1.49275,0.2035 -0.4855,0.13638 -0.95288,0.33975 -1.405,0.61288 l 0,-1.51113 c 0.54,-0.23075 1.062,-0.40362 1.56862,-0.51875 0.50713,-0.1155 1.00138,-0.17287 1.481129,-0.17287 1.29862,0 2.266621,0.373 2.90687,1.11962 0.64038,0.74625 0.95888,1.87825 0.95888,3.3955 z m 8.92737,-2.7645 0,-5.38925 1.47475,0 0,13.83413 -1.47475,0 0,-1.49288 c -0.3065,0.59175 -0.698,1.0315 -1.168621,1.31988 -0.47013,0.28812 -1.037499,0.43087 -1.702129,0.43087 -1.086371,0 -1.966251,-0.47937 -2.64625,-1.44137 -0.676371,-0.95888 -1.01612,-2.22138 -1.01612,-3.78713 0,-1.56262 0.339749,-2.82475 1.01612,-3.78675 0.68,-0.95875 1.55988,-1.43812 2.64625,-1.43812 0.66463,0 1.231999,0.14237 1.702129,0.43075 0.47062,0.28525 0.862121,0.725 1.168621,1.31987 z m -5.01312,3.47425 c 0,1.20475 0.2215,2.14863 0.66762,2.83113 0.44288,0.686 1.052999,1.029 1.82975,1.029 0.783,0 1.39575,-0.343 1.845,-1.029 0.446129,-0.6825 0.67075,-1.62638 0.67075,-2.83113 0,-1.2015 -0.224621,-2.14512 -0.67075,-2.83112 -0.449251,-0.68238 -1.062,-1.02538 -1.845,-1.02538 -0.776751,0 -1.38687,0.343 -1.82975,1.02538 -0.44612,0.686 -0.66762,1.62962 -0.66762,2.83112 z m 20.615999,-3.47425 0,-5.38925 1.47475,0 0,13.83413 -1.47475,0 0,-1.49288 c -0.30638,0.59175 -0.698,1.0315 -1.1685,1.31988 -0.47025,0.28812 -1.0375,0.43087 -1.70225,0.43087 -1.08638,0 -1.96613,-0.47937 -2.64613,-1.44137 -0.67637,-0.95888 -1.01625,-2.22138 -1.01625,-3.78713 0,-1.56262 0.33988,-2.82475 1.01625,-3.78675 0.68,-0.95875 1.55975,-1.43812 2.64613,-1.43812 0.66475,0 1.232,0.14237 1.70225,0.43075 0.4705,0.28525 0.86212,0.725 1.1685,1.31987 z m -5.013,3.47425 c 0,1.20475 0.2215,2.14863 0.6675,2.83113 0.443,0.686 1.05312,1.029 1.82975,1.029 0.78312,0 1.39575,-0.343 1.845,-1.029 0.44612,-0.6825 0.67075,-1.62638 0.67075,-2.83113 0,-1.2015 -0.22463,-2.14512 -0.67075,-2.83112 -0.44925,-0.68238 -1.06188,-1.02538 -1.845,-1.02538 -0.77663,0 -1.38675,0.343 -1.82975,1.02538 -0.446,0.686 -0.6675,1.62962 -0.6675,2.83112 z m 17.184,-0.41562 0,0.79799 -6.77275,0 c 0.0639,1.12601 0.37037,1.98463 0.9195,2.57351 0.54925,0.59175 1.30787,0.88574 2.27875,0.88574 0.5705,0 1.11962,-0.0757 1.65075,-0.23062 0.53087,-0.1545 1.056,-0.38513 1.57787,-0.69488 l 0,1.54775 c -0.528,0.24875 -1.06825,0.44013 -1.6235,0.5705 -0.55212,0.1275 -1.11375,0.19413 -1.68412,0.19413 -1.43513,0 -2.56713,-0.46125 -3.40163,-1.38688 -0.83125,-0.9255 -1.24687,-2.1755 -1.24687,-3.75049 0,-1.63251 0.39437,-2.92501 1.18625,-3.88101 0.792,-0.95887 1.86025,-1.435 3.20425,-1.435 1.20475,0 2.1575,0.43075 2.85875,1.2925 0.70087,0.86175 1.05275,2.03288 1.05275,3.51675 z m -1.47475,-0.48225 c -0.0125,-0.89538 -0.23675,-1.60825 -0.67675,-2.14263 -0.43688,-0.53075 -1.0195,-0.798 -1.74163,-0.798 -0.8255,0 -1.48387,0.258 -1.9785,0.77388 -0.49462,0.51275 -0.77675,1.24125 -0.84975,2.17562 l 5.24663,-0.009 z m 9.09425,-7.96563 1.4655,0 0,13.83413 -1.4655,0 0,-13.83413 z m 8.62375,8.83025 c -1.19238,0 -2.018,0.14875 -2.47613,0.45213 -0.46137,0.30362 -0.68887,0.81912 -0.68887,1.54762 0,0.57938 0.17012,1.04075 0.516,1.3805 0.343,0.343 0.81037,0.51313 1.40175,0.51313 0.8195,0 1.475,-0.32175 1.9665,-0.96525 0.4915,-0.64313 0.73737,-1.49875 0.73737,-2.56388 l 0,-0.36425 -1.45662,0 z m 2.93137,-0.6765 0,5.68038 -1.47475,0 0,-1.51126 c -0.331,0.60376 -0.74937,1.04988 -1.25012,1.33826 -0.50063,0.28812 -1.11363,0.43087 -1.84213,0.43087 -0.9195,0 -1.64762,-0.28525 -2.18762,-0.85887 -0.54038,-0.5705 -0.81038,-1.338 -0.81038,-2.29675 0,-1.12 0.337,-1.9665 1.0105,-2.53388 0.67075,-0.57037 1.67813,-0.85287 3.01613,-0.85287 l 2.06362,0 0,-0.16088 c 0,-0.75225 -0.2215,-1.33512 -0.66762,-1.7475 -0.44325,-0.40962 -1.06825,-0.61625 -1.87538,-0.61625 -0.50962,0 -1.00737,0.067 -1.49287,0.2035 -0.48538,0.13638 -0.95275,0.33975 -1.40488,0.61288 l 0,-1.51113 c 0.54,-0.23075 1.06188,-0.40362 1.56863,-0.51875 0.507,-0.1155 1.00125,-0.17287 1.48112,-0.17287 1.29863,0 2.26663,0.373 2.90688,1.11962 0.64025,0.74625 0.95887,1.87825 0.95887,3.3955 z m 13.95813,-0.54312 c 0.35187,0.13037 0.68875,0.40962 1.01337,0.83725 0.32775,0.42487 0.6555,1.01375 0.98925,1.75999 l 1.64488,3.62626 -1.74513,0 -1.52612,-3.40488 c -0.3915,-0.889 -0.77388,-1.4775 -1.14413,-1.76875 -0.36987,-0.29125 -0.87375,-0.43725 -1.514,-0.43725 l -1.76325,0 0,5.61088 -1.61712,0 0,-13.27263 3.64425,0 c 1.37162,0 2.39112,0.31538 3.05862,0.94963 0.67075,0.63425 1.0045,1.59312 1.0045,2.87362 0,0.8345 -0.17287,1.52938 -0.51875,2.0785 -0.34612,0.5525 -0.85562,0.93475 -1.52637,1.14738 z m -4.04513,-5.57438 0,4.71225 2.02713,0 c 0.78275,0 1.3745,-0.20012 1.76925,-0.60062 0.3975,-0.40075 0.59775,-0.98601 0.59775,-1.76313 0,-0.77662 -0.20025,-1.36238 -0.59775,-1.75675 -0.39475,-0.39475 -0.9865,-0.59175 -1.76925,-0.59175 l -2.02713,0 z m 16.54375,6.41163 0,0.79799 -6.77262,0 c 0.0638,1.12601 0.37025,1.98463 0.9195,2.57351 0.54912,0.59175 1.30775,0.88574 2.27862,0.88574 0.5705,0 1.11975,-0.0757 1.65088,-0.23062 0.53075,-0.1545 1.05587,-0.38513 1.57775,-0.69488 l 0,1.54775 c -0.52788,0.24875 -1.06825,0.44013 -1.6235,0.5705 -0.552,0.1275 -1.11363,0.19413 -1.68413,0.19413 -1.435,0 -2.56712,-0.46125 -3.40162,-1.38688 -0.83125,-0.9255 -1.24688,-2.1755 -1.24688,-3.75049 0,-1.63251 0.39438,-2.92501 1.18638,-3.88101 0.79187,-0.95887 1.86025,-1.435 3.20412,-1.435 1.20475,0 2.15763,0.43075 2.85875,1.2925 0.70088,0.86175 1.05275,2.03288 1.05275,3.51675 z m -1.47475,-0.48225 c -0.0125,-0.89538 -0.23662,-1.60825 -0.67675,-2.14263 -0.43687,-0.53075 -1.01937,-0.798 -1.7415,-0.798 -0.82562,0 -1.484,0.258 -1.97862,0.77388 -0.49463,0.51275 -0.77663,1.24125 -0.84963,2.17562 l 5.2465,-0.009 z m 5.31638,4.37562 0,5.27988 -1.48675,0 0,-13.743 1.48675,0 0,1.51112 c 0.3065,-0.59487 0.69487,-1.03462 1.16825,-1.31987 0.47025,-0.28838 1.03462,-0.43076 1.69337,-0.43076 1.08925,0 1.97538,0.47938 2.65175,1.43813 0.68,0.962 1.01975,2.22412 1.01975,3.78675 0,1.56575 -0.33975,2.82825 -1.01975,3.78712 -0.67637,0.96201 -1.5625,1.44138 -2.65175,1.44138 -0.65875,0 -1.22312,-0.14275 -1.69337,-0.43087 -0.47338,-0.28838 -0.86175,-0.72813 -1.16825,-1.31988 z m 5.00387,-3.47775 c 0,-1.2015 -0.22137,-2.14512 -0.6675,-2.83112 -0.44325,-0.68238 -1.05312,-1.02538 -1.82975,-1.02538 -0.78312,0 -1.39612,0.343 -1.84225,1.02538 -0.44287,0.686 -0.66437,1.62962 -0.66437,2.83112 0,1.20475 0.2215,2.14863 0.66437,2.83113 0.44613,0.686 1.05913,1.029 1.84225,1.029 0.77663,0 1.3865,-0.343 1.82975,-1.029 0.44613,-0.6825 0.6675,-1.62638 0.6675,-2.83113 z m 3.82325,1.041 0,-6.02637 1.46588,0 0,5.96587 c 0,0.94038 0.16687,1.64763 0.4975,2.11775 0.33375,0.47338 0.82837,0.70687 1.48675,0.70687 0.79825,0 1.42937,-0.28199 1.8875,-0.84324 0.46137,-0.56451 0.68887,-1.33226 0.68887,-2.30313 l 0,-5.64412 1.47788,0 0,9.956 -1.47788,0 0,-1.52938 c -0.35512,0.60388 -0.76787,1.05275 -1.23812,1.34725 -0.47338,0.29438 -1.0225,0.44 -1.65075,0.44 -1.0255,0 -1.80538,-0.355 -2.3365,-1.06825 -0.534,-0.70975 -0.80113,-1.75075 -0.80113,-3.11925 z m 4.8005,-10.63275 1.59025,0 -2.60362,3.34425 -1.226,0 2.23937,-3.34425 z m 12.162,9.59175 c 0,-1.2015 -0.2215,-2.14513 -0.6675,-2.83113 -0.44325,-0.68237 -1.05312,-1.02537 -1.82975,-1.02537 -0.78312,0 -1.39612,0.343 -1.84225,1.02537 -0.44287,0.686 -0.66437,1.62963 -0.66437,2.83113 0,1.20475 0.2215,2.14863 0.66437,2.83113 0.44613,0.686 1.05913,1.029 1.84225,1.029 0.77663,0 1.3865,-0.343 1.82975,-1.029 0.446,-0.6825 0.6675,-1.62638 0.6675,-2.83113 z m -5.00387,-3.47425 c 0.3065,-0.59488 0.69487,-1.03463 1.16825,-1.31988 0.47025,-0.28837 1.03462,-0.43075 1.69337,-0.43075 1.08925,0 1.97538,0.47938 2.65175,1.43813 0.68,0.962 1.01975,2.22412 1.01975,3.78675 0,1.56575 -0.33975,2.82825 -1.01975,3.78712 -0.67637,0.962 -1.5625,1.44138 -2.65175,1.44138 -0.65875,0 -1.22312,-0.14275 -1.69337,-0.43088 -0.47338,-0.28837 -0.86175,-0.72812 -1.16825,-1.31987 l 0,1.49287 -1.48675,0 0,-13.83412 1.48675,0 0,5.38925 z m 8.97912,-5.38925 1.4655,0 0,13.83413 -1.4655,0 0,-13.83413 z m 4.55175,3.87812 1.4655,0 0,9.95601 -1.4655,0 0,-9.95601 z m 0,-3.87812 1.4655,0 0,2.07275 -1.4655,0 0,-2.07275 z m 10.99663,4.26037 0,1.52938 c -0.41563,-0.25475 -0.83125,-0.44612 -1.25013,-0.57337 -0.41875,-0.1275 -0.84037,-0.19138 -1.26525,-0.19138 -0.962,0 -1.70537,0.337 -2.23337,1.00738 -0.52513,0.674 -0.78913,1.61762 -0.78913,2.83112 0,1.21713 0.264,2.16075 0.78913,2.83113 0.528,0.674 1.27137,1.0105 2.23337,1.0105 0.42488,0 0.8465,-0.0637 1.26525,-0.19088 0.41888,-0.12762 0.8345,-0.31862 1.25013,-0.57375 l 0,1.51125 c -0.40963,0.21225 -0.83438,0.37313 -1.27738,0.47938 -0.44,0.10637 -0.90737,0.16087 -1.39887,0.16087 -1.35038,0 -2.42463,-0.47012 -3.2195,-1.41412 -0.79225,-0.94075 -1.18938,-2.21213 -1.18938,-3.81438 0,-1.62312 0.40038,-2.90087 1.20438,-3.82925 0.80112,-0.9315 1.8995,-1.39562 3.29237,-1.39562 0.45813,0 0.90138,0.0514 1.33513,0.15437 0.43087,0.10313 0.84962,0.258 1.25325,0.46738 z m 6.63312,4.56988 c -1.19237,0 -2.018,0.14875 -2.47612,0.45213 -0.46138,0.30362 -0.68875,0.81912 -0.68875,1.54762 0,0.57938 0.17,1.04075 0.51587,1.3805 0.343,0.343 0.81038,0.51313 1.40175,0.51313 0.8195,0 1.475,-0.32175 1.9665,-0.96525 0.4915,-0.64313 0.73738,-1.49875 0.73738,-2.56388 l 0,-0.36425 -1.45663,0 z m 2.93138,-0.6765 0,5.68038 -1.47475,0 0,-1.51126 c -0.331,0.60375 -0.74938,1.04988 -1.25013,1.33826 -0.50062,0.28812 -1.11362,0.43087 -1.84212,0.43087 -0.9195,0 -1.64763,-0.28525 -2.18763,-0.85887 -0.54037,-0.57051 -0.81037,-1.33801 -0.81037,-2.29676 0,-1.11999 0.337,-1.9665 1.0105,-2.53387 0.67075,-0.57038 1.67812,-0.85287 3.01612,-0.85287 l 2.06363,0 0,-0.16088 c 0,-0.75225 -0.2215,-1.33512 -0.66763,-1.7475 -0.44325,-0.40962 -1.06825,-0.61625 -1.87537,-0.61625 -0.50963,0 -1.00738,0.067 -1.49288,0.2035 -0.48537,0.13638 -0.95275,0.33975 -1.40487,0.61288 l 0,-1.51113 c 0.54,-0.23075 1.06187,-0.40363 1.56862,-0.51875 0.507,-0.1155 1.00138,-0.17287 1.48113,-0.17287 1.29862,0 2.26662,0.373 2.90687,1.11962 0.64025,0.74625 0.95888,1.87825 0.95888,3.3955"
     style="fill:#114a4f;fill-opacity:1;fill-rule:nonzero;stroke:none"
     id="path48"
     inkscape:connector-curvature="0" /></svg>