<?xml version="1.0" encoding="UTF-8" standalone="no"?>
<svg
   xmlns:dc="http://purl.org/dc/elements/1.1/"
   xmlns:cc="http://creativecommons.org/ns#"
   xmlns:rdf="http://www.w3.org/1999/02/22-rdf-syntax-ns#"
   xmlns:svg="http://www.w3.org/2000/svg"
   xmlns="http://www.w3.org/2000/svg"
   xmlns:sodipodi="http://sodipodi.sourceforge.net/DTD/sodipodi-0.dtd"
   xmlns:inkscape="http://www.inkscape.org/namespaces/inkscape"
   version="1.1"
   x="0px"
   y="0px"
   width="1768.019"
   height="512"
   id="svg2"
   inkscape:version="0.91 r13725"
   sodipodi:docname="ICSC2017t.svg">
  <metadata
     id="metadata10">
    <rdf:RDF>
      <cc:Work
         rdf:about="">
        <dc:format>image/svg+xml</dc:format>
        <dc:type
           rdf:resource="http://purl.org/dc/dcmitype/StillImage" />
        <dc:title></dc:title>
      </cc:Work>
    </rdf:RDF>
  </metadata>
  <defs
     id="defs8" />
  <sodipodi:namedview
     pagecolor="#ffffff"
     bordercolor="#666666"
     borderopacity="1"
     objecttolerance="10"
     gridtolerance="10"
     guidetolerance="10"
     inkscape:pageopacity="0"
     inkscape:pageshadow="2"
     inkscape:window-width="1814"
     inkscape:window-height="842"
     id="namedview6"
     showgrid="false"
     inkscape:zoom="0.52021726"
     inkscape:cx="912.13606"
     inkscape:cy="94.218097"
     inkscape:window-x="0"
     inkscape:window-y="0"
     inkscape:window-maximized="0"
     inkscape:current-layer="svg2"
     fit-margin-top="0"
     fit-margin-left="0"
     fit-margin-right="0"
     fit-margin-bottom="0" />
  <path
     d="m 507.62173,256 c 0,141.38489 -113.63501,256 -253.81086,256 C 113.63501,512 0,397.38489 0,256 0,114.61511 113.63499,0 253.81087,0 393.98674,0 507.62173,114.6151 507.62173,256 Z m -291.96537,-13.6082 0,-53.01898 C 190.0351,170.96469 129.03212,159.37411 88.770142,197.806 c -40.261979,38.43188 -34.771698,130.70724 0,160.59872 34.771708,29.89145 91.558108,34.05442 133.040128,-1.93734 l -16.52443,-31.88242 c -24.91487,20.89816 -95.15718,35.48898 -95.15718,-45.59137 0,-93.94458 67.09581,-64.71678 67.09581,-64.71678 l 0,29.94508 38.43189,-1.83009 z m 36.48777,-49.34283 c 0,84.91209 121.89948,58.59558 122.69797,109.96116 0.69263,44.55365 -78.45605,41.81711 -81.51559,25.04904 l 0,-29.7192 -40.61121,1.38497 0,61.93223 c 45.28137,35.60537 173.5054,30.30465 173.5054,-59.38688 0,-93.93714 -125.5278,-70.16177 -125.5278,-117.58175 0,-34.67772 57.59134,-40.88858 72.50119,-24.1081 l 0,32.2408 43.27054,-5.09065 0,-62.78472 c -93.41891,-32.51773 -164.3205,-8.74235 -164.3205,68.1031 z"
     id="path4"
     style="fill:#00003c;fill-opacity:1"
     inkscape:connector-curvature="0" />
  <g
     id="g5009"
     transform="translate(3.57616,0)">
    <g
       transform="translate(-20,84)"
       id="g4198">
      <path
         inkscape:connector-curvature="0"
         id="path4174"
         style="color:#000000;font-style:normal;font-variant:normal;font-weight:bold;font-stretch:normal;font-size:288.81219482px;line-height:100%;font-family:'Roboto Condensed';-inkscape-font-specification:'Roboto Condensed,  Bold';text-indent:0;text-align:justify;text-decoration:none;text-decoration-line:none;text-decoration-style:solid;text-decoration-color:#000000;letter-spacing:-0.96270728px;word-spacing:10.14051723px;text-transform:none;direction:ltr;block-progression:tb;writing-mode:lr-tb;baseline-shift:baseline;text-anchor:start;white-space:normal;clip-rule:nonzero;visibility:visible;isolation:auto;mix-blend-mode:normal;color-interpolation:sRGB;color-interpolation-filters:linearRGB;solid-color:#000000;solid-opacity:1;fill:#00003c;fill-opacity:1;fill-rule:nonzero;stroke:#141e50;stroke-width:0;stroke-linecap:butt;stroke-linejoin:round;stroke-miterlimit:4;stroke-dasharray:none;stroke-dashoffset:0;stroke-opacity:1;marker:none;color-rendering:auto;image-rendering:auto;shape-rendering:auto;text-rendering:auto"
         d="m 651.13222,212.14786 -41.46034,0 0,-205.3274221 41.46034,0 0,205.3274221 z" />
      <path
         inkscape:connector-curvature="0"
         id="path4176"
         style="color:#000000;font-style:normal;font-variant:normal;font-weight:bold;font-stretch:normal;font-size:288.81219482px;line-height:100%;font-family:'Roboto Condensed';-inkscape-font-specification:'Roboto Condensed,  Bold';text-indent:0;text-align:justify;text-decoration:none;text-decoration-line:none;text-decoration-style:solid;text-decoration-color:#000000;letter-spacing:-0.96270728px;word-spacing:10.14051723px;text-transform:none;direction:ltr;block-progression:tb;writing-mode:lr-tb;baseline-shift:baseline;text-anchor:start;white-space:normal;clip-rule:nonzero;visibility:visible;isolation:auto;mix-blend-mode:normal;color-interpolation:sRGB;color-interpolation-filters:linearRGB;solid-color:#000000;solid-opacity:1;fill:#00003c;fill-opacity:1;fill-rule:nonzero;stroke:#141e50;stroke-width:0;stroke-linecap:butt;stroke-linejoin:round;stroke-miterlimit:4;stroke-dasharray:none;stroke-dashoffset:0;stroke-opacity:1;marker:none;color-rendering:auto;image-rendering:auto;shape-rendering:auto;text-rendering:auto"
         d="m 831.7902,143.75239 q -1.55123,35.11437 -19.74302,53.16514 -18.19178,18.05076 -51.33185,18.05076 -34.83233,0 -53.44718,-22.8455 -18.47383,-22.98651 -18.47383,-65.43401 l 0,-34.550286 q 0,-42.306474 19.17894,-65.15197 19.17893,-22.9865177 53.30615,-22.9865177 33.56314,0 50.90879,18.7558697 17.48668,18.75587 19.88405,53.870244 l -41.60137,0 q -0.56409,-21.717323 -6.76903,-29.896575 -6.06393,-8.320273 -22.42244,-8.320273 -16.64054,0 -23.5506,11.704791 -6.91006,11.563769 -7.33312,38.216848 l 0,38.780939 q 0,30.60168 6.76903,42.02443 6.91006,11.42274 23.55061,11.42274 16.3585,0 22.56345,-7.8972 6.20495,-8.03823 7.05108,-28.90943 l 41.46034,0 z" />
      <path
         inkscape:connector-curvature="0"
         id="path4178"
         style="color:#000000;font-style:normal;font-variant:normal;font-weight:bold;font-stretch:normal;font-size:288.81219482px;line-height:100%;font-family:'Roboto Condensed';-inkscape-font-specification:'Roboto Condensed,  Bold';text-indent:0;text-align:justify;text-decoration:none;text-decoration-line:none;text-decoration-style:solid;text-decoration-color:#000000;letter-spacing:-0.96270728px;word-spacing:10.14051723px;text-transform:none;direction:ltr;block-progression:tb;writing-mode:lr-tb;baseline-shift:baseline;text-anchor:start;white-space:normal;clip-rule:nonzero;visibility:visible;isolation:auto;mix-blend-mode:normal;color-interpolation:sRGB;color-interpolation-filters:linearRGB;solid-color:#000000;solid-opacity:1;fill:#00003c;fill-opacity:1;fill-rule:nonzero;stroke:#141e50;stroke-width:0;stroke-linecap:butt;stroke-linejoin:round;stroke-miterlimit:4;stroke-dasharray:none;stroke-dashoffset:0;stroke-opacity:1;marker:none;color-rendering:auto;image-rendering:auto;shape-rendering:auto;text-rendering:auto"
         d="m 962.52658,158.27761 q 0,-12.55092 -6.487,-18.89689 -6.34597,-6.48699 -23.26856,-13.39705 -30.88372,-11.70479 -44.42179,-27.358184 -13.53808,-15.794417 -13.53808,-37.229697 0,-25.94797 18.33281,-41.601366 18.47383,-15.7944167 46.81916,-15.7944167 18.8969,0 33.70416,8.0382297 14.80727,7.897209 22.70448,22.422431 8.03824,14.525223 8.03824,32.99905 l -41.31934,0 q 0,-14.384201 -6.20495,-21.858345 -6.06392,-7.615165 -17.62769,-7.615165 -10.85866,0 -16.92259,6.486993 -6.06393,6.345971 -6.06393,17.204632 0,8.461295 6.76904,15.371353 6.76903,6.769035 23.97366,14.102157 30.0376,10.858658 43.57567,26.653078 13.67913,15.79442 13.67913,40.19115 0,26.7941 -17.06365,41.88341 -17.06361,15.08931 -46.3961,15.08931 -19.88404,0 -36.24254,-8.17925 -16.35851,-8.17925 -25.66593,-23.40958 -9.1664,-15.23034 -9.1664,-35.96051 l 41.60136,0 q 0,17.76872 6.91006,25.80695 6.91006,8.03823 22.56345,8.03823 21.71733,0 21.71733,-22.98652 z" />
      <path
         inkscape:connector-curvature="0"
         id="path4180"
         style="color:#000000;font-style:normal;font-variant:normal;font-weight:bold;font-stretch:normal;font-size:288.81219482px;line-height:100%;font-family:'Roboto Condensed';-inkscape-font-specification:'Roboto Condensed,  Bold';text-indent:0;text-align:justify;text-decoration:none;text-decoration-line:none;text-decoration-style:solid;text-decoration-color:#000000;letter-spacing:-0.96270728px;word-spacing:10.14051723px;text-transform:none;direction:ltr;block-progression:tb;writing-mode:lr-tb;baseline-shift:baseline;text-anchor:start;white-space:normal;clip-rule:nonzero;visibility:visible;isolation:auto;mix-blend-mode:normal;color-interpolation:sRGB;color-interpolation-filters:linearRGB;solid-color:#000000;solid-opacity:1;fill:#00003c;fill-opacity:1;fill-rule:nonzero;stroke:#141e50;stroke-width:0;stroke-linecap:butt;stroke-linejoin:round;stroke-miterlimit:4;stroke-dasharray:none;stroke-dashoffset:0;stroke-opacity:1;marker:none;color-rendering:auto;image-rendering:auto;shape-rendering:auto;text-rendering:auto"
         d="m 1185.0679,143.75239 q -1.5513,35.11437 -19.7431,53.16514 -18.1917,18.05076 -51.3318,18.05076 -34.8323,0 -53.4472,-22.8455 -18.4738,-22.98651 -18.4738,-65.43401 l 0,-34.550286 q 0,-42.306474 19.1789,-65.15197 19.1789,-22.9865177 53.3062,-22.9865177 33.5631,0 50.9088,18.7558697 17.4866,18.75587 19.884,53.870244 l -41.6014,0 q -0.564,-21.717323 -6.769,-29.896575 -6.0639,-8.320273 -22.4224,-8.320273 -16.6406,0 -23.5506,11.704791 -6.9101,11.563769 -7.3332,38.216848 l 0,38.780939 q 0,30.60168 6.7691,42.02443 6.91,11.42274 23.5506,11.42274 16.3585,0 22.5634,-7.8972 6.205,-8.03823 7.0511,-28.90943 l 41.4604,0 z" />
      <path
         inkscape:connector-curvature="0"
         id="path4182"
         style="color:#000000;font-style:normal;font-variant:normal;font-weight:bold;font-stretch:normal;font-size:288.81219482px;line-height:100%;font-family:'Roboto Condensed';-inkscape-font-specification:'Roboto Condensed,  Bold';text-indent:0;text-align:justify;text-decoration:none;text-decoration-line:none;text-decoration-style:solid;text-decoration-color:#000000;letter-spacing:-0.96270728px;word-spacing:10.14051723px;text-transform:none;direction:ltr;block-progression:tb;writing-mode:lr-tb;baseline-shift:baseline;text-anchor:start;white-space:normal;clip-rule:nonzero;visibility:visible;isolation:auto;mix-blend-mode:normal;color-interpolation:sRGB;color-interpolation-filters:linearRGB;solid-color:#000000;solid-opacity:1;fill:#00003c;fill-opacity:1;fill-rule:nonzero;stroke:#141e50;stroke-width:0;stroke-linecap:butt;stroke-linejoin:round;stroke-miterlimit:4;stroke-dasharray:none;stroke-dashoffset:0;stroke-opacity:1;marker:none;color-rendering:auto;image-rendering:auto;shape-rendering:auto;text-rendering:auto"
         d="m 1347.3931,212.14786 -120.9965,0 0,-28.20432 55.5625,-70.65181 q 10.5766,-14.666244 15.5124,-25.665927 5.0767,-11.140705 5.0767,-21.294259 0,-13.679093 -4.7947,-21.43528 -4.6537,-7.756186 -13.5381,-7.756186 -9.7305,0 -15.5124,9.025381 -5.6408,9.025381 -5.6408,25.383884 l -40.0501,0 q 0,-18.896892 7.7561,-34.550287 7.8973,-15.653395 21.9994,-24.255712 14.2432,-8.7433377 32.1529,-8.7433377 27.4992,0 42.5885,15.2303307 15.2304,15.089309 15.2304,43.011582 0,17.345654 -8.4613,35.255395 -8.3203,17.768716 -30.3197,43.857706 l -26.371,37.65277 69.8057,0 0,33.14007 z" />
      <path
         inkscape:connector-curvature="0"
         id="path4184"
         style="color:#000000;font-style:normal;font-variant:normal;font-weight:bold;font-stretch:normal;font-size:288.81219482px;line-height:100%;font-family:'Roboto Condensed';-inkscape-font-specification:'Roboto Condensed,  Bold';text-indent:0;text-align:justify;text-decoration:none;text-decoration-line:none;text-decoration-style:solid;text-decoration-color:#000000;letter-spacing:-0.96270728px;word-spacing:10.14051723px;text-transform:none;direction:ltr;block-progression:tb;writing-mode:lr-tb;baseline-shift:baseline;text-anchor:start;white-space:normal;clip-rule:nonzero;visibility:visible;isolation:auto;mix-blend-mode:normal;color-interpolation:sRGB;color-interpolation-filters:linearRGB;solid-color:#000000;solid-opacity:1;fill:#00003c;fill-opacity:1;fill-rule:nonzero;stroke:#141e50;stroke-width:0;stroke-linecap:butt;stroke-linejoin:round;stroke-miterlimit:4;stroke-dasharray:none;stroke-dashoffset:0;stroke-opacity:1;marker:none;color-rendering:auto;image-rendering:auto;shape-rendering:auto;text-rendering:auto"
         d="m 1504.3594,127.25287 q 0,42.58851 -15.5124,65.15197 -15.3713,22.56345 -43.9987,22.56345 -28.3453,0 -43.8577,-21.85835 -15.3714,-21.99936 -15.9354,-62.89562 l 0,-38.780934 q 0,-42.447496 15.3713,-64.869927 15.3714,-22.5634527 44.1398,-22.5634527 28.7684,0 44.1397,22.2814097 15.3714,22.281409 15.6534,63.600732 l 0,37.370722 z m -40.0501,-41.601369 q 0,-24.255712 -4.7948,-36.383568 -4.7947,-12.127855 -14.9482,-12.127855 -19.038,0 -19.7431,44.421797 l 0,51.190835 q 0,24.8198 4.7948,36.94765 4.9357,12.12786 15.2303,12.12786 9.7305,0 14.3842,-11.28173 4.7947,-11.42275 5.0768,-34.83233 l 0,-50.062659 z" />
      <path
         inkscape:connector-curvature="0"
         id="path4186"
         style="color:#000000;font-style:normal;font-variant:normal;font-weight:bold;font-stretch:normal;font-size:288.81219482px;line-height:100%;font-family:'Roboto Condensed';-inkscape-font-specification:'Roboto Condensed,  Bold';text-indent:0;text-align:justify;text-decoration:none;text-decoration-line:none;text-decoration-style:solid;text-decoration-color:#000000;letter-spacing:-0.96270728px;word-spacing:10.14051723px;text-transform:none;direction:ltr;block-progression:tb;writing-mode:lr-tb;baseline-shift:baseline;text-anchor:start;white-space:normal;clip-rule:nonzero;visibility:visible;isolation:auto;mix-blend-mode:normal;color-interpolation:sRGB;color-interpolation-filters:linearRGB;solid-color:#000000;solid-opacity:1;fill:#00003c;fill-opacity:1;fill-rule:nonzero;stroke:#141e50;stroke-width:0;stroke-linecap:butt;stroke-linejoin:round;stroke-miterlimit:4;stroke-dasharray:none;stroke-dashoffset:0;stroke-opacity:1;marker:none;color-rendering:auto;image-rendering:auto;shape-rendering:auto;text-rendering:auto"
         d="m 1621.1346,212.14786 -40.0501,0 0,-156.815999 -39.063,15.089309 0,-33.281092 74.8825,-30.6016833 4.2306,0 0,205.6094653 z" />
      <path
         inkscape:connector-curvature="0"
         id="path4188"
         style="color:#000000;font-style:normal;font-variant:normal;font-weight:bold;font-stretch:normal;font-size:288.81219482px;line-height:100%;font-family:'Roboto Condensed';-inkscape-font-specification:'Roboto Condensed,  Bold';text-indent:0;text-align:justify;text-decoration:none;text-decoration-line:none;text-decoration-style:solid;text-decoration-color:#000000;letter-spacing:-0.96270728px;word-spacing:10.14051723px;text-transform:none;direction:ltr;block-progression:tb;writing-mode:lr-tb;baseline-shift:baseline;text-anchor:start;white-space:normal;clip-rule:nonzero;visibility:visible;isolation:auto;mix-blend-mode:normal;color-interpolation:sRGB;color-interpolation-filters:linearRGB;solid-color:#000000;solid-opacity:1;fill:#00003c;fill-opacity:1;fill-rule:nonzero;stroke:#141e50;stroke-width:0;stroke-linecap:butt;stroke-linejoin:round;stroke-miterlimit:4;stroke-dasharray:none;stroke-dashoffset:0;stroke-opacity:1;marker:none;color-rendering:auto;image-rendering:auto;shape-rendering:auto;text-rendering:auto"
         d="m 1783.0368,29.806955 -64.8699,182.340905 -42.1655,0 65.152,-172.187351 -82.3566,0 0,-33.1400711 124.24,0 0,22.9865171 z" />
      <g
         id="text4169"
         style="color:#000000;font-style:normal;font-variant:normal;font-weight:bold;font-stretch:normal;font-size:81.97560883px;line-height:100%;font-family:'Roboto Condensed';-inkscape-font-specification:'Roboto Condensed, Bold';text-indent:0;text-align:justify;text-decoration:none;text-decoration-line:none;text-decoration-style:solid;text-decoration-color:#000000;letter-spacing:-0.61481708px;word-spacing:6.47607327px;text-transform:none;direction:ltr;block-progression:tb;writing-mode:lr-tb;baseline-shift:baseline;text-anchor:start;white-space:normal;clip-rule:nonzero;display:inline;overflow:visible;visibility:visible;opacity:1;isolation:auto;mix-blend-mode:normal;color-interpolation:sRGB;color-interpolation-filters:linearRGB;solid-color:#000000;solid-opacity:1;fill:#00003c;fill-opacity:1;fill-rule:nonzero;stroke:#141e50;stroke-width:0;stroke-linecap:butt;stroke-linejoin:round;stroke-miterlimit:4;stroke-dasharray:none;stroke-dashoffset:0;stroke-opacity:1;marker:none;color-rendering:auto;image-rendering:auto;shape-rendering:auto;text-rendering:auto;enable-background:accumulate"
         transform="scale(0.97590007,1.0246951)">
        <path
           inkscape:connector-curvature="0"
           id="path4923"
           style="stroke-width:0"
           d="m 628.05009,278.92229 19.77342,-38.30598 11.40773,0 0,36.2646 4.92334,0 0,9.40638 -4.92334,0 0,12.60855 -11.32768,0 0,-12.60855 -19.33312,0 -0.52035,-7.365 z m 11.0475,-2.04138 8.80597,0 0,-19.57328 -0.28019,0.52035 -8.52578,19.05293 z" />
        <path
           inkscape:connector-curvature="0"
           id="path4925"
           style="stroke-width:0"
           d="m 689.71752,298.61565 q -1.32089,0.52036 -2.8019,0.80055 -1.481,0.28019 -3.48236,0.28019 -5.04342,0 -8.04546,-2.96201 -3.00203,-2.96201 -3.00203,-9.88671 l 0,-22.73542 -5.04342,0 0,-8.52579 5.04342,0 0,-10.68725 11.28765,0 0,10.68725 5.80394,0 0,8.52579 -5.80394,0 0,21.49458 q 0,2.72185 0.76052,3.60244 0.80054,0.8806 2.64179,0.8806 1.56106,0 2.68182,-0.32022 l -0.04,8.846 z" />
        <path
           inkscape:connector-curvature="0"
           id="path4927"
           style="stroke-width:0"
           d="m 710.91751,264.23233 q -3.20218,0 -4.84329,2.92198 l 0,31.74153 -11.32768,0 0,-61.4817 11.32768,0 0,21.9749 q 3.6825,-4.60312 9.08617,-4.60312 5.36363,0 8.72591,3.80258 3.36229,3.80258 3.36229,13.00883 l 0,27.29851 -11.32769,0 0,-27.37857 q 0,-4.16282 -1.28087,-5.72388 -1.24084,-1.56106 -3.72252,-1.56106 z" />
        <path
           inkscape:connector-curvature="0"
           id="path4929"
           style="stroke-width:0"
           d="m 772.36208,240.61631 0,58.27953 -11.76799,0 0,-58.27953 11.76799,0 z" />
        <path
           inkscape:connector-curvature="0"
           id="path4931"
           style="stroke-width:0"
           d="m 797.04441,264.23233 q -3.08209,0 -4.80325,3.20217 l 0,31.46134 -11.32769,0 0,-43.30938 10.6072,0 0.32021,4.24288 q 3.88264,-5.04342 10.08685,-5.04342 5.08345,0 8.24559,3.6825 3.20217,3.6825 3.20217,12.88874 l 0,27.53868 -11.32768,0 0,-27.61873 q 0,-4.1228 -1.28087,-5.56378 -1.24084,-1.481 -3.72253,-1.481 z" />
        <path
           inkscape:connector-curvature="0"
           id="path4933"
           style="stroke-width:0"
           d="m 840.09923,298.61565 q -1.3209,0.52036 -2.8019,0.80055 -1.48101,0.28019 -3.48237,0.28019 -5.04342,0 -8.04545,-2.96201 -3.00204,-2.96201 -3.00204,-9.88671 l 0,-22.73542 -5.04342,0 0,-8.52579 5.04342,0 0,-10.68725 11.28766,0 0,10.68725 5.80393,0 0,8.52579 -5.80393,0 0,21.49458 q 0,2.72185 0.76051,3.60244 0.80055,0.8806 2.6418,0.8806 1.56105,0 2.68181,-0.32022 l -0.04,8.846 z" />
        <path
           inkscape:connector-curvature="0"
           id="path4935"
           style="stroke-width:0"
           d="m 877.59026,293.21199 q -1.72117,2.32157 -5.4437,4.40298 -3.68249,2.08142 -9.24627,2.08142 -8.846,0 -13.68928,-5.28359 -4.80326,-5.28358 -4.80326,-14.68996 l 0,-3.56242 q 0,-10.52714 4.56309,-15.93081 4.60313,-5.44369 12.76866,-5.44369 16.49119,0 16.49119,21.05428 l 0,5.16351 -22.45523,0 q 0.20013,5.1635 2.20149,7.24491 2.04139,2.04139 5.68386,2.04139 5.72388,0 9.44641,-3.92267 l 4.48304,6.84465 z M 861.69948,264.1923 q -2.96201,0 -4.32294,2.12144 -1.32089,2.08141 -1.56105,6.76459 l 11.32768,0 0,-1.00068 q -0.0801,-3.92266 -1.28087,-5.88399 -1.20081,-2.00136 -4.16282,-2.00136 z" />
        <path
           inkscape:connector-curvature="0"
           id="path4937"
           style="stroke-width:0"
           d="m 901.67219,266.19366 q -4.72321,0 -6.32429,4.04274 l 0,28.65944 -11.32769,0 0,-43.30938 10.68725,0 0.32022,4.68318 q 2.72185,-5.48372 7.40502,-5.48372 1.84125,0 3.08209,0.48033 l -0.12008,11.24763 q -2.00136,-0.32022 -3.72252,-0.32022 z" />
        <path
           inkscape:connector-curvature="0"
           id="path4939"
           style="stroke-width:0"
           d="m 926.51464,264.23233 q -3.08209,0 -4.80325,3.20217 l 0,31.46134 -11.32769,0 0,-43.30938 10.6072,0 0.32021,4.24288 q 3.88264,-5.04342 10.08685,-5.04342 5.08345,0 8.24559,3.6825 3.20217,3.6825 3.20217,12.88874 l 0,27.53868 -11.32768,0 0,-27.61873 q 0,-4.1228 -1.28087,-5.56378 -1.24084,-1.481 -3.72253,-1.481 z" />
        <path
           inkscape:connector-curvature="0"
           id="path4941"
           style="stroke-width:0"
           d="m 970.93037,298.89584 q -0.60041,-1.36092 -0.96066,-3.36228 -1.28087,1.72117 -3.28222,2.96201 -2.00136,1.20082 -4.96337,1.20082 -5.24356,0 -8.92605,-3.52239 -3.64248,-3.52239 -3.64248,-9.40638 0,-6.60448 4.24288,-10.44709 4.24288,-3.88263 12.9688,-3.88263 l 3.04206,0 0,-3.48237 q 0,-5.32361 -3.92266,-5.32361 -4.24288,0 -4.24288,4.96337 l -11.32768,0 q 0,-5.68386 4.28291,-9.7266 4.32293,-4.08277 11.60787,-4.08277 6.44437,0 10.68725,3.36228 4.2829,3.36228 4.2829,10.96744 l 0,19.21304 q 0,3.68249 0.36025,5.96404 0.40027,2.28155 1.20081,3.92266 l 0,0.68046 -11.40773,0 z m -6.64451,-8.12551 q 1.84125,0 3.16214,-0.76051 1.3209,-0.76052 1.96133,-1.80123 l 0,-9.00611 -2.68182,0 q -3.20217,0 -4.7232,1.96133 -1.52103,1.96134 -1.52103,4.80326 0,4.80326 3.80258,4.80326 z" />
        <path
           inkscape:connector-curvature="0"
           id="path4943"
           style="stroke-width:0"
           d="m 1007.5408,298.61565 q -1.3209,0.52036 -2.8019,0.80055 -1.481,0.28019 -3.4823,0.28019 -5.04347,0 -8.0455,-2.96201 -3.00204,-2.96201 -3.00204,-9.88671 l 0,-22.73542 -5.04342,0 0,-8.52579 5.04342,0 0,-10.68725 11.28764,0 0,10.68725 5.804,0 0,8.52579 -5.804,0 0,21.49458 q 0,2.72185 0.7605,3.60244 0.8006,0.8806 2.6418,0.8806 1.5611,0 2.6818,-0.32022 l -0.04,8.846 z" />
        <path
           inkscape:connector-curvature="0"
           id="path4945"
           style="stroke-width:0"
           d="m 1012.85,244.37886 q 0,-2.64179 1.6811,-4.32293 1.6812,-1.72117 4.5231,-1.72117 2.8019,0 4.483,1.72117 1.6812,1.68114 1.6812,4.32293 0,2.60177 -1.6812,4.32293 -1.6811,1.68114 -4.483,1.68114 -2.8419,0 -4.5231,-1.68114 -1.6811,-1.72116 -1.6811,-4.32293 z m 11.8881,11.2076 0,43.30938 -11.3677,0 0,-43.30938 11.3677,0 z" />
        <path
           inkscape:connector-curvature="0"
           id="path4947"
           style="stroke-width:0"
           d="m 1031.6083,278.68213 0,-2.84193 q 0,-10.20692 4.7232,-15.61059 4.7633,-5.44369 12.7687,-5.44369 8.0855,0 12.8087,5.44369 4.7632,5.40367 4.7632,15.61059 l 0,2.84193 q 0,10.20693 -4.7632,15.61059 -4.7232,5.40367 -12.7287,5.40367 -8.0454,0 -12.8087,-5.40367 -4.7632,-5.40366 -4.7632,-15.61059 z m 11.3277,-2.84193 0,2.84193 q 0,11.60788 6.2442,11.60788 6.1642,0 6.1642,-11.60788 l 0,-2.84193 q 0,-11.6479 -6.2442,-11.6479 -6.1642,0 -6.1642,11.6479 z" />
        <path
           inkscape:connector-curvature="0"
           id="path4949"
           style="stroke-width:0"
           d="m 1088.9929,264.23233 q -3.0821,0 -4.8033,3.20217 l 0,31.46134 -11.3277,0 0,-43.30938 10.6072,0 0.3202,4.24288 q 3.8827,-5.04342 10.0869,-5.04342 5.0834,0 8.2456,3.6825 3.2021,3.6825 3.2021,12.88874 l 0,27.53868 -11.3277,0 0,-27.61873 q 0,-4.1228 -1.2808,-5.56378 -1.2409,-1.481 -3.7225,-1.481 z" />
        <path
           inkscape:connector-curvature="0"
           id="path4951"
           style="stroke-width:0"
           d="m 1133.4086,298.89584 q -0.6004,-1.36092 -0.9607,-3.36228 -1.2808,1.72117 -3.2822,2.96201 -2.0014,1.20082 -4.9634,1.20082 -5.2435,0 -8.926,-3.52239 -3.6425,-3.52239 -3.6425,-9.40638 0,-6.60448 4.2429,-10.44709 4.2429,-3.88263 12.9688,-3.88263 l 3.042,0 0,-3.48237 q 0,-5.32361 -3.9226,-5.32361 -4.2429,0 -4.2429,4.96337 l -11.3277,0 q 0,-5.68386 4.2829,-9.7266 4.323,-4.08277 11.6079,-4.08277 6.4444,0 10.6872,3.36228 4.283,3.36228 4.283,10.96744 l 0,19.21304 q 0,3.68249 0.3602,5.96404 0.4003,2.28155 1.2008,3.92266 l 0,0.68046 -11.4077,0 z m -6.6445,-8.12551 q 1.8412,0 3.1621,-0.76051 1.3209,-0.76052 1.9613,-1.80123 l 0,-9.00611 -2.6818,0 q -3.2021,0 -4.7232,1.96133 -1.521,1.96134 -1.521,4.80326 0,4.80326 3.8026,4.80326 z" />
        <path
           inkscape:connector-curvature="0"
           id="path4953"
           style="stroke-width:0"
           d="m 1162.694,237.41414 0,61.4817 -11.3677,0 0,-61.4817 11.3677,0 z" />
        <path
           inkscape:connector-curvature="0"
           id="path4955"
           style="stroke-width:0"
           d="m 1223.8984,279.44265 11.768,0 q -0.4003,9.92673 -5.6038,15.09023 -5.2035,5.16351 -14.5699,5.16351 -9.6865,0 -15.0502,-6.40435 -5.3236,-6.40434 -5.3236,-18.5726 l 0,-9.8867 q 0,-12.20829 5.4837,-18.61263 5.5238,-6.44437 15.0502,-6.44437 9.5265,0 14.4899,5.36364 4.9633,5.32361 5.6038,15.25034 l -11.768,0 q -0.2001,-6.24423 -1.9613,-8.52578 -1.7612,-2.32158 -6.3644,-2.32158 -4.6431,0 -6.7245,3.40231 -2.0414,3.40231 -2.0414,11.80801 l 0,9.96676 q 0,8.2456 1.8012,11.72796 1.8012,3.48236 6.8046,3.48236 4.363,0 6.2843,-2.08141 1.9213,-2.08141 2.1214,-8.4057 z" />
        <path
           inkscape:connector-curvature="0"
           id="path4957"
           style="stroke-width:0"
           d="m 1260.9091,287.28797 q 0,-1.68114 -1.7211,-2.96201 -1.7212,-1.28087 -5.7639,-3.04206 -5.9241,-2.32158 -9.1262,-5.28359 -3.1622,-2.96201 -3.1622,-8.16554 0,-5.40366 3.9627,-9.20624 3.9627,-3.84261 11.0075,-3.84261 7.2849,0 11.4878,3.76255 4.2028,3.72253 4.2028,9.80666 l -11.3277,0 q 0,-5.32362 -4.4029,-5.32362 -4.0828,0 -4.0828,4.24288 0,1.68114 1.561,2.84193 1.6011,1.16079 5.764,2.88196 6.4844,2.44165 9.5264,5.44369 3.0821,3.00203 3.0821,8.36567 0,5.76391 -4.2829,9.32633 -4.2829,3.56242 -11.5278,3.56242 -7.8453,0 -12.0082,-4.44302 -4.1228,-4.48304 -4.1228,-9.76662 l 10.7273,0 q 0.08,3.52239 1.6411,4.7232 1.5611,1.20082 4.0027,1.20082 4.5631,0 4.5631,-4.1228 z" />
        <path
           inkscape:connector-curvature="0"
           id="path4959"
           style="stroke-width:0"
           d="m 1277.1458,278.68213 0,-2.84193 q 0,-10.20692 4.7232,-15.61059 4.7632,-5.44369 12.7686,-5.44369 8.0855,0 12.8087,5.44369 4.7632,5.40367 4.7632,15.61059 l 0,2.84193 q 0,10.20693 -4.7632,15.61059 -4.7232,5.40367 -12.7286,5.40367 -8.0455,0 -12.8087,-5.40367 -4.7632,-5.40366 -4.7632,-15.61059 z m 11.3276,-2.84193 0,2.84193 q 0,11.60788 6.2443,11.60788 6.1642,0 6.1642,-11.60788 l 0,-2.84193 q 0,-11.6479 -6.2443,-11.6479 -6.1642,0 -6.1642,11.6479 z" />
        <path
           inkscape:connector-curvature="0"
           id="path4961"
           style="stroke-width:0"
           d="m 1340.2542,298.89584 -0.2802,-4.00271 q -3.5224,4.80326 -9.4864,4.80326 -5.3637,0 -8.726,-3.76256 -3.3622,-3.76255 -3.3622,-12.32836 l 0,-28.01901 11.3276,0 0,28.09907 q 0,3.52238 1.1608,5.04342 1.1608,1.481 3.0021,1.481 3.9226,0 5.6438,-3.36228 l 0,-31.26121 11.3677,0 0,43.30938 -10.6472,0 z" />
        <path
           inkscape:connector-curvature="0"
           id="path4963"
           style="stroke-width:0"
           d="m 1374.2628,264.23233 q -3.082,0 -4.8032,3.20217 l 0,31.46134 -11.3277,0 0,-43.30938 10.6072,0 0.3202,4.24288 q 3.8826,-5.04342 10.0869,-5.04342 5.0834,0 8.2456,3.6825 3.2021,3.6825 3.2021,12.88874 l 0,27.53868 -11.3277,0 0,-27.61873 q 0,-4.1228 -1.2808,-5.56378 -1.2409,-1.481 -3.7226,-1.481 z" />
        <path
           inkscape:connector-curvature="0"
           id="path4965"
           style="stroke-width:0"
           d="m 1420.1596,298.93587 -0.5204,-4.48304 q -3.4423,5.24356 -9.0061,5.24356 -6.8046,0 -10.4071,-5.36364 -3.6024,-5.40367 -3.6024,-15.57056 l 0,-2.84193 q 0,-21.13434 14.0495,-21.13434 5.0835,0 8.3657,4.32293 l 0,-21.69471 11.3677,0 0,61.4817 -10.2469,0.04 z m -12.2083,-20.17368 q 0,5.96404 1.2408,8.72591 1.2809,2.72185 4.7232,2.72185 3.4824,0 5.1235,-3.04206 l 0,-19.69336 q -1.6811,-3.2422 -5.0834,-3.2422 -3.3623,0 -4.6832,2.76187 -1.3209,2.76188 -1.3209,8.92606 l 0,2.84193 z" />
        <path
           inkscape:connector-curvature="0"
           id="path4967"
           style="stroke-width:0"
           d="m 1491.2107,279.44265 11.768,0 q -0.4003,9.92673 -5.6038,15.09023 -5.2036,5.16351 -14.5699,5.16351 -9.6866,0 -15.0502,-6.40435 -5.3236,-6.40434 -5.3236,-18.5726 l 0,-9.8867 q 0,-12.20829 5.4837,-18.61263 5.5237,-6.44437 15.0502,-6.44437 9.5265,0 14.4898,5.36364 4.9634,5.32361 5.6038,15.25034 l -11.768,0 q -0.2001,-6.24423 -1.9613,-8.52578 -1.7612,-2.32158 -6.3643,-2.32158 -4.6432,0 -6.7246,3.40231 -2.0413,3.40231 -2.0413,11.80801 l 0,9.96676 q 0,8.2456 1.8012,11.72796 1.8012,3.48236 6.8046,3.48236 4.3629,0 6.2843,-2.08141 1.9213,-2.08141 2.1214,-8.4057 z" />
        <path
           inkscape:connector-curvature="0"
           id="path4969"
           style="stroke-width:0"
           d="m 1507.7675,278.68213 0,-2.84193 q 0,-10.20692 4.7232,-15.61059 4.7632,-5.44369 12.7686,-5.44369 8.0855,0 12.8087,5.44369 4.7633,5.40367 4.7633,15.61059 l 0,2.84193 q 0,10.20693 -4.7633,15.61059 -4.7232,5.40367 -12.7286,5.40367 -8.0455,0 -12.8087,-5.40367 -4.7632,-5.40366 -4.7632,-15.61059 z m 11.3276,-2.84193 0,2.84193 q 0,11.60788 6.2443,11.60788 6.1642,0 6.1642,-11.60788 l 0,-2.84193 q 0,-11.6479 -6.2443,-11.6479 -6.1642,0 -6.1642,11.6479 z" />
        <path
           inkscape:connector-curvature="0"
           id="path4971"
           style="stroke-width:0"
           d="m 1565.152,264.23233 q -3.0821,0 -4.8033,3.20217 l 0,31.46134 -11.3276,0 0,-43.30938 10.6072,0 0.3202,4.24288 q 3.8826,-5.04342 10.0868,-5.04342 5.0835,0 8.2456,3.6825 3.2022,3.6825 3.2022,12.88874 l 0,27.53868 -11.3277,0 0,-27.61873 q 0,-4.1228 -1.2809,-5.56378 -1.2408,-1.481 -3.7225,-1.481 z" />
        <path
           inkscape:connector-curvature="0"
           id="path4973"
           style="stroke-width:0"
           d="m 1609.7278,264.11225 -6.7646,0 0,34.78359 -11.3276,0 0,-34.78359 -5.2436,0 0,-8.52579 5.2436,0 0,-3.76255 q 0,-7.40502 3.7625,-11.32768 3.8026,-3.92266 10.327,-3.92266 2.4417,0 5.1235,0.80054 l -0.08,9.00611 q -1.1607,-0.32022 -2.7618,-0.32022 -5.0435,0 -5.0435,5.76391 l 0,3.76255 6.7646,0 0,8.52579 z" />
        <path
           inkscape:connector-curvature="0"
           id="path4975"
           style="stroke-width:0"
           d="m 1647.299,293.21199 q -1.7212,2.32157 -5.4437,4.40298 -3.6825,2.08142 -9.2463,2.08142 -8.846,0 -13.6893,-5.28359 -4.8033,-5.28358 -4.8033,-14.68996 l 0,-3.56242 q 0,-10.52714 4.5631,-15.93081 4.6032,-5.44369 12.7687,-5.44369 16.4912,0 16.4912,21.05428 l 0,5.16351 -22.4552,0 q 0.2001,5.1635 2.2014,7.24491 2.0414,2.04139 5.6839,2.04139 5.7239,0 9.4464,-3.92267 l 4.4831,6.84465 z m -15.8908,-29.01969 q -2.962,0 -4.323,2.12144 -1.3209,2.08141 -1.561,6.76459 l 11.3277,0 0,-1.00068 q -0.08,-3.92266 -1.2809,-5.88399 -1.2008,-2.00136 -4.1628,-2.00136 z" />
        <path
           inkscape:connector-curvature="0"
           id="path4977"
           style="stroke-width:0"
           d="m 1671.3809,266.19366 q -4.7232,0 -6.3243,4.04274 l 0,28.65944 -11.3277,0 0,-43.30938 10.6873,0 0.3202,4.68318 q 2.7219,-5.48372 7.405,-5.48372 1.8413,0 3.0821,0.48033 l -0.1201,11.24763 q -2.0013,-0.32022 -3.7225,-0.32022 z" />
        <path
           inkscape:connector-curvature="0"
           id="path4979"
           style="stroke-width:0"
           d="m 1712.3542,293.21199 q -1.7211,2.32157 -5.4436,4.40298 -3.6825,2.08142 -9.2463,2.08142 -8.846,0 -13.6893,-5.28359 -4.8033,-5.28358 -4.8033,-14.68996 l 0,-3.56242 q 0,-10.52714 4.5631,-15.93081 4.6032,-5.44369 12.7687,-5.44369 16.4912,0 16.4912,21.05428 l 0,5.16351 -22.4552,0 q 0.2001,5.1635 2.2014,7.24491 2.0414,2.04139 5.6839,2.04139 5.7239,0 9.4464,-3.92267 l 4.483,6.84465 z m -15.8907,-29.01969 q -2.962,0 -4.323,2.12144 -1.3209,2.08141 -1.561,6.76459 l 11.3277,0 0,-1.00068 q -0.08,-3.92266 -1.2809,-5.88399 -1.2008,-2.00136 -4.1628,-2.00136 z" />
        <path
           inkscape:connector-curvature="0"
           id="path4981"
           style="stroke-width:0"
           d="m 1734.675,264.23233 q -3.0821,0 -4.8032,3.20217 l 0,31.46134 -11.3277,0 0,-43.30938 10.6072,0 0.3202,4.24288 q 3.8826,-5.04342 10.0868,-5.04342 5.0835,0 8.2456,3.6825 3.2022,3.6825 3.2022,12.88874 l 0,27.53868 -11.3277,0 0,-27.61873 q 0,-4.1228 -1.2809,-5.56378 -1.2408,-1.481 -3.7225,-1.481 z" />
        <path
           inkscape:connector-curvature="0"
           id="path4983"
           style="stroke-width:0"
           d="m 1774.2074,290.29001 q 4.9634,0 4.9634,-6.40435 l 10.6472,0 q -0.04,7.40502 -4.483,11.60788 -4.403,4.20285 -10.9274,4.20285 -8.726,0 -12.9688,-5.48372 -4.2429,-5.48372 -4.2429,-15.41046 l 0,-3.12212 q 0,-9.92673 4.2429,-15.41045 4.2428,-5.48372 12.9287,-5.48372 6.9648,0 11.1676,4.32293 4.2429,4.32294 4.2829,12.64858 l -10.6472,0 q 0,-7.56513 -5.0434,-7.56513 -3.7226,0 -4.6832,2.96201 -0.9206,2.96201 -0.9206,8.52578 l 0,3.12212 q 0,5.72389 0.9206,8.60584 0.9206,2.88196 4.7632,2.88196 z" />
        <path
           inkscape:connector-curvature="0"
           id="path4985"
           style="stroke-width:0"
           d="m 1827.8694,293.21199 q -1.7212,2.32157 -5.4437,4.40298 -3.6825,2.08142 -9.2463,2.08142 -8.846,0 -13.6893,-5.28359 -4.8032,-5.28358 -4.8032,-14.68996 l 0,-3.56242 q 0,-10.52714 4.5631,-15.93081 4.6031,-5.44369 12.7686,-5.44369 16.4912,0 16.4912,21.05428 l 0,5.16351 -22.4552,0 q 0.2001,5.1635 2.2015,7.24491 2.0414,2.04139 5.6838,2.04139 5.7239,0 9.4464,-3.92267 l 4.4831,6.84465 z m -15.8908,-29.01969 q -2.962,0 -4.3229,2.12144 -1.3209,2.08141 -1.5611,6.76459 l 11.3277,0 0,-1.00068 q -0.08,-3.92266 -1.2809,-5.88399 -1.2008,-2.00136 -4.1628,-2.00136 z" />
      </g>
    </g>
  </g>
</svg>
