<?xml version="1.0" encoding="UTF-8" standalone="no"?>
<svg
   xmlns:dc="http://purl.org/dc/elements/1.1/"
   xmlns:cc="http://creativecommons.org/ns#"
   xmlns:rdf="http://www.w3.org/1999/02/22-rdf-syntax-ns#"
   xmlns:svg="http://www.w3.org/2000/svg"
   xmlns="http://www.w3.org/2000/svg"
   xmlns:sodipodi="http://sodipodi.sourceforge.net/DTD/sodipodi-0.dtd"
   xmlns:inkscape="http://www.inkscape.org/namespaces/inkscape"
   id="svg2"
   height="257.70709pt"
   width="1318.5974pt"
   version="1.1"
   inkscape:version="0.91 r13725"
   sodipodi:docname="logo_eMe.svg">
  <sodipodi:namedview
     pagecolor="#ffffff"
     bordercolor="#666666"
     borderopacity="1"
     objecttolerance="10"
     gridtolerance="10"
     guidetolerance="10"
     inkscape:pageopacity="0"
     inkscape:pageshadow="2"
     inkscape:window-width="1912"
     inkscape:window-height="882"
     id="namedview8"
     showgrid="false"
     units="pt"
     fit-margin-top="0"
     fit-margin-left="0"
     fit-margin-right="0"
     fit-margin-bottom="0"
     inkscape:zoom="1.0212262"
     inkscape:cx="327.57102"
     inkscape:cy="157.56131"
     inkscape:window-x="0"
     inkscape:window-y="0"
     inkscape:window-maximized="0"
     inkscape:current-layer="svg2" />
  <defs
     id="defs4" />
  <metadata
     id="metadata7">
    <rdf:RDF>
      <cc:Work
         rdf:about="">
        <dc:format>image/svg+xml</dc:format>
        <dc:type
           rdf:resource="http://purl.org/dc/dcmitype/StillImage" />
        <dc:title />
      </cc:Work>
    </rdf:RDF>
  </metadata>
  <g
     id="g4658"
     style="fill:#d2d7dc;fill-opacity:1">
    <g
       style="fill:#d2d7dc;fill-opacity:1"
       id="g3683">
      <path
         d="M 195.02707,182.19907 C 197.27564,127.38352 174.18543,96.52125 121.73741,93.860697 46.107106,90.024179 13.561916,142.11749 2.5026062,203.54258 c -11.66995,57.9062 18.4214598,118.5913 70.5068098,118.5913 48.625394,0 94.333394,-37.95539 118.159704,-81.74998 l -7.29381,-2.91965 c -20.42253,26.76337 -52.52307,52.76787 -84.608184,52.06696 -49.53593,-1.08212 -55.37499,-50.56869 -49.32773,-84.35192 L 195.40966,182.96425 m -144.051024,8.76048 c 8.04695,-40.93637 31.27832,-78.34473 60.982724,-77.58636 22.88939,0.58437 38.46868,25.03132 34.57865,53.25451 l -97.653954,15.27789"
         id="path2990-0-83"
         style="font-style:italic;font-variant:normal;font-weight:500;font-stretch:normal;font-size:36px;line-height:125%;font-family:TempoFont;-inkscape-font-specification:'TempoFont Italic';letter-spacing:-0.06px;word-spacing:6.32000017px;fill:#d2d7dc;fill-opacity:1;stroke:none"
         inkscape:connector-curvature="0" />
      <path
         d="M 610.11892,38.928565 C 612.91981,24.816974 623.18975,9.245534 657.26727,9.245534 L 658.66771,0 546.25117,0 402.44063,235.40668 343.25064,0 241.22097,0 239.82052,9.245534 c 37.34523,0 41.07975,15.57144 38.27886,29.683031 L 231.41784,283.20531 c -2.80088,14.1116 -12.604,29.68303 -50.88286,29.68303 l -1.86727,9.24554 120.7023,0 1.86725,-9.24554 c -38.27886,0 -42.48019,-15.57143 -39.6793,-29.68303 l 43.41382,-226.75889 66.28778,265.68746 6.53542,0 172.72167,-276.879423 -45.7479,237.950853 c -2.80089,14.1116 -12.60402,29.68303 -46.68154,29.68303 l -1.86725,9.24554 141.29494,0 1.86726,-9.24554 c -34.07751,0 -38.27886,-15.57143 -35.47797,-29.68303 L 610.11892,38.928565"
         id="path2992"
         style="font-style:italic;font-variant:normal;font-weight:500;font-stretch:normal;font-size:36px;line-height:125%;font-family:TempoFont;-inkscape-font-specification:'TempoFont Italic';letter-spacing:-0.06px;word-spacing:6.32000017px;fill:#d2d7dc;fill-opacity:1;stroke:none"
         inkscape:connector-curvature="0" />
      <path
         d="m 815.02707,182.19907 c 2.24857,-54.81555 -20.84164,-85.67782 -73.28966,-88.33837 -75.6303,-3.836518 -108.17549,48.25679 -119.2348,109.68188 -11.66995,57.9062 18.42146,118.5913 70.50681,118.5913 48.62539,0 94.33339,-37.95539 118.1597,-81.74998 l -7.29381,-2.91965 c -20.42253,26.76337 -52.52307,52.76787 -84.60818,52.06696 -49.53593,-1.08212 -55.37499,-50.56869 -49.32773,-84.35192 l 145.47026,-22.21504 m -144.05102,8.76048 c 8.04695,-40.93637 31.27832,-78.34473 60.98272,-77.58636 22.88939,0.58437 38.46868,25.03132 34.57865,53.25451 l -97.65395,15.27789"
         id="path2990-0"
         style="font-style:italic;font-variant:normal;font-weight:500;font-stretch:normal;font-size:36px;line-height:125%;font-family:TempoFont;-inkscape-font-specification:'TempoFont Italic';letter-spacing:-0.06px;word-spacing:6.32000017px;fill:#d2d7dc;fill-opacity:1;stroke:none"
         inkscape:connector-curvature="0" />
    </g>
    <g
       style="fill:#d2d7dc;fill-opacity:1"
       transform="matrix(4.1601712,0,0,4.1601712,-3142.5474,-494.415)"
       id="g3648">
      <g
         style="fill:#d2d7dc;fill-opacity:1"
         id="g4495"
         transform="translate(1094.4558,-154.04593)">
        <path
           d="m -124.53153,281.83939 8.9325,0 0,-1.845 -8.9325,0 0,-5.2425 9.27,0 0,-1.845 -11.3625,0 0,16.4025 11.7675,0 0,-1.845 -9.675,0 0,-5.625 z"
           style="color:#000000;font-style:normal;font-variant:normal;font-weight:normal;font-stretch:normal;font-size:medium;line-height:100%;font-family:'Nimbus Sans L';-inkscape-font-specification:'Nimbus Sans L';text-indent:0;text-align:justify;text-decoration:none;text-decoration-line:none;text-decoration-style:solid;text-decoration-color:#000000;letter-spacing:-0.60000002px;word-spacing:6.32000017px;text-transform:none;direction:ltr;block-progression:tb;writing-mode:lr-tb;baseline-shift:baseline;text-anchor:start;white-space:normal;clip-rule:nonzero;visibility:visible;isolation:auto;mix-blend-mode:normal;color-interpolation:sRGB;color-interpolation-filters:linearRGB;solid-color:#000000;solid-opacity:1;fill:#d2d7dc;fill-opacity:1;fill-rule:nonzero;stroke:none;stroke-width:0;stroke-linecap:butt;stroke-linejoin:miter;stroke-miterlimit:4;stroke-dasharray:none;stroke-dashoffset:0;stroke-opacity:1;marker:none;color-rendering:auto;image-rendering:auto;shape-rendering:auto;text-rendering:auto"
           id="path4311"
           inkscape:connector-curvature="0" />
        <path
           d="m -100.89853,280.80439 c -0.0225,-2.3175 -1.5525,-3.6225 -4.275,-3.6225 -2.745,0 -4.5225,1.4175 -4.5225,3.6 0,1.845 0.945,2.7225 3.735,3.3975 l 1.755,0.4275 c 1.305,0.315 1.8225,0.7875 1.8225,1.6425 0,1.1025 -1.1025,1.845 -2.745,1.845 -1.0125,0 -1.8675,-0.2925 -2.34,-0.7875 -0.2925,-0.3375 -0.4275,-0.675 -0.54,-1.5075 l -1.98,0 c 0.09,2.7225 1.62,4.0275 4.7025,4.0275 2.97,0 4.86,-1.4625 4.86,-3.735 0,-1.755 -0.99,-2.7225 -3.33,-3.285 l -1.8,-0.4275 c -1.53,-0.36 -2.1825,-0.855 -2.1825,-1.6875 0,-1.08 0.9675,-1.7775 2.4975,-1.7775 1.5075,0 2.3175,0.6525 2.3625,1.89 l 1.98,0 z"
           style="color:#000000;font-style:normal;font-variant:normal;font-weight:normal;font-stretch:normal;font-size:medium;line-height:100%;font-family:'Nimbus Sans L';-inkscape-font-specification:'Nimbus Sans L';text-indent:0;text-align:justify;text-decoration:none;text-decoration-line:none;text-decoration-style:solid;text-decoration-color:#000000;letter-spacing:-0.60000002px;word-spacing:6.32000017px;text-transform:none;direction:ltr;block-progression:tb;writing-mode:lr-tb;baseline-shift:baseline;text-anchor:start;white-space:normal;clip-rule:nonzero;visibility:visible;isolation:auto;mix-blend-mode:normal;color-interpolation:sRGB;color-interpolation-filters:linearRGB;solid-color:#000000;solid-opacity:1;fill:#d2d7dc;fill-opacity:1;fill-rule:nonzero;stroke:none;stroke-width:0;stroke-linecap:butt;stroke-linejoin:miter;stroke-miterlimit:4;stroke-dasharray:none;stroke-dashoffset:0;stroke-opacity:1;marker:none;color-rendering:auto;image-rendering:auto;shape-rendering:auto;text-rendering:auto"
           id="path4313"
           inkscape:connector-curvature="0" />
        <path
           d="m -90.15802,277.51939 -1.935,0 0,-3.24 -1.8675,0 0,3.24 -1.5975,0 0,1.53 1.5975,0 0,8.91 c 0,1.1925 0.81,1.8675 2.2725,1.8675 0.45,0 0.9,-0.045 1.53,-0.1575 l 0,-1.575 c -0.2475,0.0675 -0.54,0.09 -0.9,0.09 -0.81,0 -1.035,-0.225 -1.035,-1.0575 l 0,-8.0775 1.935,0 0,-1.53 z"
           style="color:#000000;font-style:normal;font-variant:normal;font-weight:normal;font-stretch:normal;font-size:medium;line-height:100%;font-family:'Nimbus Sans L';-inkscape-font-specification:'Nimbus Sans L';text-indent:0;text-align:justify;text-decoration:none;text-decoration-line:none;text-decoration-style:solid;text-decoration-color:#000000;letter-spacing:-0.60000002px;word-spacing:6.32000017px;text-transform:none;direction:ltr;block-progression:tb;writing-mode:lr-tb;baseline-shift:baseline;text-anchor:start;white-space:normal;clip-rule:nonzero;visibility:visible;isolation:auto;mix-blend-mode:normal;color-interpolation:sRGB;color-interpolation-filters:linearRGB;solid-color:#000000;solid-opacity:1;fill:#d2d7dc;fill-opacity:1;fill-rule:nonzero;stroke:none;stroke-width:0;stroke-linecap:butt;stroke-linejoin:miter;stroke-miterlimit:4;stroke-dasharray:none;stroke-dashoffset:0;stroke-opacity:1;marker:none;color-rendering:auto;image-rendering:auto;shape-rendering:auto;text-rendering:auto"
           id="path4315"
           inkscape:connector-curvature="0" />
        <path
           d="m -75.90752,289.30939 0,-11.79 -1.8675,0 0,6.6825 c 0,2.4075 -1.26,3.9825 -3.2175,3.9825 -1.485,0 -2.43,-0.9 -2.43,-2.3175 l 0,-8.3475 -1.8675,0 0,9.09 c 0,1.9575 1.4625,3.2175 3.7575,3.2175 1.7325,0 2.835,-0.6075 3.9375,-2.16 l 0,1.6425 1.6875,0 z"
           style="color:#000000;font-style:normal;font-variant:normal;font-weight:normal;font-stretch:normal;font-size:medium;line-height:100%;font-family:'Nimbus Sans L';-inkscape-font-specification:'Nimbus Sans L';text-indent:0;text-align:justify;text-decoration:none;text-decoration-line:none;text-decoration-style:solid;text-decoration-color:#000000;letter-spacing:-0.60000002px;word-spacing:6.32000017px;text-transform:none;direction:ltr;block-progression:tb;writing-mode:lr-tb;baseline-shift:baseline;text-anchor:start;white-space:normal;clip-rule:nonzero;visibility:visible;isolation:auto;mix-blend-mode:normal;color-interpolation:sRGB;color-interpolation-filters:linearRGB;solid-color:#000000;solid-opacity:1;fill:#d2d7dc;fill-opacity:1;fill-rule:nonzero;stroke:none;stroke-width:0;stroke-linecap:butt;stroke-linejoin:miter;stroke-miterlimit:4;stroke-dasharray:none;stroke-dashoffset:0;stroke-opacity:1;marker:none;color-rendering:auto;image-rendering:auto;shape-rendering:auto;text-rendering:auto"
           id="path4317"
           inkscape:connector-curvature="0" />
        <path
           d="m -60.487,272.90689 -1.8675,0 0,6.0975 c -0.7875,-1.1925 -2.0475,-1.8225 -3.6225,-1.8225 -3.06,0 -5.0625,2.4525 -5.0625,6.21 0,3.9825 1.9575,6.435 5.13,6.435 1.62,0 2.745,-0.6075 3.7575,-2.07 l 0,1.5525 1.665,0 0,-16.4025 z m -5.175,6.03 c 2.025,0 3.3075,1.8 3.3075,4.6125 0,2.7225 -1.305,4.5225 -3.285,4.5225 -2.07,0 -3.4425,-1.8225 -3.4425,-4.5675 0,-2.745 1.3725,-4.5675 3.42,-4.5675 z"
           style="color:#000000;font-style:normal;font-variant:normal;font-weight:normal;font-stretch:normal;font-size:medium;line-height:100%;font-family:'Nimbus Sans L';-inkscape-font-specification:'Nimbus Sans L';text-indent:0;text-align:justify;text-decoration:none;text-decoration-line:none;text-decoration-style:solid;text-decoration-color:#000000;letter-spacing:-0.60000002px;word-spacing:6.32000017px;text-transform:none;direction:ltr;block-progression:tb;writing-mode:lr-tb;baseline-shift:baseline;text-anchor:start;white-space:normal;clip-rule:nonzero;visibility:visible;isolation:auto;mix-blend-mode:normal;color-interpolation:sRGB;color-interpolation-filters:linearRGB;solid-color:#000000;solid-opacity:1;fill:#d2d7dc;fill-opacity:1;fill-rule:nonzero;stroke:none;stroke-width:0;stroke-linecap:butt;stroke-linejoin:miter;stroke-miterlimit:4;stroke-dasharray:none;stroke-dashoffset:0;stroke-opacity:1;marker:none;color-rendering:auto;image-rendering:auto;shape-rendering:auto;text-rendering:auto"
           id="path4319"
           inkscape:connector-curvature="0" />
        <path
           d="m -53.728965,277.51939 -1.8675,0 0,11.79 1.8675,0 0,-11.79 z m 0,-4.6125 -1.89,0 0,2.3625 1.89,0 0,-2.3625 z"
           style="color:#000000;font-style:normal;font-variant:normal;font-weight:normal;font-stretch:normal;font-size:medium;line-height:100%;font-family:'Nimbus Sans L';-inkscape-font-specification:'Nimbus Sans L';text-indent:0;text-align:justify;text-decoration:none;text-decoration-line:none;text-decoration-style:solid;text-decoration-color:#000000;letter-spacing:-0.60000002px;word-spacing:6.32000017px;text-transform:none;direction:ltr;block-progression:tb;writing-mode:lr-tb;baseline-shift:baseline;text-anchor:start;white-space:normal;clip-rule:nonzero;visibility:visible;isolation:auto;mix-blend-mode:normal;color-interpolation:sRGB;color-interpolation-filters:linearRGB;solid-color:#000000;solid-opacity:1;fill:#d2d7dc;fill-opacity:1;fill-rule:nonzero;stroke:none;stroke-width:0;stroke-linecap:butt;stroke-linejoin:miter;stroke-miterlimit:4;stroke-dasharray:none;stroke-dashoffset:0;stroke-opacity:1;marker:none;color-rendering:auto;image-rendering:auto;shape-rendering:auto;text-rendering:auto"
           id="path4321"
           inkscape:connector-curvature="0" />
        <path
           d="m -43.550938,277.18189 c -3.3075,0 -5.31,2.3625 -5.31,6.3225 0,3.96 1.98,6.3225 5.3325,6.3225 3.3075,0 5.332499,-2.3625 5.332499,-6.2325 0,-4.0725 -1.957499,-6.4125 -5.354999,-6.4125 z m 0.0225,1.7325 c 2.115,0 3.375,1.7325 3.375,4.6575 0,2.7675 -1.305,4.5225 -3.375,4.5225 -2.0925,0 -3.375,-1.7325 -3.375,-4.59 0,-2.835 1.2825,-4.59 3.375,-4.59 z"
           style="color:#000000;font-style:normal;font-variant:normal;font-weight:normal;font-stretch:normal;font-size:medium;line-height:100%;font-family:'Nimbus Sans L';-inkscape-font-specification:'Nimbus Sans L';text-indent:0;text-align:justify;text-decoration:none;text-decoration-line:none;text-decoration-style:solid;text-decoration-color:#000000;letter-spacing:-0.60000002px;word-spacing:6.32000017px;text-transform:none;direction:ltr;block-progression:tb;writing-mode:lr-tb;baseline-shift:baseline;text-anchor:start;white-space:normal;clip-rule:nonzero;visibility:visible;isolation:auto;mix-blend-mode:normal;color-interpolation:sRGB;color-interpolation-filters:linearRGB;solid-color:#000000;solid-opacity:1;fill:#d2d7dc;fill-opacity:1;fill-rule:nonzero;stroke:none;stroke-width:0;stroke-linecap:butt;stroke-linejoin:miter;stroke-miterlimit:4;stroke-dasharray:none;stroke-dashoffset:0;stroke-opacity:1;marker:none;color-rendering:auto;image-rendering:auto;shape-rendering:auto;text-rendering:auto"
           id="path4323"
           inkscape:connector-curvature="0" />
      </g>
      <g
         style="fill:#d2d7dc;fill-opacity:1"
         id="g4521"
         transform="translate(1094.4558,-146.3056)">
        <path
           d="m -117.51152,295.40689 -1.8675,0 0,6.0975 c -0.7875,-1.1925 -2.0475,-1.8225 -3.6225,-1.8225 -3.06,0 -5.0625,2.4525 -5.0625,6.21 0,3.9825 1.9575,6.435 5.13,6.435 1.62,0 2.745,-0.6075 3.7575,-2.07 l 0,1.5525 1.665,0 0,-16.4025 z m -5.175,6.03 c 2.025,0 3.3075,1.8 3.3075,4.6125 0,2.7225 -1.305,4.5225 -3.285,4.5225 -2.07,0 -3.4425,-1.8225 -3.4425,-4.5675 0,-2.745 1.3725,-4.5675 3.42,-4.5675 z"
           style="color:#000000;font-style:normal;font-variant:normal;font-weight:normal;font-stretch:normal;font-size:medium;line-height:100%;font-family:'Nimbus Sans L';-inkscape-font-specification:'Nimbus Sans L';text-indent:0;text-align:justify;text-decoration:none;text-decoration-line:none;text-decoration-style:solid;text-decoration-color:#000000;letter-spacing:-0.60000002px;word-spacing:6.32000017px;text-transform:none;direction:ltr;block-progression:tb;writing-mode:lr-tb;baseline-shift:baseline;text-anchor:start;white-space:normal;clip-rule:nonzero;visibility:visible;isolation:auto;mix-blend-mode:normal;color-interpolation:sRGB;color-interpolation-filters:linearRGB;solid-color:#000000;solid-opacity:1;fill:#d2d7dc;fill-opacity:1;fill-rule:nonzero;stroke:none;stroke-width:0;stroke-linecap:butt;stroke-linejoin:miter;stroke-miterlimit:4;stroke-dasharray:none;stroke-dashoffset:0;stroke-opacity:1;marker:none;color-rendering:auto;image-rendering:auto;shape-rendering:auto;text-rendering:auto"
           id="path4325"
           inkscape:connector-curvature="0" />
        <path
           d="m -101.1821,306.54439 c 0,-1.8 -0.135,-2.88 -0.4725,-3.7575 -0.765,-1.935 -2.565,-3.105 -4.77,-3.105 -3.285,0 -5.4,2.52 -5.4,6.39 0,3.87 2.0475,6.255 5.355,6.255 2.7,0 4.5675,-1.53 5.04,-4.095 l -1.89,0 c -0.5175,1.5525 -1.575,2.3625 -3.0825,2.3625 -1.1925,0 -2.205,-0.54 -2.835,-1.53 -0.45,-0.675 -0.6075,-1.35 -0.63,-2.52 l 8.685,0 z m -8.64,-1.53 c 0.1575,-2.1825 1.485,-3.6 3.375,-3.6 1.845,0 3.2625,1.53 3.2625,3.465 0,0.045 0,0.09 -0.0225,0.135 l -6.615,0 z"
           style="color:#000000;font-style:normal;font-variant:normal;font-weight:normal;font-stretch:normal;font-size:medium;line-height:100%;font-family:'Nimbus Sans L';-inkscape-font-specification:'Nimbus Sans L';text-indent:0;text-align:justify;text-decoration:none;text-decoration-line:none;text-decoration-style:solid;text-decoration-color:#000000;letter-spacing:-0.60000002px;word-spacing:6.32000017px;text-transform:none;direction:ltr;block-progression:tb;writing-mode:lr-tb;baseline-shift:baseline;text-anchor:start;white-space:normal;clip-rule:nonzero;visibility:visible;isolation:auto;mix-blend-mode:normal;color-interpolation:sRGB;color-interpolation-filters:linearRGB;solid-color:#000000;solid-opacity:1;fill:#d2d7dc;fill-opacity:1;fill-rule:nonzero;stroke:none;stroke-width:0;stroke-linecap:butt;stroke-linejoin:miter;stroke-miterlimit:4;stroke-dasharray:none;stroke-dashoffset:0;stroke-opacity:1;marker:none;color-rendering:auto;image-rendering:auto;shape-rendering:auto;text-rendering:auto"
           id="path4327"
           inkscape:connector-curvature="0" />
        <path
           d="m -78.30994,311.80939 4.6125,-13.7475 0,13.7475 1.98,0 0,-16.4025 -2.9025,0 -4.77,14.2875 -4.86,-14.2875 -2.9025,0 0,16.4025 1.98,0 0,-13.7475 4.6575,13.7475 2.205,0 z"
           style="color:#000000;font-style:normal;font-variant:normal;font-weight:normal;font-stretch:normal;font-size:medium;line-height:100%;font-family:'Nimbus Sans L';-inkscape-font-specification:'Nimbus Sans L';text-indent:0;text-align:justify;text-decoration:none;text-decoration-line:none;text-decoration-style:solid;text-decoration-color:#000000;letter-spacing:-0.60000002px;word-spacing:6.32000017px;text-transform:none;direction:ltr;block-progression:tb;writing-mode:lr-tb;baseline-shift:baseline;text-anchor:start;white-space:normal;clip-rule:nonzero;visibility:visible;isolation:auto;mix-blend-mode:normal;color-interpolation:sRGB;color-interpolation-filters:linearRGB;solid-color:#000000;solid-opacity:1;fill:#d2d7dc;fill-opacity:1;fill-rule:nonzero;stroke:none;stroke-width:0;stroke-linecap:butt;stroke-linejoin:miter;stroke-miterlimit:4;stroke-dasharray:none;stroke-dashoffset:0;stroke-opacity:1;marker:none;color-rendering:auto;image-rendering:auto;shape-rendering:auto;text-rendering:auto"
           id="path4329"
           inkscape:connector-curvature="0" />
        <path
           d="m -56.58467,311.80939 0,-11.79 -1.8675,0 0,6.6825 c 0,2.4075 -1.26,3.9825 -3.2175,3.9825 -1.485,0 -2.43,-0.9 -2.43,-2.3175 l 0,-8.3475 -1.8675,0 0,9.09 c 0,1.9575 1.4625,3.2175 3.7575,3.2175 1.7325,0 2.835,-0.6075 3.9375,-2.16 l 0,1.6425 1.6875,0 z m -4.185,-16.65 -2.16,3.33 1.35,0 3.3525,-3.33 -2.5425,0 z"
           style="color:#000000;font-style:normal;font-variant:normal;font-weight:normal;font-stretch:normal;font-size:medium;line-height:100%;font-family:'Nimbus Sans L';-inkscape-font-specification:'Nimbus Sans L';text-indent:0;text-align:justify;text-decoration:none;text-decoration-line:none;text-decoration-style:solid;text-decoration-color:#000000;letter-spacing:-0.60000002px;word-spacing:6.32000017px;text-transform:none;direction:ltr;block-progression:tb;writing-mode:lr-tb;baseline-shift:baseline;text-anchor:start;white-space:normal;clip-rule:nonzero;visibility:visible;isolation:auto;mix-blend-mode:normal;color-interpolation:sRGB;color-interpolation-filters:linearRGB;solid-color:#000000;solid-opacity:1;fill:#d2d7dc;fill-opacity:1;fill-rule:nonzero;stroke:none;stroke-width:0;stroke-linecap:butt;stroke-linejoin:miter;stroke-miterlimit:4;stroke-dasharray:none;stroke-dashoffset:0;stroke-opacity:1;marker:none;color-rendering:auto;image-rendering:auto;shape-rendering:auto;text-rendering:auto"
           id="path4331"
           inkscape:connector-curvature="0" />
        <path
           d="m -41.744406,303.30439 c -0.0225,-2.3175 -1.5525,-3.6225 -4.275,-3.6225 -2.745,0 -4.522497,1.4175 -4.522497,3.6 0,1.845 0.945,2.7225 3.734997,3.3975 l 1.755,0.4275 c 1.305,0.315 1.8225,0.7875 1.8225,1.6425 0,1.1025 -1.1025,1.845 -2.745,1.845 -1.0125,0 -1.8675,-0.2925 -2.34,-0.7875 -0.2925,-0.3375 -0.4275,-0.675 -0.539997,-1.5075 l -1.98,0 c 0.09,2.7225 1.62,4.0275 4.702497,4.0275 2.97,0 4.86,-1.4625 4.86,-3.735 0,-1.755 -0.99,-2.7225 -3.33,-3.285 l -1.8,-0.4275 c -1.53,-0.36 -2.1825,-0.855 -2.1825,-1.6875 0,-1.08 0.9675,-1.7775 2.4975,-1.7775 1.5075,0 2.3175,0.6525 2.3625,1.89 l 1.98,0 z"
           style="color:#000000;font-style:normal;font-variant:normal;font-weight:normal;font-stretch:normal;font-size:medium;line-height:100%;font-family:'Nimbus Sans L';-inkscape-font-specification:'Nimbus Sans L';text-indent:0;text-align:justify;text-decoration:none;text-decoration-line:none;text-decoration-style:solid;text-decoration-color:#000000;letter-spacing:-0.60000002px;word-spacing:6.32000017px;text-transform:none;direction:ltr;block-progression:tb;writing-mode:lr-tb;baseline-shift:baseline;text-anchor:start;white-space:normal;clip-rule:nonzero;visibility:visible;isolation:auto;mix-blend-mode:normal;color-interpolation:sRGB;color-interpolation-filters:linearRGB;solid-color:#000000;solid-opacity:1;fill:#d2d7dc;fill-opacity:1;fill-rule:nonzero;stroke:none;stroke-width:0;stroke-linecap:butt;stroke-linejoin:miter;stroke-miterlimit:4;stroke-dasharray:none;stroke-dashoffset:0;stroke-opacity:1;marker:none;color-rendering:auto;image-rendering:auto;shape-rendering:auto;text-rendering:auto"
           id="path4333"
           inkscape:connector-curvature="0" />
        <path
           d="m -33.631644,300.01939 -1.8675,0 0,11.79 1.8675,0 0,-11.79 z m 0,-4.6125 -1.89,0 0,2.3625 1.89,0 0,-2.3625 z"
           style="color:#000000;font-style:normal;font-variant:normal;font-weight:normal;font-stretch:normal;font-size:medium;line-height:100%;font-family:'Nimbus Sans L';-inkscape-font-specification:'Nimbus Sans L';text-indent:0;text-align:justify;text-decoration:none;text-decoration-line:none;text-decoration-style:solid;text-decoration-color:#000000;letter-spacing:-0.60000002px;word-spacing:6.32000017px;text-transform:none;direction:ltr;block-progression:tb;writing-mode:lr-tb;baseline-shift:baseline;text-anchor:start;white-space:normal;clip-rule:nonzero;visibility:visible;isolation:auto;mix-blend-mode:normal;color-interpolation:sRGB;color-interpolation-filters:linearRGB;solid-color:#000000;solid-opacity:1;fill:#d2d7dc;fill-opacity:1;fill-rule:nonzero;stroke:none;stroke-width:0;stroke-linecap:butt;stroke-linejoin:miter;stroke-miterlimit:4;stroke-dasharray:none;stroke-dashoffset:0;stroke-opacity:1;marker:none;color-rendering:auto;image-rendering:auto;shape-rendering:auto;text-rendering:auto"
           id="path4335"
           inkscape:connector-curvature="0" />
        <path
           d="m -17.981385,303.97939 c -0.09,-1.1475 -0.3375,-1.89 -0.7875,-2.5425 -0.81,-1.1025 -2.2275,-1.755 -3.87,-1.755 -3.1725,0 -5.2425,2.52 -5.2425,6.435 0,3.8025 2.025,6.21 5.22,6.21 2.8125,0 4.59,-1.6875 4.815,-4.5675 l -1.89,0 c -0.315,1.89 -1.2825,2.835 -2.88,2.835 -2.07,0 -3.3075,-1.6875 -3.3075,-4.4775 0,-2.9475 1.215,-4.7025 3.2625,-4.7025 1.575,0 2.565,0.9225 2.79,2.565 l 1.89,0 z"
           style="color:#000000;font-style:normal;font-variant:normal;font-weight:normal;font-stretch:normal;font-size:medium;line-height:100%;font-family:'Nimbus Sans L';-inkscape-font-specification:'Nimbus Sans L';text-indent:0;text-align:justify;text-decoration:none;text-decoration-line:none;text-decoration-style:solid;text-decoration-color:#000000;letter-spacing:-0.60000002px;word-spacing:6.32000017px;text-transform:none;direction:ltr;block-progression:tb;writing-mode:lr-tb;baseline-shift:baseline;text-anchor:start;white-space:normal;clip-rule:nonzero;visibility:visible;isolation:auto;mix-blend-mode:normal;color-interpolation:sRGB;color-interpolation-filters:linearRGB;solid-color:#000000;solid-opacity:1;fill:#d2d7dc;fill-opacity:1;fill-rule:nonzero;stroke:none;stroke-width:0;stroke-linecap:butt;stroke-linejoin:miter;stroke-miterlimit:4;stroke-dasharray:none;stroke-dashoffset:0;stroke-opacity:1;marker:none;color-rendering:auto;image-rendering:auto;shape-rendering:auto;text-rendering:auto"
           id="path4337"
           inkscape:connector-curvature="0" />
        <path
           d="m -1.003622,310.70689 c -0.2025,0.045 -0.2925,0.045 -0.405,0.045 -0.6525,0 -1.0125,-0.3375 -1.0125,-0.9225 l 0,-6.93 c 0,-2.0925 -1.53,-3.2175 -4.4325,-3.2175 -1.71,0 -3.1275,0.495 -3.915,1.3725 -0.54,0.6075 -0.765,1.2825 -0.81,2.4525 l 1.89,0 c 0.1575,-1.44 1.0125,-2.0925 2.7675,-2.0925 1.6875,0 2.6325,0.63 2.6325,1.755 l 0,0.495 c 0,0.7875 -0.4725,1.125 -1.9575,1.305 -2.655,0.3375 -3.06,0.4275 -3.78,0.72 -1.3725,0.5625 -2.07,1.62 -2.07,3.15 0,2.1375 1.485,3.4875 3.87,3.4875 1.485,0 2.6775,-0.5175 4.005,-1.7325 0.135,1.1925 0.72,1.7325 1.935,1.7325 0.3825,0 0.675,-0.045 1.2825,-0.2025 l 0,-1.4175 z m -3.285,-2.61 c 0,0.63 -0.18,1.0125 -0.7425,1.53 -0.765,0.6975 -1.6875,1.0575 -2.79,1.0575 -1.4625,0 -2.3175,-0.6975 -2.3175,-1.89 0,-1.2375 0.8325,-1.8675 2.835,-2.16 1.98,-0.27 2.385,-0.36 3.015,-0.6525 l 0,2.115 z"
           style="color:#000000;font-style:normal;font-variant:normal;font-weight:normal;font-stretch:normal;font-size:medium;line-height:100%;font-family:'Nimbus Sans L';-inkscape-font-specification:'Nimbus Sans L';text-indent:0;text-align:justify;text-decoration:none;text-decoration-line:none;text-decoration-style:solid;text-decoration-color:#000000;letter-spacing:-0.60000002px;word-spacing:6.32000017px;text-transform:none;direction:ltr;block-progression:tb;writing-mode:lr-tb;baseline-shift:baseline;text-anchor:start;white-space:normal;clip-rule:nonzero;visibility:visible;isolation:auto;mix-blend-mode:normal;color-interpolation:sRGB;color-interpolation-filters:linearRGB;solid-color:#000000;solid-opacity:1;fill:#d2d7dc;fill-opacity:1;fill-rule:nonzero;stroke:none;stroke-width:0;stroke-linecap:butt;stroke-linejoin:miter;stroke-miterlimit:4;stroke-dasharray:none;stroke-dashoffset:0;stroke-opacity:1;marker:none;color-rendering:auto;image-rendering:auto;shape-rendering:auto;text-rendering:auto"
           id="path4339"
           inkscape:connector-curvature="0" />
      </g>
      <g
         style="fill:#d2d7dc;fill-opacity:1"
         id="g4504"
         transform="translate(1094.4558,-138.56527)">
        <path
           d="m -124.53153,326.83939 8.9325,0 0,-1.845 -8.9325,0 0,-5.2425 9.27,0 0,-1.845 -11.3625,0 0,16.4025 11.7675,0 0,-1.845 -9.675,0 0,-5.625 z"
           style="color:#000000;font-style:normal;font-variant:normal;font-weight:normal;font-stretch:normal;font-size:medium;line-height:100%;font-family:'Nimbus Sans L';-inkscape-font-specification:'Nimbus Sans L';text-indent:0;text-align:justify;text-decoration:none;text-decoration-line:none;text-decoration-style:solid;text-decoration-color:#000000;letter-spacing:-0.60000002px;word-spacing:6.32000017px;text-transform:none;direction:ltr;block-progression:tb;writing-mode:lr-tb;baseline-shift:baseline;text-anchor:start;white-space:normal;clip-rule:nonzero;visibility:visible;isolation:auto;mix-blend-mode:normal;color-interpolation:sRGB;color-interpolation-filters:linearRGB;solid-color:#000000;solid-opacity:1;fill:#d2d7dc;fill-opacity:1;fill-rule:nonzero;stroke:none;stroke-width:0;stroke-linecap:butt;stroke-linejoin:miter;stroke-miterlimit:4;stroke-dasharray:none;stroke-dashoffset:0;stroke-opacity:1;marker:none;color-rendering:auto;image-rendering:auto;shape-rendering:auto;text-rendering:auto"
           id="path4341"
           inkscape:connector-curvature="0" />
        <path
           d="m -108.73839,317.90689 -1.89,0 0,16.4025 1.89,0 0,-16.4025 z"
           style="color:#000000;font-style:normal;font-variant:normal;font-weight:normal;font-stretch:normal;font-size:medium;line-height:100%;font-family:'Nimbus Sans L';-inkscape-font-specification:'Nimbus Sans L';text-indent:0;text-align:justify;text-decoration:none;text-decoration-line:none;text-decoration-style:solid;text-decoration-color:#000000;letter-spacing:-0.60000002px;word-spacing:6.32000017px;text-transform:none;direction:ltr;block-progression:tb;writing-mode:lr-tb;baseline-shift:baseline;text-anchor:start;white-space:normal;clip-rule:nonzero;visibility:visible;isolation:auto;mix-blend-mode:normal;color-interpolation:sRGB;color-interpolation-filters:linearRGB;solid-color:#000000;solid-opacity:1;fill:#d2d7dc;fill-opacity:1;fill-rule:nonzero;stroke:none;stroke-width:0;stroke-linecap:butt;stroke-linejoin:miter;stroke-miterlimit:4;stroke-dasharray:none;stroke-dashoffset:0;stroke-opacity:1;marker:none;color-rendering:auto;image-rendering:auto;shape-rendering:auto;text-rendering:auto"
           id="path4343"
           inkscape:connector-curvature="0" />
        <path
           d="m -93.86773,329.04439 c 0,-1.8 -0.135,-2.88 -0.4725,-3.7575 -0.765,-1.935 -2.565,-3.105 -4.77,-3.105 -3.285,0 -5.4,2.52 -5.4,6.39 0,3.87 2.0475,6.255 5.355,6.255 2.7,0 4.5675,-1.53 5.04,-4.095 l -1.89,0 c -0.5175,1.5525 -1.575,2.3625 -3.0825,2.3625 -1.1925,0 -2.205,-0.54 -2.835,-1.53 -0.45,-0.675 -0.6075,-1.35 -0.63,-2.52 l 8.685,0 z m -8.64,-1.53 c 0.1575,-2.1825 1.485,-3.6 3.375,-3.6 1.845,0 3.2625,1.53 3.2625,3.465 0,0.045 0,0.09 -0.0225,0.135 l -6.615,0 z"
           style="color:#000000;font-style:normal;font-variant:normal;font-weight:normal;font-stretch:normal;font-size:medium;line-height:100%;font-family:'Nimbus Sans L';-inkscape-font-specification:'Nimbus Sans L';text-indent:0;text-align:justify;text-decoration:none;text-decoration-line:none;text-decoration-style:solid;text-decoration-color:#000000;letter-spacing:-0.60000002px;word-spacing:6.32000017px;text-transform:none;direction:ltr;block-progression:tb;writing-mode:lr-tb;baseline-shift:baseline;text-anchor:start;white-space:normal;clip-rule:nonzero;visibility:visible;isolation:auto;mix-blend-mode:normal;color-interpolation:sRGB;color-interpolation-filters:linearRGB;solid-color:#000000;solid-opacity:1;fill:#d2d7dc;fill-opacity:1;fill-rule:nonzero;stroke:none;stroke-width:0;stroke-linecap:butt;stroke-linejoin:miter;stroke-miterlimit:4;stroke-dasharray:none;stroke-dashoffset:0;stroke-opacity:1;marker:none;color-rendering:auto;image-rendering:auto;shape-rendering:auto;text-rendering:auto"
           id="path4345"
           inkscape:connector-curvature="0" />
        <path
           d="m -79.73959,326.47939 c -0.09,-1.1475 -0.3375,-1.89 -0.7875,-2.5425 -0.81,-1.1025 -2.2275,-1.755 -3.87,-1.755 -3.1725,0 -5.2425,2.52 -5.2425,6.435 0,3.8025 2.025,6.21 5.22,6.21 2.8125,0 4.59,-1.6875 4.815,-4.5675 l -1.89,0 c -0.315,1.89 -1.2825,2.835 -2.88,2.835 -2.07,0 -3.3075,-1.6875 -3.3075,-4.4775 0,-2.9475 1.215,-4.7025 3.2625,-4.7025 1.575,0 2.565,0.9225 2.79,2.565 l 1.89,0 z"
           style="color:#000000;font-style:normal;font-variant:normal;font-weight:normal;font-stretch:normal;font-size:medium;line-height:100%;font-family:'Nimbus Sans L';-inkscape-font-specification:'Nimbus Sans L';text-indent:0;text-align:justify;text-decoration:none;text-decoration-line:none;text-decoration-style:solid;text-decoration-color:#000000;letter-spacing:-0.60000002px;word-spacing:6.32000017px;text-transform:none;direction:ltr;block-progression:tb;writing-mode:lr-tb;baseline-shift:baseline;text-anchor:start;white-space:normal;clip-rule:nonzero;visibility:visible;isolation:auto;mix-blend-mode:normal;color-interpolation:sRGB;color-interpolation-filters:linearRGB;solid-color:#000000;solid-opacity:1;fill:#d2d7dc;fill-opacity:1;fill-rule:nonzero;stroke:none;stroke-width:0;stroke-linecap:butt;stroke-linejoin:miter;stroke-miterlimit:4;stroke-dasharray:none;stroke-dashoffset:0;stroke-opacity:1;marker:none;color-rendering:auto;image-rendering:auto;shape-rendering:auto;text-rendering:auto"
           id="path4347"
           inkscape:connector-curvature="0" />
        <path
           d="m -69.97644,322.51939 -1.935,0 0,-3.24 -1.8675,0 0,3.24 -1.5975,0 0,1.53 1.5975,0 0,8.91 c 0,1.1925 0.81,1.8675 2.2725,1.8675 0.45,0 0.9,-0.045 1.53,-0.1575 l 0,-1.575 c -0.2475,0.0675 -0.54,0.09 -0.9,0.09 -0.81,0 -1.035,-0.225 -1.035,-1.0575 l 0,-8.0775 1.935,0 0,-1.53 z"
           style="color:#000000;font-style:normal;font-variant:normal;font-weight:normal;font-stretch:normal;font-size:medium;line-height:100%;font-family:'Nimbus Sans L';-inkscape-font-specification:'Nimbus Sans L';text-indent:0;text-align:justify;text-decoration:none;text-decoration-line:none;text-decoration-style:solid;text-decoration-color:#000000;letter-spacing:-0.60000002px;word-spacing:6.32000017px;text-transform:none;direction:ltr;block-progression:tb;writing-mode:lr-tb;baseline-shift:baseline;text-anchor:start;white-space:normal;clip-rule:nonzero;visibility:visible;isolation:auto;mix-blend-mode:normal;color-interpolation:sRGB;color-interpolation-filters:linearRGB;solid-color:#000000;solid-opacity:1;fill:#d2d7dc;fill-opacity:1;fill-rule:nonzero;stroke:none;stroke-width:0;stroke-linecap:butt;stroke-linejoin:miter;stroke-miterlimit:4;stroke-dasharray:none;stroke-dashoffset:0;stroke-opacity:1;marker:none;color-rendering:auto;image-rendering:auto;shape-rendering:auto;text-rendering:auto"
           id="path4349"
           inkscape:connector-curvature="0" />
        <path
           d="m -65.7483,322.51939 0,11.79 1.89,0 0,-6.12 c 0,-1.6875 0.4275,-2.79 1.3275,-3.4425 0.585,-0.4275 1.1475,-0.5625 2.4525,-0.585 l 0,-1.9125 c -0.315,-0.045 -0.4725,-0.0675 -0.72,-0.0675 -1.215,0 -2.1375,0.72 -3.2175,2.475 l 0,-2.1375 -1.7325,0 z"
           style="color:#000000;font-style:normal;font-variant:normal;font-weight:normal;font-stretch:normal;font-size:medium;line-height:100%;font-family:'Nimbus Sans L';-inkscape-font-specification:'Nimbus Sans L';text-indent:0;text-align:justify;text-decoration:none;text-decoration-line:none;text-decoration-style:solid;text-decoration-color:#000000;letter-spacing:-0.60000002px;word-spacing:6.32000017px;text-transform:none;direction:ltr;block-progression:tb;writing-mode:lr-tb;baseline-shift:baseline;text-anchor:start;white-space:normal;clip-rule:nonzero;visibility:visible;isolation:auto;mix-blend-mode:normal;color-interpolation:sRGB;color-interpolation-filters:linearRGB;solid-color:#000000;solid-opacity:1;fill:#d2d7dc;fill-opacity:1;fill-rule:nonzero;stroke:none;stroke-width:0;stroke-linecap:butt;stroke-linejoin:miter;stroke-miterlimit:4;stroke-dasharray:none;stroke-dashoffset:0;stroke-opacity:1;marker:none;color-rendering:auto;image-rendering:auto;shape-rendering:auto;text-rendering:auto"
           id="path4351"
           inkscape:connector-curvature="0" />
        <path
           d="m -50.540161,322.18189 c -3.307505,0 -5.310005,2.3625 -5.310005,6.3225 0,3.96 1.98,6.3225 5.332505,6.3225 3.3075,0 5.3325,-2.3625 5.3325,-6.2325 0,-4.0725 -1.9575,-6.4125 -5.355,-6.4125 z m 0.0225,1.7325 c 2.115,0 3.375,1.7325 3.375,4.6575 0,2.7675 -1.305,4.5225 -3.375,4.5225 -2.092505,0 -3.375005,-1.7325 -3.375005,-4.59 0,-2.835 1.2825,-4.59 3.375005,-4.59 z"
           style="color:#000000;font-style:normal;font-variant:normal;font-weight:normal;font-stretch:normal;font-size:medium;line-height:100%;font-family:'Nimbus Sans L';-inkscape-font-specification:'Nimbus Sans L';text-indent:0;text-align:justify;text-decoration:none;text-decoration-line:none;text-decoration-style:solid;text-decoration-color:#000000;letter-spacing:-0.60000002px;word-spacing:6.32000017px;text-transform:none;direction:ltr;block-progression:tb;writing-mode:lr-tb;baseline-shift:baseline;text-anchor:start;white-space:normal;clip-rule:nonzero;visibility:visible;isolation:auto;mix-blend-mode:normal;color-interpolation:sRGB;color-interpolation-filters:linearRGB;solid-color:#000000;solid-opacity:1;fill:#d2d7dc;fill-opacity:1;fill-rule:nonzero;stroke:none;stroke-width:0;stroke-linecap:butt;stroke-linejoin:miter;stroke-miterlimit:4;stroke-dasharray:none;stroke-dashoffset:0;stroke-opacity:1;marker:none;color-rendering:auto;image-rendering:auto;shape-rendering:auto;text-rendering:auto"
           id="path4353"
           inkscape:connector-curvature="0" />
        <path
           d="m -29.864509,333.20689 c -0.2025,0.045 -0.2925,0.045 -0.405,0.045 -0.6525,0 -1.0125,-0.3375 -1.0125,-0.9225 l 0,-6.93 c 0,-2.0925 -1.53,-3.2175 -4.4325,-3.2175 -1.71,0 -3.1275,0.495 -3.914999,1.3725 -0.54,0.6075 -0.765,1.2825 -0.81,2.4525 l 1.889999,0 c 0.1575,-1.44 1.0125,-2.0925 2.7675,-2.0925 1.6875,0 2.6325,0.63 2.6325,1.755 l 0,0.495 c 0,0.7875 -0.4725,1.125 -1.9575,1.305 -2.655,0.3375 -3.06,0.4275 -3.78,0.72 -1.372499,0.5625 -2.069999,1.62 -2.069999,3.15 0,2.1375 1.485,3.4875 3.869999,3.4875 1.485,0 2.6775,-0.5175 4.005,-1.7325 0.135,1.1925 0.72,1.7325 1.935,1.7325 0.3825,0 0.675,-0.045 1.2825,-0.2025 l 0,-1.4175 z m -3.285,-2.61 c 0,0.63 -0.18,1.0125 -0.7425,1.53 -0.765,0.6975 -1.6875,1.0575 -2.79,1.0575 -1.4625,0 -2.3175,-0.6975 -2.3175,-1.89 0,-1.2375 0.8325,-1.8675 2.835,-2.16 1.98,-0.27 2.385,-0.36 3.015,-0.6525 l 0,2.115 z"
           style="color:#000000;font-style:normal;font-variant:normal;font-weight:normal;font-stretch:normal;font-size:medium;line-height:100%;font-family:'Nimbus Sans L';-inkscape-font-specification:'Nimbus Sans L';text-indent:0;text-align:justify;text-decoration:none;text-decoration-line:none;text-decoration-style:solid;text-decoration-color:#000000;letter-spacing:-0.60000002px;word-spacing:6.32000017px;text-transform:none;direction:ltr;block-progression:tb;writing-mode:lr-tb;baseline-shift:baseline;text-anchor:start;white-space:normal;clip-rule:nonzero;visibility:visible;isolation:auto;mix-blend-mode:normal;color-interpolation:sRGB;color-interpolation-filters:linearRGB;solid-color:#000000;solid-opacity:1;fill:#d2d7dc;fill-opacity:1;fill-rule:nonzero;stroke:none;stroke-width:0;stroke-linecap:butt;stroke-linejoin:miter;stroke-miterlimit:4;stroke-dasharray:none;stroke-dashoffset:0;stroke-opacity:1;marker:none;color-rendering:auto;image-rendering:auto;shape-rendering:auto;text-rendering:auto"
           id="path4355"
           inkscape:connector-curvature="0" />
        <path
           d="m -15.73636,326.47939 c -0.09,-1.1475 -0.3375,-1.89 -0.7875,-2.5425 -0.81,-1.1025 -2.2275,-1.755 -3.87,-1.755 -3.1725,0 -5.2425,2.52 -5.2425,6.435 0,3.8025 2.025,6.21 5.22,6.21 2.8125,0 4.59,-1.6875 4.815,-4.5675 l -1.89,0 c -0.315,1.89 -1.2825,2.835 -2.88,2.835 -2.07,0 -3.3075,-1.6875 -3.3075,-4.4775 0,-2.9475 1.215,-4.7025 3.2625,-4.7025 1.575,0 2.565,0.9225 2.79,2.565 l 1.89,0 z"
           style="color:#000000;font-style:normal;font-variant:normal;font-weight:normal;font-stretch:normal;font-size:medium;line-height:100%;font-family:'Nimbus Sans L';-inkscape-font-specification:'Nimbus Sans L';text-indent:0;text-align:justify;text-decoration:none;text-decoration-line:none;text-decoration-style:solid;text-decoration-color:#000000;letter-spacing:-0.60000002px;word-spacing:6.32000017px;text-transform:none;direction:ltr;block-progression:tb;writing-mode:lr-tb;baseline-shift:baseline;text-anchor:start;white-space:normal;clip-rule:nonzero;visibility:visible;isolation:auto;mix-blend-mode:normal;color-interpolation:sRGB;color-interpolation-filters:linearRGB;solid-color:#000000;solid-opacity:1;fill:#d2d7dc;fill-opacity:1;fill-rule:nonzero;stroke:none;stroke-width:0;stroke-linecap:butt;stroke-linejoin:miter;stroke-miterlimit:4;stroke-dasharray:none;stroke-dashoffset:0;stroke-opacity:1;marker:none;color-rendering:auto;image-rendering:auto;shape-rendering:auto;text-rendering:auto"
           id="path4357"
           inkscape:connector-curvature="0" />
        <path
           d="m -1.990706,334.30939 0,-11.79 -1.8675,0 0,6.6825 c 0,2.4075 -1.26,3.9825 -3.2175,3.9825 -1.485,0 -2.43,-0.9 -2.43,-2.3175 l 0,-8.3475 -1.8675,0 0,9.09 c 0,1.9575 1.4625,3.2175 3.7575,3.2175 1.7325,0 2.835,-0.6075 3.9375,-2.16 l 0,1.6425 1.6875,0 z m -4.185,-16.65 -2.16,3.33 1.35,0 3.3525,-3.33 -2.5425,0 z"
           style="color:#000000;font-style:normal;font-variant:normal;font-weight:normal;font-stretch:normal;font-size:medium;line-height:100%;font-family:'Nimbus Sans L';-inkscape-font-specification:'Nimbus Sans L';text-indent:0;text-align:justify;text-decoration:none;text-decoration-line:none;text-decoration-style:solid;text-decoration-color:#000000;letter-spacing:-0.60000002px;word-spacing:6.32000017px;text-transform:none;direction:ltr;block-progression:tb;writing-mode:lr-tb;baseline-shift:baseline;text-anchor:start;white-space:normal;clip-rule:nonzero;visibility:visible;isolation:auto;mix-blend-mode:normal;color-interpolation:sRGB;color-interpolation-filters:linearRGB;solid-color:#000000;solid-opacity:1;fill:#d2d7dc;fill-opacity:1;fill-rule:nonzero;stroke:none;stroke-width:0;stroke-linecap:butt;stroke-linejoin:miter;stroke-miterlimit:4;stroke-dasharray:none;stroke-dashoffset:0;stroke-opacity:1;marker:none;color-rendering:auto;image-rendering:auto;shape-rendering:auto;text-rendering:auto"
           id="path4359"
           inkscape:connector-curvature="0" />
        <path
           d="m 11.32745,325.80439 c -0.0225,-2.3175 -1.5525,-3.6225 -4.275,-3.6225 -2.745,0 -4.5225,1.4175 -4.5225,3.6 0,1.845 0.945,2.7225 3.735,3.3975 l 1.755,0.4275 c 1.305,0.315 1.8225,0.7875 1.8225,1.6425 0,1.1025 -1.1025,1.845 -2.745,1.845 -1.0125,0 -1.8675,-0.2925 -2.34,-0.7875 -0.2925,-0.3375 -0.4275,-0.675 -0.54,-1.5075 l -1.98,0 c 0.09,2.7225 1.62,4.0275 4.7025,4.0275 2.97,0 4.86,-1.4625 4.86,-3.735 0,-1.755 -0.99,-2.7225 -3.33,-3.285 l -1.8,-0.4275 c -1.53,-0.36 -2.1825,-0.855 -2.1825,-1.6875 0,-1.08 0.9675,-1.7775 2.4975,-1.7775 1.5075,0 2.3175,0.6525 2.3625,1.89 l 1.98,0 z"
           style="color:#000000;font-style:normal;font-variant:normal;font-weight:normal;font-stretch:normal;font-size:medium;line-height:100%;font-family:'Nimbus Sans L';-inkscape-font-specification:'Nimbus Sans L';text-indent:0;text-align:justify;text-decoration:none;text-decoration-line:none;text-decoration-style:solid;text-decoration-color:#000000;letter-spacing:-0.60000002px;word-spacing:6.32000017px;text-transform:none;direction:ltr;block-progression:tb;writing-mode:lr-tb;baseline-shift:baseline;text-anchor:start;white-space:normal;clip-rule:nonzero;visibility:visible;isolation:auto;mix-blend-mode:normal;color-interpolation:sRGB;color-interpolation-filters:linearRGB;solid-color:#000000;solid-opacity:1;fill:#d2d7dc;fill-opacity:1;fill-rule:nonzero;stroke:none;stroke-width:0;stroke-linecap:butt;stroke-linejoin:miter;stroke-miterlimit:4;stroke-dasharray:none;stroke-dashoffset:0;stroke-opacity:1;marker:none;color-rendering:auto;image-rendering:auto;shape-rendering:auto;text-rendering:auto"
           id="path4361"
           inkscape:connector-curvature="0" />
        <path
           d="m 21.4281,322.51939 -1.935,0 0,-3.24 -1.8675,0 0,3.24 -1.5975,0 0,1.53 1.5975,0 0,8.91 c 0,1.1925 0.81,1.8675 2.2725,1.8675 0.45,0 0.9,-0.045 1.53,-0.1575 l 0,-1.575 c -0.2475,0.0675 -0.54,0.09 -0.9,0.09 -0.81,0 -1.035,-0.225 -1.035,-1.0575 l 0,-8.0775 1.935,0 0,-1.53 z"
           style="color:#000000;font-style:normal;font-variant:normal;font-weight:normal;font-stretch:normal;font-size:medium;line-height:100%;font-family:'Nimbus Sans L';-inkscape-font-specification:'Nimbus Sans L';text-indent:0;text-align:justify;text-decoration:none;text-decoration-line:none;text-decoration-style:solid;text-decoration-color:#000000;letter-spacing:-0.60000002px;word-spacing:6.32000017px;text-transform:none;direction:ltr;block-progression:tb;writing-mode:lr-tb;baseline-shift:baseline;text-anchor:start;white-space:normal;clip-rule:nonzero;visibility:visible;isolation:auto;mix-blend-mode:normal;color-interpolation:sRGB;color-interpolation-filters:linearRGB;solid-color:#000000;solid-opacity:1;fill:#d2d7dc;fill-opacity:1;fill-rule:nonzero;stroke:none;stroke-width:0;stroke-linecap:butt;stroke-linejoin:miter;stroke-miterlimit:4;stroke-dasharray:none;stroke-dashoffset:0;stroke-opacity:1;marker:none;color-rendering:auto;image-rendering:auto;shape-rendering:auto;text-rendering:auto"
           id="path4363"
           inkscape:connector-curvature="0" />
        <path
           d="m 27.546243,322.51939 -1.8675,0 0,11.79 1.8675,0 0,-11.79 z m 0,-4.6125 -1.89,0 0,2.3625 1.89,0 0,-2.3625 z"
           style="color:#000000;font-style:normal;font-variant:normal;font-weight:normal;font-stretch:normal;font-size:medium;line-height:100%;font-family:'Nimbus Sans L';-inkscape-font-specification:'Nimbus Sans L';text-indent:0;text-align:justify;text-decoration:none;text-decoration-line:none;text-decoration-style:solid;text-decoration-color:#000000;letter-spacing:-0.60000002px;word-spacing:6.32000017px;text-transform:none;direction:ltr;block-progression:tb;writing-mode:lr-tb;baseline-shift:baseline;text-anchor:start;white-space:normal;clip-rule:nonzero;visibility:visible;isolation:auto;mix-blend-mode:normal;color-interpolation:sRGB;color-interpolation-filters:linearRGB;solid-color:#000000;solid-opacity:1;fill:#d2d7dc;fill-opacity:1;fill-rule:nonzero;stroke:none;stroke-width:0;stroke-linecap:butt;stroke-linejoin:miter;stroke-miterlimit:4;stroke-dasharray:none;stroke-dashoffset:0;stroke-opacity:1;marker:none;color-rendering:auto;image-rendering:auto;shape-rendering:auto;text-rendering:auto"
           id="path4365"
           inkscape:connector-curvature="0" />
        <path
           d="m 41.674377,326.47939 c -0.09,-1.1475 -0.3375,-1.89 -0.7875,-2.5425 -0.81,-1.1025 -2.2275,-1.755 -3.87,-1.755 -3.172501,0 -5.242501,2.52 -5.242501,6.435 0,3.8025 2.025,6.21 5.220001,6.21 2.8125,0 4.59,-1.6875 4.815,-4.5675 l -1.89,0 c -0.315,1.89 -1.2825,2.835 -2.88,2.835 -2.070001,0 -3.307501,-1.6875 -3.307501,-4.4775 0,-2.9475 1.215001,-4.7025 3.262501,-4.7025 1.575,0 2.565,0.9225 2.79,2.565 l 1.89,0 z"
           style="color:#000000;font-style:normal;font-variant:normal;font-weight:normal;font-stretch:normal;font-size:medium;line-height:100%;font-family:'Nimbus Sans L';-inkscape-font-specification:'Nimbus Sans L';text-indent:0;text-align:justify;text-decoration:none;text-decoration-line:none;text-decoration-style:solid;text-decoration-color:#000000;letter-spacing:-0.60000002px;word-spacing:6.32000017px;text-transform:none;direction:ltr;block-progression:tb;writing-mode:lr-tb;baseline-shift:baseline;text-anchor:start;white-space:normal;clip-rule:nonzero;visibility:visible;isolation:auto;mix-blend-mode:normal;color-interpolation:sRGB;color-interpolation-filters:linearRGB;solid-color:#000000;solid-opacity:1;fill:#d2d7dc;fill-opacity:1;fill-rule:nonzero;stroke:none;stroke-width:0;stroke-linecap:butt;stroke-linejoin:miter;stroke-miterlimit:4;stroke-dasharray:none;stroke-dashoffset:0;stroke-opacity:1;marker:none;color-rendering:auto;image-rendering:auto;shape-rendering:auto;text-rendering:auto"
           id="path4367"
           inkscape:connector-curvature="0" />
        <path
           d="m 57.13003,333.20689 c -0.2025,0.045 -0.2925,0.045 -0.405,0.045 -0.6525,0 -1.0125,-0.3375 -1.0125,-0.9225 l 0,-6.93 c 0,-2.0925 -1.53,-3.2175 -4.4325,-3.2175 -1.71,0 -3.1275,0.495 -3.915,1.3725 -0.54,0.6075 -0.765,1.2825 -0.81,2.4525 l 1.89,0 c 0.1575,-1.44 1.0125,-2.0925 2.7675,-2.0925 1.6875,0 2.6325,0.63 2.6325,1.755 l 0,0.495 c 0,0.7875 -0.4725,1.125 -1.9575,1.305 -2.655,0.3375 -3.06,0.4275 -3.78,0.72 -1.3725,0.5625 -2.07,1.62 -2.07,3.15 0,2.1375 1.485,3.4875 3.87,3.4875 1.485,0 2.6775,-0.5175 4.005,-1.7325 0.135,1.1925 0.72,1.7325 1.935,1.7325 0.3825,0 0.675,-0.045 1.2825,-0.2025 l 0,-1.4175 z m -3.285,-2.61 c 0,0.63 -0.18,1.0125 -0.7425,1.53 -0.765,0.6975 -1.6875,1.0575 -2.79,1.0575 -1.4625,0 -2.3175,-0.6975 -2.3175,-1.89 0,-1.2375 0.8325,-1.8675 2.835,-2.16 1.98,-0.27 2.385,-0.36 3.015,-0.6525 l 0,2.115 z"
           style="color:#000000;font-style:normal;font-variant:normal;font-weight:normal;font-stretch:normal;font-size:medium;line-height:100%;font-family:'Nimbus Sans L';-inkscape-font-specification:'Nimbus Sans L';text-indent:0;text-align:justify;text-decoration:none;text-decoration-line:none;text-decoration-style:solid;text-decoration-color:#000000;letter-spacing:-0.60000002px;word-spacing:6.32000017px;text-transform:none;direction:ltr;block-progression:tb;writing-mode:lr-tb;baseline-shift:baseline;text-anchor:start;white-space:normal;clip-rule:nonzero;visibility:visible;isolation:auto;mix-blend-mode:normal;color-interpolation:sRGB;color-interpolation-filters:linearRGB;solid-color:#000000;solid-opacity:1;fill:#d2d7dc;fill-opacity:1;fill-rule:nonzero;stroke:none;stroke-width:0;stroke-linecap:butt;stroke-linejoin:miter;stroke-miterlimit:4;stroke-dasharray:none;stroke-dashoffset:0;stroke-opacity:1;marker:none;color-rendering:auto;image-rendering:auto;shape-rendering:auto;text-rendering:auto"
           id="path4369"
           inkscape:connector-curvature="0" />
      </g>
    </g>
  </g>
</svg>
