<?xml version="1.0" encoding="UTF-8" standalone="no"?>
<svg
   xmlns:dc="http://purl.org/dc/elements/1.1/"
   xmlns:cc="http://creativecommons.org/ns#"
   xmlns:rdf="http://www.w3.org/1999/02/22-rdf-syntax-ns#"
   xmlns:svg="http://www.w3.org/2000/svg"
   xmlns="http://www.w3.org/2000/svg"
   xmlns:sodipodi="http://sodipodi.sourceforge.net/DTD/sodipodi-0.dtd"
   xmlns:inkscape="http://www.inkscape.org/namespaces/inkscape"
   width="510.23441pt"
   height="295.79297pt"
   viewBox="0 0 510.2344 295.79295"
   version="1.1"
   id="svg115"
   sodipodi:docname="logo_presidencia.svg"
   inkscape:version="0.92.1 r">
  <metadata
     id="metadata121">
    <rdf:RDF>
      <cc:Work
         rdf:about="">
        <dc:format>image/svg+xml</dc:format>
        <dc:type
           rdf:resource="http://purl.org/dc/dcmitype/StillImage" />
        <dc:title></dc:title>
      </cc:Work>
    </rdf:RDF>
  </metadata>
  <defs
     id="defs119" />
  <sodipodi:namedview
     pagecolor="#ffffff"
     bordercolor="#666666"
     borderopacity="1"
     objecttolerance="10"
     gridtolerance="10"
     guidetolerance="10"
     inkscape:pageopacity="0"
     inkscape:pageshadow="2"
     inkscape:window-width="1521"
     inkscape:window-height="758"
     id="namedview117"
     showgrid="false"
     fit-margin-top="0"
     fit-margin-left="0"
     fit-margin-right="0"
     fit-margin-bottom="0"
     inkscape:zoom="0.29733905"
     inkscape:cx="341.92667"
     inkscape:cy="84.516461"
     inkscape:window-x="0"
     inkscape:window-y="0"
     inkscape:window-maximized="0"
     inkscape:current-layer="svg115" />
  <g
     id="surface1"
     transform="translate(-164.5,-65.234375)">
    <path
       style="fill:#f8b00a;fill-opacity:1;fill-rule:nonzero;stroke:none"
       d="m 507.52344,219.88281 c 2.95703,2.71875 6.89843,6.42578 9.82031,9.69531 -29.17969,-2.85546 -91.91797,-4.38281 -91.91797,-4.38281 -31.76172,0 -62.50781,1.54297 -91.69531,4.40235 2.92187,-3.26954 6.73047,-7.12891 9.82812,-9.69532 4.20313,-3.54687 11.97266,-7.20703 15.78907,-8.90234 l -62.23829,-10.02734 -6.5664,-1.16797 6.23437,-1.08985 61.55469,-11.74218 c -1.82031,-1.73829 -6.21484,-5.82422 -9.13281,-7.46485 -3.99219,-2.23047 -9.99219,-5.35937 -16.10938,-6.75 -5.43359,-1.23437 -9.29687,-2.34765 -12.1914,-3.51953 -3.34766,-1.48437 -6.44922,-3.82031 -8.35547,-6.30078 -1.10156,-1.58984 -3.11328,-5.26953 -4.60938,-8.63672 -1.85156,-3.44922 -2.75,-7.87891 -2.75,-7.87891 0.54688,0.4336 2.05078,1.875 2.05078,1.875 0.043,0.043 3.80469,3.74219 5.42188,4.98047 l 0.63281,0.49219 c 1.60547,1.27734 3.8125,3.03516 8.28125,3.92578 2.35938,0.4336 9.21094,0.17188 13.31641,-0.32812 4.44531,-0.53516 12.65234,-0.78516 18.16015,-0.26953 5.54688,0.46875 13.77735,3.44531 17.60157,4.92968 l -36.64453,-52.33203 -3.81641,-5.46484 5.17578,3.62891 50.49219,35.3164 c -0.0625,-2.60547 -0.28906,-8.40625 -1.1836,-11.57031 -1.23828,-4.40234 -3.26953,-10.85938 -6.60937,-16.16016 -2.96875,-4.71875 -4.91797,-8.23828 -6.13281,-11.11718 -1.32032,-3.41016 -1.875,-7.261724 -1.46094,-10.363286 0.35156,-1.90625 1.53516,-5.925782 2.84766,-9.371094 1.13281,-3.742188 3.6289,-7.515625 3.6289,-7.515625 0.082,0.691406 0.125,2.777344 0.125,2.777344 0,0.05859 0.043,5.34375 0.3125,7.359375 l 0.10547,0.796875 c 0.22656,2.042969 0.55078,4.84375 3.07031,8.636719 1.36328,1.964843 6.39063,6.625002 9.64844,9.179692 3.52344,2.76562 9.51172,8.39062 13.03125,12.64843 3.99609,4.73047 8.14063,13.98828 9.44141,17.01563 l 11.26172,-63.71094 1.17578,-6.546875 1.08203,6.210937 10.74219,61.003908 c 1.96875,-2.09766 5.26953,-5.78125 6.69921,-8.33203 2.23829,-3.99219 5.3711,-10 6.75391,-16.11328 1.23828,-5.4336 2.35547,-9.292972 3.52734,-12.187504 1.48829,-3.347656 3.82032,-6.457031 6.29688,-8.355468 1.60156,-1.109376 5.28125,-3.117188 8.63672,-4.617188 3.44922,-1.851562 7.8789,-2.753906 7.8789,-2.753906 -0.43359,0.550781 -1.87109,2.0625 -1.87109,2.0625 -0.0469,0.03516 -3.75,3.796875 -4.97266,5.417968 l -0.5039,0.636719 c -1.27344,1.609375 -3.03516,3.8125 -3.92578,8.28125 -0.42969,2.355469 -0.17188,9.207029 0.33203,13.312499 0.52734,4.44922 0.78515,12.65625 0.2539,18.16016 -0.47265,5.74609 -3.64062,14.35937 -5.05859,17.98828 l 53.30469,-37.32422 5.46875,-3.82031 -3.63672,5.17969 -35.54297,50.76953 c 2.8125,-0.082 8.02734,-0.33985 10.96484,-1.16407 4.40625,-1.24609 10.86719,-3.27734 16.17188,-6.61718 4.71875,-2.96485 8.23047,-4.91016 11.11719,-6.125 3.40625,-1.32032 7.2539,-1.875 10.35547,-1.46094 1.90625,0.35156 5.92578,1.53515 9.375,2.84765 3.75,1.12891 7.50781,3.625 7.50781,3.625 -0.6836,0.082 -2.77735,0.12891 -2.77735,0.12891 -0.0586,0 -5.33984,0.043 -7.35156,0.3125 l -0.79687,0.0977 c -2.04688,0.23437 -4.84766,0.55859 -8.63672,3.08203 -1.96875,1.35937 -6.63672,6.39453 -9.1836,9.64453 -2.75781,3.51953 -8.38671,9.50391 -12.64453,13.03125 -4.42187,3.73047 -12.80859,7.59766 -16.35547,9.15234 l 63.83985,11.23047 6.5664,1.27344 -6.23437,0.98828 -59.96094,10.55859 c 0,0 10.69922,4.59375 14.98438,8.52344"
       id="path2"
       inkscape:connector-curvature="0" />
    <path
       style="fill:#c57f0a;fill-opacity:1;fill-rule:nonzero;stroke:none"
       d="m 525.27344,153.64844 c -2.35547,1.625 -7.30078,7.07422 -9.67969,10.11718 -2.69141,3.4336 -8.17578,9.25782 -12.33203,12.69922 -4.59766,3.88282 -15.66016,8.86328 -18.67578,10.17969 l -16.67188,-2.92969 c 6.72266,-2.24218 19.44531,-7.41015 24.05469,-9.78125 5.65234,-2.91797 16.24219,-10.11718 28.33594,-19.2539 4.48047,-3.38672 9.63281,-4.38672 14.10156,-4.42188 -2.13672,0.26172 -5.18359,0.76172 -9.13281,3.39063"
       id="path4"
       inkscape:connector-curvature="0" />
    <path
       style="fill:#c57f0a;fill-opacity:1;fill-rule:nonzero;stroke:none"
       d="m 463.42187,181.51953 c -1.96484,-4.16016 -4.57812,-7.95312 -7.71093,-11.26172 l 51.90234,-51.89453 z m 0,0"
       id="path6"
       inkscape:connector-curvature="0" />
    <path
       style="fill:#c57f0a;fill-opacity:1;fill-rule:nonzero;stroke:none"
       d="m 463.29297,96.066406 c -0.52344,2.824219 -0.16016,10.171874 0.30859,14.000004 0.51172,4.33593 0.77344,12.32812 0.25781,17.69922 -0.5039,5.96874 -4.76562,17.24218 -5.99218,20.36718 l -13.83985,9.69141 c 3.16407,-6.35547 8.47657,-18.9375 10.05469,-23.8711 1.9375,-6.05078 4.33594,-18.63281 6.42578,-33.64453 0.76172,-5.554684 3.71485,-9.906246 6.85156,-13.085934 -1.33203,1.6875 -3.13671,4.199219 -4.0664,8.84375"
       id="path8"
       inkscape:connector-curvature="0" />
    <path
       style="fill:#c57f0a;fill-opacity:1;fill-rule:nonzero;stroke:none"
       d="m 438.66406,158.57812 c -4.20312,-1.58984 -8.71484,-2.55468 -13.42578,-2.76953 V 81.730469 Z m 0,0"
       id="path10"
       inkscape:connector-curvature="0" />
    <path
       style="fill:#c57f0a;fill-opacity:1;fill-rule:nonzero;stroke:none"
       d="m 378.73437,97.882812 c 1.625,2.355468 7.07032,7.300778 10.11329,9.679688 3.42578,2.69531 9.26171,8.17188 12.69921,12.32813 4.29297,5.08593 9.91797,18.05859 10.46875,19.34765 l -2.96484,16.78125 c -2.27344,-6.87109 -7.64453,-20.19141 -10.03906,-24.83203 -2.91406,-5.65625 -10.11719,-16.24609 -19.25,-28.33984 -3.37891,-4.47266 -4.37891,-9.62891 -4.40625,-14.093754 0.25,2.132813 0.75,5.1875 3.3789,9.128906"
       id="path12"
       inkscape:connector-curvature="0" />
    <path
       style="fill:#c57f0a;fill-opacity:1;fill-rule:nonzero;stroke:none"
       d="m 406.50781,160.32812 c -4.19922,1.86329 -8.05078,4.35938 -11.42578,7.38672 L 343.75,116.375 Z m 0,0"
       id="path14"
       inkscape:connector-curvature="0" />
    <path
       style="fill:#c57f0a;fill-opacity:1;fill-rule:nonzero;stroke:none"
       d="m 312.30469,155.80859 c 1.6875,1.32422 4.20703,3.12891 8.85156,4.05469 2.82031,0.51563 10.16406,0.16406 13.99609,-0.30469 4.33203,-0.51562 12.32422,-0.76562 17.69141,-0.25781 5.75,0.48828 16.40234,4.45313 19.98437,5.83594 l 9.65625,13.78906 c -6.47265,-3.19141 -18.62109,-8.30469 -23.4375,-9.84375 -6.0625,-1.94141 -18.64062,-4.34375 -33.65625,-6.42969 -5.55078,-0.76953 -9.90625,-3.71484 -13.08593,-6.84375"
       id="path16"
       inkscape:connector-curvature="0" />
    <path
       style="fill:#c57f0a;fill-opacity:1;fill-rule:nonzero;stroke:none"
       d="m 383.40625,185.61328 c -1.55078,4.11328 -2.60156,9.44141 -2.82813,14.04688 h -72.71484 z m 0,0"
       id="path18"
       inkscape:connector-curvature="0" />
    <path
       style="fill:#c57f0a;fill-opacity:1;fill-rule:nonzero;stroke:none"
       d="m 465.71875,213.11719 c 1.40625,-4.17969 2.20312,-8.62891 2.26562,-13.26563 h 73.84766 z m 0,0"
       id="path20"
       inkscape:connector-curvature="0" />
    <path
       style="fill:#c57f0a;fill-opacity:1;fill-rule:nonzero;stroke:none"
       d="m 418.5,194.22266 h 0.0195 c 0,0 -0.0117,-0.0117 -0.0234,-0.0312 -0.11718,-0.57813 -1.92968,-9.10547 -10.54297,-9.02735 -8.90234,0.0742 -13.17578,7.1875 -13.17578,7.1875 0,0 5.17188,-4.43359 12.95703,-4.26953 0.6211,0.0117 1.20313,0.082 1.77344,0.17578 0.1211,0.48047 0.27344,1.16016 0.375,1.91406 -5.6289,-0.23828 -9.48828,3.82813 -9.48828,3.82813 0,0 1.66016,-0.71484 5.53906,-0.86719 -0.0469,0.20313 -0.0703,0.42188 -0.0703,0.64453 0,1.27735 0.75,2.37891 1.85938,2.97266 -1.01563,-0.10156 -2.15235,-0.28516 -3.4375,-0.58203 0,0 5.16796,4.26953 9.96093,-0.14844 0,0 -0.91406,0.57422 -2.98828,0.77344 1.14844,-0.57813 1.94141,-1.70313 1.94141,-3.01563 0,-0.12109 -0.0234,-0.22656 -0.0352,-0.33593 1.60938,0.17187 3.36719,0.42187 5.33594,0.78125 m -10.55078,-1.57032 c -0.28906,0.75 -0.0937,1.94532 -0.0937,1.94532 -0.44531,0.0156 -0.87891,-0.14844 -0.87891,-0.14844 -0.37109,-0.71875 -0.12109,-1.71094 -0.12109,-1.71094 z m 0,0"
       id="path22"
       inkscape:connector-curvature="0" />
    <path
       style="fill:#c57f0a;fill-opacity:1;fill-rule:nonzero;stroke:none"
       d="m 435.95703,192.65234 c -0.29297,0.75 -0.10156,1.94532 -0.10156,1.94532 -0.4375,0.0156 -0.87891,-0.14844 -0.87891,-0.14844 -0.37109,-0.71875 -0.12109,-1.71094 -0.12109,-1.71094 z m -5.9375,-0.008 c 1.42578,-1.91016 4.85547,-4.47266 9.28516,-4.5625 0.23828,-0.008 0.46093,0.004 0.70703,0.0117 0.21484,0.40234 0.59765,1.3125 0.55078,2.45312 -1.10156,-0.29296 -2.33203,-0.45703 -3.66016,-0.36718 -3.30859,0.21484 -5.58593,1.51172 -6.91797,2.58203 0.008,-0.0391 0.0274,-0.0742 0.0352,-0.11719 m 16.59375,1.33203 c -0.0625,-0.24219 -1.35156,-4.55469 -4.90234,-5.78906 6.42187,0.63672 10.54687,4.16406 10.54687,4.16406 0,0 -4.26953,-7.11328 -13.18359,-7.1875 -3.87891,-0.0352 -6.3711,1.67578 -7.96485,3.61328 -0.51171,0.51953 -4.12109,4.54688 -3.14453,15.23438 0,0 1.4336,3.01562 -0.82422,4.34765 -2.30859,1.36719 -5.28906,-0.35546 -5.41406,-1.22656 0,0 -4.05078,0.47266 -4.38672,-1.1914 0,0 -1,3.67578 3.51172,3.4375 0,0 1.2461,2.12109 4.23828,1.98828 3.00391,-0.1211 5.25,-2.4961 5.25,-2.4961 0,0 5.35938,2 4.98438,-2.86328 0,0 -1.6211,2.4961 -4.61328,0.875 0,0 0.53125,-1.07422 -1.125,-4.60937 -1.05469,-2.25782 -0.63672,-5.41016 0.0625,-8.23828 1.52343,-0.25782 2.92187,-0.45704 4.21875,-0.59375 -0.0156,0.10937 -0.043,0.21484 -0.043,0.33593 0,1.30469 0.79687,2.4375 1.94531,3.01563 -2.07422,-0.19922 -2.98828,-0.77344 -2.98828,-0.77344 4.79297,4.41797 9.95703,0.14844 9.95703,0.14844 -1.27344,0.29687 -2.41016,0.48047 -3.41797,0.58594 1.10156,-0.60157 1.85156,-1.69922 1.85156,-2.97657 0,-0.22656 -0.0234,-0.4414 -0.0703,-0.64453 3.04297,0.1211 4.71875,0.58594 5.3086,0.77735 l 0.21091,0.09 v -0.008 l 0.0195,0.008 c 0,0 -0.0195,-0.0195 -0.0273,-0.0234"
       id="path24"
       inkscape:connector-curvature="0" />
    <path
       style="fill:#c57f0a;fill-opacity:1;fill-rule:nonzero;stroke:none"
       d="m 461.63281,198.66797 c 0,10.41015 -4.19531,19.85156 -11.02734,26.86328 2.09765,0.0547 4.1914,0.10937 6.28125,0.17578 5.47265,-6.90234 8.7539,-15.64453 8.7539,-25.16406 0,-21.14063 -16.15234,-38.48047 -36.75,-40.29297 18.64454,3.4375 32.74219,19.32422 32.74219,38.41797"
       id="path26"
       inkscape:connector-curvature="0" />
    <path
       style="fill:#c57f0a;fill-opacity:1;fill-rule:nonzero;stroke:none"
       d="m 349.39062,228.20312 c 2.72657,-1.74609 5.0625,-3.13281 6.88672,-4.0664 4.45313,-2.30078 16.4961,-7.21094 23.35938,-9.55469 l -16.54688,-2.91797 c -3.64453,1.60938 -13.76172,6.26172 -18.10937,9.9336 -2.47656,2.04687 -5.42188,4.9414 -7.96485,7.67187 4.09375,-0.37891 8.22657,-0.73047 12.375,-1.06641"
       id="path28"
       inkscape:connector-curvature="0" />
    <path
       style="fill:#c57f0a;fill-opacity:1;fill-rule:nonzero;stroke:none"
       d="m 389.125,225.86719 c -1.66797,-2.2461 -3.12891,-4.64844 -4.34375,-7.20313 l -5.32031,7.61719 c 3.20703,-0.15234 6.42968,-0.28906 9.66406,-0.41406"
       id="path30"
       inkscape:connector-curvature="0" />
    <path
       style="fill:#c57f0a;fill-opacity:1;fill-rule:nonzero;stroke:none"
       d="m 502.03125,228.20312 c -2.72656,-1.74609 -5.0625,-3.13281 -6.88672,-4.0664 -4.45312,-2.30078 -16.5,-7.21094 -23.35156,-9.55469 l 16.53906,-2.91797 c 3.64844,1.60938 13.76563,6.26172 18.11328,9.9336 2.47266,2.04687 5.41797,4.9414 7.96875,7.67187 -4.09765,-0.37891 -8.23047,-0.73047 -12.38281,-1.06641"
       id="path32"
       inkscape:connector-curvature="0" />
    <path
       style="fill:#c57f0a;fill-opacity:1;fill-rule:nonzero;stroke:none"
       d="m 462.30078,225.86719 c 1.66016,-2.2461 3.12891,-4.64844 4.34766,-7.20313 l 5.32031,7.61719 c -3.21484,-0.15234 -6.4375,-0.28906 -9.66797,-0.41406"
       id="path34"
       inkscape:connector-curvature="0" />
    <path
       style="fill:#c57f0a;fill-opacity:1;fill-rule:nonzero;stroke:none"
       d="m 429.26172,217.78516 c 0.17969,0.68359 0.26172,1.71875 -0.44531,2.55859 -1.69532,0.14453 -2.97266,0.15625 -3.55079,0.14844 v -0.004 c 0,0 -0.0625,0 -0.16796,0.004 -0.10547,-0.004 -0.16016,-0.004 -0.16016,-0.004 v 0.004 c -0.85938,0.0117 -3.25391,-0.0195 -6.28125,-0.48047 -2.25,-0.33985 -2.57031,-0.23438 -2.58203,0.33203 -0.0117,0.85156 2.26172,1.86328 4.91406,2.33984 -1.49609,0.66407 -2.62891,1.65235 -2.61719,2.51172 v 0.0312 c 1.3086,-0.008 2.61719,-0.0117 3.92578,-0.0156 1.32032,-0.19532 2.31641,-0.21094 2.75782,-0.20703 v 0.004 c 0,0 0.0547,-0.004 0.13281,-0.004 0.0781,0 0.125,0.004 0.125,0.004 v -0.004 c 0.44531,-0.004 1.43359,0.0117 2.75391,0.20703 1.3164,0.004 2.63281,0.008 3.9414,0.0156 v -0.0312 c 0.008,-0.87109 -1.14453,-1.875 -2.66406,-2.53125 2.15625,-0.40625 4.04297,-1.16015 4.61328,-1.89062 1.57813,-0.97266 3.45313,-2.71875 5.61719,-5.70313 0,0 -10.03516,-0.70312 -28.94141,0.10938 0,0 4,2.78125 13.35938,2.89453 1.89062,0.0195 3.65234,-0.0977 5.26953,-0.28906"
       id="path36"
       inkscape:connector-curvature="0" />
    <path
       style="fill:#1175c5;fill-opacity:1;fill-rule:nonzero;stroke:none"
       d="m 419.60937,235.33984 c 87.63672,0 172.99219,9.64844 255.125,27.89453 C 594.1875,237.97656 508.5,224.34766 419.60937,224.34766 c -88.875,0 -174.5664,13.6289 -255.10937,38.88671 82.125,-18.24609 167.49219,-27.89453 255.10937,-27.89453"
       id="path38"
       inkscape:connector-curvature="0" />
    <path
       style="fill:#545151;fill-opacity:1;fill-rule:nonzero;stroke:none"
       d="m 294.4375,288.94531 c 0,-5.85156 -2.53516,-8.77344 -7.60547,-8.77344 -1.34766,0 -2.26953,0.1875 -2.75781,0.5586 -0.49219,0.36328 -0.73438,1.01953 -0.73438,1.95703 v 15.57422 c 3.91797,0.043 6.75,-0.67578 8.4961,-2.13672 1.72656,-1.47266 2.60156,-3.86719 2.60156,-7.17969 m 12.69141,30.71485 c 0,1.71484 -1.4336,2.57421 -4.29297,2.57421 -3.1836,0 -5.6836,-1.32421 -7.48438,-3.98437 -0.76953,-1.14453 -1.27734,-2.24609 -1.49609,-3.30469 -0.23047,-1.07422 -0.56641,-3.76172 -1.01172,-8.10156 -0.25,-2.60547 -1.08594,-4.46484 -2.51953,-5.54688 -1.42578,-1.07812 -3.75781,-1.65625 -6.98438,-1.74609 v 19.3125 c 0,0.82031 0.64844,1.33594 1.95703,1.53516 0.3711,0.043 1.30469,0.0859 2.82422,0.12109 0.52735,0 0.79297,0.16406 0.79297,0.49609 0,0.35938 -0.34375,0.54688 -1.03906,0.54688 h -14.41016 c -0.90234,0 -1.35156,-0.1875 -1.35156,-0.54688 0,-0.28906 0.59375,-0.45312 1.78125,-0.49609 1.91797,-0.0352 2.95703,-0.28516 3.12109,-0.73047 0.16797,-0.21484 0.25,-1.00781 0.25,-2.39844 v -33.84375 c 0,-1.63671 -0.17578,-2.61328 -0.52343,-2.9414 -0.34375,-0.32813 -1.39844,-0.51172 -3.15625,-0.55469 -1.02344,0 -1.53125,-0.1875 -1.53125,-0.55078 0,-0.40625 0.32422,-0.60938 0.97656,-0.60938 0.12891,0 0.3125,0.0234 0.55469,0.0625 l 8.15625,0.1836 c 0.82031,0 1.96093,-0.0312 3.43359,-0.0859 1.63672,-0.0977 2.78125,-0.16016 3.4375,-0.16016 3.79688,0 6.8125,0.83985 9.03906,2.54688 2.23047,1.69141 3.35157,3.98828 3.35157,6.89062 0,2.8711 -1.15235,5.22657 -3.44141,7.08204 -2.28906,1.86328 -5.39844,2.95703 -9.32422,3.28515 -0.36328,0.0469 -0.56641,0.10156 -0.61328,0.1836 0,0.15625 0.20703,0.24609 0.61328,0.24609 4.29297,0.73437 7.25,2.24219 8.86719,4.51562 1.61328,2.27344 2.6875,6.38282 3.21875,12.32813 0.32422,3.35547 1.47265,5.04687 3.42969,5.04687 0.61328,0 0.91796,-0.1289 0.91796,-0.37109 0,-0.043 -0.0195,-0.082 -0.0586,-0.125 -0.20312,-0.44531 -0.30078,-0.81641 -0.30078,-1.10547 0,-0.85937 0.44531,-1.28125 1.34375,-1.28125 0.98437,0 1.47266,0.50391 1.47266,1.52735 m -43.23046,-30.4727 c 0,-6.16797 -2.57813,-9.26563 -7.72657,-9.26563 -1.71484,0 -2.84375,0.29297 -3.37109,0.875 -0.24609,0.24219 -0.36719,0.87891 -0.36719,1.91407 V 299.125 c 0.32422,0.0391 0.69141,0.0586 1.09766,0.0586 2.70312,0 4.99219,-0.59765 6.87109,-1.78515 2.33203,-1.48438 3.4961,-4.21875 3.4961,-8.21094 m 6.4375,-0.0547 c 0,3.96094 -1.69532,7.04297 -5.08985,9.25391 -2.125,1.39062 -4.82031,2.07812 -8.09375,2.07812 -1.38672,0 -2.96093,-0.13672 -4.71875,-0.42187 v 17.41406 c 0,0.94141 0.0352,1.53125 0.1211,1.77734 0.20312,0.57032 0.65234,0.92188 1.34765,1.03516 1.1836,0.17188 2.33203,0.25 3.4336,0.25 0.45312,0 0.67578,0.14844 0.67578,0.43359 0,0.41016 -0.28906,0.60938 -0.85938,0.60938 h -14.10547 c -1.22265,0 -1.83593,-0.19922 -1.83593,-0.60938 0,-0.28515 0.42578,-0.43359 1.28515,-0.43359 1.92188,0 3.02735,-0.18359 3.3125,-0.55078 0.32813,-0.16406 0.51172,-0.57813 0.55078,-1.23047 v -36.22656 c 0,-1.26953 -0.34765,-2.05469 -1.04296,-2.33985 -0.40235,-0.16015 -1.125,-0.25 -2.14844,-0.25 h -1.03906 c -0.60938,0 -0.91797,-0.15625 -0.91797,-0.48828 0,-0.36328 0.57031,-0.54297 1.71484,-0.54297 h 13.48828 c 4.66016,0 8.07813,0.8125 10.23828,2.44532 2.45703,1.83984 3.6836,4.4414 3.6836,7.79687"
       id="path40"
       inkscape:connector-curvature="0" />
    <path
       style="fill:#545151;fill-opacity:1;fill-rule:nonzero;stroke:none"
       d="m 341.21875,311.62891 c 0,0.16015 -0.0352,1.16796 -0.12109,3.00781 -0.0859,1.83594 -0.1211,3.58984 -0.1211,5.26562 v 2.03516 c -4.00781,-0.25391 -11.93359,-0.375 -23.78906,-0.375 h -7.66797 c -0.77734,0 -1.16406,-0.16406 -1.16406,-0.49609 0,-0.21875 0.12109,-0.33985 0.36719,-0.37891 0.125,0 0.90234,-0.0586 2.33203,-0.16797 1.0625,-0.0781 1.70703,-0.30859 1.92968,-0.67187 0.22657,-0.3711 0.33594,-1.33594 0.33594,-2.89063 v -34.56641 c 0,-1.18359 -0.17578,-1.89453 -0.51953,-2.12109 -0.34766,-0.23047 -1.46484,-0.34766 -3.34375,-0.34766 -0.65625,0 -0.98047,-0.16796 -0.98047,-0.51953 0,-0.33593 0.45313,-0.51172 1.34766,-0.51172 h 26 c 1.22656,0 2.35156,-0.082 3.37109,-0.24609 0.082,1.75781 0.26563,4.1875 0.55078,7.29688 l 0.25,2.64062 c 0.0352,0.20313 0.0586,0.46484 0.0586,0.79297 0,0.41797 -0.1836,0.61328 -0.55078,0.61328 -0.44922,0 -0.77735,-0.52344 -0.98047,-1.55078 -0.77735,-3.69922 -2.04688,-6.03516 -3.80078,-7.02344 -1.3086,-0.74609 -4.74219,-1.11719 -10.30079,-1.11719 h -5.02734 v 18.03125 h 1.46484 c 4.58204,0 7.375,-0.35546 8.375,-1.03906 1,-0.70312 1.6875,-2.72265 2.05469,-6.07812 0.082,-0.85938 0.3086,-1.28516 0.67188,-1.28516 0.45312,0 0.67578,0.37109 0.67578,1.10156 0,0.74219 -0.0391,1.81641 -0.1211,3.25391 -0.082,1.42187 -0.12109,2.50781 -0.12109,3.25 0,4.375 0.0625,7.37109 0.19531,9.01172 0.0312,0.40234 0.0469,0.7539 0.0469,1.04297 0,0.53515 -0.22266,0.79297 -0.67188,0.79297 -0.28515,0 -0.47656,-0.17188 -0.57812,-0.51563 -0.10547,-0.35156 -0.27344,-1.48828 -0.51563,-3.40625 -0.32812,-2.41406 -1.32812,-3.91016 -2.99609,-4.48047 -0.73047,-0.24219 -2.64063,-0.35937 -5.73828,-0.35937 h -2.74219 v 20.53906 c 8.99219,0 14.26172,-0.1875 15.82422,-0.55078 2.6875,-0.60938 4.22656,-3.1875 4.59375,-7.75391 0.082,-1.00781 0.34375,-1.51172 0.79687,-1.51172 0.40235,0 0.60938,0.4336 0.60938,1.28907"
       id="path42"
       inkscape:connector-curvature="0" />
    <path
       style="fill:#545151;fill-opacity:1;fill-rule:nonzero;stroke:none"
       d="m 371.21094,309.54297 c 0,3.51562 -1.33985,6.50781 -4.01563,8.98437 -2.68359,2.47266 -5.90234,3.70703 -9.66015,3.70703 -2.21094,0 -4.84766,-0.67187 -7.91407,-2.02343 -0.8164,-0.36328 -1.42968,-0.55078 -1.83593,-0.55078 -0.4961,0 -0.79688,0.5664 -0.92188,1.70312 -0.0469,0.57813 -0.30859,0.87109 -0.80078,0.87109 -0.41016,0 -0.61328,-0.24218 -0.61328,-0.73046 0,-0.33204 0.0195,-0.57422 0.0664,-0.74219 0.32032,-2.49219 0.48829,-4.80078 0.48829,-6.92969 0,-0.40625 -0.043,-1.54297 -0.125,-3.43359 -0.043,-0.24219 -0.0547,-0.57032 -0.0547,-0.97266 0,-0.61328 0.23828,-0.92187 0.73047,-0.92187 0.41015,0 0.69922,0.49218 0.85547,1.48046 1.0625,7.35547 4.51562,11.03125 10.36718,11.03125 2.4961,0 4.42578,-0.70703 5.79688,-2.125 1.37109,-1.40625 2.05078,-3.39453 2.05078,-5.96875 0,-2.29687 -0.66797,-4.24218 -1.99219,-5.85937 -1.32812,-1.60938 -3.60547,-3.22266 -6.83984,-4.81641 -3.88672,-1.91797 -6.57813,-3.78125 -8.08985,-5.57422 -1.51562,-1.79687 -2.27343,-4.03515 -2.27343,-6.68359 0,-3.39844 1.09765,-6.19531 3.28515,-8.39844 2.1836,-2.21093 4.95313,-3.3125 8.3086,-3.3125 1.38672,0 3.3125,0.46485 5.76172,1.40625 0.85937,0.32813 1.49609,0.48828 1.89843,0.48828 0.45703,0 0.7461,-0.0781 0.89453,-0.25 0.13672,-0.15625 0.26954,-0.57421 0.39454,-1.27734 0.082,-0.41406 0.30859,-0.61328 0.67578,-0.61328 0.40625,0 0.61328,0.24609 0.61328,0.73437 0,0.32813 -0.0195,0.58204 -0.0547,0.73438 -0.125,0.98047 -0.1875,2.16797 -0.1875,3.5625 0,1.95703 0.10156,3.50781 0.30078,4.66016 l 0.0664,0.97265 c 0.0391,0.44531 -0.14453,0.67969 -0.55469,0.67969 -0.44922,0 -0.75391,-0.47266 -0.91797,-1.41016 -0.45312,-2.41406 -1.51562,-4.42968 -3.1875,-6.04297 C 362.05075,280.3125 360.17184,279.5 358.082,279.5 c -2.04297,0 -3.66797,0.66016 -4.87109,1.96484 -1.21094,1.30078 -1.8125,3.08203 -1.8125,5.33594 0,2.61719 0.8789,4.71484 2.64062,6.31641 0.98047,0.89453 3.10156,2.16015 6.375,3.79687 3.83985,1.91797 6.59375,3.875 8.28125,5.85547 1.67188,1.98438 2.51563,4.24609 2.51563,6.77344"
       id="path44"
       inkscape:connector-curvature="0" />
    <path
       style="fill:#545151;fill-opacity:1;fill-rule:nonzero;stroke:none"
       d="m 388.25,320.98047 c 0,0.35156 -0.23828,0.52344 -0.73828,0.52344 h -0.60938 c -0.25,-0.12891 -3.04297,-0.1836 -8.3789,-0.1836 -1.02735,0 -2.05078,0.043 -3.07813,0.11719 -0.53515,0.043 -1.35156,0.0664 -2.45703,0.0664 -0.53125,0 -0.80078,-0.1836 -0.80078,-0.55079 0,-0.32812 0.53125,-0.51171 1.59375,-0.55468 1.63672,-0.0391 2.59766,-0.23828 2.88281,-0.58203 0.28516,-0.35547 0.42969,-1.52735 0.42969,-3.53907 v -32.34375 c 0,-2.00781 -0.10938,-3.14453 -0.3125,-3.39453 -0.25,-0.40234 -1.38281,-0.65234 -3.41797,-0.73047 -0.78125,-0.0391 -1.17578,-0.1875 -1.17578,-0.43359 0,-0.32422 0.24609,-0.48438 0.74609,-0.48438 h 8.375 c 0.61719,0 1.81641,0.0234 3.59766,0.0664 l 2.35547,-0.0664 c 0.66015,0 0.98828,0.17579 0.98828,0.52344 0,0.3086 -0.91406,0.50391 -2.76172,0.57422 -1.05078,0.0469 -1.6875,0.22656 -1.91016,0.55078 -0.23828,0.33594 -0.35546,1.1875 -0.35546,2.57031 v 32.75 c 0,2.32813 0.10156,3.59375 0.3125,3.80079 0.45703,0.45703 1.79687,0.72265 4.03515,0.80468 0.45703,0 0.67969,0.17578 0.67969,0.51563"
       id="path46"
       inkscape:connector-curvature="0" />
    <path
       style="fill:#545151;fill-opacity:1;fill-rule:nonzero;stroke:none"
       d="m 424.32031,299.97656 c 0,-6.80078 -1.33594,-11.79297 -3.99219,-14.97265 -2.66406,-3.17188 -6.8125,-4.76563 -12.45312,-4.76563 -2.73828,0 -4.39453,0.28516 -4.96484,0.85547 -0.25,0.29687 -0.36719,1.27734 -0.36719,2.95703 v 32.71875 c 0,1.14844 0.0312,1.84766 0.0898,2.09375 0.0547,0.24219 0.23047,0.44531 0.51563,0.61328 0.98437,0.49219 3.05078,0.73438 6.19922,0.73438 4.41406,0 7.97656,-1.5625 10.66796,-4.67188 2.86719,-3.27734 4.30469,-8.46484 4.30469,-15.5625 m 6.875,0.2461 c 0,7.21484 -2.51562,12.83593 -7.55078,16.85546 -3.69141,2.95313 -8.61328,4.42579 -14.79297,4.42579 h -16.61328 c -0.77734,0 -1.16406,-0.20704 -1.16406,-0.61719 0,-0.36719 0.64844,-0.55078 1.96094,-0.55078 1.67187,0 2.72265,-0.30469 3.13281,-0.92188 0.15234,-0.28515 0.24219,-1.0625 0.24219,-2.32422 v -33.04687 c 0,-2.00781 -0.15625,-3.16797 -0.46485,-3.50391 -0.30859,-0.32812 -1.35547,-0.48828 -3.14844,-0.48828 -0.94921,0 -1.41406,-0.21875 -1.41406,-0.67187 0,-0.32813 0.33985,-0.48829 1.03906,-0.48829 h 10.67188 c 7.35937,0 12.57031,0.50391 15.63672,1.53516 3.72656,1.23047 6.73437,3.66016 9.02734,7.28906 2.28906,3.625 3.4375,7.79297 3.4375,12.50782"
       id="path48"
       inkscape:connector-curvature="0" />
    <path
       style="fill:#545151;fill-opacity:1;fill-rule:nonzero;stroke:none"
       d="m 464.48828,311.62891 c 0,0.16015 -0.0469,1.16796 -0.11719,3.00781 -0.0898,1.83594 -0.13672,3.58984 -0.13672,5.26562 v 2.03516 c -4,-0.25391 -11.92968,-0.375 -23.78906,-0.375 h -7.66406 c -0.76563,0 -1.16406,-0.16406 -1.16406,-0.49609 0,-0.21875 0.1289,-0.33985 0.36718,-0.37891 0.125,0 0.90625,-0.0586 2.33594,-0.16797 1.05469,-0.0781 1.69922,-0.30859 1.9375,-0.67187 0.21875,-0.3711 0.33594,-1.33594 0.33594,-2.89063 v -34.56641 c 0,-1.18359 -0.17578,-1.89453 -0.53125,-2.12109 -0.33594,-0.23047 -1.46484,-0.34766 -3.33984,-0.34766 -0.64844,0 -0.97657,-0.16796 -0.97657,-0.51953 0,-0.33593 0.45313,-0.51172 1.34375,-0.51172 h 26.00391 c 1.23047,0 2.35937,-0.082 3.37891,-0.24609 0.0781,1.75781 0.2539,4.1875 0.54687,7.29688 l 0.24219,2.64062 c 0.0391,0.20313 0.0703,0.46484 0.0703,0.79297 0,0.41797 -0.1875,0.61328 -0.5625,0.61328 -0.44531,0 -0.77344,-0.52344 -0.97656,-1.55078 -0.78125,-3.69922 -2.04688,-6.03516 -3.80078,-7.02344 -1.31641,-0.74609 -4.7461,-1.11719 -10.30469,-1.11719 h -5.02344 v 18.03125 h 1.46875 c 4.58203,0 7.36719,-0.35546 8.36328,-1.03906 1.01172,-0.70312 1.69922,-2.72265 2.0586,-6.07812 0.082,-0.85938 0.3164,-1.28516 0.67968,-1.28516 0.44532,0 0.67969,0.37109 0.67969,1.10156 0,0.74219 -0.043,1.81641 -0.13281,3.25391 -0.0742,1.42187 -0.11719,2.50781 -0.11719,3.25 0,4.375 0.0586,7.37109 0.19141,9.01172 0.0273,0.40234 0.0586,0.7539 0.0586,1.04297 0,0.53515 -0.23437,0.79297 -0.67969,0.79297 -0.28906,0 -0.47656,-0.17188 -0.58593,-0.51563 -0.10157,-0.35156 -0.27735,-1.48828 -0.51172,-3.40625 -0.33594,-2.41406 -1.32422,-3.91016 -2.98828,-4.48047 -0.73047,-0.24219 -2.65235,-0.35937 -5.7461,-0.35937 h -2.73828 v 20.53906 c 8.9961,0 14.25781,-0.1875 15.82031,-0.55078 2.69141,-0.60938 4.23047,-3.1875 4.59766,-7.75391 0.0859,-1.00781 0.34766,-1.51172 0.78906,-1.51172 0.41016,0 0.61719,0.4336 0.61719,1.28907"
       id="path50"
       inkscape:connector-curvature="0" />
    <path
       style="fill:#545151;fill-opacity:1;fill-rule:nonzero;stroke:none"
       d="m 505.14062,279.5 c 0,0.40625 -0.50781,0.59375 -1.53125,0.55078 h -2.44921 c -0.66016,0 -1.05469,0.11719 -1.16797,0.33984 -0.1211,0.21875 -0.17578,0.90235 -0.17578,2.05469 v 35.25781 c 0,2.17188 -0.0312,3.42969 -0.0781,3.80079 -0.0312,0.36718 -0.16016,0.54687 -0.35937,0.54687 -0.24219,0 -0.53125,-0.22266 -0.85547,-0.67578 l -7.82813,-11.47656 c -4.54297,-6.66016 -10.07031,-14.97657 -16.57422,-24.95703 v 34.22265 c 0.0391,0.53906 0.34766,0.88281 0.9336,1.01953 0.57031,0.14844 1.94922,0.23438 4.13281,0.28125 0.54687,0 0.82031,0.16016 0.82031,0.48828 0,0.41016 -0.53906,0.60938 -1.59375,0.60938 -0.375,0 -1.53906,-0.0586 -3.5039,-0.1875 -0.64844,-0.0312 -1.28907,-0.0547 -1.89063,-0.0547 0.0273,0 -0.32031,0.043 -1.07812,0.11719 -0.75782,0.082 -1.91016,0.125 -3.46875,0.125 h -0.60547 c -0.94922,0 -1.41407,-0.1875 -1.41407,-0.54688 0,-0.37109 0.41016,-0.55078 1.23047,-0.55078 2.40235,-0.0469 3.8086,-0.19922 4.19141,-0.46484 0.39844,-0.26172 0.58594,-1.13672 0.58594,-2.60938 v -30.27734 c 0,-3.40234 -0.70313,-5.52344 -2.08203,-6.38281 -0.66016,-0.41406 -1.83594,-0.61328 -3.4961,-0.61328 -1.0625,0 -1.59765,-0.21485 -1.59765,-0.64844 0,-0.38672 0.30859,-0.57813 0.91796,-0.57813 0.82032,0 1.85938,0.043 3.12891,0.125 1.26563,0.0742 1.94141,0.1211 2.02734,0.1211 0.1211,0 0.69141,-0.0274 1.71875,-0.0664 1.34766,0 2.65235,-0.0547 3.92579,-0.17969 l 21.15625,31.56641 v -27.27734 c 0,-1.27344 -0.0352,-2.03125 -0.0703,-2.29297 -0.0351,-0.27735 -0.20703,-0.48047 -0.49218,-0.61719 -0.28907,-0.14062 -1.27344,-0.21875 -2.94141,-0.21875 -1.46484,0 -2.20313,-0.1875 -2.20313,-0.55078 0,-0.41016 0.5,-0.60938 1.46875,-0.60938 h 9.8711 c 0.90234,0 1.34765,0.19922 1.34765,0.60938"
       id="path52"
       inkscape:connector-curvature="0" />
    <path
       style="fill:#545151;fill-opacity:1;fill-rule:nonzero;stroke:none"
       d="m 539.60156,307.76562 c 0,-0.043 -0.0312,0.51563 -0.11328,1.66016 -0.16797,2.28516 -0.25,4.57813 -0.25,6.85938 0,0.28906 0.0352,0.8125 0.125,1.5664 0.0742,0.75391 0.125,1.66797 0.125,2.72656 v 0.55469 c 0,0.53125 -0.16797,0.80469 -0.48828,0.80469 -0.33203,0 -0.62109,-0.32031 -0.86328,-0.92188 -0.57813,-1.4414 -1.14844,-2.3125 -1.72266,-2.64062 -2.94531,2.57812 -6.47656,3.85937 -10.60937,3.85937 -6.01172,0 -10.98047,-2.09375 -14.92578,-6.27734 -3.94141,-4.19531 -5.92188,-9.47656 -5.92188,-15.85547 0,-6.41406 1.80859,-11.66406 5.43359,-15.71875 3.61329,-4.07031 8.28907,-6.10937 14.00782,-6.10937 2.08984,0 3.75,0.17968 4.99609,0.52343 1.24609,0.33985 2.79297,1.05469 4.63281,2.11719 0.89063,0.53125 1.57422,0.78906 2.02344,0.78906 0.36328,0 0.70703,-0.32421 1.04688,-0.97265 0.52734,-1.15235 0.95703,-1.71485 1.28125,-1.71485 0.32421,0 0.48828,0.16016 0.48828,0.48438 0,0.16406 -0.0391,0.42578 -0.1211,0.79687 -0.44922,1.96485 -0.67187,5.64454 -0.67187,11.03907 0,0.77343 -0.0625,1.22656 -0.19531,1.34765 -0.11329,0.125 -0.27735,0.19141 -0.48047,0.19141 -0.41016,0 -0.67578,-0.39844 -0.79297,-1.17188 -0.53125,-3.26953 -1.28906,-5.70312 -2.27735,-7.29296 -2,-3.26954 -5.14453,-4.91016 -9.42968,-4.91016 -3.31641,0 -5.94141,1.10547 -7.85938,3.30859 -3.47656,3.97657 -5.21094,9.77344 -5.21094,17.41407 0,6.83593 1.42579,12.11718 4.28516,15.88671 2.50781,3.26563 5.80469,4.90625 9.94531,4.90625 2.1211,0 4.0625,-0.53125 5.82032,-1.60156 1.75781,-1.0625 3.11718,-2.51172 4.08203,-4.3789 0.95312,-1.85938 1.69922,-4.10157 2.23828,-6.71875 0.20703,-0.98047 0.46875,-1.47266 0.80078,-1.47266 0.39844,0 0.60156,0.30469 0.60156,0.92187"
       id="path54"
       inkscape:connector-curvature="0" />
    <path
       style="fill:#545151;fill-opacity:1;fill-rule:nonzero;stroke:none"
       d="m 569.69141,306.41797 c 2.40234,-7.22656 4.45312,-13.09766 6.15625,-17.61719 l 2.95312,8.49219 c 1.53516,4.25 2.63672,7.28515 3.30469,9.125 z m -8.67188,15.08594 c 0.71875,-0.0391 1.45703,-0.008 2.07422,0.0273 2.49219,0.16406 4.67578,0.0859 6.55859,0.0859 1.0586,0 1.59375,-0.19532 1.59375,-0.60157 0,-0.37109 -0.59375,-0.57421 -1.77734,-0.61718 -1.92578,-0.12891 -2.94531,-0.19922 -3.07031,-0.24219 -0.48828,-0.125 -0.72657,-0.47266 -0.72657,-1.05078 0,-0.97266 1.21875,-4.74219 3.67188,-11.28125 h 13.10156 c 1.4336,4.33984 2.33203,7.14062 2.69531,8.40625 l 0.32032,0.85937 0.5,1.6211 c 0.082,0.28515 0.125,0.44531 0.125,0.48437 0,0.67969 -1.79297,1.03906 -5.40235,1.07422 -1.09765,0 -1.64843,0.24219 -1.64843,0.71094 0,0.42969 0.40234,0.63672 1.22265,0.63672 0.32813,0 0.63672,-0.0117 0.92578,-0.0547 l 7.78125,-0.24219 7.79688,0.24219 c 0.32031,0.043 0.68359,0.0547 1.08594,0.0547 0.625,0 0.93359,-0.16407 0.93359,-0.51172 0,-0.35156 -0.53516,-0.54688 -1.60156,-0.58594 -1.58985,-0.0469 -2.64063,-0.1875 -3.15625,-0.44141 -0.51563,-0.24609 -0.92578,-0.83984 -1.2461,-1.76953 -5.85156,-15.93359 -9.51562,-25.89453 -10.98437,-29.85547 -1.88672,-5.07421 -3.08594,-8.40234 -3.61719,-9.99609 -0.0859,-0.24219 -0.1875,-0.36328 -0.30469,-0.36328 -0.20703,0 -0.36718,0.22656 -0.49218,0.67187 l -0.25391,1.11719 c -0.29688,0.60938 -0.48828,1.14453 -0.58203,1.62891 -3.29688,9.14844 -7.58594,21.26172 -12.83203,36.36328 -0.33985,0.98437 -0.78907,1.64453 -1.34766,2 -0.58203,0.34766 -1.51172,0.54297 -2.80469,0.57812 -0.4375,0.0156 -0.57812,0.0117 -0.8789,0.0156 -0.14453,0 -0.39453,-0.004 -0.5625,-0.004 -2.23438,-0.082 -3.58203,-0.34765 -4.03516,-0.80468 -0.20703,-0.20704 -0.30859,-1.47266 -0.30859,-3.80079 v -32.74609 c 0,-1.38672 0.10937,-2.23828 0.34375,-2.57422 0.22656,-0.32422 0.86328,-0.5039 1.92187,-0.54687 1.83594,-0.0742 2.75781,-0.27344 2.75781,-0.57813 0,-0.34765 -0.32812,-0.52344 -0.99609,-0.52344 l -2.35547,0.0664 c -1.77734,-0.043 -2.98047,-0.0664 -3.59375,-0.0664 h -8.37109 c -0.5,0 -0.75781,0.16016 -0.75781,0.48438 0,0.24609 0.40625,0.39453 1.1914,0.43359 2.03125,0.0742 3.16016,0.32813 3.42188,0.73047 0.19922,0.25 0.30078,1.38281 0.30078,3.39453 v 32.34375 c 0,2.01172 -0.13672,3.1836 -0.4336,3.53907 -0.27734,0.34375 -1.23828,0.54296 -2.87109,0.58203 -1.07031,0.043 -1.60937,0.22656 -1.60937,0.55468 0,0.36719 0.27734,0.55079 0.8164,0.55079 1.09766,0 1.92188,-0.0234 2.46485,-0.0664 1.01953,-0.0742 2.03515,-0.11719 3.05859,-0.11719 5.33984,0 7.03906,0.1211 8.38672,0.1836 1.34375,0.0586 2.84375,0.0273 3.57031,0"
       id="path56"
       inkscape:connector-curvature="0" />
    <path
       style="fill:#545151;fill-opacity:1;fill-rule:nonzero;stroke:none"
       d="m 246.04297,337.08594 -3.20703,3.35937 c -1.41797,1.4961 -2.24219,2.23828 -2.47266,2.23828 -0.14062,0 -0.21094,-0.0586 -0.21094,-0.17578 0,-0.0156 0.0273,-0.0859 0.0703,-0.20312 l 0.21093,-0.5 c 0.19141,-0.46875 0.50782,-1.22266 0.95703,-2.2461 l 1.1211,-2.47265 z m 0,0"
       id="path58"
       inkscape:connector-curvature="0" />
    <path
       style="fill:#545151;fill-opacity:1;fill-rule:nonzero;stroke:none"
       d="m 193.15234,341.86719 c 0,-3.35157 -1.45703,-5.04297 -4.37109,-5.04297 -0.77734,0 -1.30859,0.11719 -1.59375,0.32812 -0.27734,0.20313 -0.42188,0.58594 -0.42188,1.13282 v 8.95312 c 2.26172,0.0234 3.89063,-0.38672 4.89454,-1.24219 0.99609,-0.84375 1.49218,-2.21484 1.49218,-4.1289 m 7.30469,17.6914 c 0,0.98828 -0.82422,1.46875 -2.46875,1.46875 -1.83203,0 -3.26953,-0.75781 -4.30469,-2.28515 -0.44531,-0.65235 -0.73828,-1.30078 -0.85937,-1.91016 -0.13281,-0.60937 -0.32813,-2.16016 -0.58594,-4.65234 -0.14453,-1.50391 -0.62109,-2.57813 -1.44922,-3.19532 -0.82422,-0.61718 -2.16406,-0.95312 -4.02344,-0.99609 v 11.10938 c 0,0.46875 0.375,0.75781 1.13282,0.875 0.21484,0.0312 0.7539,0.0508 1.62109,0.0664 0.30469,0 0.46094,0.10938 0.46094,0.28906 0,0.21875 -0.20313,0.32032 -0.60156,0.32032 h -8.29297 c -0.51563,0 -0.77344,-0.10157 -0.77344,-0.32032 0,-0.16015 0.33984,-0.26171 1.01562,-0.28906 1.10938,-0.0156 1.71094,-0.15234 1.80469,-0.41406 0.0937,-0.11719 0.14453,-0.57422 0.14453,-1.36719 v -19.48437 c 0,-0.94532 -0.10156,-1.50391 -0.30078,-1.6875 -0.19531,-0.19532 -0.80859,-0.30469 -1.82422,-0.33203 -0.58203,0 -0.87109,-0.0977 -0.87109,-0.3086 0,-0.23047 0.17969,-0.36328 0.55859,-0.36328 0.0703,0 0.17969,0.0156 0.3125,0.043 l 4.70313,0.10156 c 0.46094,0 1.12109,-0.004 1.96875,-0.043 0.9414,-0.0586 1.59765,-0.10156 1.98047,-0.10156 2.1914,0 3.91797,0.48828 5.20312,1.47656 1.28125,0.96485 1.91797,2.28907 1.91797,3.96094 0,1.64844 -0.65625,3.00781 -1.97266,4.08594 -1.3164,1.07422 -3.10546,1.6914 -5.36328,1.88672 -0.21093,0.0156 -0.32812,0.0586 -0.35156,0.10547 0,0.10156 0.11719,0.13671 0.35156,0.13671 2.46875,0.42579 4.16797,1.28516 5.09766,2.60938 0.93359,1.30469 1.54297,3.66016 1.85547,7.09375 0.18359,1.92187 0.84765,2.89062 1.97656,2.89062 0.35156,0 0.52734,-0.0625 0.52734,-0.20703 0,-0.0312 -0.008,-0.0547 -0.0391,-0.082 -0.11719,-0.25 -0.17578,-0.46484 -0.17578,-0.625 0,-0.49609 0.26563,-0.74219 0.78125,-0.74219 0.56641,0 0.84375,0.28907 0.84375,0.88672"
       id="path60"
       inkscape:connector-curvature="0" />
    <path
       style="fill:#545151;fill-opacity:1;fill-rule:nonzero;stroke:none"
       d="m 215.84766,356.8125 c 0,-0.64063 -0.12891,-0.96094 -0.35938,-0.96094 -0.23437,0 -0.36719,0.17578 -0.39062,0.52344 -0.16016,2.00391 -0.71094,3.13281 -1.64454,3.39453 -0.60937,0.16797 -2.63671,0.25391 -6.08203,0.26953 v -7.61719 h 0.875 c 1.50391,0 2.41797,0.12891 2.7461,0.3711 0.32812,0.2539 0.55859,1.00781 0.69531,2.27344 0.0703,0.59765 0.20703,0.88671 0.41797,0.88671 0.23047,0 0.35156,-0.1875 0.35156,-0.5664 0,-0.11719 -0.0117,-0.26953 -0.0273,-0.44922 -0.0547,-0.56641 -0.082,-1.61328 -0.082,-3.14063 0,-0.3125 0.0195,-0.75781 0.0547,-1.33984 0.0312,-0.60156 0.0547,-1.03125 0.0547,-1.30859 0,-0.47657 -0.12109,-0.71094 -0.35547,-0.71094 -0.20703,0 -0.35547,0.33594 -0.42187,0.98828 -0.11328,1.10547 -0.34766,1.78906 -0.70313,2.02734 -0.34375,0.25782 -1.26953,0.37891 -2.76172,0.37891 h -0.84375 v -6.60547 h 1.79297 c 1.92188,0 3.14063,0.0859 3.65235,0.2461 0.91406,0.30468 1.53515,1.35156 1.86718,3.14062 0.0898,0.48047 0.24219,0.71094 0.45703,0.71094 0.15625,0 0.24219,-0.16016 0.24219,-0.45703 0,-0.15235 -0.0156,-0.29688 -0.0352,-0.41407 -0.13672,-1.73828 -0.23829,-2.78515 -0.28516,-3.13281 l -0.0273,-0.51562 v -0.2461 h -12.07422 c -0.30469,0 -0.45313,0.0937 -0.45313,0.27344 0,0.16797 0.14063,0.25391 0.42188,0.25391 0.66015,0 1.07031,0.0312 1.23437,0.0859 0.16406,0.0586 0.2461,0.57813 0.2461,1.54297 v 12.13282 c 0,0.66015 -0.0703,1.03906 -0.19922,1.14843 -0.1211,0.10157 -0.56641,0.16016 -1.31641,0.16016 -0.28125,0 -0.42578,0.10937 -0.42578,0.31641 0,0.1914 0.25391,0.28515 0.75,0.28515 l 6.73437,-0.10937 5.89454,0.10937 c -0.0742,-0.2539 -0.10938,-0.49219 -0.10938,-0.71875 v -2.03515 c 0,-0.21094 0.0156,-0.46485 0.0547,-0.73438 0.0312,-0.28516 0.0547,-0.4375 0.0547,-0.45703"
       id="path62"
       inkscape:connector-curvature="0" />
    <path
       style="fill:#545151;fill-opacity:1;fill-rule:nonzero;stroke:none"
       d="m 227.76562,348.46094 c 0,-2.2461 -0.98828,-3.375 -2.97656,-3.375 -0.58203,0 -0.94531,0.0508 -1.07812,0.14062 -0.14063,0.0937 -0.21094,0.36328 -0.21094,0.8125 v 6.10547 c 2.84766,0 4.26562,-1.23437 4.26562,-3.68359 m 3.07032,-0.0234 c 0,1.29297 -0.52344,2.33984 -1.58203,3.125 -1.04688,0.78516 -2.42969,1.17969 -4.14063,1.17969 -0.26172,0 -0.72656,-0.0352 -1.40234,-0.10547 H 223.5 v 6.38281 c 0,0.64063 0.15625,0.98438 0.46484,1.04297 0.3125,0.0625 0.75782,0.0937 1.33594,0.0937 0.25781,0 0.38672,0.0781 0.38672,0.24609 0,0.125 -0.14063,0.1875 -0.40625,0.21094 -0.27344,0.0195 -1.20703,0.0352 -2.80469,0.0352 -2.0039,0 -3.16797,-0.008 -3.49609,-0.0312 -0.32813,-0.0274 -0.49219,-0.0977 -0.49219,-0.23047 0,-0.17969 0.0937,-0.26172 0.28516,-0.23047 h 0.52343 c 0.54297,-0.0469 0.85938,-0.0742 0.95313,-0.0937 0.0937,-0.0117 0.16406,-0.0547 0.21094,-0.12109 0.0508,-0.0625 0.0742,-0.46875 0.0742,-1.19922 v -11.81641 c 0,-0.94531 -0.0156,-1.45312 -0.0391,-1.52734 -0.0664,-0.20313 -0.45703,-0.3125 -1.14453,-0.3125 h -0.47265 c -0.26172,0 -0.39063,-0.0937 -0.39063,-0.28125 0,-0.11719 0.12891,-0.1875 0.39063,-0.21094 0.25781,-0.0312 1.14062,-0.0352 2.65625,-0.0352 3.01171,0 4.87109,0.0586 5.55078,0.17188 2.5039,0.42187 3.75,1.66406 3.75,3.70703"
       id="path64"
       inkscape:connector-curvature="0" />
    <path
       style="fill:#545151;fill-opacity:1;fill-rule:nonzero;stroke:none"
       d="m 249.43359,344.83203 c 0,0.16797 -0.1914,0.25391 -0.5664,0.25391 h -0.87891 c -0.375,0 -0.56641,0.23437 -0.56641,0.69922 v 6.5039 c 0,2.26953 -0.0469,3.73828 -0.14062,4.39063 -0.0937,0.65625 -0.33984,1.3164 -0.74219,1.97656 -0.91797,1.46484 -2.54297,2.19531 -4.875,2.19531 -1.92578,0 -3.46875,-0.43359 -4.61328,-1.32031 -1.0625,-0.83203 -1.58984,-2.41016 -1.58984,-4.76172 v -7.42187 c 0,-1.27735 -0.0391,-1.96875 -0.12891,-2.08594 -0.0781,-0.11719 -0.42578,-0.17578 -1.03516,-0.17578 -0.49609,0 -0.74609,-0.0937 -0.74609,-0.28125 0,-0.16016 0.16406,-0.2461 0.5,-0.2461 h 5.57031 c 0.42578,0 0.63672,0.0937 0.63672,0.27344 0,0.25 -0.43359,0.35156 -1.30859,0.32031 -0.25391,0 -0.40625,0.043 -0.45703,0.13282 -0.0469,0.0703 -0.0664,0.34765 -0.0664,0.78515 v 8.45703 c 0,2.29688 0.29297,3.78907 0.88281,4.46485 0.66016,0.77734 1.63282,1.16406 2.92969,1.16406 1.80078,0 3.04688,-0.75781 3.70313,-2.25 0.33203,-0.75391 0.49218,-1.95313 0.49218,-3.625 v -8.49609 c 0,-0.29688 -0.0586,-0.4961 -0.17578,-0.5586 -0.125,-0.0742 -0.44922,-0.10937 -0.99219,-0.10937 -0.54296,0 -0.80468,-0.10938 -0.80468,-0.3125 0,-0.16016 0.13672,-0.2461 0.41797,-0.2461 h 3.98828 c 0.375,0 0.5664,0.0937 0.5664,0.27344"
       id="path66"
       inkscape:connector-curvature="0" />
    <path
       style="fill:#545151;fill-opacity:1;fill-rule:nonzero;stroke:none"
       d="m 261.21875,348.48828 c 0,-1.53906 -0.35156,-2.50781 -1.05078,-2.91406 -0.39844,-0.23047 -1.0625,-0.34766 -1.99219,-0.34766 -0.40234,0 -0.6875,0.004 -0.87891,0.0352 l -0.28125,0.0273 v 6.54297 c 1.26563,-0.0273 2.1211,-0.14453 2.59375,-0.35547 1.07422,-0.48828 1.60938,-1.49609 1.60938,-2.98828 m 3.80859,7.92969 c 0,1.07812 -0.39453,1.96094 -1.18359,2.67969 -0.78125,0.70312 -1.87109,1.16796 -3.26172,1.375 -0.82031,0.11718 -2.64453,0.17578 -5.46484,0.17578 h -2.72266 c -0.16406,0.0195 -0.24609,-0.0586 -0.24609,-0.2461 0,-0.13672 0.0547,-0.22656 0.14453,-0.24609 0.0898,-0.0312 0.375,-0.0352 0.84375,-0.0352 0.46484,0 0.74219,-0.0547 0.8125,-0.14843 0.0703,-0.0859 0.10156,-0.38282 0.10156,-0.875 v -12.73829 c 0,-0.60937 -0.0312,-0.98046 -0.10156,-1.07421 -0.0703,-0.11329 -0.44531,-0.17579 -1.12891,-0.19922 -0.49609,-0.0274 -0.74219,-0.10938 -0.74219,-0.25391 0,-0.17969 0.26172,-0.27344 0.77735,-0.27344 h 0.60156 c 0.25781,0 0.94922,0.0274 2.07813,0.0703 h 1.69531 c 1.62109,0.0234 2.64844,0.0586 3.07422,0.10156 0.5625,0.0469 1.07422,0.15234 1.55078,0.32031 1.6875,0.61328 2.53515,1.6875 2.53515,3.21484 0,2.14063 -1.64453,3.41407 -4.9414,3.80469 l 0.0391,0.10938 c 1.71875,0.0234 3.07031,0.41797 4.05469,1.1875 0.98828,0.76172 1.48437,1.78125 1.48437,3.05078 m -3.0664,-0.27735 c 0,-2.47656 -1.40235,-3.71875 -4.20703,-3.71875 h -0.73829 v 7.0625 c 0,0.28516 0.0586,0.45313 0.17579,0.51172 0.11718,0.0547 0.45312,0.0859 1.01953,0.0859 2.5,0 3.75,-1.30859 3.75,-3.94141"
       id="path68"
       inkscape:connector-curvature="0" />
    <path
       style="fill:#545151;fill-opacity:1;fill-rule:nonzero;stroke:none"
       d="m 281.78906,357.4375 c 0,-1.03906 -0.15625,-1.55859 -0.46484,-1.55859 -0.20703,0 -0.33594,0.28515 -0.38281,0.84375 -0.14454,1.30468 -0.46875,2.14453 -0.98829,2.55078 -0.625,0.49609 -2.20703,0.73437 -4.73828,0.73437 -0.42187,0 -1.10156,-0.004 -2.03125,-0.0351 v -13.11329 c 0,-0.8789 0.0312,-1.38671 0.0977,-1.53125 0.0742,-0.13281 0.30469,-0.21875 0.67578,-0.24218 0.77344,-0.0274 1.16016,-0.10938 1.16016,-0.23047 0,-0.19531 -0.21875,-0.29688 -0.67578,-0.29688 h -5.70704 c -0.30468,0 -0.46484,0.0859 -0.46484,0.2461 0,0.1875 0.13281,0.28125 0.39453,0.28125 0.0937,0.0234 0.29297,0.0391 0.61719,0.0391 0.3125,0 0.51562,0.0195 0.61328,0.0703 0.21484,0.0664 0.32031,0.76563 0.32031,2.07813 v 11.85547 c 0,0.42968 -0.0312,0.67578 -0.0898,0.77734 -0.0547,0.0977 -0.21484,0.15625 -0.47656,0.17578 -0.91407,0.0664 -1.37891,0.16016 -1.37891,0.29688 0,0.15234 0.15625,0.23437 0.46484,0.23437 h 2.89454 l 6.03125,0.0781 h 1.65625 c 0.54296,0 0.98437,0.008 1.32421,0.043 0.34766,0.0312 0.52344,0.0508 0.54688,0.0508 0.21094,0 0.38672,-0.008 0.52734,-0.0274 0.0547,-0.90234 0.0742,-2 0.0742,-3.32031"
       id="path70"
       inkscape:connector-curvature="0" />
    <path
       style="fill:#545151;fill-opacity:1;fill-rule:nonzero;stroke:none"
       d="m 291.13672,360.40234 c 0,-0.13672 -0.14063,-0.22656 -0.42188,-0.24609 -0.66015,-0.0469 -1.07812,-0.10547 -1.2539,-0.18359 -0.17578,-0.0664 -0.26172,-0.22657 -0.26172,-0.45704 v -13.29296 c 0,-0.55469 0.0351,-0.875 0.10547,-0.98438 0.0703,-0.10156 0.26953,-0.15234 0.59375,-0.15234 0.80078,-0.0274 1.20312,-0.10938 1.20312,-0.25391 0,-0.17969 -0.1914,-0.27344 -0.5664,-0.27344 h -5.81641 c -0.30859,0 -0.46094,0.0859 -0.46094,0.2461 0,0.16797 0.10547,0.24609 0.31641,0.24609 h 1.0625 c 0.30469,0.0312 0.48047,0.11719 0.52344,0.26953 0.0469,0.15235 0.0742,0.69141 0.0742,1.6211 V 358.375 c 0,0.90625 -0.0156,1.41406 -0.0547,1.53125 -0.0352,0.11719 -0.40625,0.20312 -1.10938,0.25 -0.52344,0.0195 -0.78125,0.10937 -0.78125,0.27344 0,0.125 0.19922,0.18359 0.60156,0.18359 h 5.92579 c 0.21484,0 0.32031,-0.0664 0.32031,-0.21094"
       id="path72"
       inkscape:connector-curvature="0" />
    <path
       style="fill:#545151;fill-opacity:1;fill-rule:nonzero;stroke:none"
       d="m 308.42578,355.35937 c 0,-0.45312 -0.125,-0.67578 -0.35547,-0.67578 -0.17969,0 -0.33984,0.3086 -0.45312,0.90625 -0.26172,1.46875 -0.79297,2.60938 -1.61328,3.42969 -0.8125,0.82813 -1.82032,1.24609 -3.05079,1.24609 -1.59765,0 -2.86718,-0.69921 -3.80859,-2.0664 -0.9375,-1.38672 -1.41406,-3.25391 -1.41406,-5.60938 0,-2.35937 0.42578,-4.22265 1.27734,-5.61328 0.83985,-1.37109 1.98438,-2.07031 3.41797,-2.07031 1.71875,0 2.95313,0.66797 3.70703,2.00391 0.32813,0.61328 0.61328,1.54296 0.84375,2.80078 0.0742,0.34765 0.20313,0.53125 0.38672,0.53125 0.23828,0 0.36719,-0.50391 0.38672,-1.49219 0.0312,-1.57031 0.11328,-2.76172 0.25391,-3.55469 0.0469,-0.19531 0.0664,-0.30469 0.0664,-0.3164 0,-0.19141 -0.0859,-0.28516 -0.25,-0.28516 -0.23437,0 -0.42578,0.26172 -0.58984,0.77734 -0.0977,0.29688 -0.20703,0.45313 -0.32422,0.45313 -0.0937,0 -0.17969,-0.0469 -0.27734,-0.13281 -1.20313,-0.92579 -2.67969,-1.38282 -4.44532,-1.38282 -2.25781,0 -4.12109,0.77344 -5.57422,2.3125 -1.46484,1.53907 -2.19531,3.4961 -2.19531,5.88672 0,2.39844 0.78906,4.38281 2.3711,5.97656 1.57421,1.58204 3.54687,2.36719 5.92968,2.36719 1.85547,0 3.3125,-0.50781 4.36719,-1.53906 0.0508,0.0859 0.082,0.16016 0.10938,0.20312 l 0.32031,0.66797 c 0.17969,0.40625 0.3789,0.60157 0.55859,0.60157 0.1836,0 0.28125,-0.11719 0.28125,-0.34766 v -0.25391 c -0.0664,-0.67578 -0.10547,-1.1914 -0.10547,-1.54687 0,-0.51563 0.0469,-1.41797 0.14453,-2.6836 0.0195,-0.32031 0.0352,-0.52343 0.0352,-0.59375"
       id="path74"
       inkscape:connector-curvature="0" />
    <path
       style="fill:#545151;fill-opacity:1;fill-rule:nonzero;stroke:none"
       d="m 320.28125,354.89062 -2.27344,-6.02343 c -0.5664,1.41797 -1.36328,3.42187 -2.35547,6.02343 z m 7.16016,5.54688 c 0,0.14062 -0.23438,0.21094 -0.70313,0.21094 h -6.95312 c -0.42579,0 -0.625,-0.0937 -0.625,-0.27735 0,-0.1875 0.41406,-0.28906 1.26171,-0.32031 1.00391,-0.0195 1.51563,-0.13672 1.51563,-0.34766 0,-0.0508 -0.0742,-0.27343 -0.21094,-0.66015 -0.0508,-0.19531 -0.32031,-0.98047 -0.8125,-2.35547 l -0.41797,-1.19141 h -5.05078 C 314.47656,357.91406 314,359.32422 314,359.6875 c 0,0.21875 0.13672,0.33594 0.41797,0.35156 l 0.46875,0.043 h 0.52344 l 0.3164,0.10156 c 0.28125,0 0.42578,0.082 0.42578,0.21875 0,0.16016 -0.25,0.2461 -0.74218,0.2461 -0.0703,0 -0.48438,-0.0156 -1.25391,-0.0586 -0.76563,-0.0273 -1.4375,-0.043 -2.02344,-0.043 h -0.3164 l -0.32032,0.043 -0.39062,0.0586 h -0.0703 c -0.375,0 -0.5625,-0.0703 -0.5625,-0.21094 0,-0.16797 0.14843,-0.26172 0.45703,-0.28125 0.42578,-0.0312 0.71093,-0.0469 0.84375,-0.0742 0.40234,-0.0742 0.66015,-0.17578 0.77343,-0.32031 0.14454,-0.0742 0.72266,-1.41016 1.73829,-4.03516 0.39453,-1.05469 0.78515,-2.05469 1.16015,-2.96484 0.14844,-0.33985 0.23438,-0.58203 0.28125,-0.7461 0.0469,-0.16015 0.14453,-0.40625 0.28125,-0.74218 0.39844,-0.96094 0.96875,-2.4375 1.69531,-4.38282 l 0.53516,-1.48046 0.23828,-0.64454 c 0.14453,-0.34375 0.28516,-0.52734 0.42969,-0.52734 0.0664,0 0.22266,0.32422 0.45312,0.98828 0.71094,1.72266 2.53125,6.25781 5.46875,13.6211 0.27735,0.72656 0.5625,1.11718 0.81641,1.16015 0.0742,0.0234 0.44531,0.0586 1.12891,0.11328 0.44922,0.0274 0.66797,0.1211 0.66797,0.31641"
       id="path76"
       inkscape:connector-curvature="0" />
    <path
       style="fill:#545151;fill-opacity:1;fill-rule:nonzero;stroke:none"
       d="m 355.74219,348.69141 c 0,-4.32422 -0.88282,-7.67969 -2.64844,-10.08594 -1.10156,-1.51172 -2.64453,-2.26563 -4.62109,-2.26563 -1.88282,0 -3.34375,0.57813 -4.3711,1.73438 -1.91015,2.12109 -2.86328,5.58203 -2.86328,10.36328 0,3.80078 0.66016,6.74609 1.98828,8.85156 1.33985,2.10156 3.19922,3.14844 5.60156,3.14844 2.23047,0 3.91797,-0.98828 5.03907,-2.97266 1.25,-2.19531 1.875,-5.11718 1.875,-8.77343 m 3.95312,-0.17969 c 0,3.5039 -1.05859,6.46875 -3.16406,8.89453 -2.10156,2.42187 -4.6875,3.62109 -7.75,3.62109 -3.23828,0 -5.96875,-1.22265 -8.17969,-3.67968 -2.21094,-2.45704 -3.3164,-5.48829 -3.3164,-9.08204 0,-3.67187 1.0625,-6.67187 3.1914,-9.02343 2.13281,-2.33203 4.85547,-3.50782 8.17188,-3.50782 3.125,0 5.75781,1.22266 7.86718,3.67579 2.11719,2.44531 3.17969,5.47265 3.17969,9.10156"
       id="path78"
       inkscape:connector-curvature="0" />
    <path
       style="fill:#545151;fill-opacity:1;fill-rule:nonzero;stroke:none"
       d="m 371.90625,348.3125 c 0,-2.09766 -1.04297,-3.16016 -3.12109,-3.16016 -0.53516,0 -0.86329,0.0508 -1,0.16016 -0.125,0.10156 -0.1836,0.35547 -0.1836,0.75781 v 5.75391 c 2.85547,0 4.30469,-1.16016 4.30469,-3.51172 m 5.57031,11.42187 c 0,0.75391 -0.66015,1.11719 -1.96484,1.11719 -1.27344,0 -2.30078,-0.48047 -3.10547,-1.43359 -0.35156,-0.41016 -0.58203,-0.83985 -0.69531,-1.25391 -0.1211,-0.42969 -0.25782,-1.42578 -0.41797,-2.98828 -0.125,-1.01953 -0.44531,-1.72266 -0.96875,-2.11719 -0.53516,-0.40625 -1.4375,-0.62109 -2.72266,-0.66797 v 7.26954 c -0.0781,0.33593 0.51563,0.49609 1.76172,0.49609 0.25391,0 0.38281,0.0781 0.38281,0.24609 0,0.16016 -0.16015,0.2461 -0.5,0.2461 h -5.67578 c -0.66015,0 -0.98437,-0.0703 -0.98437,-0.23047 0,-0.17578 0.11328,-0.26172 0.35156,-0.26172 h 0.49609 c 0.79688,0 1.19532,-0.16016 1.19532,-0.49609 v -13.94141 c 0,-0.25 -0.0625,-0.42969 -0.1875,-0.51563 -0.13672,-0.0781 -0.47266,-0.11718 -1.02735,-0.11718 -0.54687,0 -0.82812,-0.0937 -0.82812,-0.28125 0,-0.16016 0.16406,-0.2461 0.48828,-0.2461 h 6.67187 c 1.58203,0 2.83985,0.32032 3.79297,0.96485 0.95703,0.64062 1.42578,1.48828 1.42578,2.55078 0,1.14453 -0.5039,2.07812 -1.51172,2.79297 -1.0039,0.71093 -2.42968,1.13281 -4.27343,1.25 1.98828,0.20312 3.33984,0.72656 4.08203,1.53906 0.73437,0.82031 1.21875,2.29687 1.42578,4.43359 0.14062,1.44532 0.57812,2.17578 1.30859,2.17578 0.11328,0 0.17188,-0.0391 0.17188,-0.10937 0,-0.0156 -0.0312,-0.0937 -0.0859,-0.21875 -0.0586,-0.13281 -0.0859,-0.22656 -0.0859,-0.29297 0,-0.42969 0.23047,-0.65234 0.70703,-0.65234 0.51172,0 0.77344,0.2539 0.77344,0.74218"
       id="path80"
       inkscape:connector-curvature="0" />
    <path
       style="fill:#545151;fill-opacity:1;fill-rule:nonzero;stroke:none"
       d="m 386.35937,360.40234 c 0,-0.13672 -0.13281,-0.22656 -0.41406,-0.24609 -0.66015,-0.0469 -1.07422,-0.10547 -1.26172,-0.18359 -0.16797,-0.0664 -0.26172,-0.22657 -0.26172,-0.45704 v -13.29296 c 0,-0.55469 0.043,-0.875 0.10547,-0.98438 0.0703,-0.10156 0.27344,-0.15234 0.60547,-0.15234 0.80078,-0.0274 1.19922,-0.10938 1.19922,-0.25391 0,-0.17969 -0.19141,-0.27344 -0.57422,-0.27344 h -5.8125 c -0.30078,0 -0.45312,0.0859 -0.45312,0.2461 0,0.16797 0.0937,0.24609 0.30859,0.24609 h 1.05859 c 0.3086,0.0312 0.48438,0.11719 0.52735,0.26953 0.0508,0.15235 0.0703,0.69141 0.0703,1.6211 V 358.375 c 0,0.90625 -0.008,1.41406 -0.043,1.53125 -0.0391,0.11719 -0.40625,0.20312 -1.11719,0.25 -0.51562,0.0195 -0.77734,0.10937 -0.77734,0.27344 0,0.125 0.20313,0.18359 0.60156,0.18359 h 5.92969 c 0.21484,0 0.30859,-0.0664 0.30859,-0.21094"
       id="path82"
       inkscape:connector-curvature="0" />
    <path
       style="fill:#545151;fill-opacity:1;fill-rule:nonzero;stroke:none"
       d="m 402.77344,356.8125 c 0,-0.64063 -0.11719,-0.96094 -0.35547,-0.96094 -0.23438,0 -0.36719,0.17578 -0.39063,0.52344 -0.16015,2.00391 -0.71093,3.13281 -1.64453,3.39453 -0.60937,0.16797 -2.63281,0.25391 -6.07422,0.26953 v -7.61719 h 0.85938 c 1.51562,0 2.4375,0.12891 2.7539,0.3711 0.32813,0.2539 0.5625,1.00781 0.70313,2.27344 0.0625,0.59765 0.19922,0.88671 0.41016,0.88671 0.23437,0 0.34765,-0.1875 0.34765,-0.5664 0,-0.11719 -0.004,-0.26953 -0.0273,-0.44922 -0.0469,-0.56641 -0.0742,-1.61328 -0.0742,-3.14063 0,-0.3125 0.0156,-0.75781 0.0469,-1.33984 0.0391,-0.60156 0.0547,-1.03125 0.0547,-1.30859 0,-0.47657 -0.11328,-0.71094 -0.34765,-0.71094 -0.21094,0 -0.35157,0.33594 -0.42188,0.98828 -0.11719,1.10547 -0.35156,1.78906 -0.69922,2.02734 -0.35547,0.25782 -1.28125,0.37891 -2.76172,0.37891 h -0.84375 v -6.60547 h 1.79297 c 1.91406,0 3.12891,0.0859 3.64844,0.2461 0.91406,0.30468 1.53516,1.35156 1.85547,3.14062 0.10156,0.48047 0.25,0.71094 0.46484,0.71094 0.16406,0 0.2461,-0.16016 0.2461,-0.45703 0,-0.15235 -0.0156,-0.29688 -0.0391,-0.41407 -0.13672,-1.73828 -0.23437,-2.78515 -0.28515,-3.13281 l -0.0274,-0.51562 v -0.2461 h -12.0664 c -0.3086,0 -0.46485,0.0937 -0.46485,0.27344 0,0.16797 0.14844,0.25391 0.42578,0.25391 0.65625,0 1.06641,0.0312 1.23438,0.0859 0.16406,0.0586 0.25,0.57813 0.25,1.54297 v 12.13282 c 0,0.66015 -0.0625,1.03906 -0.19141,1.14843 -0.1289,0.10157 -0.57422,0.16016 -1.33203,0.16016 -0.28125,0 -0.41406,0.10937 -0.41406,0.31641 0,0.1914 0.23828,0.28515 0.74609,0.28515 l 6.73047,-0.10937 5.89063,0.10937 c -0.0742,-0.2539 -0.10547,-0.49219 -0.10547,-0.71875 v -2.03515 c 0,-0.21094 0.0117,-0.46485 0.0508,-0.73438 0.0391,-0.28516 0.0547,-0.4375 0.0547,-0.45703"
       id="path84"
       inkscape:connector-curvature="0" />
    <path
       style="fill:#545151;fill-opacity:1;fill-rule:nonzero;stroke:none"
       d="m 420.98437,344.80469 c 0,-0.125 -0.10156,-0.20313 -0.3125,-0.21875 -0.22265,-0.0234 -0.96484,-0.0274 -2.26953,-0.0274 -1.36718,0 -2.14843,0.004 -2.37109,0.0352 -0.23438,0.0234 -0.33984,0.0781 -0.33984,0.19531 0,0.17578 0.22265,0.26172 0.67187,0.26172 h 0.95703 c 0.32422,0 0.51172,0.043 0.5586,0.14453 0.0508,0.0937 0.0703,0.4375 0.0703,1.02735 v 9.80468 l -8.33203,-11.46875 h -4.48438 c -0.30078,0 -0.45703,0.0703 -0.45703,0.23047 0,0.1875 0.29688,0.29688 0.88281,0.29688 0.83203,0 1.37891,0.23437 1.66016,0.70703 0.21875,0.36328 0.31641,1.42578 0.31641,3.19922 v 9.78125 c 0,0.58593 -0.0156,0.92968 -0.0312,1.02734 -0.0274,0.16406 -0.32813,0.26563 -0.88672,0.32031 l -0.46094,0.0352 h -0.31641 c -0.44531,0 -0.66015,0.0703 -0.66015,0.23047 0,0.17578 0.17968,0.26172 0.55078,0.26172 0.52734,0 1.0039,-0.0156 1.44531,-0.0703 0.24609,-0.0234 0.47656,-0.0312 0.71875,-0.0312 0.28125,0 0.58984,0.008 0.94922,0.0312 0.67969,0.0547 1.06641,0.0703 1.16406,0.0703 0.51172,0 0.78125,-0.0859 0.78125,-0.26172 0,-0.16016 -0.14453,-0.23047 -0.43359,-0.23047 h -0.13281 c -0.66407,0 -1.11719,-0.0312 -1.35938,-0.0742 -0.25,-0.0508 -0.37891,-0.50781 -0.37891,-1.38281 v -11.19141 c 3.08985,4.30078 5.21875,7.23438 6.39844,8.79297 0.21485,0.29297 0.34375,0.46484 0.37891,0.53125 0.35156,0.44531 0.61328,0.80859 0.78125,1.07031 1.41406,1.97657 2.2539,2.94922 2.5039,2.94922 0.19922,0 0.29297,-0.0664 0.32032,-0.20312 0.0234,-0.14453 0.0273,-0.64063 0.0273,-1.49219 v -13 c 0,-0.54297 0.0273,-0.86719 0.0625,-0.96094 0.0273,-0.10156 0.16016,-0.14453 0.375,-0.14453 h 0.875 c 0.51953,0 0.77734,-0.0781 0.77734,-0.24609"
       id="path86"
       inkscape:connector-curvature="0" />
    <path
       style="fill:#545151;fill-opacity:1;fill-rule:nonzero;stroke:none"
       d="m 437.44141,348.83594 c 0,-0.0625 -0.0117,-0.20313 -0.0274,-0.41016 l -0.0625,-0.625 -0.11328,-1.44141 -0.11719,-1.25 -0.0234,-0.72656 c -0.32032,0.0742 -0.5586,0.11719 -0.75,0.11719 -2.22657,0.0352 -3.71875,0.0586 -4.44141,0.0586 h -8.23438 c -0.21484,1.97657 -0.3164,3.29297 -0.3164,3.95703 0,0.53125 0.10156,0.8086 0.3164,0.8086 0.23438,0 0.38672,-0.27735 0.46094,-0.8086 0.1875,-1.47265 0.55078,-2.40234 1.1211,-2.79687 0.53906,-0.39844 1.73828,-0.58203 3.58203,-0.56641 v 12.69922 c 0,0.9961 -0.0156,1.58985 -0.0391,1.77735 -0.0234,0.20703 -0.125,0.33593 -0.3125,0.3789 -0.0976,0.0547 -0.28515,0.0742 -0.5664,0.0742 -0.78125,0.0273 -1.17188,0.11719 -1.17188,0.28906 0,0.16016 0.23828,0.24219 0.70313,0.24219 h 5.76172 c 0.40625,0 0.60156,-0.082 0.60156,-0.24219 0,-0.17187 -0.34375,-0.26172 -1.03125,-0.28906 -0.67578,-0.0195 -1.01953,-0.25391 -1.01953,-0.69922 v -14.1875 c 0.49609,-0.0273 0.85547,-0.043 1.08984,-0.043 1.60938,0 2.625,0.40625 3.08203,1.23828 0.32813,0.58594 0.52344,1.34766 0.59766,2.28125 0.0234,0.42969 0.18359,0.65235 0.48828,0.65235 0.29297,0 0.42188,-0.16406 0.42188,-0.48828"
       id="path88"
       inkscape:connector-curvature="0" />
    <path
       style="fill:#545151;fill-opacity:1;fill-rule:nonzero;stroke:none"
       d="m 445.80078,354.89062 -2.26953,-6.02343 c -0.55859,1.41797 -1.35156,3.42187 -2.36328,6.02343 z m 7.17188,5.54688 c 0,0.14062 -0.23438,0.21094 -0.69532,0.21094 h -6.95703 c -0.42969,0 -0.64062,-0.0937 -0.64062,-0.27735 0,-0.1875 0.42578,-0.28906 1.27734,-0.32031 1.00781,-0.0195 1.51172,-0.13672 1.51172,-0.34766 0,-0.0508 -0.0781,-0.27343 -0.21484,-0.66015 -0.0586,-0.19531 -0.31641,-0.98047 -0.8125,-2.35547 l -0.42188,-1.19141 h -5.04297 c -0.97265,2.41797 -1.45312,3.82813 -1.45312,4.19141 0,0.21875 0.15625,0.33594 0.42187,0.35156 l 0.46485,0.043 h 0.52734 l 0.33203,0.10156 c 0.26953,0 0.42188,0.082 0.42188,0.21875 0,0.16016 -0.25,0.2461 -0.75391,0.2461 -0.0586,0 -0.48828,-0.0156 -1.25,-0.0586 -0.76563,-0.0273 -1.44531,-0.043 -2.02734,-0.043 h -0.32813 l -0.30859,0.043 -0.39453,0.0586 h -0.0664 c -0.37891,0 -0.5625,-0.0703 -0.5625,-0.21094 0,-0.16797 0.14844,-0.26172 0.45312,-0.28125 0.4375,-0.0312 0.70313,-0.0469 0.85938,-0.0742 0.38672,-0.0742 0.66016,-0.17578 0.76562,-0.32031 0.14844,-0.0742 0.73047,-1.41016 1.73438,-4.03516 0.38672,-1.05469 0.77344,-2.05469 1.16406,-2.96484 0.13281,-0.33985 0.23047,-0.58203 0.29297,-0.7461 0.0391,-0.16015 0.13281,-0.40625 0.26953,-0.74218 0.40625,-0.96094 0.96875,-2.4375 1.6875,-4.38282 l 0.54297,-1.48046 0.22656,-0.64454 c 0.16016,-0.34375 0.29297,-0.52734 0.42969,-0.52734 0.0781,0 0.23047,0.32422 0.46484,0.98828 0.69922,1.72266 2.51954,6.25781 5.46485,13.6211 0.29297,0.72656 0.5625,1.11718 0.8125,1.16015 0.082,0.0234 0.44922,0.0586 1.125,0.11328 0.44531,0.0274 0.67969,0.1211 0.67969,0.31641"
       id="path90"
       inkscape:connector-curvature="0" />
    <path
       style="fill:#545151;fill-opacity:1;fill-rule:nonzero;stroke:none"
       d="m 467.64844,357.4375 c 0,-1.03906 -0.15625,-1.55859 -0.44922,-1.55859 -0.21485,0 -0.35156,0.28515 -0.40625,0.84375 -0.13672,1.30468 -0.46485,2.14453 -0.97266,2.55078 -0.64062,0.49609 -2.20703,0.73437 -4.74609,0.73437 -0.42578,0 -1.10547,-0.004 -2.03516,-0.0351 v -13.11329 c 0,-0.8789 0.0391,-1.38671 0.0937,-1.53125 0.082,-0.13281 0.31641,-0.21875 0.6836,-0.24218 0.76953,-0.0274 1.16015,-0.10938 1.16015,-0.23047 0,-0.19531 -0.21484,-0.29688 -0.67969,-0.29688 h -5.69921 c -0.30469,0 -0.46485,0.0859 -0.46485,0.2461 0,0.1875 0.14063,0.28125 0.39453,0.28125 0.0937,0.0234 0.29688,0.0391 0.61719,0.0391 0.32031,0 0.52344,0.0195 0.61719,0.0703 0.21484,0.0664 0.3164,0.76563 0.3164,2.07813 v 11.85547 c 0,0.42968 -0.0234,0.67578 -0.082,0.77734 -0.0586,0.0977 -0.22265,0.15625 -0.48437,0.17578 -0.91406,0.0664 -1.37891,0.16016 -1.37891,0.29688 0,0.15234 0.16016,0.23437 0.46485,0.23437 h 2.8789 l 6.04297,0.0781 h 1.66016 c 0.54687,0 0.97265,0.008 1.32031,0.043 0.34766,0.0312 0.52734,0.0508 0.54297,0.0508 0.21484,0 0.38672,-0.008 0.52734,-0.0274 0.0547,-0.90234 0.0781,-2 0.0781,-3.32031"
       id="path92"
       inkscape:connector-curvature="0" />
    <path
       style="fill:#545151;fill-opacity:1;fill-rule:nonzero;stroke:none"
       d="m 491.15625,352.46484 c 0,-4.86718 -1.98047,-7.3125 -5.91406,-7.3125 -1.19922,0 -1.83985,0.0742 -1.97657,0.19532 -0.13671,0.14062 -0.1914,0.5625 -0.1914,1.28906 v 12.46094 c 0,0.41796 0.0976,0.67968 0.28515,0.78125 0.19532,0.0859 0.71875,0.1289 1.53125,0.1289 4.16797,0 6.26563,-2.51172 6.26563,-7.54297 m 3.36719,0.125 c 0,2.75391 -1.04297,4.88282 -3.15235,6.39453 -1.53515,1.08204 -3.5,1.62891 -5.89843,1.62891 h -6.85938 c -0.39844,0 -0.60156,-0.10937 -0.60156,-0.34375 0,-0.1875 0.16015,-0.27344 0.42578,-0.26172 h 0.81641 c 0.46484,0.0234 0.73828,-0.10156 0.77734,-0.38281 0.0586,-0.0898 0.0742,-0.49609 0.0742,-1.23047 v -11.27344 c 0,-1.13281 -0.0156,-1.72265 -0.0742,-1.79297 -0.11719,-0.13281 -0.52344,-0.21875 -1.24219,-0.24218 -0.41406,0 -0.61719,-0.0859 -0.61719,-0.25391 0,-0.17969 0.20313,-0.27344 0.61719,-0.27344 h 3.95313 c 3.08203,0 5.28125,0.1875 6.5664,0.56641 1.55469,0.44922 2.81641,1.35547 3.78516,2.74609 0.96484,1.375 1.42969,2.94922 1.42969,4.71875"
       id="path94"
       inkscape:connector-curvature="0" />
    <path
       style="fill:#545151;fill-opacity:1;fill-rule:nonzero;stroke:none"
       d="m 509.66016,356.8125 c 0,-0.64063 -0.11329,-0.96094 -0.34766,-0.96094 -0.23047,0 -0.36719,0.17578 -0.38672,0.52344 -0.15625,2.00391 -0.70703,3.13281 -1.64844,3.39453 -0.59765,0.16797 -2.63672,0.25391 -6.07422,0.26953 v -7.61719 h 0.86329 c 1.50781,0 2.41796,0.12891 2.75,0.3711 0.32812,0.2539 0.5664,1.00781 0.69921,2.27344 0.0742,0.59765 0.21094,0.88671 0.42188,0.88671 0.23047,0 0.34766,-0.1875 0.34766,-0.5664 0,-0.11719 -0.0156,-0.26953 -0.0312,-0.44922 -0.0391,-0.56641 -0.082,-1.61328 -0.082,-3.14063 0,-0.3125 0.0195,-0.75781 0.0547,-1.33984 0.043,-0.60156 0.0586,-1.03125 0.0586,-1.30859 0,-0.47657 -0.11719,-0.71094 -0.34766,-0.71094 -0.21094,0 -0.34766,0.33594 -0.42188,0.98828 -0.1289,1.10547 -0.37109,1.78906 -0.69921,2.02734 -0.35938,0.25782 -1.28125,0.37891 -2.77344,0.37891 h -0.83985 v -6.60547 h 1.79297 c 1.91797,0 3.13282,0.0859 3.64453,0.2461 0.91797,0.30468 1.53907,1.35156 1.85938,3.14062 0.10547,0.48047 0.25391,0.71094 0.46484,0.71094 0.17188,0 0.25391,-0.16016 0.25391,-0.45703 0,-0.15235 -0.0234,-0.29688 -0.0391,-0.41407 -0.13672,-1.73828 -0.23438,-2.78515 -0.27735,-3.13281 l -0.0351,-0.51562 v -0.2461 h -12.07032 c -0.3125,0 -0.46875,0.0937 -0.46875,0.27344 0,0.16797 0.15625,0.25391 0.42579,0.25391 0.66406,0 1.08593,0.0312 1.24218,0.0859 0.15235,0.0586 0.23828,0.57813 0.23828,1.54297 v 12.13282 c 0,0.66015 -0.0469,1.03906 -0.17968,1.14843 -0.13672,0.10157 -0.58203,0.16016 -1.33594,0.16016 -0.27344,0 -0.40625,0.10937 -0.40625,0.31641 0,0.1914 0.23047,0.28515 0.73437,0.28515 l 6.73829,-0.10937 5.875,0.10937 c -0.0586,-0.2539 -0.0937,-0.49219 -0.0937,-0.71875 v -2.03515 c 0,-0.21094 0.0195,-0.46485 0.0586,-0.73438 0.0195,-0.28516 0.0352,-0.4375 0.0352,-0.45703"
       id="path96"
       inkscape:connector-curvature="0" />
    <path
       style="fill:#545151;fill-opacity:1;fill-rule:nonzero;stroke:none"
       d="m 525.93359,357.4375 c 0,-1.03906 -0.14453,-1.55859 -0.45703,-1.55859 -0.21094,0 -0.34765,0.28515 -0.38672,0.84375 -0.14062,1.30468 -0.46484,2.14453 -0.98828,2.55078 -0.6289,0.49609 -2.21094,0.73437 -4.72656,0.73437 -0.42578,0 -1.10547,-0.004 -2.03516,-0.0351 v -13.11329 c 0,-0.8789 0.0195,-1.38671 0.0937,-1.53125 0.0781,-0.13281 0.28907,-0.21875 0.66797,-0.24218 0.78516,-0.0274 1.17578,-0.10938 1.17578,-0.23047 0,-0.19531 -0.23437,-0.29688 -0.67968,-0.29688 h -5.69532 c -0.33203,0 -0.48828,0.0859 -0.48828,0.2461 0,0.1875 0.13281,0.28125 0.39844,0.28125 0.10547,0.0234 0.30469,0.0391 0.62109,0.0391 0.32032,0 0.51172,0.0195 0.60938,0.0703 0.21094,0.0664 0.33203,0.76563 0.33203,2.07813 v 11.85547 c 0,0.42968 -0.0391,0.67578 -0.0977,0.77734 -0.0586,0.0977 -0.21484,0.15625 -0.46484,0.17578 -0.93359,0.0664 -1.39844,0.16016 -1.39844,0.29688 0,0.15234 0.15625,0.23437 0.46485,0.23437 h 2.89062 l 6.03516,0.0781 h 1.66015 c 0.53907,0 0.98828,0.008 1.33594,0.043 0.32813,0.0312 0.52344,0.0508 0.53125,0.0508 0.21094,0 0.39844,-0.008 0.53125,-0.0274 0.0547,-0.90234 0.0703,-2 0.0703,-3.32031"
       id="path98"
       inkscape:connector-curvature="0" />
    <path
       style="fill:#545151;fill-opacity:1;fill-rule:nonzero;stroke:none"
       d="m 558.79687,336.44531 c 0,-0.21875 -0.28515,-0.32031 -0.82421,-0.32031 h -5.64063 c -0.33203,0 -0.49219,0.10156 -0.49219,0.32031 0,0.2461 0.23047,0.37891 0.69532,0.37891 0.80468,0 1.28906,0.0273 1.45312,0.0742 0.49609,0.11328 0.73828,0.42968 0.73828,0.94922 v 8.39453 c 0,4.54297 -0.0312,7.125 -0.0976,7.71875 -0.47657,4.0664 -2.50391,6.07812 -6.06641,6.07812 -1.95703,0 -3.42969,-0.55469 -4.41797,-1.67187 -0.99219,-1.13282 -1.47656,-3.24219 -1.47656,-6.33594 v -12.60547 c 0,-1.23437 0,-1.90234 0.0234,-2.00781 0.0312,-0.23047 0.16406,-0.39063 0.39843,-0.47656 0.10938,-0.0508 0.33594,-0.082 0.66797,-0.082 0.79297,-0.0195 1.26563,-0.0469 1.41016,-0.0625 0.14062,-0.0234 0.21484,-0.11718 0.21484,-0.28515 0,-0.26172 -0.20312,-0.38672 -0.60156,-0.38672 h -7.94141 c -0.33203,0 -0.49609,0.10156 -0.49609,0.32031 0,0.1836 0.19922,0.3086 0.60937,0.35156 0.73829,0 1.1836,0.004 1.32032,0.0352 0.5,0.0859 0.79297,0.34766 0.86328,0.77734 v 14.14454 c 0,2.96484 0.45312,5.10156 1.38281,6.38671 1.375,1.92579 3.77734,2.88672 7.19141,2.88672 2.84765,0 4.89843,-0.76953 6.17968,-2.33203 1.29297,-1.5664 1.92969,-4.0625 1.92969,-7.49609 v -13.20313 c 0,-0.38281 0.0312,-0.64843 0.0703,-0.8164 0.11719,-0.29688 0.48047,-0.45703 1.0625,-0.45703 h 1.19532 c 0.43359,0 0.64843,-0.0937 0.64843,-0.27735"
       id="path100"
       inkscape:connector-curvature="0" />
    <path
       style="fill:#545151;fill-opacity:1;fill-rule:nonzero;stroke:none"
       d="m 568.41797,348.3125 c 0,-2.09766 -1.04688,-3.16016 -3.10938,-3.16016 -0.54297,0 -0.87109,0.0508 -0.98828,0.16016 -0.13672,0.10156 -0.20312,0.35547 -0.20312,0.75781 v 5.75391 c 2.85547,0 4.30078,-1.16016 4.30078,-3.51172 m 5.57031,11.42187 c 0,0.75391 -0.65625,1.11719 -1.96484,1.11719 -1.27344,0 -2.29688,-0.48047 -3.08985,-1.43359 -0.35156,-0.41016 -0.58984,-0.83985 -0.69922,-1.25391 -0.11718,-0.42969 -0.26953,-1.42578 -0.42578,-2.98828 -0.11718,-1.01953 -0.44922,-1.72266 -0.96875,-2.11719 -0.51562,-0.40625 -1.4375,-0.62109 -2.72265,-0.66797 v 7.26954 c -0.0664,0.33593 0.51172,0.49609 1.77343,0.49609 0.25391,0 0.37891,0.0781 0.37891,0.24609 0,0.16016 -0.16797,0.2461 -0.49609,0.2461 h -5.67969 c -0.65625,0 -0.98828,-0.0703 -0.98828,-0.23047 0,-0.17578 0.11719,-0.26172 0.34765,-0.26172 h 0.49219 c 0.80469,0 1.20313,-0.16016 1.20313,-0.49609 v -13.94141 c 0,-0.25 -0.0664,-0.42969 -0.19532,-0.51563 -0.12109,-0.0781 -0.46484,-0.11718 -1.01953,-0.11718 -0.54687,0 -0.82812,-0.0937 -0.82812,-0.28125 0,-0.16016 0.17187,-0.2461 0.48437,-0.2461 h 6.67969 c 1.57031,0 2.83594,0.32032 3.78906,0.96485 0.94922,0.64062 1.4336,1.48828 1.4336,2.55078 0,1.14453 -0.50782,2.07812 -1.51172,2.79297 -1.00781,0.71093 -2.44531,1.13281 -4.27735,1.25 1.96485,0.20312 3.33204,0.72656 4.08204,1.53906 0.73437,0.82031 1.19921,2.29687 1.43359,4.43359 0.13672,1.44532 0.5625,2.17578 1.30078,2.17578 0.11719,0 0.17188,-0.0391 0.17188,-0.10937 0,-0.0156 -0.0391,-0.0937 -0.0977,-0.21875 -0.0586,-0.13281 -0.0742,-0.22656 -0.0742,-0.29297 0,-0.42969 0.23047,-0.65234 0.69922,-0.65234 0.51953,0 0.76953,0.2539 0.76953,0.74218"
       id="path102"
       inkscape:connector-curvature="0" />
    <path
       style="fill:#545151;fill-opacity:1;fill-rule:nonzero;stroke:none"
       d="m 591.77344,344.83203 c 0,-0.17969 -0.1836,-0.27344 -0.55469,-0.27344 h -3.99219 c -0.28125,0 -0.42578,0.0859 -0.42578,0.2461 0,0.20312 0.27344,0.3125 0.80859,0.3125 0.53907,0 0.8711,0.0351 0.99219,0.10937 0.11719,0.0625 0.17578,0.26172 0.17578,0.5586 v 8.49609 c 0,1.67187 -0.16406,2.87109 -0.5,3.625 -0.66406,1.49219 -1.88672,2.25 -3.69531,2.25 -1.30469,0 -2.27734,-0.38672 -2.93359,-1.16406 -0.58203,-0.67578 -0.8711,-2.16797 -0.8711,-4.46485 v -8.45703 c 0,-0.4375 0.0156,-0.71484 0.0547,-0.78515 0.0586,-0.0899 0.20703,-0.13282 0.46484,-0.13282 0.875,0.0312 1.3086,-0.0703 1.3086,-0.32031 0,-0.17969 -0.22266,-0.27344 -0.63281,-0.27344 h -5.58204 c -0.32421,0 -0.49218,0.0859 -0.49218,0.2461 0,0.1875 0.24218,0.28125 0.74609,0.28125 0.61328,0 0.94922,0.0586 1.03516,0.17578 0.0898,0.11719 0.1289,0.80859 0.1289,2.08594 v 7.42187 c 0,2.35156 0.52344,3.92969 1.57813,4.76172 1.15625,0.88672 2.70312,1.32031 4.62109,1.32031 2.32813,0 3.95313,-0.73047 4.86719,-2.19531 0.40625,-0.66016 0.65234,-1.32031 0.74609,-1.97656 0.0859,-0.65235 0.14453,-2.1211 0.14453,-4.39063 v -6.5039 c 0,-0.46485 0.1875,-0.69922 0.5625,-0.69922 h 0.89063 c 0.37109,0 0.55469,-0.0859 0.55469,-0.25391"
       id="path104"
       inkscape:connector-curvature="0" />
    <path
       style="fill:#545151;fill-opacity:1;fill-rule:nonzero;stroke:none"
       d="m 610.58203,355.73437 c 0,-0.21093 -0.19141,-0.30468 -0.60156,-0.30468 h -5.67969 c -0.55859,0 -0.85156,0.0937 -0.85156,0.28906 0,0.15625 0.0977,0.23437 0.29297,0.23437 h 0.55859 c 0.77734,0 1.22266,0.0586 1.31641,0.16016 0.10937,0.10156 0.16406,0.57422 0.16406,1.41797 0,0.67578 -0.0547,1.16797 -0.17969,1.47656 -0.33203,0.87891 -1.20312,1.32031 -2.59765,1.32031 -1.5625,0 -2.79297,-0.68359 -3.70313,-2.03515 -0.90234,-1.3711 -1.35547,-3.22656 -1.35547,-5.56641 0,-2.4375 0.44531,-4.35937 1.33594,-5.76953 0.91406,-1.41016 2.14453,-2.125 3.72266,-2.125 1.29296,0 2.34375,0.45703 3.15625,1.36719 0.79687,0.90234 1.24218,2.12109 1.28125,3.64844 0,0.27734 0.11718,0.42187 0.32031,0.42187 0.28125,0 0.41797,-0.26953 0.41797,-0.8125 0,-2.01172 0.043,-3.375 0.11718,-4.04687 0.0391,-0.46094 0.0664,-0.64844 0.0664,-0.60547 0,-0.1875 -0.10547,-0.27735 -0.28125,-0.27735 -0.19141,0 -0.35547,0.20313 -0.49219,0.625 -0.0703,0.31641 -0.20703,0.46094 -0.40234,0.46094 -0.0859,0 -0.19141,-0.0312 -0.30469,-0.10937 -1.45703,-0.79688 -2.83203,-1.19532 -4.09375,-1.19532 -2.44922,0 -4.41797,0.77735 -5.90625,2.34766 -1.49609,1.5625 -2.25,3.60547 -2.25,6.13672 0,2.44922 0.77344,4.39453 2.29297,5.87109 1.53125,1.46094 3.59375,2.1875 6.17578,2.1875 2.03516,0 3.81641,-0.625 5.3711,-1.89844 v -1.41406 c 0,-0.65625 0.0117,-1.07812 0.0859,-1.26562 0.0547,-0.1875 0.14453,-0.29297 0.25782,-0.32032 h 1.12109 c 0.42969,-0.0234 0.64453,-0.0859 0.64453,-0.21875"
       id="path106"
       inkscape:connector-curvature="0" />
    <path
       style="fill:#545151;fill-opacity:1;fill-rule:nonzero;stroke:none"
       d="m 628.04687,344.83203 c 0,-0.17969 -0.17578,-0.27344 -0.5664,-0.27344 h -3.99219 c -0.26953,0 -0.41406,0.0859 -0.41406,0.2461 0,0.20312 0.26172,0.3125 0.8164,0.3125 0.52735,0 0.85938,0.0351 0.97657,0.10937 0.11718,0.0625 0.1914,0.26172 0.1914,0.5586 v 8.49609 c 0,1.67187 -0.17187,2.87109 -0.5,3.625 -0.66015,1.49219 -1.90234,2.25 -3.70312,2.25 -1.29688,0 -2.28125,-0.38672 -2.92578,-1.16406 -0.58985,-0.67578 -0.89844,-2.16797 -0.89844,-4.46485 v -8.45703 c 0,-0.4375 0.0273,-0.71484 0.0859,-0.78515 0.0312,-0.0899 0.1914,-0.13282 0.46093,-0.13282 0.85547,0.0312 1.29688,-0.0703 1.29688,-0.32031 0,-0.17969 -0.21484,-0.27344 -0.64063,-0.27344 h -5.57031 c -0.33984,0 -0.49219,0.0859 -0.49219,0.2461 0,0.1875 0.25391,0.28125 0.73438,0.28125 0.62109,0 0.95703,0.0586 1.04687,0.17578 0.0781,0.11719 0.125,0.80859 0.125,2.08594 v 7.42187 c 0,2.35156 0.53516,3.92969 1.57813,4.76172 1.15625,0.88672 2.69531,1.32031 4.63281,1.32031 2.32813,0 3.94922,-0.73047 4.86719,-2.19531 0.39844,-0.66016 0.64844,-1.32031 0.74219,-1.97656 0.0898,-0.65235 0.1289,-2.1211 0.1289,-4.39063 v -6.5039 c 0,-0.46485 0.19532,-0.69922 0.57422,-0.69922 h 0.87891 c 0.39062,0 0.5664,-0.0859 0.5664,-0.25391"
       id="path108"
       inkscape:connector-curvature="0" />
    <path
       style="fill:#545151;fill-opacity:1;fill-rule:nonzero;stroke:none"
       d="m 637.11328,354.89062 -2.26562,-6.02343 c -0.58204,1.41797 -1.35938,3.42187 -2.36719,6.02343 z m 7.17578,5.54688 c 0,0.14062 -0.24609,0.21094 -0.71094,0.21094 h -6.95703 c -0.41797,0 -0.63281,-0.0937 -0.63281,-0.27735 0,-0.1875 0.41797,-0.28906 1.26563,-0.32031 1.01171,-0.0195 1.52343,-0.13672 1.52343,-0.34766 0,-0.0508 -0.0742,-0.27343 -0.21093,-0.66015 -0.0547,-0.19531 -0.31641,-0.98047 -0.82032,-2.35547 l -0.41797,-1.19141 h -5.03515 c -0.97656,2.41797 -1.45703,3.82813 -1.45703,4.19141 0,0.21875 0.13281,0.33594 0.42578,0.35156 l 0.45703,0.043 H 632.25 l 0.30859,0.10156 c 0.29297,0 0.42969,0.082 0.42969,0.21875 0,0.16016 -0.25391,0.2461 -0.73828,0.2461 -0.0742,0 -0.48438,-0.0156 -1.26172,-0.0586 -0.75391,-0.0273 -1.42969,-0.043 -2.02344,-0.043 h -0.32031 l -0.30859,0.043 -0.39063,0.0586 h -0.0742 c -0.37109,0 -0.5625,-0.0703 -0.5625,-0.21094 0,-0.16797 0.15625,-0.26172 0.45313,-0.28125 0.43359,-0.0312 0.71094,-0.0469 0.84375,-0.0742 0.40625,-0.0742 0.66015,-0.17578 0.78125,-0.32031 0.14062,-0.0742 0.71094,-1.41016 1.74219,-4.03516 0.38281,-1.05469 0.77343,-2.05469 1.16406,-2.96484 0.13281,-0.33985 0.23047,-0.58203 0.26562,-0.7461 0.0586,-0.16015 0.15625,-0.40625 0.29297,-0.74218 0.39844,-0.96094 0.95703,-2.4375 1.6875,-4.38282 l 0.54297,-1.48046 0.23047,-0.64454 c 0.15234,-0.34375 0.28906,-0.52734 0.42578,-0.52734 0.0781,0 0.22266,0.32422 0.46484,0.98828 0.69922,1.72266 2.53125,6.25781 5.46875,13.6211 0.28125,0.72656 0.53907,1.11718 0.8086,1.16015 0.0625,0.0234 0.44922,0.0586 1.125,0.11328 0.44922,0.0274 0.68359,0.1211 0.68359,0.31641"
       id="path110"
       inkscape:connector-curvature="0" />
    <path
       style="fill:#545151;fill-opacity:1;fill-rule:nonzero;stroke:none"
       d="m 658.95703,344.80469 c 0,-0.26172 -0.89062,-0.35547 -2.65234,-0.27735 h -2.21094 c -0.40625,0 -0.60547,0.0742 -0.60547,0.23828 0,0.1836 0.19922,0.28516 0.60547,0.28516 h 0.94922 c 0.39453,0.0312 0.59765,0.13281 0.59765,0.32031 0,0.24219 -1.19921,2.58594 -3.60546,7.05078 -2.5,-4.22656 -3.73829,-6.54296 -3.73829,-6.91796 0,-0.30079 0.48438,-0.45313 1.41407,-0.45313 0.60156,0 0.91406,-0.0781 0.91406,-0.24609 0,-0.1875 -0.17578,-0.27735 -0.52344,-0.27735 h -6.78515 c -0.30079,0 -0.45704,0.0899 -0.45704,0.27735 0,0.16797 0.15625,0.24609 0.45704,0.24609 0.96875,0.0312 1.57031,0.15234 1.77343,0.38672 0.28125,0.49219 0.53125,0.95312 0.73438,1.34375 0.22265,0.39844 0.49609,0.92969 0.85937,1.58984 l 2.42578,4.30469 c 0.28125,0.54297 0.4961,0.95313 0.64454,1.22656 v 4.70313 c 0,0.70703 -0.0625,1.10547 -0.15625,1.23047 -0.1211,0.11328 -0.51563,0.1875 -1.20313,0.20312 -0.69531,0.0274 -1.04297,0.13672 -1.04297,0.33203 0,0.16016 0.15235,0.24219 0.46094,0.24219 h 6.5625 c 0.33203,0 0.49219,-0.082 0.49219,-0.24219 0,-0.17187 -0.21485,-0.26172 -0.64063,-0.28906 -0.83203,-0.0508 -1.29297,-0.10937 -1.4414,-0.19531 -0.14454,-0.082 -0.21485,-0.35156 -0.21485,-0.82422 v -4.37891 c 0,-0.66406 0.0195,-1.09765 0.0703,-1.30468 0.0469,-0.20704 0.22266,-0.58204 0.53125,-1.08985 0.72657,-1.25 1.46485,-2.61328 2.17969,-4.09375 0.82422,-1.64844 1.35938,-2.5625 1.57031,-2.75781 0.23047,-0.18359 0.75782,-0.3125 1.56641,-0.38672 0.31641,-0.0234 0.46875,-0.10937 0.46875,-0.24609"
       id="path112"
       inkscape:connector-curvature="0" />
  </g>
</svg>
