<?xml version="1.0" encoding="UTF-8" standalone="no"?>
<!-- Generator: Adobe Illustrator 13.0.1, SVG Export Plug-In . SVG Version: 6.00 Build 14948)  -->

<svg
   xmlns:dc="http://purl.org/dc/elements/1.1/"
   xmlns:cc="http://creativecommons.org/ns#"
   xmlns:rdf="http://www.w3.org/1999/02/22-rdf-syntax-ns#"
   xmlns:svg="http://www.w3.org/2000/svg"
   xmlns="http://www.w3.org/2000/svg"
   xmlns:sodipodi="http://sodipodi.sourceforge.net/DTD/sodipodi-0.dtd"
   xmlns:inkscape="http://www.inkscape.org/namespaces/inkscape"
   version="1.1"
   id="isologotipo_Variación_Vertical"
   x="0px"
   y="0px"
   width="174.5"
   height="257.79199"
   viewBox="0 0 174.5 257.79199"
   enable-background="new 0 0 802.71 551.646"
   xml:space="preserve"
   inkscape:version="0.91 r13725"
   sodipodi:docname="logo_CSIC.svg"><metadata
     id="metadata559"><rdf:RDF><cc:Work
         rdf:about=""><dc:format>image/svg+xml</dc:format><dc:type
           rdf:resource="http://purl.org/dc/dcmitype/StillImage" /><dc:title></dc:title></cc:Work></rdf:RDF></metadata><defs
     id="defs557" /><sodipodi:namedview
     pagecolor="#ffffff"
     bordercolor="#666666"
     borderopacity="1"
     objecttolerance="10"
     gridtolerance="10"
     guidetolerance="10"
     inkscape:pageopacity="0"
     inkscape:pageshadow="2"
     inkscape:window-width="1650"
     inkscape:window-height="878"
     id="namedview555"
     showgrid="false"
     fit-margin-top="0"
     fit-margin-left="0"
     fit-margin-right="0"
     fit-margin-bottom="0"
     inkscape:zoom="0.94613339"
     inkscape:cx="-106.23731"
     inkscape:cy="90.001002"
     inkscape:window-x="0"
     inkscape:window-y="0"
     inkscape:window-maximized="0"
     inkscape:current-layer="isologotipo_Variación_Vertical" /><g
     id="g15"
     transform="translate(-314.049,-108.032)"><g
       id="g17"><path
         d="m 366.415,301.788 0,11.84 c -5.786,-4.84 -11.78,-7.266 -17.971,-7.266 -6.819,0 -12.567,2.453 -17.237,7.354 -4.703,4.875 -7.052,10.834 -7.052,17.889 0,6.959 2.349,12.84 7.052,17.625 4.7,4.787 10.462,7.182 17.279,7.182 3.531,0 6.524,-0.578 8.988,-1.721 1.375,-0.58 2.801,-1.352 4.281,-2.32 1.47,-0.984 3.027,-2.152 4.659,-3.533 l 0,12.105 c -5.729,3.256 -11.755,4.881 -18.056,4.881 -9.485,0 -17.584,-3.311 -24.291,-9.93 -6.678,-6.68 -10.018,-14.736 -10.018,-24.16 0,-8.457 2.796,-15.996 8.386,-22.617 6.876,-8.111 15.776,-12.17 26.697,-12.17 5.961,-10e-4 11.727,1.611 17.283,4.841 z"
         id="path19"
         inkscape:connector-curvature="0"
         style="fill:#6c1f7e" /><path
         d="m 412.124,308.083 -8.122,4.818 c -1.521,-2.645 -2.969,-4.359 -4.35,-5.158 -1.43,-0.918 -3.278,-1.381 -5.539,-1.381 -2.781,0 -5.089,0.795 -6.926,2.369 -1.836,1.545 -2.754,3.502 -2.754,5.852 0,3.238 2.411,5.854 7.227,7.832 l 6.622,2.709 c 5.39,2.178 9.331,4.84 11.823,7.977 2.492,3.148 3.741,6.994 3.741,11.555 0,6.111 -2.038,11.158 -6.109,15.145 -4.099,4.014 -9.182,6.023 -15.263,6.023 -5.756,0 -10.518,-1.717 -14.271,-5.137 -3.693,-3.432 -6.002,-8.234 -6.925,-14.422 l 10.151,-2.24 c 0.461,3.895 1.253,6.596 2.403,8.086 2.066,2.869 5.078,4.301 9.034,4.301 3.12,0 5.715,-1.047 7.779,-3.139 2.062,-2.092 3.094,-4.74 3.094,-7.947 0,-1.291 -0.178,-2.475 -0.538,-3.545 -0.354,-1.072 -0.914,-2.062 -1.675,-2.967 -0.76,-0.904 -1.742,-1.744 -2.945,-2.531 -1.203,-0.785 -2.634,-1.541 -4.3,-2.256 l -6.407,-2.664 c -9.084,-3.84 -13.626,-9.455 -13.626,-16.844 0,-4.982 1.907,-9.152 5.718,-12.5 3.81,-3.381 8.553,-5.072 14.23,-5.072 7.652,-10e-4 13.626,3.708 17.928,11.136 z"
         id="path21"
         inkscape:connector-curvature="0"
         style="fill:#6c1f7e" /><path
         d="m 430.632,298.239 0,66.377 -10.012,0 0,-66.377 10.012,0 z"
         id="path23"
         inkscape:connector-curvature="0"
         style="fill:#6c1f7e" /><path
         d="m 488.216,301.788 0,11.84 c -5.797,-4.84 -11.781,-7.266 -17.973,-7.266 -6.829,0 -12.569,2.453 -17.244,7.354 -4.699,4.875 -7.045,10.834 -7.045,17.889 0,6.959 2.346,12.84 7.045,17.625 4.703,4.787 10.465,7.182 17.292,7.182 3.519,0 6.515,-0.578 8.976,-1.721 1.377,-0.58 2.805,-1.352 4.284,-2.32 1.471,-0.984 3.028,-2.152 4.665,-3.533 l 0,12.105 c -5.735,3.256 -11.754,4.881 -18.061,4.881 -9.486,0 -17.584,-3.311 -24.292,-9.93 -6.677,-6.68 -10.017,-14.736 -10.017,-24.16 0,-8.457 2.797,-15.996 8.387,-22.617 6.879,-8.111 15.776,-12.17 26.697,-12.17 5.96,-10e-4 11.725,1.611 17.286,4.841 z"
         id="path25"
         inkscape:connector-curvature="0"
         style="fill:#6c1f7e" /></g><path
       d="m 488.549,190.438 -73.866,0 c -4.726,0 -8.557,-3.816 -8.557,-8.545 l 0,-39.972 c 0,-18.098 15.181,-33.889 35.25,-33.889 l 38.612,0 c 4.729,0 8.561,3.825 8.561,8.548 l 0,73.858 z"
       id="path27"
       inkscape:connector-curvature="0"
       style="fill:#97be0d" /><path
       d="m 315.049,198.808 73.864,0 c 4.725,0 8.553,3.824 8.553,8.55 l 0,39.983 c 0,18.096 -15.177,33.887 -35.246,33.887 l -38.62,0 c -4.718,0 -8.551,-3.828 -8.551,-8.547 l 0,-73.873 z"
       id="path29"
       inkscape:connector-curvature="0"
       style="fill:#97be0d" /><path
       d="m 397.466,108.033 0,73.86 c 0,4.729 -3.82,8.557 -8.549,8.557 l -39.97,0 c -18.106,0 -33.898,-15.178 -33.898,-35.246 l 0,-38.618 c 0,-4.728 3.837,-8.553 8.551,-8.553 l 73.866,0 z"
       id="path31"
       inkscape:connector-curvature="0"
       style="fill:#6c1f7e" /><path
       d="m 406.125,282.522 0,-73.865 c 0,-4.729 3.83,-8.553 8.555,-8.553 l 39.979,0 c 18.096,0 33.886,15.175 33.886,35.249 l 0,38.612 c 0,4.73 -3.825,8.557 -8.555,8.557 l -73.865,0 z"
       id="path33"
       inkscape:connector-curvature="0"
       style="fill:#6c1f7e" /></g></svg>